%TF.GenerationSoftware,KiCad,Pcbnew,8.0.4-8.0.4-0~ubuntu24.04.1*%
%TF.CreationDate,2024-08-08T02:16:28-05:00*%
%TF.ProjectId,anvil,616e7669-6c2e-46b6-9963-61645f706362,rev?*%
%TF.SameCoordinates,Original*%
%TF.FileFunction,Legend,Top*%
%TF.FilePolarity,Positive*%
%FSLAX46Y46*%
G04 Gerber Fmt 4.6, Leading zero omitted, Abs format (unit mm)*
G04 Created by KiCad (PCBNEW 8.0.4-8.0.4-0~ubuntu24.04.1) date 2024-08-08 02:16:28*
%MOMM*%
%LPD*%
G01*
G04 APERTURE LIST*
%ADD10C,0.160000*%
%ADD11C,0.120000*%
%ADD12C,0.150000*%
%ADD13C,0.200000*%
G04 APERTURE END LIST*
D10*
X142893358Y-107594299D02*
X142893358Y-106594299D01*
X142893358Y-106594299D02*
X143274310Y-106594299D01*
X143274310Y-106594299D02*
X143369548Y-106641918D01*
X143369548Y-106641918D02*
X143417167Y-106689537D01*
X143417167Y-106689537D02*
X143464786Y-106784775D01*
X143464786Y-106784775D02*
X143464786Y-106927632D01*
X143464786Y-106927632D02*
X143417167Y-107022870D01*
X143417167Y-107022870D02*
X143369548Y-107070489D01*
X143369548Y-107070489D02*
X143274310Y-107118108D01*
X143274310Y-107118108D02*
X142893358Y-107118108D01*
X143798120Y-106594299D02*
X144036215Y-107594299D01*
X144036215Y-107594299D02*
X144226691Y-106880013D01*
X144226691Y-106880013D02*
X144417167Y-107594299D01*
X144417167Y-107594299D02*
X144655263Y-106594299D01*
X145607643Y-107594299D02*
X145274310Y-107118108D01*
X145036215Y-107594299D02*
X145036215Y-106594299D01*
X145036215Y-106594299D02*
X145417167Y-106594299D01*
X145417167Y-106594299D02*
X145512405Y-106641918D01*
X145512405Y-106641918D02*
X145560024Y-106689537D01*
X145560024Y-106689537D02*
X145607643Y-106784775D01*
X145607643Y-106784775D02*
X145607643Y-106927632D01*
X145607643Y-106927632D02*
X145560024Y-107022870D01*
X145560024Y-107022870D02*
X145512405Y-107070489D01*
X145512405Y-107070489D02*
X145417167Y-107118108D01*
X145417167Y-107118108D02*
X145036215Y-107118108D01*
X115095739Y-114669299D02*
X114762406Y-114193108D01*
X114524311Y-114669299D02*
X114524311Y-113669299D01*
X114524311Y-113669299D02*
X114905263Y-113669299D01*
X114905263Y-113669299D02*
X115000501Y-113716918D01*
X115000501Y-113716918D02*
X115048120Y-113764537D01*
X115048120Y-113764537D02*
X115095739Y-113859775D01*
X115095739Y-113859775D02*
X115095739Y-114002632D01*
X115095739Y-114002632D02*
X115048120Y-114097870D01*
X115048120Y-114097870D02*
X115000501Y-114145489D01*
X115000501Y-114145489D02*
X114905263Y-114193108D01*
X114905263Y-114193108D02*
X114524311Y-114193108D01*
X115429073Y-113669299D02*
X116095739Y-114669299D01*
X116095739Y-113669299D02*
X115429073Y-114669299D01*
X114500501Y-109119299D02*
X115071929Y-109119299D01*
X114786215Y-110119299D02*
X114786215Y-109119299D01*
X115310025Y-109119299D02*
X115976691Y-110119299D01*
X115976691Y-109119299D02*
X115310025Y-110119299D01*
X139518358Y-90744299D02*
X139518358Y-89744299D01*
X139518358Y-89744299D02*
X139756453Y-89744299D01*
X139756453Y-89744299D02*
X139899310Y-89791918D01*
X139899310Y-89791918D02*
X139994548Y-89887156D01*
X139994548Y-89887156D02*
X140042167Y-89982394D01*
X140042167Y-89982394D02*
X140089786Y-90172870D01*
X140089786Y-90172870D02*
X140089786Y-90315727D01*
X140089786Y-90315727D02*
X140042167Y-90506203D01*
X140042167Y-90506203D02*
X139994548Y-90601441D01*
X139994548Y-90601441D02*
X139899310Y-90696680D01*
X139899310Y-90696680D02*
X139756453Y-90744299D01*
X139756453Y-90744299D02*
X139518358Y-90744299D01*
X140518358Y-90220489D02*
X140851691Y-90220489D01*
X140994548Y-90744299D02*
X140518358Y-90744299D01*
X140518358Y-90744299D02*
X140518358Y-89744299D01*
X140518358Y-89744299D02*
X140994548Y-89744299D01*
X141756453Y-90220489D02*
X141899310Y-90268108D01*
X141899310Y-90268108D02*
X141946929Y-90315727D01*
X141946929Y-90315727D02*
X141994548Y-90410965D01*
X141994548Y-90410965D02*
X141994548Y-90553822D01*
X141994548Y-90553822D02*
X141946929Y-90649060D01*
X141946929Y-90649060D02*
X141899310Y-90696680D01*
X141899310Y-90696680D02*
X141804072Y-90744299D01*
X141804072Y-90744299D02*
X141423120Y-90744299D01*
X141423120Y-90744299D02*
X141423120Y-89744299D01*
X141423120Y-89744299D02*
X141756453Y-89744299D01*
X141756453Y-89744299D02*
X141851691Y-89791918D01*
X141851691Y-89791918D02*
X141899310Y-89839537D01*
X141899310Y-89839537D02*
X141946929Y-89934775D01*
X141946929Y-89934775D02*
X141946929Y-90030013D01*
X141946929Y-90030013D02*
X141899310Y-90125251D01*
X141899310Y-90125251D02*
X141851691Y-90172870D01*
X141851691Y-90172870D02*
X141756453Y-90220489D01*
X141756453Y-90220489D02*
X141423120Y-90220489D01*
X142423120Y-89744299D02*
X142423120Y-90553822D01*
X142423120Y-90553822D02*
X142470739Y-90649060D01*
X142470739Y-90649060D02*
X142518358Y-90696680D01*
X142518358Y-90696680D02*
X142613596Y-90744299D01*
X142613596Y-90744299D02*
X142804072Y-90744299D01*
X142804072Y-90744299D02*
X142899310Y-90696680D01*
X142899310Y-90696680D02*
X142946929Y-90649060D01*
X142946929Y-90649060D02*
X142994548Y-90553822D01*
X142994548Y-90553822D02*
X142994548Y-89744299D01*
X143994548Y-89791918D02*
X143899310Y-89744299D01*
X143899310Y-89744299D02*
X143756453Y-89744299D01*
X143756453Y-89744299D02*
X143613596Y-89791918D01*
X143613596Y-89791918D02*
X143518358Y-89887156D01*
X143518358Y-89887156D02*
X143470739Y-89982394D01*
X143470739Y-89982394D02*
X143423120Y-90172870D01*
X143423120Y-90172870D02*
X143423120Y-90315727D01*
X143423120Y-90315727D02*
X143470739Y-90506203D01*
X143470739Y-90506203D02*
X143518358Y-90601441D01*
X143518358Y-90601441D02*
X143613596Y-90696680D01*
X143613596Y-90696680D02*
X143756453Y-90744299D01*
X143756453Y-90744299D02*
X143851691Y-90744299D01*
X143851691Y-90744299D02*
X143994548Y-90696680D01*
X143994548Y-90696680D02*
X144042167Y-90649060D01*
X144042167Y-90649060D02*
X144042167Y-90315727D01*
X144042167Y-90315727D02*
X143851691Y-90315727D01*
X130526691Y-123745489D02*
X130669548Y-123793108D01*
X130669548Y-123793108D02*
X130717167Y-123840727D01*
X130717167Y-123840727D02*
X130764786Y-123935965D01*
X130764786Y-123935965D02*
X130764786Y-124078822D01*
X130764786Y-124078822D02*
X130717167Y-124174060D01*
X130717167Y-124174060D02*
X130669548Y-124221680D01*
X130669548Y-124221680D02*
X130574310Y-124269299D01*
X130574310Y-124269299D02*
X130193358Y-124269299D01*
X130193358Y-124269299D02*
X130193358Y-123269299D01*
X130193358Y-123269299D02*
X130526691Y-123269299D01*
X130526691Y-123269299D02*
X130621929Y-123316918D01*
X130621929Y-123316918D02*
X130669548Y-123364537D01*
X130669548Y-123364537D02*
X130717167Y-123459775D01*
X130717167Y-123459775D02*
X130717167Y-123555013D01*
X130717167Y-123555013D02*
X130669548Y-123650251D01*
X130669548Y-123650251D02*
X130621929Y-123697870D01*
X130621929Y-123697870D02*
X130526691Y-123745489D01*
X130526691Y-123745489D02*
X130193358Y-123745489D01*
X131383834Y-123269299D02*
X131574310Y-123269299D01*
X131574310Y-123269299D02*
X131669548Y-123316918D01*
X131669548Y-123316918D02*
X131764786Y-123412156D01*
X131764786Y-123412156D02*
X131812405Y-123602632D01*
X131812405Y-123602632D02*
X131812405Y-123935965D01*
X131812405Y-123935965D02*
X131764786Y-124126441D01*
X131764786Y-124126441D02*
X131669548Y-124221680D01*
X131669548Y-124221680D02*
X131574310Y-124269299D01*
X131574310Y-124269299D02*
X131383834Y-124269299D01*
X131383834Y-124269299D02*
X131288596Y-124221680D01*
X131288596Y-124221680D02*
X131193358Y-124126441D01*
X131193358Y-124126441D02*
X131145739Y-123935965D01*
X131145739Y-123935965D02*
X131145739Y-123602632D01*
X131145739Y-123602632D02*
X131193358Y-123412156D01*
X131193358Y-123412156D02*
X131288596Y-123316918D01*
X131288596Y-123316918D02*
X131383834Y-123269299D01*
X132431453Y-123269299D02*
X132621929Y-123269299D01*
X132621929Y-123269299D02*
X132717167Y-123316918D01*
X132717167Y-123316918D02*
X132812405Y-123412156D01*
X132812405Y-123412156D02*
X132860024Y-123602632D01*
X132860024Y-123602632D02*
X132860024Y-123935965D01*
X132860024Y-123935965D02*
X132812405Y-124126441D01*
X132812405Y-124126441D02*
X132717167Y-124221680D01*
X132717167Y-124221680D02*
X132621929Y-124269299D01*
X132621929Y-124269299D02*
X132431453Y-124269299D01*
X132431453Y-124269299D02*
X132336215Y-124221680D01*
X132336215Y-124221680D02*
X132240977Y-124126441D01*
X132240977Y-124126441D02*
X132193358Y-123935965D01*
X132193358Y-123935965D02*
X132193358Y-123602632D01*
X132193358Y-123602632D02*
X132240977Y-123412156D01*
X132240977Y-123412156D02*
X132336215Y-123316918D01*
X132336215Y-123316918D02*
X132431453Y-123269299D01*
X133145739Y-123269299D02*
X133717167Y-123269299D01*
X133431453Y-124269299D02*
X133431453Y-123269299D01*
X146298120Y-105855661D02*
X146298120Y-104855661D01*
X146298120Y-104855661D02*
X146679072Y-104855661D01*
X146679072Y-104855661D02*
X146774310Y-104903280D01*
X146774310Y-104903280D02*
X146821929Y-104950899D01*
X146821929Y-104950899D02*
X146869548Y-105046137D01*
X146869548Y-105046137D02*
X146869548Y-105188994D01*
X146869548Y-105188994D02*
X146821929Y-105284232D01*
X146821929Y-105284232D02*
X146774310Y-105331851D01*
X146774310Y-105331851D02*
X146679072Y-105379470D01*
X146679072Y-105379470D02*
X146298120Y-105379470D01*
X147631453Y-105331851D02*
X147774310Y-105379470D01*
X147774310Y-105379470D02*
X147821929Y-105427089D01*
X147821929Y-105427089D02*
X147869548Y-105522327D01*
X147869548Y-105522327D02*
X147869548Y-105665184D01*
X147869548Y-105665184D02*
X147821929Y-105760422D01*
X147821929Y-105760422D02*
X147774310Y-105808042D01*
X147774310Y-105808042D02*
X147679072Y-105855661D01*
X147679072Y-105855661D02*
X147298120Y-105855661D01*
X147298120Y-105855661D02*
X147298120Y-104855661D01*
X147298120Y-104855661D02*
X147631453Y-104855661D01*
X147631453Y-104855661D02*
X147726691Y-104903280D01*
X147726691Y-104903280D02*
X147774310Y-104950899D01*
X147774310Y-104950899D02*
X147821929Y-105046137D01*
X147821929Y-105046137D02*
X147821929Y-105141375D01*
X147821929Y-105141375D02*
X147774310Y-105236613D01*
X147774310Y-105236613D02*
X147726691Y-105284232D01*
X147726691Y-105284232D02*
X147631453Y-105331851D01*
X147631453Y-105331851D02*
X147298120Y-105331851D01*
X148821929Y-105855661D02*
X148250501Y-105855661D01*
X148536215Y-105855661D02*
X148536215Y-104855661D01*
X148536215Y-104855661D02*
X148440977Y-104998518D01*
X148440977Y-104998518D02*
X148345739Y-105093756D01*
X148345739Y-105093756D02*
X148250501Y-105141375D01*
X149679072Y-105188994D02*
X149679072Y-105855661D01*
X149440977Y-104808042D02*
X149202882Y-105522327D01*
X149202882Y-105522327D02*
X149821929Y-105522327D01*
X104075501Y-108578385D02*
X104075501Y-107578385D01*
X104075501Y-107578385D02*
X104456453Y-107578385D01*
X104456453Y-107578385D02*
X104551691Y-107626004D01*
X104551691Y-107626004D02*
X104599310Y-107673623D01*
X104599310Y-107673623D02*
X104646929Y-107768861D01*
X104646929Y-107768861D02*
X104646929Y-107911718D01*
X104646929Y-107911718D02*
X104599310Y-108006956D01*
X104599310Y-108006956D02*
X104551691Y-108054575D01*
X104551691Y-108054575D02*
X104456453Y-108102194D01*
X104456453Y-108102194D02*
X104075501Y-108102194D01*
X105408834Y-108054575D02*
X105551691Y-108102194D01*
X105551691Y-108102194D02*
X105599310Y-108149813D01*
X105599310Y-108149813D02*
X105646929Y-108245051D01*
X105646929Y-108245051D02*
X105646929Y-108387908D01*
X105646929Y-108387908D02*
X105599310Y-108483146D01*
X105599310Y-108483146D02*
X105551691Y-108530766D01*
X105551691Y-108530766D02*
X105456453Y-108578385D01*
X105456453Y-108578385D02*
X105075501Y-108578385D01*
X105075501Y-108578385D02*
X105075501Y-107578385D01*
X105075501Y-107578385D02*
X105408834Y-107578385D01*
X105408834Y-107578385D02*
X105504072Y-107626004D01*
X105504072Y-107626004D02*
X105551691Y-107673623D01*
X105551691Y-107673623D02*
X105599310Y-107768861D01*
X105599310Y-107768861D02*
X105599310Y-107864099D01*
X105599310Y-107864099D02*
X105551691Y-107959337D01*
X105551691Y-107959337D02*
X105504072Y-108006956D01*
X105504072Y-108006956D02*
X105408834Y-108054575D01*
X105408834Y-108054575D02*
X105075501Y-108054575D01*
X106027882Y-107673623D02*
X106075501Y-107626004D01*
X106075501Y-107626004D02*
X106170739Y-107578385D01*
X106170739Y-107578385D02*
X106408834Y-107578385D01*
X106408834Y-107578385D02*
X106504072Y-107626004D01*
X106504072Y-107626004D02*
X106551691Y-107673623D01*
X106551691Y-107673623D02*
X106599310Y-107768861D01*
X106599310Y-107768861D02*
X106599310Y-107864099D01*
X106599310Y-107864099D02*
X106551691Y-108006956D01*
X106551691Y-108006956D02*
X105980263Y-108578385D01*
X105980263Y-108578385D02*
X106599310Y-108578385D01*
X123214753Y-81706641D02*
X122214753Y-81706641D01*
X122214753Y-81706641D02*
X122214753Y-81325689D01*
X122214753Y-81325689D02*
X122262372Y-81230451D01*
X122262372Y-81230451D02*
X122309991Y-81182832D01*
X122309991Y-81182832D02*
X122405229Y-81135213D01*
X122405229Y-81135213D02*
X122548086Y-81135213D01*
X122548086Y-81135213D02*
X122643324Y-81182832D01*
X122643324Y-81182832D02*
X122690943Y-81230451D01*
X122690943Y-81230451D02*
X122738562Y-81325689D01*
X122738562Y-81325689D02*
X122738562Y-81706641D01*
X122690943Y-80373308D02*
X122738562Y-80230451D01*
X122738562Y-80230451D02*
X122786181Y-80182832D01*
X122786181Y-80182832D02*
X122881419Y-80135213D01*
X122881419Y-80135213D02*
X123024276Y-80135213D01*
X123024276Y-80135213D02*
X123119514Y-80182832D01*
X123119514Y-80182832D02*
X123167134Y-80230451D01*
X123167134Y-80230451D02*
X123214753Y-80325689D01*
X123214753Y-80325689D02*
X123214753Y-80706641D01*
X123214753Y-80706641D02*
X122214753Y-80706641D01*
X122214753Y-80706641D02*
X122214753Y-80373308D01*
X122214753Y-80373308D02*
X122262372Y-80278070D01*
X122262372Y-80278070D02*
X122309991Y-80230451D01*
X122309991Y-80230451D02*
X122405229Y-80182832D01*
X122405229Y-80182832D02*
X122500467Y-80182832D01*
X122500467Y-80182832D02*
X122595705Y-80230451D01*
X122595705Y-80230451D02*
X122643324Y-80278070D01*
X122643324Y-80278070D02*
X122690943Y-80373308D01*
X122690943Y-80373308D02*
X122690943Y-80706641D01*
X122643324Y-79563784D02*
X122595705Y-79659022D01*
X122595705Y-79659022D02*
X122548086Y-79706641D01*
X122548086Y-79706641D02*
X122452848Y-79754260D01*
X122452848Y-79754260D02*
X122405229Y-79754260D01*
X122405229Y-79754260D02*
X122309991Y-79706641D01*
X122309991Y-79706641D02*
X122262372Y-79659022D01*
X122262372Y-79659022D02*
X122214753Y-79563784D01*
X122214753Y-79563784D02*
X122214753Y-79373308D01*
X122214753Y-79373308D02*
X122262372Y-79278070D01*
X122262372Y-79278070D02*
X122309991Y-79230451D01*
X122309991Y-79230451D02*
X122405229Y-79182832D01*
X122405229Y-79182832D02*
X122452848Y-79182832D01*
X122452848Y-79182832D02*
X122548086Y-79230451D01*
X122548086Y-79230451D02*
X122595705Y-79278070D01*
X122595705Y-79278070D02*
X122643324Y-79373308D01*
X122643324Y-79373308D02*
X122643324Y-79563784D01*
X122643324Y-79563784D02*
X122690943Y-79659022D01*
X122690943Y-79659022D02*
X122738562Y-79706641D01*
X122738562Y-79706641D02*
X122833800Y-79754260D01*
X122833800Y-79754260D02*
X123024276Y-79754260D01*
X123024276Y-79754260D02*
X123119514Y-79706641D01*
X123119514Y-79706641D02*
X123167134Y-79659022D01*
X123167134Y-79659022D02*
X123214753Y-79563784D01*
X123214753Y-79563784D02*
X123214753Y-79373308D01*
X123214753Y-79373308D02*
X123167134Y-79278070D01*
X123167134Y-79278070D02*
X123119514Y-79230451D01*
X123119514Y-79230451D02*
X123024276Y-79182832D01*
X123024276Y-79182832D02*
X122833800Y-79182832D01*
X122833800Y-79182832D02*
X122738562Y-79230451D01*
X122738562Y-79230451D02*
X122690943Y-79278070D01*
X122690943Y-79278070D02*
X122643324Y-79373308D01*
X147393358Y-88037483D02*
X147393358Y-87037483D01*
X147393358Y-87037483D02*
X147774310Y-87037483D01*
X147774310Y-87037483D02*
X147869548Y-87085102D01*
X147869548Y-87085102D02*
X147917167Y-87132721D01*
X147917167Y-87132721D02*
X147964786Y-87227959D01*
X147964786Y-87227959D02*
X147964786Y-87370816D01*
X147964786Y-87370816D02*
X147917167Y-87466054D01*
X147917167Y-87466054D02*
X147869548Y-87513673D01*
X147869548Y-87513673D02*
X147774310Y-87561292D01*
X147774310Y-87561292D02*
X147393358Y-87561292D01*
X148726691Y-87513673D02*
X148393358Y-87513673D01*
X148393358Y-88037483D02*
X148393358Y-87037483D01*
X148393358Y-87037483D02*
X148869548Y-87037483D01*
X149679072Y-87037483D02*
X149488596Y-87037483D01*
X149488596Y-87037483D02*
X149393358Y-87085102D01*
X149393358Y-87085102D02*
X149345739Y-87132721D01*
X149345739Y-87132721D02*
X149250501Y-87275578D01*
X149250501Y-87275578D02*
X149202882Y-87466054D01*
X149202882Y-87466054D02*
X149202882Y-87847006D01*
X149202882Y-87847006D02*
X149250501Y-87942244D01*
X149250501Y-87942244D02*
X149298120Y-87989864D01*
X149298120Y-87989864D02*
X149393358Y-88037483D01*
X149393358Y-88037483D02*
X149583834Y-88037483D01*
X149583834Y-88037483D02*
X149679072Y-87989864D01*
X149679072Y-87989864D02*
X149726691Y-87942244D01*
X149726691Y-87942244D02*
X149774310Y-87847006D01*
X149774310Y-87847006D02*
X149774310Y-87608911D01*
X149774310Y-87608911D02*
X149726691Y-87513673D01*
X149726691Y-87513673D02*
X149679072Y-87466054D01*
X149679072Y-87466054D02*
X149583834Y-87418435D01*
X149583834Y-87418435D02*
X149393358Y-87418435D01*
X149393358Y-87418435D02*
X149298120Y-87466054D01*
X149298120Y-87466054D02*
X149250501Y-87513673D01*
X149250501Y-87513673D02*
X149202882Y-87608911D01*
X147345739Y-112492029D02*
X147964786Y-112492029D01*
X147964786Y-112492029D02*
X147631453Y-112872981D01*
X147631453Y-112872981D02*
X147774310Y-112872981D01*
X147774310Y-112872981D02*
X147869548Y-112920600D01*
X147869548Y-112920600D02*
X147917167Y-112968219D01*
X147917167Y-112968219D02*
X147964786Y-113063457D01*
X147964786Y-113063457D02*
X147964786Y-113301552D01*
X147964786Y-113301552D02*
X147917167Y-113396790D01*
X147917167Y-113396790D02*
X147869548Y-113444410D01*
X147869548Y-113444410D02*
X147774310Y-113492029D01*
X147774310Y-113492029D02*
X147488596Y-113492029D01*
X147488596Y-113492029D02*
X147393358Y-113444410D01*
X147393358Y-113444410D02*
X147345739Y-113396790D01*
X148250501Y-112492029D02*
X148583834Y-113492029D01*
X148583834Y-113492029D02*
X148917167Y-112492029D01*
X149155263Y-112492029D02*
X149774310Y-112492029D01*
X149774310Y-112492029D02*
X149440977Y-112872981D01*
X149440977Y-112872981D02*
X149583834Y-112872981D01*
X149583834Y-112872981D02*
X149679072Y-112920600D01*
X149679072Y-112920600D02*
X149726691Y-112968219D01*
X149726691Y-112968219D02*
X149774310Y-113063457D01*
X149774310Y-113063457D02*
X149774310Y-113301552D01*
X149774310Y-113301552D02*
X149726691Y-113396790D01*
X149726691Y-113396790D02*
X149679072Y-113444410D01*
X149679072Y-113444410D02*
X149583834Y-113492029D01*
X149583834Y-113492029D02*
X149298120Y-113492029D01*
X149298120Y-113492029D02*
X149202882Y-113444410D01*
X149202882Y-113444410D02*
X149155263Y-113396790D01*
X120669299Y-81706641D02*
X119669299Y-81706641D01*
X119669299Y-81706641D02*
X119669299Y-81325689D01*
X119669299Y-81325689D02*
X119716918Y-81230451D01*
X119716918Y-81230451D02*
X119764537Y-81182832D01*
X119764537Y-81182832D02*
X119859775Y-81135213D01*
X119859775Y-81135213D02*
X120002632Y-81135213D01*
X120002632Y-81135213D02*
X120097870Y-81182832D01*
X120097870Y-81182832D02*
X120145489Y-81230451D01*
X120145489Y-81230451D02*
X120193108Y-81325689D01*
X120193108Y-81325689D02*
X120193108Y-81706641D01*
X120145489Y-80373308D02*
X120193108Y-80230451D01*
X120193108Y-80230451D02*
X120240727Y-80182832D01*
X120240727Y-80182832D02*
X120335965Y-80135213D01*
X120335965Y-80135213D02*
X120478822Y-80135213D01*
X120478822Y-80135213D02*
X120574060Y-80182832D01*
X120574060Y-80182832D02*
X120621680Y-80230451D01*
X120621680Y-80230451D02*
X120669299Y-80325689D01*
X120669299Y-80325689D02*
X120669299Y-80706641D01*
X120669299Y-80706641D02*
X119669299Y-80706641D01*
X119669299Y-80706641D02*
X119669299Y-80373308D01*
X119669299Y-80373308D02*
X119716918Y-80278070D01*
X119716918Y-80278070D02*
X119764537Y-80230451D01*
X119764537Y-80230451D02*
X119859775Y-80182832D01*
X119859775Y-80182832D02*
X119955013Y-80182832D01*
X119955013Y-80182832D02*
X120050251Y-80230451D01*
X120050251Y-80230451D02*
X120097870Y-80278070D01*
X120097870Y-80278070D02*
X120145489Y-80373308D01*
X120145489Y-80373308D02*
X120145489Y-80706641D01*
X120669299Y-79659022D02*
X120669299Y-79468546D01*
X120669299Y-79468546D02*
X120621680Y-79373308D01*
X120621680Y-79373308D02*
X120574060Y-79325689D01*
X120574060Y-79325689D02*
X120431203Y-79230451D01*
X120431203Y-79230451D02*
X120240727Y-79182832D01*
X120240727Y-79182832D02*
X119859775Y-79182832D01*
X119859775Y-79182832D02*
X119764537Y-79230451D01*
X119764537Y-79230451D02*
X119716918Y-79278070D01*
X119716918Y-79278070D02*
X119669299Y-79373308D01*
X119669299Y-79373308D02*
X119669299Y-79563784D01*
X119669299Y-79563784D02*
X119716918Y-79659022D01*
X119716918Y-79659022D02*
X119764537Y-79706641D01*
X119764537Y-79706641D02*
X119859775Y-79754260D01*
X119859775Y-79754260D02*
X120097870Y-79754260D01*
X120097870Y-79754260D02*
X120193108Y-79706641D01*
X120193108Y-79706641D02*
X120240727Y-79659022D01*
X120240727Y-79659022D02*
X120288346Y-79563784D01*
X120288346Y-79563784D02*
X120288346Y-79373308D01*
X120288346Y-79373308D02*
X120240727Y-79278070D01*
X120240727Y-79278070D02*
X120193108Y-79230451D01*
X120193108Y-79230451D02*
X120097870Y-79182832D01*
X147393358Y-85492029D02*
X147393358Y-84492029D01*
X147393358Y-84492029D02*
X147774310Y-84492029D01*
X147774310Y-84492029D02*
X147869548Y-84539648D01*
X147869548Y-84539648D02*
X147917167Y-84587267D01*
X147917167Y-84587267D02*
X147964786Y-84682505D01*
X147964786Y-84682505D02*
X147964786Y-84825362D01*
X147964786Y-84825362D02*
X147917167Y-84920600D01*
X147917167Y-84920600D02*
X147869548Y-84968219D01*
X147869548Y-84968219D02*
X147774310Y-85015838D01*
X147774310Y-85015838D02*
X147393358Y-85015838D01*
X148726691Y-84968219D02*
X148393358Y-84968219D01*
X148393358Y-85492029D02*
X148393358Y-84492029D01*
X148393358Y-84492029D02*
X148869548Y-84492029D01*
X149155263Y-84492029D02*
X149821929Y-84492029D01*
X149821929Y-84492029D02*
X149393358Y-85492029D01*
X104075501Y-90760207D02*
X104075501Y-89760207D01*
X104075501Y-89760207D02*
X104456453Y-89760207D01*
X104456453Y-89760207D02*
X104551691Y-89807826D01*
X104551691Y-89807826D02*
X104599310Y-89855445D01*
X104599310Y-89855445D02*
X104646929Y-89950683D01*
X104646929Y-89950683D02*
X104646929Y-90093540D01*
X104646929Y-90093540D02*
X104599310Y-90188778D01*
X104599310Y-90188778D02*
X104551691Y-90236397D01*
X104551691Y-90236397D02*
X104456453Y-90284016D01*
X104456453Y-90284016D02*
X104075501Y-90284016D01*
X105027882Y-90474492D02*
X105504072Y-90474492D01*
X104932644Y-90760207D02*
X105265977Y-89760207D01*
X105265977Y-89760207D02*
X105599310Y-90760207D01*
X106456453Y-90760207D02*
X105885025Y-90760207D01*
X106170739Y-90760207D02*
X106170739Y-89760207D01*
X106170739Y-89760207D02*
X106075501Y-89903064D01*
X106075501Y-89903064D02*
X105980263Y-89998302D01*
X105980263Y-89998302D02*
X105885025Y-90045921D01*
X104075501Y-85669299D02*
X104075501Y-84669299D01*
X104075501Y-84669299D02*
X104456453Y-84669299D01*
X104456453Y-84669299D02*
X104551691Y-84716918D01*
X104551691Y-84716918D02*
X104599310Y-84764537D01*
X104599310Y-84764537D02*
X104646929Y-84859775D01*
X104646929Y-84859775D02*
X104646929Y-85002632D01*
X104646929Y-85002632D02*
X104599310Y-85097870D01*
X104599310Y-85097870D02*
X104551691Y-85145489D01*
X104551691Y-85145489D02*
X104456453Y-85193108D01*
X104456453Y-85193108D02*
X104075501Y-85193108D01*
X105646929Y-85574060D02*
X105599310Y-85621680D01*
X105599310Y-85621680D02*
X105456453Y-85669299D01*
X105456453Y-85669299D02*
X105361215Y-85669299D01*
X105361215Y-85669299D02*
X105218358Y-85621680D01*
X105218358Y-85621680D02*
X105123120Y-85526441D01*
X105123120Y-85526441D02*
X105075501Y-85431203D01*
X105075501Y-85431203D02*
X105027882Y-85240727D01*
X105027882Y-85240727D02*
X105027882Y-85097870D01*
X105027882Y-85097870D02*
X105075501Y-84907394D01*
X105075501Y-84907394D02*
X105123120Y-84812156D01*
X105123120Y-84812156D02*
X105218358Y-84716918D01*
X105218358Y-84716918D02*
X105361215Y-84669299D01*
X105361215Y-84669299D02*
X105456453Y-84669299D01*
X105456453Y-84669299D02*
X105599310Y-84716918D01*
X105599310Y-84716918D02*
X105646929Y-84764537D01*
X106599310Y-85669299D02*
X106027882Y-85669299D01*
X106313596Y-85669299D02*
X106313596Y-84669299D01*
X106313596Y-84669299D02*
X106218358Y-84812156D01*
X106218358Y-84812156D02*
X106123120Y-84907394D01*
X106123120Y-84907394D02*
X106027882Y-84955013D01*
X107504072Y-84669299D02*
X107027882Y-84669299D01*
X107027882Y-84669299D02*
X106980263Y-85145489D01*
X106980263Y-85145489D02*
X107027882Y-85097870D01*
X107027882Y-85097870D02*
X107123120Y-85050251D01*
X107123120Y-85050251D02*
X107361215Y-85050251D01*
X107361215Y-85050251D02*
X107456453Y-85097870D01*
X107456453Y-85097870D02*
X107504072Y-85145489D01*
X107504072Y-85145489D02*
X107551691Y-85240727D01*
X107551691Y-85240727D02*
X107551691Y-85478822D01*
X107551691Y-85478822D02*
X107504072Y-85574060D01*
X107504072Y-85574060D02*
X107456453Y-85621680D01*
X107456453Y-85621680D02*
X107361215Y-85669299D01*
X107361215Y-85669299D02*
X107123120Y-85669299D01*
X107123120Y-85669299D02*
X107027882Y-85621680D01*
X107027882Y-85621680D02*
X106980263Y-85574060D01*
X146298120Y-110946569D02*
X146298120Y-109946569D01*
X146298120Y-109946569D02*
X146679072Y-109946569D01*
X146679072Y-109946569D02*
X146774310Y-109994188D01*
X146774310Y-109994188D02*
X146821929Y-110041807D01*
X146821929Y-110041807D02*
X146869548Y-110137045D01*
X146869548Y-110137045D02*
X146869548Y-110279902D01*
X146869548Y-110279902D02*
X146821929Y-110375140D01*
X146821929Y-110375140D02*
X146774310Y-110422759D01*
X146774310Y-110422759D02*
X146679072Y-110470378D01*
X146679072Y-110470378D02*
X146298120Y-110470378D01*
X147631453Y-110422759D02*
X147774310Y-110470378D01*
X147774310Y-110470378D02*
X147821929Y-110517997D01*
X147821929Y-110517997D02*
X147869548Y-110613235D01*
X147869548Y-110613235D02*
X147869548Y-110756092D01*
X147869548Y-110756092D02*
X147821929Y-110851330D01*
X147821929Y-110851330D02*
X147774310Y-110898950D01*
X147774310Y-110898950D02*
X147679072Y-110946569D01*
X147679072Y-110946569D02*
X147298120Y-110946569D01*
X147298120Y-110946569D02*
X147298120Y-109946569D01*
X147298120Y-109946569D02*
X147631453Y-109946569D01*
X147631453Y-109946569D02*
X147726691Y-109994188D01*
X147726691Y-109994188D02*
X147774310Y-110041807D01*
X147774310Y-110041807D02*
X147821929Y-110137045D01*
X147821929Y-110137045D02*
X147821929Y-110232283D01*
X147821929Y-110232283D02*
X147774310Y-110327521D01*
X147774310Y-110327521D02*
X147726691Y-110375140D01*
X147726691Y-110375140D02*
X147631453Y-110422759D01*
X147631453Y-110422759D02*
X147298120Y-110422759D01*
X148821929Y-110946569D02*
X148250501Y-110946569D01*
X148536215Y-110946569D02*
X148536215Y-109946569D01*
X148536215Y-109946569D02*
X148440977Y-110089426D01*
X148440977Y-110089426D02*
X148345739Y-110184664D01*
X148345739Y-110184664D02*
X148250501Y-110232283D01*
X149202882Y-110041807D02*
X149250501Y-109994188D01*
X149250501Y-109994188D02*
X149345739Y-109946569D01*
X149345739Y-109946569D02*
X149583834Y-109946569D01*
X149583834Y-109946569D02*
X149679072Y-109994188D01*
X149679072Y-109994188D02*
X149726691Y-110041807D01*
X149726691Y-110041807D02*
X149774310Y-110137045D01*
X149774310Y-110137045D02*
X149774310Y-110232283D01*
X149774310Y-110232283D02*
X149726691Y-110375140D01*
X149726691Y-110375140D02*
X149155263Y-110946569D01*
X149155263Y-110946569D02*
X149774310Y-110946569D01*
X104075501Y-98396569D02*
X104075501Y-97396569D01*
X104075501Y-97396569D02*
X104408834Y-98110854D01*
X104408834Y-98110854D02*
X104742167Y-97396569D01*
X104742167Y-97396569D02*
X104742167Y-98396569D01*
X105218358Y-98396569D02*
X105218358Y-97396569D01*
X105646929Y-98348950D02*
X105789786Y-98396569D01*
X105789786Y-98396569D02*
X106027881Y-98396569D01*
X106027881Y-98396569D02*
X106123119Y-98348950D01*
X106123119Y-98348950D02*
X106170738Y-98301330D01*
X106170738Y-98301330D02*
X106218357Y-98206092D01*
X106218357Y-98206092D02*
X106218357Y-98110854D01*
X106218357Y-98110854D02*
X106170738Y-98015616D01*
X106170738Y-98015616D02*
X106123119Y-97967997D01*
X106123119Y-97967997D02*
X106027881Y-97920378D01*
X106027881Y-97920378D02*
X105837405Y-97872759D01*
X105837405Y-97872759D02*
X105742167Y-97825140D01*
X105742167Y-97825140D02*
X105694548Y-97777521D01*
X105694548Y-97777521D02*
X105646929Y-97682283D01*
X105646929Y-97682283D02*
X105646929Y-97587045D01*
X105646929Y-97587045D02*
X105694548Y-97491807D01*
X105694548Y-97491807D02*
X105742167Y-97444188D01*
X105742167Y-97444188D02*
X105837405Y-97396569D01*
X105837405Y-97396569D02*
X106075500Y-97396569D01*
X106075500Y-97396569D02*
X106218357Y-97444188D01*
X106837405Y-97396569D02*
X107027881Y-97396569D01*
X107027881Y-97396569D02*
X107123119Y-97444188D01*
X107123119Y-97444188D02*
X107218357Y-97539426D01*
X107218357Y-97539426D02*
X107265976Y-97729902D01*
X107265976Y-97729902D02*
X107265976Y-98063235D01*
X107265976Y-98063235D02*
X107218357Y-98253711D01*
X107218357Y-98253711D02*
X107123119Y-98348950D01*
X107123119Y-98348950D02*
X107027881Y-98396569D01*
X107027881Y-98396569D02*
X106837405Y-98396569D01*
X106837405Y-98396569D02*
X106742167Y-98348950D01*
X106742167Y-98348950D02*
X106646929Y-98253711D01*
X106646929Y-98253711D02*
X106599310Y-98063235D01*
X106599310Y-98063235D02*
X106599310Y-97729902D01*
X106599310Y-97729902D02*
X106646929Y-97539426D01*
X106646929Y-97539426D02*
X106742167Y-97444188D01*
X106742167Y-97444188D02*
X106837405Y-97396569D01*
X128305661Y-81706641D02*
X127305661Y-81706641D01*
X127305661Y-81706641D02*
X127305661Y-81325689D01*
X127305661Y-81325689D02*
X127353280Y-81230451D01*
X127353280Y-81230451D02*
X127400899Y-81182832D01*
X127400899Y-81182832D02*
X127496137Y-81135213D01*
X127496137Y-81135213D02*
X127638994Y-81135213D01*
X127638994Y-81135213D02*
X127734232Y-81182832D01*
X127734232Y-81182832D02*
X127781851Y-81230451D01*
X127781851Y-81230451D02*
X127829470Y-81325689D01*
X127829470Y-81325689D02*
X127829470Y-81706641D01*
X127781851Y-80373308D02*
X127829470Y-80230451D01*
X127829470Y-80230451D02*
X127877089Y-80182832D01*
X127877089Y-80182832D02*
X127972327Y-80135213D01*
X127972327Y-80135213D02*
X128115184Y-80135213D01*
X128115184Y-80135213D02*
X128210422Y-80182832D01*
X128210422Y-80182832D02*
X128258042Y-80230451D01*
X128258042Y-80230451D02*
X128305661Y-80325689D01*
X128305661Y-80325689D02*
X128305661Y-80706641D01*
X128305661Y-80706641D02*
X127305661Y-80706641D01*
X127305661Y-80706641D02*
X127305661Y-80373308D01*
X127305661Y-80373308D02*
X127353280Y-80278070D01*
X127353280Y-80278070D02*
X127400899Y-80230451D01*
X127400899Y-80230451D02*
X127496137Y-80182832D01*
X127496137Y-80182832D02*
X127591375Y-80182832D01*
X127591375Y-80182832D02*
X127686613Y-80230451D01*
X127686613Y-80230451D02*
X127734232Y-80278070D01*
X127734232Y-80278070D02*
X127781851Y-80373308D01*
X127781851Y-80373308D02*
X127781851Y-80706641D01*
X127305661Y-79278070D02*
X127305661Y-79468546D01*
X127305661Y-79468546D02*
X127353280Y-79563784D01*
X127353280Y-79563784D02*
X127400899Y-79611403D01*
X127400899Y-79611403D02*
X127543756Y-79706641D01*
X127543756Y-79706641D02*
X127734232Y-79754260D01*
X127734232Y-79754260D02*
X128115184Y-79754260D01*
X128115184Y-79754260D02*
X128210422Y-79706641D01*
X128210422Y-79706641D02*
X128258042Y-79659022D01*
X128258042Y-79659022D02*
X128305661Y-79563784D01*
X128305661Y-79563784D02*
X128305661Y-79373308D01*
X128305661Y-79373308D02*
X128258042Y-79278070D01*
X128258042Y-79278070D02*
X128210422Y-79230451D01*
X128210422Y-79230451D02*
X128115184Y-79182832D01*
X128115184Y-79182832D02*
X127877089Y-79182832D01*
X127877089Y-79182832D02*
X127781851Y-79230451D01*
X127781851Y-79230451D02*
X127734232Y-79278070D01*
X127734232Y-79278070D02*
X127686613Y-79373308D01*
X127686613Y-79373308D02*
X127686613Y-79563784D01*
X127686613Y-79563784D02*
X127734232Y-79659022D01*
X127734232Y-79659022D02*
X127781851Y-79706641D01*
X127781851Y-79706641D02*
X127877089Y-79754260D01*
X104027882Y-95803496D02*
X104170739Y-95851115D01*
X104170739Y-95851115D02*
X104408834Y-95851115D01*
X104408834Y-95851115D02*
X104504072Y-95803496D01*
X104504072Y-95803496D02*
X104551691Y-95755876D01*
X104551691Y-95755876D02*
X104599310Y-95660638D01*
X104599310Y-95660638D02*
X104599310Y-95565400D01*
X104599310Y-95565400D02*
X104551691Y-95470162D01*
X104551691Y-95470162D02*
X104504072Y-95422543D01*
X104504072Y-95422543D02*
X104408834Y-95374924D01*
X104408834Y-95374924D02*
X104218358Y-95327305D01*
X104218358Y-95327305D02*
X104123120Y-95279686D01*
X104123120Y-95279686D02*
X104075501Y-95232067D01*
X104075501Y-95232067D02*
X104027882Y-95136829D01*
X104027882Y-95136829D02*
X104027882Y-95041591D01*
X104027882Y-95041591D02*
X104075501Y-94946353D01*
X104075501Y-94946353D02*
X104123120Y-94898734D01*
X104123120Y-94898734D02*
X104218358Y-94851115D01*
X104218358Y-94851115D02*
X104456453Y-94851115D01*
X104456453Y-94851115D02*
X104599310Y-94898734D01*
X105599310Y-95755876D02*
X105551691Y-95803496D01*
X105551691Y-95803496D02*
X105408834Y-95851115D01*
X105408834Y-95851115D02*
X105313596Y-95851115D01*
X105313596Y-95851115D02*
X105170739Y-95803496D01*
X105170739Y-95803496D02*
X105075501Y-95708257D01*
X105075501Y-95708257D02*
X105027882Y-95613019D01*
X105027882Y-95613019D02*
X104980263Y-95422543D01*
X104980263Y-95422543D02*
X104980263Y-95279686D01*
X104980263Y-95279686D02*
X105027882Y-95089210D01*
X105027882Y-95089210D02*
X105075501Y-94993972D01*
X105075501Y-94993972D02*
X105170739Y-94898734D01*
X105170739Y-94898734D02*
X105313596Y-94851115D01*
X105313596Y-94851115D02*
X105408834Y-94851115D01*
X105408834Y-94851115D02*
X105551691Y-94898734D01*
X105551691Y-94898734D02*
X105599310Y-94946353D01*
X106027882Y-95851115D02*
X106027882Y-94851115D01*
X106599310Y-95851115D02*
X106170739Y-95279686D01*
X106599310Y-94851115D02*
X106027882Y-95422543D01*
X104075501Y-106032931D02*
X104075501Y-105032931D01*
X104075501Y-105032931D02*
X104456453Y-105032931D01*
X104456453Y-105032931D02*
X104551691Y-105080550D01*
X104551691Y-105080550D02*
X104599310Y-105128169D01*
X104599310Y-105128169D02*
X104646929Y-105223407D01*
X104646929Y-105223407D02*
X104646929Y-105366264D01*
X104646929Y-105366264D02*
X104599310Y-105461502D01*
X104599310Y-105461502D02*
X104551691Y-105509121D01*
X104551691Y-105509121D02*
X104456453Y-105556740D01*
X104456453Y-105556740D02*
X104075501Y-105556740D01*
X105408834Y-105509121D02*
X105551691Y-105556740D01*
X105551691Y-105556740D02*
X105599310Y-105604359D01*
X105599310Y-105604359D02*
X105646929Y-105699597D01*
X105646929Y-105699597D02*
X105646929Y-105842454D01*
X105646929Y-105842454D02*
X105599310Y-105937692D01*
X105599310Y-105937692D02*
X105551691Y-105985312D01*
X105551691Y-105985312D02*
X105456453Y-106032931D01*
X105456453Y-106032931D02*
X105075501Y-106032931D01*
X105075501Y-106032931D02*
X105075501Y-105032931D01*
X105075501Y-105032931D02*
X105408834Y-105032931D01*
X105408834Y-105032931D02*
X105504072Y-105080550D01*
X105504072Y-105080550D02*
X105551691Y-105128169D01*
X105551691Y-105128169D02*
X105599310Y-105223407D01*
X105599310Y-105223407D02*
X105599310Y-105318645D01*
X105599310Y-105318645D02*
X105551691Y-105413883D01*
X105551691Y-105413883D02*
X105504072Y-105461502D01*
X105504072Y-105461502D02*
X105408834Y-105509121D01*
X105408834Y-105509121D02*
X105075501Y-105509121D01*
X106599310Y-106032931D02*
X106027882Y-106032931D01*
X106313596Y-106032931D02*
X106313596Y-105032931D01*
X106313596Y-105032931D02*
X106218358Y-105175788D01*
X106218358Y-105175788D02*
X106123120Y-105271026D01*
X106123120Y-105271026D02*
X106027882Y-105318645D01*
X119318358Y-123269299D02*
X119318358Y-124078822D01*
X119318358Y-124078822D02*
X119365977Y-124174060D01*
X119365977Y-124174060D02*
X119413596Y-124221680D01*
X119413596Y-124221680D02*
X119508834Y-124269299D01*
X119508834Y-124269299D02*
X119699310Y-124269299D01*
X119699310Y-124269299D02*
X119794548Y-124221680D01*
X119794548Y-124221680D02*
X119842167Y-124174060D01*
X119842167Y-124174060D02*
X119889786Y-124078822D01*
X119889786Y-124078822D02*
X119889786Y-123269299D01*
X120318358Y-124221680D02*
X120461215Y-124269299D01*
X120461215Y-124269299D02*
X120699310Y-124269299D01*
X120699310Y-124269299D02*
X120794548Y-124221680D01*
X120794548Y-124221680D02*
X120842167Y-124174060D01*
X120842167Y-124174060D02*
X120889786Y-124078822D01*
X120889786Y-124078822D02*
X120889786Y-123983584D01*
X120889786Y-123983584D02*
X120842167Y-123888346D01*
X120842167Y-123888346D02*
X120794548Y-123840727D01*
X120794548Y-123840727D02*
X120699310Y-123793108D01*
X120699310Y-123793108D02*
X120508834Y-123745489D01*
X120508834Y-123745489D02*
X120413596Y-123697870D01*
X120413596Y-123697870D02*
X120365977Y-123650251D01*
X120365977Y-123650251D02*
X120318358Y-123555013D01*
X120318358Y-123555013D02*
X120318358Y-123459775D01*
X120318358Y-123459775D02*
X120365977Y-123364537D01*
X120365977Y-123364537D02*
X120413596Y-123316918D01*
X120413596Y-123316918D02*
X120508834Y-123269299D01*
X120508834Y-123269299D02*
X120746929Y-123269299D01*
X120746929Y-123269299D02*
X120889786Y-123316918D01*
X121651691Y-123745489D02*
X121794548Y-123793108D01*
X121794548Y-123793108D02*
X121842167Y-123840727D01*
X121842167Y-123840727D02*
X121889786Y-123935965D01*
X121889786Y-123935965D02*
X121889786Y-124078822D01*
X121889786Y-124078822D02*
X121842167Y-124174060D01*
X121842167Y-124174060D02*
X121794548Y-124221680D01*
X121794548Y-124221680D02*
X121699310Y-124269299D01*
X121699310Y-124269299D02*
X121318358Y-124269299D01*
X121318358Y-124269299D02*
X121318358Y-123269299D01*
X121318358Y-123269299D02*
X121651691Y-123269299D01*
X121651691Y-123269299D02*
X121746929Y-123316918D01*
X121746929Y-123316918D02*
X121794548Y-123364537D01*
X121794548Y-123364537D02*
X121842167Y-123459775D01*
X121842167Y-123459775D02*
X121842167Y-123555013D01*
X121842167Y-123555013D02*
X121794548Y-123650251D01*
X121794548Y-123650251D02*
X121746929Y-123697870D01*
X121746929Y-123697870D02*
X121651691Y-123745489D01*
X121651691Y-123745489D02*
X121318358Y-123745489D01*
X110989786Y-107869299D02*
X110656453Y-107393108D01*
X110418358Y-107869299D02*
X110418358Y-106869299D01*
X110418358Y-106869299D02*
X110799310Y-106869299D01*
X110799310Y-106869299D02*
X110894548Y-106916918D01*
X110894548Y-106916918D02*
X110942167Y-106964537D01*
X110942167Y-106964537D02*
X110989786Y-107059775D01*
X110989786Y-107059775D02*
X110989786Y-107202632D01*
X110989786Y-107202632D02*
X110942167Y-107297870D01*
X110942167Y-107297870D02*
X110894548Y-107345489D01*
X110894548Y-107345489D02*
X110799310Y-107393108D01*
X110799310Y-107393108D02*
X110418358Y-107393108D01*
X111418358Y-107345489D02*
X111751691Y-107345489D01*
X111894548Y-107869299D02*
X111418358Y-107869299D01*
X111418358Y-107869299D02*
X111418358Y-106869299D01*
X111418358Y-106869299D02*
X111894548Y-106869299D01*
X112275501Y-107821680D02*
X112418358Y-107869299D01*
X112418358Y-107869299D02*
X112656453Y-107869299D01*
X112656453Y-107869299D02*
X112751691Y-107821680D01*
X112751691Y-107821680D02*
X112799310Y-107774060D01*
X112799310Y-107774060D02*
X112846929Y-107678822D01*
X112846929Y-107678822D02*
X112846929Y-107583584D01*
X112846929Y-107583584D02*
X112799310Y-107488346D01*
X112799310Y-107488346D02*
X112751691Y-107440727D01*
X112751691Y-107440727D02*
X112656453Y-107393108D01*
X112656453Y-107393108D02*
X112465977Y-107345489D01*
X112465977Y-107345489D02*
X112370739Y-107297870D01*
X112370739Y-107297870D02*
X112323120Y-107250251D01*
X112323120Y-107250251D02*
X112275501Y-107155013D01*
X112275501Y-107155013D02*
X112275501Y-107059775D01*
X112275501Y-107059775D02*
X112323120Y-106964537D01*
X112323120Y-106964537D02*
X112370739Y-106916918D01*
X112370739Y-106916918D02*
X112465977Y-106869299D01*
X112465977Y-106869299D02*
X112704072Y-106869299D01*
X112704072Y-106869299D02*
X112846929Y-106916918D01*
X113275501Y-107345489D02*
X113608834Y-107345489D01*
X113751691Y-107869299D02*
X113275501Y-107869299D01*
X113275501Y-107869299D02*
X113275501Y-106869299D01*
X113275501Y-106869299D02*
X113751691Y-106869299D01*
X114037406Y-106869299D02*
X114608834Y-106869299D01*
X114323120Y-107869299D02*
X114323120Y-106869299D01*
X125760207Y-81706641D02*
X124760207Y-81706641D01*
X124760207Y-81706641D02*
X124760207Y-81325689D01*
X124760207Y-81325689D02*
X124807826Y-81230451D01*
X124807826Y-81230451D02*
X124855445Y-81182832D01*
X124855445Y-81182832D02*
X124950683Y-81135213D01*
X124950683Y-81135213D02*
X125093540Y-81135213D01*
X125093540Y-81135213D02*
X125188778Y-81182832D01*
X125188778Y-81182832D02*
X125236397Y-81230451D01*
X125236397Y-81230451D02*
X125284016Y-81325689D01*
X125284016Y-81325689D02*
X125284016Y-81706641D01*
X125236397Y-80373308D02*
X125284016Y-80230451D01*
X125284016Y-80230451D02*
X125331635Y-80182832D01*
X125331635Y-80182832D02*
X125426873Y-80135213D01*
X125426873Y-80135213D02*
X125569730Y-80135213D01*
X125569730Y-80135213D02*
X125664968Y-80182832D01*
X125664968Y-80182832D02*
X125712588Y-80230451D01*
X125712588Y-80230451D02*
X125760207Y-80325689D01*
X125760207Y-80325689D02*
X125760207Y-80706641D01*
X125760207Y-80706641D02*
X124760207Y-80706641D01*
X124760207Y-80706641D02*
X124760207Y-80373308D01*
X124760207Y-80373308D02*
X124807826Y-80278070D01*
X124807826Y-80278070D02*
X124855445Y-80230451D01*
X124855445Y-80230451D02*
X124950683Y-80182832D01*
X124950683Y-80182832D02*
X125045921Y-80182832D01*
X125045921Y-80182832D02*
X125141159Y-80230451D01*
X125141159Y-80230451D02*
X125188778Y-80278070D01*
X125188778Y-80278070D02*
X125236397Y-80373308D01*
X125236397Y-80373308D02*
X125236397Y-80706641D01*
X124760207Y-79801879D02*
X124760207Y-79135213D01*
X124760207Y-79135213D02*
X125760207Y-79563784D01*
X146440977Y-90582937D02*
X146440977Y-89582937D01*
X146440977Y-89582937D02*
X146821929Y-89582937D01*
X146821929Y-89582937D02*
X146917167Y-89630556D01*
X146917167Y-89630556D02*
X146964786Y-89678175D01*
X146964786Y-89678175D02*
X147012405Y-89773413D01*
X147012405Y-89773413D02*
X147012405Y-89916270D01*
X147012405Y-89916270D02*
X146964786Y-90011508D01*
X146964786Y-90011508D02*
X146917167Y-90059127D01*
X146917167Y-90059127D02*
X146821929Y-90106746D01*
X146821929Y-90106746D02*
X146440977Y-90106746D01*
X147393358Y-90297222D02*
X147869548Y-90297222D01*
X147298120Y-90582937D02*
X147631453Y-89582937D01*
X147631453Y-89582937D02*
X147964786Y-90582937D01*
X148821929Y-90582937D02*
X148250501Y-90582937D01*
X148536215Y-90582937D02*
X148536215Y-89582937D01*
X148536215Y-89582937D02*
X148440977Y-89725794D01*
X148440977Y-89725794D02*
X148345739Y-89821032D01*
X148345739Y-89821032D02*
X148250501Y-89868651D01*
X149202882Y-89678175D02*
X149250501Y-89630556D01*
X149250501Y-89630556D02*
X149345739Y-89582937D01*
X149345739Y-89582937D02*
X149583834Y-89582937D01*
X149583834Y-89582937D02*
X149679072Y-89630556D01*
X149679072Y-89630556D02*
X149726691Y-89678175D01*
X149726691Y-89678175D02*
X149774310Y-89773413D01*
X149774310Y-89773413D02*
X149774310Y-89868651D01*
X149774310Y-89868651D02*
X149726691Y-90011508D01*
X149726691Y-90011508D02*
X149155263Y-90582937D01*
X149155263Y-90582937D02*
X149774310Y-90582937D01*
X104075501Y-103487477D02*
X104075501Y-102487477D01*
X104075501Y-102487477D02*
X104456453Y-102487477D01*
X104456453Y-102487477D02*
X104551691Y-102535096D01*
X104551691Y-102535096D02*
X104599310Y-102582715D01*
X104599310Y-102582715D02*
X104646929Y-102677953D01*
X104646929Y-102677953D02*
X104646929Y-102820810D01*
X104646929Y-102820810D02*
X104599310Y-102916048D01*
X104599310Y-102916048D02*
X104551691Y-102963667D01*
X104551691Y-102963667D02*
X104456453Y-103011286D01*
X104456453Y-103011286D02*
X104075501Y-103011286D01*
X105408834Y-102963667D02*
X105551691Y-103011286D01*
X105551691Y-103011286D02*
X105599310Y-103058905D01*
X105599310Y-103058905D02*
X105646929Y-103154143D01*
X105646929Y-103154143D02*
X105646929Y-103297000D01*
X105646929Y-103297000D02*
X105599310Y-103392238D01*
X105599310Y-103392238D02*
X105551691Y-103439858D01*
X105551691Y-103439858D02*
X105456453Y-103487477D01*
X105456453Y-103487477D02*
X105075501Y-103487477D01*
X105075501Y-103487477D02*
X105075501Y-102487477D01*
X105075501Y-102487477D02*
X105408834Y-102487477D01*
X105408834Y-102487477D02*
X105504072Y-102535096D01*
X105504072Y-102535096D02*
X105551691Y-102582715D01*
X105551691Y-102582715D02*
X105599310Y-102677953D01*
X105599310Y-102677953D02*
X105599310Y-102773191D01*
X105599310Y-102773191D02*
X105551691Y-102868429D01*
X105551691Y-102868429D02*
X105504072Y-102916048D01*
X105504072Y-102916048D02*
X105408834Y-102963667D01*
X105408834Y-102963667D02*
X105075501Y-102963667D01*
X106265977Y-102487477D02*
X106361215Y-102487477D01*
X106361215Y-102487477D02*
X106456453Y-102535096D01*
X106456453Y-102535096D02*
X106504072Y-102582715D01*
X106504072Y-102582715D02*
X106551691Y-102677953D01*
X106551691Y-102677953D02*
X106599310Y-102868429D01*
X106599310Y-102868429D02*
X106599310Y-103106524D01*
X106599310Y-103106524D02*
X106551691Y-103297000D01*
X106551691Y-103297000D02*
X106504072Y-103392238D01*
X106504072Y-103392238D02*
X106456453Y-103439858D01*
X106456453Y-103439858D02*
X106361215Y-103487477D01*
X106361215Y-103487477D02*
X106265977Y-103487477D01*
X106265977Y-103487477D02*
X106170739Y-103439858D01*
X106170739Y-103439858D02*
X106123120Y-103392238D01*
X106123120Y-103392238D02*
X106075501Y-103297000D01*
X106075501Y-103297000D02*
X106027882Y-103106524D01*
X106027882Y-103106524D02*
X106027882Y-102868429D01*
X106027882Y-102868429D02*
X106075501Y-102677953D01*
X106075501Y-102677953D02*
X106123120Y-102582715D01*
X106123120Y-102582715D02*
X106170739Y-102535096D01*
X106170739Y-102535096D02*
X106265977Y-102487477D01*
X104075501Y-93305661D02*
X104075501Y-92305661D01*
X104075501Y-92305661D02*
X104456453Y-92305661D01*
X104456453Y-92305661D02*
X104551691Y-92353280D01*
X104551691Y-92353280D02*
X104599310Y-92400899D01*
X104599310Y-92400899D02*
X104646929Y-92496137D01*
X104646929Y-92496137D02*
X104646929Y-92638994D01*
X104646929Y-92638994D02*
X104599310Y-92734232D01*
X104599310Y-92734232D02*
X104551691Y-92781851D01*
X104551691Y-92781851D02*
X104456453Y-92829470D01*
X104456453Y-92829470D02*
X104075501Y-92829470D01*
X105027882Y-93019946D02*
X105504072Y-93019946D01*
X104932644Y-93305661D02*
X105265977Y-92305661D01*
X105265977Y-92305661D02*
X105599310Y-93305661D01*
X106361215Y-92638994D02*
X106361215Y-93305661D01*
X106123120Y-92258042D02*
X105885025Y-92972327D01*
X105885025Y-92972327D02*
X106504072Y-92972327D01*
X133396575Y-81706641D02*
X132396575Y-81706641D01*
X132396575Y-81706641D02*
X132396575Y-81325689D01*
X132396575Y-81325689D02*
X132444194Y-81230451D01*
X132444194Y-81230451D02*
X132491813Y-81182832D01*
X132491813Y-81182832D02*
X132587051Y-81135213D01*
X132587051Y-81135213D02*
X132729908Y-81135213D01*
X132729908Y-81135213D02*
X132825146Y-81182832D01*
X132825146Y-81182832D02*
X132872765Y-81230451D01*
X132872765Y-81230451D02*
X132920384Y-81325689D01*
X132920384Y-81325689D02*
X132920384Y-81706641D01*
X132872765Y-80373308D02*
X132920384Y-80230451D01*
X132920384Y-80230451D02*
X132968003Y-80182832D01*
X132968003Y-80182832D02*
X133063241Y-80135213D01*
X133063241Y-80135213D02*
X133206098Y-80135213D01*
X133206098Y-80135213D02*
X133301336Y-80182832D01*
X133301336Y-80182832D02*
X133348956Y-80230451D01*
X133348956Y-80230451D02*
X133396575Y-80325689D01*
X133396575Y-80325689D02*
X133396575Y-80706641D01*
X133396575Y-80706641D02*
X132396575Y-80706641D01*
X132396575Y-80706641D02*
X132396575Y-80373308D01*
X132396575Y-80373308D02*
X132444194Y-80278070D01*
X132444194Y-80278070D02*
X132491813Y-80230451D01*
X132491813Y-80230451D02*
X132587051Y-80182832D01*
X132587051Y-80182832D02*
X132682289Y-80182832D01*
X132682289Y-80182832D02*
X132777527Y-80230451D01*
X132777527Y-80230451D02*
X132825146Y-80278070D01*
X132825146Y-80278070D02*
X132872765Y-80373308D01*
X132872765Y-80373308D02*
X132872765Y-80706641D01*
X132729908Y-79278070D02*
X133396575Y-79278070D01*
X132348956Y-79516165D02*
X133063241Y-79754260D01*
X133063241Y-79754260D02*
X133063241Y-79135213D01*
X146298120Y-108401115D02*
X146298120Y-107401115D01*
X146298120Y-107401115D02*
X146679072Y-107401115D01*
X146679072Y-107401115D02*
X146774310Y-107448734D01*
X146774310Y-107448734D02*
X146821929Y-107496353D01*
X146821929Y-107496353D02*
X146869548Y-107591591D01*
X146869548Y-107591591D02*
X146869548Y-107734448D01*
X146869548Y-107734448D02*
X146821929Y-107829686D01*
X146821929Y-107829686D02*
X146774310Y-107877305D01*
X146774310Y-107877305D02*
X146679072Y-107924924D01*
X146679072Y-107924924D02*
X146298120Y-107924924D01*
X147631453Y-107877305D02*
X147774310Y-107924924D01*
X147774310Y-107924924D02*
X147821929Y-107972543D01*
X147821929Y-107972543D02*
X147869548Y-108067781D01*
X147869548Y-108067781D02*
X147869548Y-108210638D01*
X147869548Y-108210638D02*
X147821929Y-108305876D01*
X147821929Y-108305876D02*
X147774310Y-108353496D01*
X147774310Y-108353496D02*
X147679072Y-108401115D01*
X147679072Y-108401115D02*
X147298120Y-108401115D01*
X147298120Y-108401115D02*
X147298120Y-107401115D01*
X147298120Y-107401115D02*
X147631453Y-107401115D01*
X147631453Y-107401115D02*
X147726691Y-107448734D01*
X147726691Y-107448734D02*
X147774310Y-107496353D01*
X147774310Y-107496353D02*
X147821929Y-107591591D01*
X147821929Y-107591591D02*
X147821929Y-107686829D01*
X147821929Y-107686829D02*
X147774310Y-107782067D01*
X147774310Y-107782067D02*
X147726691Y-107829686D01*
X147726691Y-107829686D02*
X147631453Y-107877305D01*
X147631453Y-107877305D02*
X147298120Y-107877305D01*
X148821929Y-108401115D02*
X148250501Y-108401115D01*
X148536215Y-108401115D02*
X148536215Y-107401115D01*
X148536215Y-107401115D02*
X148440977Y-107543972D01*
X148440977Y-107543972D02*
X148345739Y-107639210D01*
X148345739Y-107639210D02*
X148250501Y-107686829D01*
X149155263Y-107401115D02*
X149774310Y-107401115D01*
X149774310Y-107401115D02*
X149440977Y-107782067D01*
X149440977Y-107782067D02*
X149583834Y-107782067D01*
X149583834Y-107782067D02*
X149679072Y-107829686D01*
X149679072Y-107829686D02*
X149726691Y-107877305D01*
X149726691Y-107877305D02*
X149774310Y-107972543D01*
X149774310Y-107972543D02*
X149774310Y-108210638D01*
X149774310Y-108210638D02*
X149726691Y-108305876D01*
X149726691Y-108305876D02*
X149679072Y-108353496D01*
X149679072Y-108353496D02*
X149583834Y-108401115D01*
X149583834Y-108401115D02*
X149298120Y-108401115D01*
X149298120Y-108401115D02*
X149202882Y-108353496D01*
X149202882Y-108353496D02*
X149155263Y-108305876D01*
X147393358Y-98219299D02*
X147393358Y-97219299D01*
X147393358Y-97219299D02*
X147774310Y-97219299D01*
X147774310Y-97219299D02*
X147869548Y-97266918D01*
X147869548Y-97266918D02*
X147917167Y-97314537D01*
X147917167Y-97314537D02*
X147964786Y-97409775D01*
X147964786Y-97409775D02*
X147964786Y-97552632D01*
X147964786Y-97552632D02*
X147917167Y-97647870D01*
X147917167Y-97647870D02*
X147869548Y-97695489D01*
X147869548Y-97695489D02*
X147774310Y-97743108D01*
X147774310Y-97743108D02*
X147393358Y-97743108D01*
X148345739Y-97933584D02*
X148821929Y-97933584D01*
X148250501Y-98219299D02*
X148583834Y-97219299D01*
X148583834Y-97219299D02*
X148917167Y-98219299D01*
X149298120Y-98219299D02*
X149488596Y-98219299D01*
X149488596Y-98219299D02*
X149583834Y-98171680D01*
X149583834Y-98171680D02*
X149631453Y-98124060D01*
X149631453Y-98124060D02*
X149726691Y-97981203D01*
X149726691Y-97981203D02*
X149774310Y-97790727D01*
X149774310Y-97790727D02*
X149774310Y-97409775D01*
X149774310Y-97409775D02*
X149726691Y-97314537D01*
X149726691Y-97314537D02*
X149679072Y-97266918D01*
X149679072Y-97266918D02*
X149583834Y-97219299D01*
X149583834Y-97219299D02*
X149393358Y-97219299D01*
X149393358Y-97219299D02*
X149298120Y-97266918D01*
X149298120Y-97266918D02*
X149250501Y-97314537D01*
X149250501Y-97314537D02*
X149202882Y-97409775D01*
X149202882Y-97409775D02*
X149202882Y-97647870D01*
X149202882Y-97647870D02*
X149250501Y-97743108D01*
X149250501Y-97743108D02*
X149298120Y-97790727D01*
X149298120Y-97790727D02*
X149393358Y-97838346D01*
X149393358Y-97838346D02*
X149583834Y-97838346D01*
X149583834Y-97838346D02*
X149679072Y-97790727D01*
X149679072Y-97790727D02*
X149726691Y-97743108D01*
X149726691Y-97743108D02*
X149774310Y-97647870D01*
X146298120Y-103310207D02*
X146298120Y-102310207D01*
X146298120Y-102310207D02*
X146679072Y-102310207D01*
X146679072Y-102310207D02*
X146774310Y-102357826D01*
X146774310Y-102357826D02*
X146821929Y-102405445D01*
X146821929Y-102405445D02*
X146869548Y-102500683D01*
X146869548Y-102500683D02*
X146869548Y-102643540D01*
X146869548Y-102643540D02*
X146821929Y-102738778D01*
X146821929Y-102738778D02*
X146774310Y-102786397D01*
X146774310Y-102786397D02*
X146679072Y-102834016D01*
X146679072Y-102834016D02*
X146298120Y-102834016D01*
X147631453Y-102786397D02*
X147774310Y-102834016D01*
X147774310Y-102834016D02*
X147821929Y-102881635D01*
X147821929Y-102881635D02*
X147869548Y-102976873D01*
X147869548Y-102976873D02*
X147869548Y-103119730D01*
X147869548Y-103119730D02*
X147821929Y-103214968D01*
X147821929Y-103214968D02*
X147774310Y-103262588D01*
X147774310Y-103262588D02*
X147679072Y-103310207D01*
X147679072Y-103310207D02*
X147298120Y-103310207D01*
X147298120Y-103310207D02*
X147298120Y-102310207D01*
X147298120Y-102310207D02*
X147631453Y-102310207D01*
X147631453Y-102310207D02*
X147726691Y-102357826D01*
X147726691Y-102357826D02*
X147774310Y-102405445D01*
X147774310Y-102405445D02*
X147821929Y-102500683D01*
X147821929Y-102500683D02*
X147821929Y-102595921D01*
X147821929Y-102595921D02*
X147774310Y-102691159D01*
X147774310Y-102691159D02*
X147726691Y-102738778D01*
X147726691Y-102738778D02*
X147631453Y-102786397D01*
X147631453Y-102786397D02*
X147298120Y-102786397D01*
X148821929Y-103310207D02*
X148250501Y-103310207D01*
X148536215Y-103310207D02*
X148536215Y-102310207D01*
X148536215Y-102310207D02*
X148440977Y-102453064D01*
X148440977Y-102453064D02*
X148345739Y-102548302D01*
X148345739Y-102548302D02*
X148250501Y-102595921D01*
X149726691Y-102310207D02*
X149250501Y-102310207D01*
X149250501Y-102310207D02*
X149202882Y-102786397D01*
X149202882Y-102786397D02*
X149250501Y-102738778D01*
X149250501Y-102738778D02*
X149345739Y-102691159D01*
X149345739Y-102691159D02*
X149583834Y-102691159D01*
X149583834Y-102691159D02*
X149679072Y-102738778D01*
X149679072Y-102738778D02*
X149726691Y-102786397D01*
X149726691Y-102786397D02*
X149774310Y-102881635D01*
X149774310Y-102881635D02*
X149774310Y-103119730D01*
X149774310Y-103119730D02*
X149726691Y-103214968D01*
X149726691Y-103214968D02*
X149679072Y-103262588D01*
X149679072Y-103262588D02*
X149583834Y-103310207D01*
X149583834Y-103310207D02*
X149345739Y-103310207D01*
X149345739Y-103310207D02*
X149250501Y-103262588D01*
X149250501Y-103262588D02*
X149202882Y-103214968D01*
X104075501Y-100942023D02*
X104075501Y-99942023D01*
X104075501Y-99942023D02*
X104408834Y-100656308D01*
X104408834Y-100656308D02*
X104742167Y-99942023D01*
X104742167Y-99942023D02*
X104742167Y-100942023D01*
X105408834Y-99942023D02*
X105599310Y-99942023D01*
X105599310Y-99942023D02*
X105694548Y-99989642D01*
X105694548Y-99989642D02*
X105789786Y-100084880D01*
X105789786Y-100084880D02*
X105837405Y-100275356D01*
X105837405Y-100275356D02*
X105837405Y-100608689D01*
X105837405Y-100608689D02*
X105789786Y-100799165D01*
X105789786Y-100799165D02*
X105694548Y-100894404D01*
X105694548Y-100894404D02*
X105599310Y-100942023D01*
X105599310Y-100942023D02*
X105408834Y-100942023D01*
X105408834Y-100942023D02*
X105313596Y-100894404D01*
X105313596Y-100894404D02*
X105218358Y-100799165D01*
X105218358Y-100799165D02*
X105170739Y-100608689D01*
X105170739Y-100608689D02*
X105170739Y-100275356D01*
X105170739Y-100275356D02*
X105218358Y-100084880D01*
X105218358Y-100084880D02*
X105313596Y-99989642D01*
X105313596Y-99989642D02*
X105408834Y-99942023D01*
X106218358Y-100894404D02*
X106361215Y-100942023D01*
X106361215Y-100942023D02*
X106599310Y-100942023D01*
X106599310Y-100942023D02*
X106694548Y-100894404D01*
X106694548Y-100894404D02*
X106742167Y-100846784D01*
X106742167Y-100846784D02*
X106789786Y-100751546D01*
X106789786Y-100751546D02*
X106789786Y-100656308D01*
X106789786Y-100656308D02*
X106742167Y-100561070D01*
X106742167Y-100561070D02*
X106694548Y-100513451D01*
X106694548Y-100513451D02*
X106599310Y-100465832D01*
X106599310Y-100465832D02*
X106408834Y-100418213D01*
X106408834Y-100418213D02*
X106313596Y-100370594D01*
X106313596Y-100370594D02*
X106265977Y-100322975D01*
X106265977Y-100322975D02*
X106218358Y-100227737D01*
X106218358Y-100227737D02*
X106218358Y-100132499D01*
X106218358Y-100132499D02*
X106265977Y-100037261D01*
X106265977Y-100037261D02*
X106313596Y-99989642D01*
X106313596Y-99989642D02*
X106408834Y-99942023D01*
X106408834Y-99942023D02*
X106646929Y-99942023D01*
X106646929Y-99942023D02*
X106789786Y-99989642D01*
X107218358Y-100942023D02*
X107218358Y-99942023D01*
X130851115Y-81706641D02*
X129851115Y-81706641D01*
X129851115Y-81706641D02*
X129851115Y-81325689D01*
X129851115Y-81325689D02*
X129898734Y-81230451D01*
X129898734Y-81230451D02*
X129946353Y-81182832D01*
X129946353Y-81182832D02*
X130041591Y-81135213D01*
X130041591Y-81135213D02*
X130184448Y-81135213D01*
X130184448Y-81135213D02*
X130279686Y-81182832D01*
X130279686Y-81182832D02*
X130327305Y-81230451D01*
X130327305Y-81230451D02*
X130374924Y-81325689D01*
X130374924Y-81325689D02*
X130374924Y-81706641D01*
X130327305Y-80373308D02*
X130374924Y-80230451D01*
X130374924Y-80230451D02*
X130422543Y-80182832D01*
X130422543Y-80182832D02*
X130517781Y-80135213D01*
X130517781Y-80135213D02*
X130660638Y-80135213D01*
X130660638Y-80135213D02*
X130755876Y-80182832D01*
X130755876Y-80182832D02*
X130803496Y-80230451D01*
X130803496Y-80230451D02*
X130851115Y-80325689D01*
X130851115Y-80325689D02*
X130851115Y-80706641D01*
X130851115Y-80706641D02*
X129851115Y-80706641D01*
X129851115Y-80706641D02*
X129851115Y-80373308D01*
X129851115Y-80373308D02*
X129898734Y-80278070D01*
X129898734Y-80278070D02*
X129946353Y-80230451D01*
X129946353Y-80230451D02*
X130041591Y-80182832D01*
X130041591Y-80182832D02*
X130136829Y-80182832D01*
X130136829Y-80182832D02*
X130232067Y-80230451D01*
X130232067Y-80230451D02*
X130279686Y-80278070D01*
X130279686Y-80278070D02*
X130327305Y-80373308D01*
X130327305Y-80373308D02*
X130327305Y-80706641D01*
X129851115Y-79230451D02*
X129851115Y-79706641D01*
X129851115Y-79706641D02*
X130327305Y-79754260D01*
X130327305Y-79754260D02*
X130279686Y-79706641D01*
X130279686Y-79706641D02*
X130232067Y-79611403D01*
X130232067Y-79611403D02*
X130232067Y-79373308D01*
X130232067Y-79373308D02*
X130279686Y-79278070D01*
X130279686Y-79278070D02*
X130327305Y-79230451D01*
X130327305Y-79230451D02*
X130422543Y-79182832D01*
X130422543Y-79182832D02*
X130660638Y-79182832D01*
X130660638Y-79182832D02*
X130755876Y-79230451D01*
X130755876Y-79230451D02*
X130803496Y-79278070D01*
X130803496Y-79278070D02*
X130851115Y-79373308D01*
X130851115Y-79373308D02*
X130851115Y-79611403D01*
X130851115Y-79611403D02*
X130803496Y-79706641D01*
X130803496Y-79706641D02*
X130755876Y-79754260D01*
X110487483Y-82659022D02*
X109487483Y-82659022D01*
X109487483Y-82659022D02*
X109487483Y-82278070D01*
X109487483Y-82278070D02*
X109535102Y-82182832D01*
X109535102Y-82182832D02*
X109582721Y-82135213D01*
X109582721Y-82135213D02*
X109677959Y-82087594D01*
X109677959Y-82087594D02*
X109820816Y-82087594D01*
X109820816Y-82087594D02*
X109916054Y-82135213D01*
X109916054Y-82135213D02*
X109963673Y-82182832D01*
X109963673Y-82182832D02*
X110011292Y-82278070D01*
X110011292Y-82278070D02*
X110011292Y-82659022D01*
X110392244Y-81087594D02*
X110439864Y-81135213D01*
X110439864Y-81135213D02*
X110487483Y-81278070D01*
X110487483Y-81278070D02*
X110487483Y-81373308D01*
X110487483Y-81373308D02*
X110439864Y-81516165D01*
X110439864Y-81516165D02*
X110344625Y-81611403D01*
X110344625Y-81611403D02*
X110249387Y-81659022D01*
X110249387Y-81659022D02*
X110058911Y-81706641D01*
X110058911Y-81706641D02*
X109916054Y-81706641D01*
X109916054Y-81706641D02*
X109725578Y-81659022D01*
X109725578Y-81659022D02*
X109630340Y-81611403D01*
X109630340Y-81611403D02*
X109535102Y-81516165D01*
X109535102Y-81516165D02*
X109487483Y-81373308D01*
X109487483Y-81373308D02*
X109487483Y-81278070D01*
X109487483Y-81278070D02*
X109535102Y-81135213D01*
X109535102Y-81135213D02*
X109582721Y-81087594D01*
X110487483Y-80135213D02*
X110487483Y-80706641D01*
X110487483Y-80420927D02*
X109487483Y-80420927D01*
X109487483Y-80420927D02*
X109630340Y-80516165D01*
X109630340Y-80516165D02*
X109725578Y-80611403D01*
X109725578Y-80611403D02*
X109773197Y-80706641D01*
X109820816Y-79278070D02*
X110487483Y-79278070D01*
X109439864Y-79516165D02*
X110154149Y-79754260D01*
X110154149Y-79754260D02*
X110154149Y-79135213D01*
X146440977Y-93128391D02*
X146440977Y-92128391D01*
X146440977Y-92128391D02*
X146821929Y-92128391D01*
X146821929Y-92128391D02*
X146917167Y-92176010D01*
X146917167Y-92176010D02*
X146964786Y-92223629D01*
X146964786Y-92223629D02*
X147012405Y-92318867D01*
X147012405Y-92318867D02*
X147012405Y-92461724D01*
X147012405Y-92461724D02*
X146964786Y-92556962D01*
X146964786Y-92556962D02*
X146917167Y-92604581D01*
X146917167Y-92604581D02*
X146821929Y-92652200D01*
X146821929Y-92652200D02*
X146440977Y-92652200D01*
X147393358Y-92842676D02*
X147869548Y-92842676D01*
X147298120Y-93128391D02*
X147631453Y-92128391D01*
X147631453Y-92128391D02*
X147964786Y-93128391D01*
X148821929Y-93128391D02*
X148250501Y-93128391D01*
X148536215Y-93128391D02*
X148536215Y-92128391D01*
X148536215Y-92128391D02*
X148440977Y-92271248D01*
X148440977Y-92271248D02*
X148345739Y-92366486D01*
X148345739Y-92366486D02*
X148250501Y-92414105D01*
X149774310Y-93128391D02*
X149202882Y-93128391D01*
X149488596Y-93128391D02*
X149488596Y-92128391D01*
X149488596Y-92128391D02*
X149393358Y-92271248D01*
X149393358Y-92271248D02*
X149298120Y-92366486D01*
X149298120Y-92366486D02*
X149202882Y-92414105D01*
X147393358Y-100764753D02*
X147393358Y-99764753D01*
X147393358Y-99764753D02*
X147774310Y-99764753D01*
X147774310Y-99764753D02*
X147869548Y-99812372D01*
X147869548Y-99812372D02*
X147917167Y-99859991D01*
X147917167Y-99859991D02*
X147964786Y-99955229D01*
X147964786Y-99955229D02*
X147964786Y-100098086D01*
X147964786Y-100098086D02*
X147917167Y-100193324D01*
X147917167Y-100193324D02*
X147869548Y-100240943D01*
X147869548Y-100240943D02*
X147774310Y-100288562D01*
X147774310Y-100288562D02*
X147393358Y-100288562D01*
X148345739Y-100479038D02*
X148821929Y-100479038D01*
X148250501Y-100764753D02*
X148583834Y-99764753D01*
X148583834Y-99764753D02*
X148917167Y-100764753D01*
X149393358Y-100193324D02*
X149298120Y-100145705D01*
X149298120Y-100145705D02*
X149250501Y-100098086D01*
X149250501Y-100098086D02*
X149202882Y-100002848D01*
X149202882Y-100002848D02*
X149202882Y-99955229D01*
X149202882Y-99955229D02*
X149250501Y-99859991D01*
X149250501Y-99859991D02*
X149298120Y-99812372D01*
X149298120Y-99812372D02*
X149393358Y-99764753D01*
X149393358Y-99764753D02*
X149583834Y-99764753D01*
X149583834Y-99764753D02*
X149679072Y-99812372D01*
X149679072Y-99812372D02*
X149726691Y-99859991D01*
X149726691Y-99859991D02*
X149774310Y-99955229D01*
X149774310Y-99955229D02*
X149774310Y-100002848D01*
X149774310Y-100002848D02*
X149726691Y-100098086D01*
X149726691Y-100098086D02*
X149679072Y-100145705D01*
X149679072Y-100145705D02*
X149583834Y-100193324D01*
X149583834Y-100193324D02*
X149393358Y-100193324D01*
X149393358Y-100193324D02*
X149298120Y-100240943D01*
X149298120Y-100240943D02*
X149250501Y-100288562D01*
X149250501Y-100288562D02*
X149202882Y-100383800D01*
X149202882Y-100383800D02*
X149202882Y-100574276D01*
X149202882Y-100574276D02*
X149250501Y-100669514D01*
X149250501Y-100669514D02*
X149298120Y-100717134D01*
X149298120Y-100717134D02*
X149393358Y-100764753D01*
X149393358Y-100764753D02*
X149583834Y-100764753D01*
X149583834Y-100764753D02*
X149679072Y-100717134D01*
X149679072Y-100717134D02*
X149726691Y-100669514D01*
X149726691Y-100669514D02*
X149774310Y-100574276D01*
X149774310Y-100574276D02*
X149774310Y-100383800D01*
X149774310Y-100383800D02*
X149726691Y-100288562D01*
X149726691Y-100288562D02*
X149679072Y-100240943D01*
X149679072Y-100240943D02*
X149583834Y-100193324D01*
X104027882Y-113621680D02*
X104170739Y-113669299D01*
X104170739Y-113669299D02*
X104408834Y-113669299D01*
X104408834Y-113669299D02*
X104504072Y-113621680D01*
X104504072Y-113621680D02*
X104551691Y-113574060D01*
X104551691Y-113574060D02*
X104599310Y-113478822D01*
X104599310Y-113478822D02*
X104599310Y-113383584D01*
X104599310Y-113383584D02*
X104551691Y-113288346D01*
X104551691Y-113288346D02*
X104504072Y-113240727D01*
X104504072Y-113240727D02*
X104408834Y-113193108D01*
X104408834Y-113193108D02*
X104218358Y-113145489D01*
X104218358Y-113145489D02*
X104123120Y-113097870D01*
X104123120Y-113097870D02*
X104075501Y-113050251D01*
X104075501Y-113050251D02*
X104027882Y-112955013D01*
X104027882Y-112955013D02*
X104027882Y-112859775D01*
X104027882Y-112859775D02*
X104075501Y-112764537D01*
X104075501Y-112764537D02*
X104123120Y-112716918D01*
X104123120Y-112716918D02*
X104218358Y-112669299D01*
X104218358Y-112669299D02*
X104456453Y-112669299D01*
X104456453Y-112669299D02*
X104599310Y-112716918D01*
X105027882Y-113669299D02*
X105027882Y-112669299D01*
X105027882Y-112669299D02*
X105265977Y-112669299D01*
X105265977Y-112669299D02*
X105408834Y-112716918D01*
X105408834Y-112716918D02*
X105504072Y-112812156D01*
X105504072Y-112812156D02*
X105551691Y-112907394D01*
X105551691Y-112907394D02*
X105599310Y-113097870D01*
X105599310Y-113097870D02*
X105599310Y-113240727D01*
X105599310Y-113240727D02*
X105551691Y-113431203D01*
X105551691Y-113431203D02*
X105504072Y-113526441D01*
X105504072Y-113526441D02*
X105408834Y-113621680D01*
X105408834Y-113621680D02*
X105265977Y-113669299D01*
X105265977Y-113669299D02*
X105027882Y-113669299D01*
X105980263Y-113383584D02*
X106456453Y-113383584D01*
X105885025Y-113669299D02*
X106218358Y-112669299D01*
X106218358Y-112669299D02*
X106551691Y-113669299D01*
X104075501Y-88214753D02*
X104075501Y-87214753D01*
X104075501Y-87214753D02*
X104456453Y-87214753D01*
X104456453Y-87214753D02*
X104551691Y-87262372D01*
X104551691Y-87262372D02*
X104599310Y-87309991D01*
X104599310Y-87309991D02*
X104646929Y-87405229D01*
X104646929Y-87405229D02*
X104646929Y-87548086D01*
X104646929Y-87548086D02*
X104599310Y-87643324D01*
X104599310Y-87643324D02*
X104551691Y-87690943D01*
X104551691Y-87690943D02*
X104456453Y-87738562D01*
X104456453Y-87738562D02*
X104075501Y-87738562D01*
X105027882Y-87929038D02*
X105504072Y-87929038D01*
X104932644Y-88214753D02*
X105265977Y-87214753D01*
X105265977Y-87214753D02*
X105599310Y-88214753D01*
X106123120Y-87214753D02*
X106218358Y-87214753D01*
X106218358Y-87214753D02*
X106313596Y-87262372D01*
X106313596Y-87262372D02*
X106361215Y-87309991D01*
X106361215Y-87309991D02*
X106408834Y-87405229D01*
X106408834Y-87405229D02*
X106456453Y-87595705D01*
X106456453Y-87595705D02*
X106456453Y-87833800D01*
X106456453Y-87833800D02*
X106408834Y-88024276D01*
X106408834Y-88024276D02*
X106361215Y-88119514D01*
X106361215Y-88119514D02*
X106313596Y-88167134D01*
X106313596Y-88167134D02*
X106218358Y-88214753D01*
X106218358Y-88214753D02*
X106123120Y-88214753D01*
X106123120Y-88214753D02*
X106027882Y-88167134D01*
X106027882Y-88167134D02*
X105980263Y-88119514D01*
X105980263Y-88119514D02*
X105932644Y-88024276D01*
X105932644Y-88024276D02*
X105885025Y-87833800D01*
X105885025Y-87833800D02*
X105885025Y-87595705D01*
X105885025Y-87595705D02*
X105932644Y-87405229D01*
X105932644Y-87405229D02*
X105980263Y-87309991D01*
X105980263Y-87309991D02*
X106027882Y-87262372D01*
X106027882Y-87262372D02*
X106123120Y-87214753D01*
X114578391Y-81611403D02*
X114578391Y-80992356D01*
X114578391Y-80992356D02*
X114959343Y-81325689D01*
X114959343Y-81325689D02*
X114959343Y-81182832D01*
X114959343Y-81182832D02*
X115006962Y-81087594D01*
X115006962Y-81087594D02*
X115054581Y-81039975D01*
X115054581Y-81039975D02*
X115149819Y-80992356D01*
X115149819Y-80992356D02*
X115387914Y-80992356D01*
X115387914Y-80992356D02*
X115483152Y-81039975D01*
X115483152Y-81039975D02*
X115530772Y-81087594D01*
X115530772Y-81087594D02*
X115578391Y-81182832D01*
X115578391Y-81182832D02*
X115578391Y-81468546D01*
X115578391Y-81468546D02*
X115530772Y-81563784D01*
X115530772Y-81563784D02*
X115483152Y-81611403D01*
X114578391Y-80706641D02*
X115578391Y-80373308D01*
X115578391Y-80373308D02*
X114578391Y-80039975D01*
X114578391Y-79801879D02*
X114578391Y-79182832D01*
X114578391Y-79182832D02*
X114959343Y-79516165D01*
X114959343Y-79516165D02*
X114959343Y-79373308D01*
X114959343Y-79373308D02*
X115006962Y-79278070D01*
X115006962Y-79278070D02*
X115054581Y-79230451D01*
X115054581Y-79230451D02*
X115149819Y-79182832D01*
X115149819Y-79182832D02*
X115387914Y-79182832D01*
X115387914Y-79182832D02*
X115483152Y-79230451D01*
X115483152Y-79230451D02*
X115530772Y-79278070D01*
X115530772Y-79278070D02*
X115578391Y-79373308D01*
X115578391Y-79373308D02*
X115578391Y-79659022D01*
X115578391Y-79659022D02*
X115530772Y-79754260D01*
X115530772Y-79754260D02*
X115483152Y-79801879D01*
X104027882Y-111076220D02*
X104170739Y-111123839D01*
X104170739Y-111123839D02*
X104408834Y-111123839D01*
X104408834Y-111123839D02*
X104504072Y-111076220D01*
X104504072Y-111076220D02*
X104551691Y-111028600D01*
X104551691Y-111028600D02*
X104599310Y-110933362D01*
X104599310Y-110933362D02*
X104599310Y-110838124D01*
X104599310Y-110838124D02*
X104551691Y-110742886D01*
X104551691Y-110742886D02*
X104504072Y-110695267D01*
X104504072Y-110695267D02*
X104408834Y-110647648D01*
X104408834Y-110647648D02*
X104218358Y-110600029D01*
X104218358Y-110600029D02*
X104123120Y-110552410D01*
X104123120Y-110552410D02*
X104075501Y-110504791D01*
X104075501Y-110504791D02*
X104027882Y-110409553D01*
X104027882Y-110409553D02*
X104027882Y-110314315D01*
X104027882Y-110314315D02*
X104075501Y-110219077D01*
X104075501Y-110219077D02*
X104123120Y-110171458D01*
X104123120Y-110171458D02*
X104218358Y-110123839D01*
X104218358Y-110123839D02*
X104456453Y-110123839D01*
X104456453Y-110123839D02*
X104599310Y-110171458D01*
X105599310Y-111028600D02*
X105551691Y-111076220D01*
X105551691Y-111076220D02*
X105408834Y-111123839D01*
X105408834Y-111123839D02*
X105313596Y-111123839D01*
X105313596Y-111123839D02*
X105170739Y-111076220D01*
X105170739Y-111076220D02*
X105075501Y-110980981D01*
X105075501Y-110980981D02*
X105027882Y-110885743D01*
X105027882Y-110885743D02*
X104980263Y-110695267D01*
X104980263Y-110695267D02*
X104980263Y-110552410D01*
X104980263Y-110552410D02*
X105027882Y-110361934D01*
X105027882Y-110361934D02*
X105075501Y-110266696D01*
X105075501Y-110266696D02*
X105170739Y-110171458D01*
X105170739Y-110171458D02*
X105313596Y-110123839D01*
X105313596Y-110123839D02*
X105408834Y-110123839D01*
X105408834Y-110123839D02*
X105551691Y-110171458D01*
X105551691Y-110171458D02*
X105599310Y-110219077D01*
X106504072Y-111123839D02*
X106027882Y-111123839D01*
X106027882Y-111123839D02*
X106027882Y-110123839D01*
X113032937Y-82659022D02*
X112032937Y-82659022D01*
X112032937Y-82659022D02*
X112032937Y-82278070D01*
X112032937Y-82278070D02*
X112080556Y-82182832D01*
X112080556Y-82182832D02*
X112128175Y-82135213D01*
X112128175Y-82135213D02*
X112223413Y-82087594D01*
X112223413Y-82087594D02*
X112366270Y-82087594D01*
X112366270Y-82087594D02*
X112461508Y-82135213D01*
X112461508Y-82135213D02*
X112509127Y-82182832D01*
X112509127Y-82182832D02*
X112556746Y-82278070D01*
X112556746Y-82278070D02*
X112556746Y-82659022D01*
X112937698Y-81087594D02*
X112985318Y-81135213D01*
X112985318Y-81135213D02*
X113032937Y-81278070D01*
X113032937Y-81278070D02*
X113032937Y-81373308D01*
X113032937Y-81373308D02*
X112985318Y-81516165D01*
X112985318Y-81516165D02*
X112890079Y-81611403D01*
X112890079Y-81611403D02*
X112794841Y-81659022D01*
X112794841Y-81659022D02*
X112604365Y-81706641D01*
X112604365Y-81706641D02*
X112461508Y-81706641D01*
X112461508Y-81706641D02*
X112271032Y-81659022D01*
X112271032Y-81659022D02*
X112175794Y-81611403D01*
X112175794Y-81611403D02*
X112080556Y-81516165D01*
X112080556Y-81516165D02*
X112032937Y-81373308D01*
X112032937Y-81373308D02*
X112032937Y-81278070D01*
X112032937Y-81278070D02*
X112080556Y-81135213D01*
X112080556Y-81135213D02*
X112128175Y-81087594D01*
X113032937Y-80135213D02*
X113032937Y-80706641D01*
X113032937Y-80420927D02*
X112032937Y-80420927D01*
X112032937Y-80420927D02*
X112175794Y-80516165D01*
X112175794Y-80516165D02*
X112271032Y-80611403D01*
X112271032Y-80611403D02*
X112318651Y-80706641D01*
X112032937Y-79801879D02*
X112032937Y-79182832D01*
X112032937Y-79182832D02*
X112413889Y-79516165D01*
X112413889Y-79516165D02*
X112413889Y-79373308D01*
X112413889Y-79373308D02*
X112461508Y-79278070D01*
X112461508Y-79278070D02*
X112509127Y-79230451D01*
X112509127Y-79230451D02*
X112604365Y-79182832D01*
X112604365Y-79182832D02*
X112842460Y-79182832D01*
X112842460Y-79182832D02*
X112937698Y-79230451D01*
X112937698Y-79230451D02*
X112985318Y-79278070D01*
X112985318Y-79278070D02*
X113032937Y-79373308D01*
X113032937Y-79373308D02*
X113032937Y-79659022D01*
X113032937Y-79659022D02*
X112985318Y-79754260D01*
X112985318Y-79754260D02*
X112937698Y-79801879D01*
X117171464Y-81278070D02*
X117123845Y-81373308D01*
X117123845Y-81373308D02*
X117123845Y-81516165D01*
X117123845Y-81516165D02*
X117171464Y-81659022D01*
X117171464Y-81659022D02*
X117266702Y-81754260D01*
X117266702Y-81754260D02*
X117361940Y-81801879D01*
X117361940Y-81801879D02*
X117552416Y-81849498D01*
X117552416Y-81849498D02*
X117695273Y-81849498D01*
X117695273Y-81849498D02*
X117885749Y-81801879D01*
X117885749Y-81801879D02*
X117980987Y-81754260D01*
X117980987Y-81754260D02*
X118076226Y-81659022D01*
X118076226Y-81659022D02*
X118123845Y-81516165D01*
X118123845Y-81516165D02*
X118123845Y-81420927D01*
X118123845Y-81420927D02*
X118076226Y-81278070D01*
X118076226Y-81278070D02*
X118028606Y-81230451D01*
X118028606Y-81230451D02*
X117695273Y-81230451D01*
X117695273Y-81230451D02*
X117695273Y-81420927D01*
X118123845Y-80801879D02*
X117123845Y-80801879D01*
X117123845Y-80801879D02*
X118123845Y-80230451D01*
X118123845Y-80230451D02*
X117123845Y-80230451D01*
X118123845Y-79754260D02*
X117123845Y-79754260D01*
X117123845Y-79754260D02*
X117123845Y-79516165D01*
X117123845Y-79516165D02*
X117171464Y-79373308D01*
X117171464Y-79373308D02*
X117266702Y-79278070D01*
X117266702Y-79278070D02*
X117361940Y-79230451D01*
X117361940Y-79230451D02*
X117552416Y-79182832D01*
X117552416Y-79182832D02*
X117695273Y-79182832D01*
X117695273Y-79182832D02*
X117885749Y-79230451D01*
X117885749Y-79230451D02*
X117980987Y-79278070D01*
X117980987Y-79278070D02*
X118076226Y-79373308D01*
X118076226Y-79373308D02*
X118123845Y-79516165D01*
X118123845Y-79516165D02*
X118123845Y-79754260D01*
X146440977Y-95673845D02*
X146440977Y-94673845D01*
X146440977Y-94673845D02*
X146821929Y-94673845D01*
X146821929Y-94673845D02*
X146917167Y-94721464D01*
X146917167Y-94721464D02*
X146964786Y-94769083D01*
X146964786Y-94769083D02*
X147012405Y-94864321D01*
X147012405Y-94864321D02*
X147012405Y-95007178D01*
X147012405Y-95007178D02*
X146964786Y-95102416D01*
X146964786Y-95102416D02*
X146917167Y-95150035D01*
X146917167Y-95150035D02*
X146821929Y-95197654D01*
X146821929Y-95197654D02*
X146440977Y-95197654D01*
X147393358Y-95388130D02*
X147869548Y-95388130D01*
X147298120Y-95673845D02*
X147631453Y-94673845D01*
X147631453Y-94673845D02*
X147964786Y-95673845D01*
X148821929Y-95673845D02*
X148250501Y-95673845D01*
X148536215Y-95673845D02*
X148536215Y-94673845D01*
X148536215Y-94673845D02*
X148440977Y-94816702D01*
X148440977Y-94816702D02*
X148345739Y-94911940D01*
X148345739Y-94911940D02*
X148250501Y-94959559D01*
X149440977Y-94673845D02*
X149536215Y-94673845D01*
X149536215Y-94673845D02*
X149631453Y-94721464D01*
X149631453Y-94721464D02*
X149679072Y-94769083D01*
X149679072Y-94769083D02*
X149726691Y-94864321D01*
X149726691Y-94864321D02*
X149774310Y-95054797D01*
X149774310Y-95054797D02*
X149774310Y-95292892D01*
X149774310Y-95292892D02*
X149726691Y-95483368D01*
X149726691Y-95483368D02*
X149679072Y-95578606D01*
X149679072Y-95578606D02*
X149631453Y-95626226D01*
X149631453Y-95626226D02*
X149536215Y-95673845D01*
X149536215Y-95673845D02*
X149440977Y-95673845D01*
X149440977Y-95673845D02*
X149345739Y-95626226D01*
X149345739Y-95626226D02*
X149298120Y-95578606D01*
X149298120Y-95578606D02*
X149250501Y-95483368D01*
X149250501Y-95483368D02*
X149202882Y-95292892D01*
X149202882Y-95292892D02*
X149202882Y-95054797D01*
X149202882Y-95054797D02*
X149250501Y-94864321D01*
X149250501Y-94864321D02*
X149298120Y-94769083D01*
X149298120Y-94769083D02*
X149345739Y-94721464D01*
X149345739Y-94721464D02*
X149440977Y-94673845D01*
X143130952Y-76879299D02*
X142654762Y-76879299D01*
X142654762Y-76879299D02*
X142654762Y-75879299D01*
X143464286Y-76355489D02*
X143797619Y-76355489D01*
X143940476Y-76879299D02*
X143464286Y-76879299D01*
X143464286Y-76879299D02*
X143464286Y-75879299D01*
X143464286Y-75879299D02*
X143940476Y-75879299D01*
X144369048Y-76879299D02*
X144369048Y-75879299D01*
X144369048Y-75879299D02*
X144607143Y-75879299D01*
X144607143Y-75879299D02*
X144750000Y-75926918D01*
X144750000Y-75926918D02*
X144845238Y-76022156D01*
X144845238Y-76022156D02*
X144892857Y-76117394D01*
X144892857Y-76117394D02*
X144940476Y-76307870D01*
X144940476Y-76307870D02*
X144940476Y-76450727D01*
X144940476Y-76450727D02*
X144892857Y-76641203D01*
X144892857Y-76641203D02*
X144845238Y-76736441D01*
X144845238Y-76736441D02*
X144750000Y-76831680D01*
X144750000Y-76831680D02*
X144607143Y-76879299D01*
X144607143Y-76879299D02*
X144369048Y-76879299D01*
X145892857Y-76879299D02*
X145321429Y-76879299D01*
X145607143Y-76879299D02*
X145607143Y-75879299D01*
X145607143Y-75879299D02*
X145511905Y-76022156D01*
X145511905Y-76022156D02*
X145416667Y-76117394D01*
X145416667Y-76117394D02*
X145321429Y-76165013D01*
X143155952Y-78754299D02*
X142679762Y-78754299D01*
X142679762Y-78754299D02*
X142679762Y-77754299D01*
X143489286Y-78230489D02*
X143822619Y-78230489D01*
X143965476Y-78754299D02*
X143489286Y-78754299D01*
X143489286Y-78754299D02*
X143489286Y-77754299D01*
X143489286Y-77754299D02*
X143965476Y-77754299D01*
X144394048Y-78754299D02*
X144394048Y-77754299D01*
X144394048Y-77754299D02*
X144632143Y-77754299D01*
X144632143Y-77754299D02*
X144775000Y-77801918D01*
X144775000Y-77801918D02*
X144870238Y-77897156D01*
X144870238Y-77897156D02*
X144917857Y-77992394D01*
X144917857Y-77992394D02*
X144965476Y-78182870D01*
X144965476Y-78182870D02*
X144965476Y-78325727D01*
X144965476Y-78325727D02*
X144917857Y-78516203D01*
X144917857Y-78516203D02*
X144870238Y-78611441D01*
X144870238Y-78611441D02*
X144775000Y-78706680D01*
X144775000Y-78706680D02*
X144632143Y-78754299D01*
X144632143Y-78754299D02*
X144394048Y-78754299D01*
X145346429Y-77849537D02*
X145394048Y-77801918D01*
X145394048Y-77801918D02*
X145489286Y-77754299D01*
X145489286Y-77754299D02*
X145727381Y-77754299D01*
X145727381Y-77754299D02*
X145822619Y-77801918D01*
X145822619Y-77801918D02*
X145870238Y-77849537D01*
X145870238Y-77849537D02*
X145917857Y-77944775D01*
X145917857Y-77944775D02*
X145917857Y-78040013D01*
X145917857Y-78040013D02*
X145870238Y-78182870D01*
X145870238Y-78182870D02*
X145298810Y-78754299D01*
X145298810Y-78754299D02*
X145917857Y-78754299D01*
X112258333Y-115029299D02*
X111925000Y-114553108D01*
X111686905Y-115029299D02*
X111686905Y-114029299D01*
X111686905Y-114029299D02*
X112067857Y-114029299D01*
X112067857Y-114029299D02*
X112163095Y-114076918D01*
X112163095Y-114076918D02*
X112210714Y-114124537D01*
X112210714Y-114124537D02*
X112258333Y-114219775D01*
X112258333Y-114219775D02*
X112258333Y-114362632D01*
X112258333Y-114362632D02*
X112210714Y-114457870D01*
X112210714Y-114457870D02*
X112163095Y-114505489D01*
X112163095Y-114505489D02*
X112067857Y-114553108D01*
X112067857Y-114553108D02*
X111686905Y-114553108D01*
X112591667Y-114029299D02*
X113210714Y-114029299D01*
X113210714Y-114029299D02*
X112877381Y-114410251D01*
X112877381Y-114410251D02*
X113020238Y-114410251D01*
X113020238Y-114410251D02*
X113115476Y-114457870D01*
X113115476Y-114457870D02*
X113163095Y-114505489D01*
X113163095Y-114505489D02*
X113210714Y-114600727D01*
X113210714Y-114600727D02*
X113210714Y-114838822D01*
X113210714Y-114838822D02*
X113163095Y-114934060D01*
X113163095Y-114934060D02*
X113115476Y-114981680D01*
X113115476Y-114981680D02*
X113020238Y-115029299D01*
X113020238Y-115029299D02*
X112734524Y-115029299D01*
X112734524Y-115029299D02*
X112639286Y-114981680D01*
X112639286Y-114981680D02*
X112591667Y-114934060D01*
X114566666Y-95305489D02*
X114233333Y-95305489D01*
X114233333Y-95829299D02*
X114233333Y-94829299D01*
X114233333Y-94829299D02*
X114709523Y-94829299D01*
X115423809Y-95305489D02*
X115566666Y-95353108D01*
X115566666Y-95353108D02*
X115614285Y-95400727D01*
X115614285Y-95400727D02*
X115661904Y-95495965D01*
X115661904Y-95495965D02*
X115661904Y-95638822D01*
X115661904Y-95638822D02*
X115614285Y-95734060D01*
X115614285Y-95734060D02*
X115566666Y-95781680D01*
X115566666Y-95781680D02*
X115471428Y-95829299D01*
X115471428Y-95829299D02*
X115090476Y-95829299D01*
X115090476Y-95829299D02*
X115090476Y-94829299D01*
X115090476Y-94829299D02*
X115423809Y-94829299D01*
X115423809Y-94829299D02*
X115519047Y-94876918D01*
X115519047Y-94876918D02*
X115566666Y-94924537D01*
X115566666Y-94924537D02*
X115614285Y-95019775D01*
X115614285Y-95019775D02*
X115614285Y-95115013D01*
X115614285Y-95115013D02*
X115566666Y-95210251D01*
X115566666Y-95210251D02*
X115519047Y-95257870D01*
X115519047Y-95257870D02*
X115423809Y-95305489D01*
X115423809Y-95305489D02*
X115090476Y-95305489D01*
X116614285Y-95829299D02*
X116042857Y-95829299D01*
X116328571Y-95829299D02*
X116328571Y-94829299D01*
X116328571Y-94829299D02*
X116233333Y-94972156D01*
X116233333Y-94972156D02*
X116138095Y-95067394D01*
X116138095Y-95067394D02*
X116042857Y-95115013D01*
X133008333Y-102759060D02*
X132960714Y-102806680D01*
X132960714Y-102806680D02*
X132817857Y-102854299D01*
X132817857Y-102854299D02*
X132722619Y-102854299D01*
X132722619Y-102854299D02*
X132579762Y-102806680D01*
X132579762Y-102806680D02*
X132484524Y-102711441D01*
X132484524Y-102711441D02*
X132436905Y-102616203D01*
X132436905Y-102616203D02*
X132389286Y-102425727D01*
X132389286Y-102425727D02*
X132389286Y-102282870D01*
X132389286Y-102282870D02*
X132436905Y-102092394D01*
X132436905Y-102092394D02*
X132484524Y-101997156D01*
X132484524Y-101997156D02*
X132579762Y-101901918D01*
X132579762Y-101901918D02*
X132722619Y-101854299D01*
X132722619Y-101854299D02*
X132817857Y-101854299D01*
X132817857Y-101854299D02*
X132960714Y-101901918D01*
X132960714Y-101901918D02*
X133008333Y-101949537D01*
X133865476Y-102187632D02*
X133865476Y-102854299D01*
X133627381Y-101806680D02*
X133389286Y-102520965D01*
X133389286Y-102520965D02*
X134008333Y-102520965D01*
X119423333Y-102814060D02*
X119375714Y-102861680D01*
X119375714Y-102861680D02*
X119232857Y-102909299D01*
X119232857Y-102909299D02*
X119137619Y-102909299D01*
X119137619Y-102909299D02*
X118994762Y-102861680D01*
X118994762Y-102861680D02*
X118899524Y-102766441D01*
X118899524Y-102766441D02*
X118851905Y-102671203D01*
X118851905Y-102671203D02*
X118804286Y-102480727D01*
X118804286Y-102480727D02*
X118804286Y-102337870D01*
X118804286Y-102337870D02*
X118851905Y-102147394D01*
X118851905Y-102147394D02*
X118899524Y-102052156D01*
X118899524Y-102052156D02*
X118994762Y-101956918D01*
X118994762Y-101956918D02*
X119137619Y-101909299D01*
X119137619Y-101909299D02*
X119232857Y-101909299D01*
X119232857Y-101909299D02*
X119375714Y-101956918D01*
X119375714Y-101956918D02*
X119423333Y-102004537D01*
X119994762Y-102337870D02*
X119899524Y-102290251D01*
X119899524Y-102290251D02*
X119851905Y-102242632D01*
X119851905Y-102242632D02*
X119804286Y-102147394D01*
X119804286Y-102147394D02*
X119804286Y-102099775D01*
X119804286Y-102099775D02*
X119851905Y-102004537D01*
X119851905Y-102004537D02*
X119899524Y-101956918D01*
X119899524Y-101956918D02*
X119994762Y-101909299D01*
X119994762Y-101909299D02*
X120185238Y-101909299D01*
X120185238Y-101909299D02*
X120280476Y-101956918D01*
X120280476Y-101956918D02*
X120328095Y-102004537D01*
X120328095Y-102004537D02*
X120375714Y-102099775D01*
X120375714Y-102099775D02*
X120375714Y-102147394D01*
X120375714Y-102147394D02*
X120328095Y-102242632D01*
X120328095Y-102242632D02*
X120280476Y-102290251D01*
X120280476Y-102290251D02*
X120185238Y-102337870D01*
X120185238Y-102337870D02*
X119994762Y-102337870D01*
X119994762Y-102337870D02*
X119899524Y-102385489D01*
X119899524Y-102385489D02*
X119851905Y-102433108D01*
X119851905Y-102433108D02*
X119804286Y-102528346D01*
X119804286Y-102528346D02*
X119804286Y-102718822D01*
X119804286Y-102718822D02*
X119851905Y-102814060D01*
X119851905Y-102814060D02*
X119899524Y-102861680D01*
X119899524Y-102861680D02*
X119994762Y-102909299D01*
X119994762Y-102909299D02*
X120185238Y-102909299D01*
X120185238Y-102909299D02*
X120280476Y-102861680D01*
X120280476Y-102861680D02*
X120328095Y-102814060D01*
X120328095Y-102814060D02*
X120375714Y-102718822D01*
X120375714Y-102718822D02*
X120375714Y-102528346D01*
X120375714Y-102528346D02*
X120328095Y-102433108D01*
X120328095Y-102433108D02*
X120280476Y-102385489D01*
X120280476Y-102385489D02*
X120185238Y-102337870D01*
X115073809Y-89053108D02*
X115073809Y-89529299D01*
X114740476Y-88529299D02*
X115073809Y-89053108D01*
X115073809Y-89053108D02*
X115407142Y-88529299D01*
X116264285Y-89529299D02*
X115692857Y-89529299D01*
X115978571Y-89529299D02*
X115978571Y-88529299D01*
X115978571Y-88529299D02*
X115883333Y-88672156D01*
X115883333Y-88672156D02*
X115788095Y-88767394D01*
X115788095Y-88767394D02*
X115692857Y-88815013D01*
X120883333Y-92334060D02*
X120835714Y-92381680D01*
X120835714Y-92381680D02*
X120692857Y-92429299D01*
X120692857Y-92429299D02*
X120597619Y-92429299D01*
X120597619Y-92429299D02*
X120454762Y-92381680D01*
X120454762Y-92381680D02*
X120359524Y-92286441D01*
X120359524Y-92286441D02*
X120311905Y-92191203D01*
X120311905Y-92191203D02*
X120264286Y-92000727D01*
X120264286Y-92000727D02*
X120264286Y-91857870D01*
X120264286Y-91857870D02*
X120311905Y-91667394D01*
X120311905Y-91667394D02*
X120359524Y-91572156D01*
X120359524Y-91572156D02*
X120454762Y-91476918D01*
X120454762Y-91476918D02*
X120597619Y-91429299D01*
X120597619Y-91429299D02*
X120692857Y-91429299D01*
X120692857Y-91429299D02*
X120835714Y-91476918D01*
X120835714Y-91476918D02*
X120883333Y-91524537D01*
X121216667Y-91429299D02*
X121883333Y-91429299D01*
X121883333Y-91429299D02*
X121454762Y-92429299D01*
X130558333Y-86904299D02*
X130225000Y-86428108D01*
X129986905Y-86904299D02*
X129986905Y-85904299D01*
X129986905Y-85904299D02*
X130367857Y-85904299D01*
X130367857Y-85904299D02*
X130463095Y-85951918D01*
X130463095Y-85951918D02*
X130510714Y-85999537D01*
X130510714Y-85999537D02*
X130558333Y-86094775D01*
X130558333Y-86094775D02*
X130558333Y-86237632D01*
X130558333Y-86237632D02*
X130510714Y-86332870D01*
X130510714Y-86332870D02*
X130463095Y-86380489D01*
X130463095Y-86380489D02*
X130367857Y-86428108D01*
X130367857Y-86428108D02*
X129986905Y-86428108D01*
X131415476Y-85904299D02*
X131225000Y-85904299D01*
X131225000Y-85904299D02*
X131129762Y-85951918D01*
X131129762Y-85951918D02*
X131082143Y-85999537D01*
X131082143Y-85999537D02*
X130986905Y-86142394D01*
X130986905Y-86142394D02*
X130939286Y-86332870D01*
X130939286Y-86332870D02*
X130939286Y-86713822D01*
X130939286Y-86713822D02*
X130986905Y-86809060D01*
X130986905Y-86809060D02*
X131034524Y-86856680D01*
X131034524Y-86856680D02*
X131129762Y-86904299D01*
X131129762Y-86904299D02*
X131320238Y-86904299D01*
X131320238Y-86904299D02*
X131415476Y-86856680D01*
X131415476Y-86856680D02*
X131463095Y-86809060D01*
X131463095Y-86809060D02*
X131510714Y-86713822D01*
X131510714Y-86713822D02*
X131510714Y-86475727D01*
X131510714Y-86475727D02*
X131463095Y-86380489D01*
X131463095Y-86380489D02*
X131415476Y-86332870D01*
X131415476Y-86332870D02*
X131320238Y-86285251D01*
X131320238Y-86285251D02*
X131129762Y-86285251D01*
X131129762Y-86285251D02*
X131034524Y-86332870D01*
X131034524Y-86332870D02*
X130986905Y-86380489D01*
X130986905Y-86380489D02*
X130939286Y-86475727D01*
X118533333Y-98009060D02*
X118485714Y-98056680D01*
X118485714Y-98056680D02*
X118342857Y-98104299D01*
X118342857Y-98104299D02*
X118247619Y-98104299D01*
X118247619Y-98104299D02*
X118104762Y-98056680D01*
X118104762Y-98056680D02*
X118009524Y-97961441D01*
X118009524Y-97961441D02*
X117961905Y-97866203D01*
X117961905Y-97866203D02*
X117914286Y-97675727D01*
X117914286Y-97675727D02*
X117914286Y-97532870D01*
X117914286Y-97532870D02*
X117961905Y-97342394D01*
X117961905Y-97342394D02*
X118009524Y-97247156D01*
X118009524Y-97247156D02*
X118104762Y-97151918D01*
X118104762Y-97151918D02*
X118247619Y-97104299D01*
X118247619Y-97104299D02*
X118342857Y-97104299D01*
X118342857Y-97104299D02*
X118485714Y-97151918D01*
X118485714Y-97151918D02*
X118533333Y-97199537D01*
X119390476Y-97104299D02*
X119200000Y-97104299D01*
X119200000Y-97104299D02*
X119104762Y-97151918D01*
X119104762Y-97151918D02*
X119057143Y-97199537D01*
X119057143Y-97199537D02*
X118961905Y-97342394D01*
X118961905Y-97342394D02*
X118914286Y-97532870D01*
X118914286Y-97532870D02*
X118914286Y-97913822D01*
X118914286Y-97913822D02*
X118961905Y-98009060D01*
X118961905Y-98009060D02*
X119009524Y-98056680D01*
X119009524Y-98056680D02*
X119104762Y-98104299D01*
X119104762Y-98104299D02*
X119295238Y-98104299D01*
X119295238Y-98104299D02*
X119390476Y-98056680D01*
X119390476Y-98056680D02*
X119438095Y-98009060D01*
X119438095Y-98009060D02*
X119485714Y-97913822D01*
X119485714Y-97913822D02*
X119485714Y-97675727D01*
X119485714Y-97675727D02*
X119438095Y-97580489D01*
X119438095Y-97580489D02*
X119390476Y-97532870D01*
X119390476Y-97532870D02*
X119295238Y-97485251D01*
X119295238Y-97485251D02*
X119104762Y-97485251D01*
X119104762Y-97485251D02*
X119009524Y-97532870D01*
X119009524Y-97532870D02*
X118961905Y-97580489D01*
X118961905Y-97580489D02*
X118914286Y-97675727D01*
X131608333Y-85004299D02*
X131275000Y-84528108D01*
X131036905Y-85004299D02*
X131036905Y-84004299D01*
X131036905Y-84004299D02*
X131417857Y-84004299D01*
X131417857Y-84004299D02*
X131513095Y-84051918D01*
X131513095Y-84051918D02*
X131560714Y-84099537D01*
X131560714Y-84099537D02*
X131608333Y-84194775D01*
X131608333Y-84194775D02*
X131608333Y-84337632D01*
X131608333Y-84337632D02*
X131560714Y-84432870D01*
X131560714Y-84432870D02*
X131513095Y-84480489D01*
X131513095Y-84480489D02*
X131417857Y-84528108D01*
X131417857Y-84528108D02*
X131036905Y-84528108D01*
X131941667Y-84004299D02*
X132608333Y-84004299D01*
X132608333Y-84004299D02*
X132179762Y-85004299D01*
X141513095Y-115629299D02*
X141513095Y-116438822D01*
X141513095Y-116438822D02*
X141560714Y-116534060D01*
X141560714Y-116534060D02*
X141608333Y-116581680D01*
X141608333Y-116581680D02*
X141703571Y-116629299D01*
X141703571Y-116629299D02*
X141894047Y-116629299D01*
X141894047Y-116629299D02*
X141989285Y-116581680D01*
X141989285Y-116581680D02*
X142036904Y-116534060D01*
X142036904Y-116534060D02*
X142084523Y-116438822D01*
X142084523Y-116438822D02*
X142084523Y-115629299D01*
X142465476Y-115629299D02*
X143084523Y-115629299D01*
X143084523Y-115629299D02*
X142751190Y-116010251D01*
X142751190Y-116010251D02*
X142894047Y-116010251D01*
X142894047Y-116010251D02*
X142989285Y-116057870D01*
X142989285Y-116057870D02*
X143036904Y-116105489D01*
X143036904Y-116105489D02*
X143084523Y-116200727D01*
X143084523Y-116200727D02*
X143084523Y-116438822D01*
X143084523Y-116438822D02*
X143036904Y-116534060D01*
X143036904Y-116534060D02*
X142989285Y-116581680D01*
X142989285Y-116581680D02*
X142894047Y-116629299D01*
X142894047Y-116629299D02*
X142608333Y-116629299D01*
X142608333Y-116629299D02*
X142513095Y-116581680D01*
X142513095Y-116581680D02*
X142465476Y-116534060D01*
X120658333Y-89159060D02*
X120610714Y-89206680D01*
X120610714Y-89206680D02*
X120467857Y-89254299D01*
X120467857Y-89254299D02*
X120372619Y-89254299D01*
X120372619Y-89254299D02*
X120229762Y-89206680D01*
X120229762Y-89206680D02*
X120134524Y-89111441D01*
X120134524Y-89111441D02*
X120086905Y-89016203D01*
X120086905Y-89016203D02*
X120039286Y-88825727D01*
X120039286Y-88825727D02*
X120039286Y-88682870D01*
X120039286Y-88682870D02*
X120086905Y-88492394D01*
X120086905Y-88492394D02*
X120134524Y-88397156D01*
X120134524Y-88397156D02*
X120229762Y-88301918D01*
X120229762Y-88301918D02*
X120372619Y-88254299D01*
X120372619Y-88254299D02*
X120467857Y-88254299D01*
X120467857Y-88254299D02*
X120610714Y-88301918D01*
X120610714Y-88301918D02*
X120658333Y-88349537D01*
X121610714Y-89254299D02*
X121039286Y-89254299D01*
X121325000Y-89254299D02*
X121325000Y-88254299D01*
X121325000Y-88254299D02*
X121229762Y-88397156D01*
X121229762Y-88397156D02*
X121134524Y-88492394D01*
X121134524Y-88492394D02*
X121039286Y-88540013D01*
X117332142Y-90134060D02*
X117284523Y-90181680D01*
X117284523Y-90181680D02*
X117141666Y-90229299D01*
X117141666Y-90229299D02*
X117046428Y-90229299D01*
X117046428Y-90229299D02*
X116903571Y-90181680D01*
X116903571Y-90181680D02*
X116808333Y-90086441D01*
X116808333Y-90086441D02*
X116760714Y-89991203D01*
X116760714Y-89991203D02*
X116713095Y-89800727D01*
X116713095Y-89800727D02*
X116713095Y-89657870D01*
X116713095Y-89657870D02*
X116760714Y-89467394D01*
X116760714Y-89467394D02*
X116808333Y-89372156D01*
X116808333Y-89372156D02*
X116903571Y-89276918D01*
X116903571Y-89276918D02*
X117046428Y-89229299D01*
X117046428Y-89229299D02*
X117141666Y-89229299D01*
X117141666Y-89229299D02*
X117284523Y-89276918D01*
X117284523Y-89276918D02*
X117332142Y-89324537D01*
X118284523Y-90229299D02*
X117713095Y-90229299D01*
X117998809Y-90229299D02*
X117998809Y-89229299D01*
X117998809Y-89229299D02*
X117903571Y-89372156D01*
X117903571Y-89372156D02*
X117808333Y-89467394D01*
X117808333Y-89467394D02*
X117713095Y-89515013D01*
X118903571Y-89229299D02*
X118998809Y-89229299D01*
X118998809Y-89229299D02*
X119094047Y-89276918D01*
X119094047Y-89276918D02*
X119141666Y-89324537D01*
X119141666Y-89324537D02*
X119189285Y-89419775D01*
X119189285Y-89419775D02*
X119236904Y-89610251D01*
X119236904Y-89610251D02*
X119236904Y-89848346D01*
X119236904Y-89848346D02*
X119189285Y-90038822D01*
X119189285Y-90038822D02*
X119141666Y-90134060D01*
X119141666Y-90134060D02*
X119094047Y-90181680D01*
X119094047Y-90181680D02*
X118998809Y-90229299D01*
X118998809Y-90229299D02*
X118903571Y-90229299D01*
X118903571Y-90229299D02*
X118808333Y-90181680D01*
X118808333Y-90181680D02*
X118760714Y-90134060D01*
X118760714Y-90134060D02*
X118713095Y-90038822D01*
X118713095Y-90038822D02*
X118665476Y-89848346D01*
X118665476Y-89848346D02*
X118665476Y-89610251D01*
X118665476Y-89610251D02*
X118713095Y-89419775D01*
X118713095Y-89419775D02*
X118760714Y-89324537D01*
X118760714Y-89324537D02*
X118808333Y-89276918D01*
X118808333Y-89276918D02*
X118903571Y-89229299D01*
X145083333Y-114954299D02*
X144750000Y-114478108D01*
X144511905Y-114954299D02*
X144511905Y-113954299D01*
X144511905Y-113954299D02*
X144892857Y-113954299D01*
X144892857Y-113954299D02*
X144988095Y-114001918D01*
X144988095Y-114001918D02*
X145035714Y-114049537D01*
X145035714Y-114049537D02*
X145083333Y-114144775D01*
X145083333Y-114144775D02*
X145083333Y-114287632D01*
X145083333Y-114287632D02*
X145035714Y-114382870D01*
X145035714Y-114382870D02*
X144988095Y-114430489D01*
X144988095Y-114430489D02*
X144892857Y-114478108D01*
X144892857Y-114478108D02*
X144511905Y-114478108D01*
X145940476Y-114287632D02*
X145940476Y-114954299D01*
X145702381Y-113906680D02*
X145464286Y-114620965D01*
X145464286Y-114620965D02*
X146083333Y-114620965D01*
X109533333Y-91859060D02*
X109485714Y-91906680D01*
X109485714Y-91906680D02*
X109342857Y-91954299D01*
X109342857Y-91954299D02*
X109247619Y-91954299D01*
X109247619Y-91954299D02*
X109104762Y-91906680D01*
X109104762Y-91906680D02*
X109009524Y-91811441D01*
X109009524Y-91811441D02*
X108961905Y-91716203D01*
X108961905Y-91716203D02*
X108914286Y-91525727D01*
X108914286Y-91525727D02*
X108914286Y-91382870D01*
X108914286Y-91382870D02*
X108961905Y-91192394D01*
X108961905Y-91192394D02*
X109009524Y-91097156D01*
X109009524Y-91097156D02*
X109104762Y-91001918D01*
X109104762Y-91001918D02*
X109247619Y-90954299D01*
X109247619Y-90954299D02*
X109342857Y-90954299D01*
X109342857Y-90954299D02*
X109485714Y-91001918D01*
X109485714Y-91001918D02*
X109533333Y-91049537D01*
X110009524Y-91954299D02*
X110200000Y-91954299D01*
X110200000Y-91954299D02*
X110295238Y-91906680D01*
X110295238Y-91906680D02*
X110342857Y-91859060D01*
X110342857Y-91859060D02*
X110438095Y-91716203D01*
X110438095Y-91716203D02*
X110485714Y-91525727D01*
X110485714Y-91525727D02*
X110485714Y-91144775D01*
X110485714Y-91144775D02*
X110438095Y-91049537D01*
X110438095Y-91049537D02*
X110390476Y-91001918D01*
X110390476Y-91001918D02*
X110295238Y-90954299D01*
X110295238Y-90954299D02*
X110104762Y-90954299D01*
X110104762Y-90954299D02*
X110009524Y-91001918D01*
X110009524Y-91001918D02*
X109961905Y-91049537D01*
X109961905Y-91049537D02*
X109914286Y-91144775D01*
X109914286Y-91144775D02*
X109914286Y-91382870D01*
X109914286Y-91382870D02*
X109961905Y-91478108D01*
X109961905Y-91478108D02*
X110009524Y-91525727D01*
X110009524Y-91525727D02*
X110104762Y-91573346D01*
X110104762Y-91573346D02*
X110295238Y-91573346D01*
X110295238Y-91573346D02*
X110390476Y-91525727D01*
X110390476Y-91525727D02*
X110438095Y-91478108D01*
X110438095Y-91478108D02*
X110485714Y-91382870D01*
X112258333Y-113539299D02*
X111925000Y-113063108D01*
X111686905Y-113539299D02*
X111686905Y-112539299D01*
X111686905Y-112539299D02*
X112067857Y-112539299D01*
X112067857Y-112539299D02*
X112163095Y-112586918D01*
X112163095Y-112586918D02*
X112210714Y-112634537D01*
X112210714Y-112634537D02*
X112258333Y-112729775D01*
X112258333Y-112729775D02*
X112258333Y-112872632D01*
X112258333Y-112872632D02*
X112210714Y-112967870D01*
X112210714Y-112967870D02*
X112163095Y-113015489D01*
X112163095Y-113015489D02*
X112067857Y-113063108D01*
X112067857Y-113063108D02*
X111686905Y-113063108D01*
X112639286Y-112634537D02*
X112686905Y-112586918D01*
X112686905Y-112586918D02*
X112782143Y-112539299D01*
X112782143Y-112539299D02*
X113020238Y-112539299D01*
X113020238Y-112539299D02*
X113115476Y-112586918D01*
X113115476Y-112586918D02*
X113163095Y-112634537D01*
X113163095Y-112634537D02*
X113210714Y-112729775D01*
X113210714Y-112729775D02*
X113210714Y-112825013D01*
X113210714Y-112825013D02*
X113163095Y-112967870D01*
X113163095Y-112967870D02*
X112591667Y-113539299D01*
X112591667Y-113539299D02*
X113210714Y-113539299D01*
X120438095Y-106804299D02*
X120438095Y-107613822D01*
X120438095Y-107613822D02*
X120485714Y-107709060D01*
X120485714Y-107709060D02*
X120533333Y-107756680D01*
X120533333Y-107756680D02*
X120628571Y-107804299D01*
X120628571Y-107804299D02*
X120819047Y-107804299D01*
X120819047Y-107804299D02*
X120914285Y-107756680D01*
X120914285Y-107756680D02*
X120961904Y-107709060D01*
X120961904Y-107709060D02*
X121009523Y-107613822D01*
X121009523Y-107613822D02*
X121009523Y-106804299D01*
X121438095Y-106899537D02*
X121485714Y-106851918D01*
X121485714Y-106851918D02*
X121580952Y-106804299D01*
X121580952Y-106804299D02*
X121819047Y-106804299D01*
X121819047Y-106804299D02*
X121914285Y-106851918D01*
X121914285Y-106851918D02*
X121961904Y-106899537D01*
X121961904Y-106899537D02*
X122009523Y-106994775D01*
X122009523Y-106994775D02*
X122009523Y-107090013D01*
X122009523Y-107090013D02*
X121961904Y-107232870D01*
X121961904Y-107232870D02*
X121390476Y-107804299D01*
X121390476Y-107804299D02*
X122009523Y-107804299D01*
X129841666Y-119130489D02*
X129508333Y-119130489D01*
X129508333Y-119654299D02*
X129508333Y-118654299D01*
X129508333Y-118654299D02*
X129984523Y-118654299D01*
X130698809Y-119130489D02*
X130841666Y-119178108D01*
X130841666Y-119178108D02*
X130889285Y-119225727D01*
X130889285Y-119225727D02*
X130936904Y-119320965D01*
X130936904Y-119320965D02*
X130936904Y-119463822D01*
X130936904Y-119463822D02*
X130889285Y-119559060D01*
X130889285Y-119559060D02*
X130841666Y-119606680D01*
X130841666Y-119606680D02*
X130746428Y-119654299D01*
X130746428Y-119654299D02*
X130365476Y-119654299D01*
X130365476Y-119654299D02*
X130365476Y-118654299D01*
X130365476Y-118654299D02*
X130698809Y-118654299D01*
X130698809Y-118654299D02*
X130794047Y-118701918D01*
X130794047Y-118701918D02*
X130841666Y-118749537D01*
X130841666Y-118749537D02*
X130889285Y-118844775D01*
X130889285Y-118844775D02*
X130889285Y-118940013D01*
X130889285Y-118940013D02*
X130841666Y-119035251D01*
X130841666Y-119035251D02*
X130794047Y-119082870D01*
X130794047Y-119082870D02*
X130698809Y-119130489D01*
X130698809Y-119130489D02*
X130365476Y-119130489D01*
X131317857Y-118749537D02*
X131365476Y-118701918D01*
X131365476Y-118701918D02*
X131460714Y-118654299D01*
X131460714Y-118654299D02*
X131698809Y-118654299D01*
X131698809Y-118654299D02*
X131794047Y-118701918D01*
X131794047Y-118701918D02*
X131841666Y-118749537D01*
X131841666Y-118749537D02*
X131889285Y-118844775D01*
X131889285Y-118844775D02*
X131889285Y-118940013D01*
X131889285Y-118940013D02*
X131841666Y-119082870D01*
X131841666Y-119082870D02*
X131270238Y-119654299D01*
X131270238Y-119654299D02*
X131889285Y-119654299D01*
X139057142Y-104684060D02*
X139009523Y-104731680D01*
X139009523Y-104731680D02*
X138866666Y-104779299D01*
X138866666Y-104779299D02*
X138771428Y-104779299D01*
X138771428Y-104779299D02*
X138628571Y-104731680D01*
X138628571Y-104731680D02*
X138533333Y-104636441D01*
X138533333Y-104636441D02*
X138485714Y-104541203D01*
X138485714Y-104541203D02*
X138438095Y-104350727D01*
X138438095Y-104350727D02*
X138438095Y-104207870D01*
X138438095Y-104207870D02*
X138485714Y-104017394D01*
X138485714Y-104017394D02*
X138533333Y-103922156D01*
X138533333Y-103922156D02*
X138628571Y-103826918D01*
X138628571Y-103826918D02*
X138771428Y-103779299D01*
X138771428Y-103779299D02*
X138866666Y-103779299D01*
X138866666Y-103779299D02*
X139009523Y-103826918D01*
X139009523Y-103826918D02*
X139057142Y-103874537D01*
X140009523Y-104779299D02*
X139438095Y-104779299D01*
X139723809Y-104779299D02*
X139723809Y-103779299D01*
X139723809Y-103779299D02*
X139628571Y-103922156D01*
X139628571Y-103922156D02*
X139533333Y-104017394D01*
X139533333Y-104017394D02*
X139438095Y-104065013D01*
X140390476Y-103874537D02*
X140438095Y-103826918D01*
X140438095Y-103826918D02*
X140533333Y-103779299D01*
X140533333Y-103779299D02*
X140771428Y-103779299D01*
X140771428Y-103779299D02*
X140866666Y-103826918D01*
X140866666Y-103826918D02*
X140914285Y-103874537D01*
X140914285Y-103874537D02*
X140961904Y-103969775D01*
X140961904Y-103969775D02*
X140961904Y-104065013D01*
X140961904Y-104065013D02*
X140914285Y-104207870D01*
X140914285Y-104207870D02*
X140342857Y-104779299D01*
X140342857Y-104779299D02*
X140961904Y-104779299D01*
X134732142Y-117384060D02*
X134684523Y-117431680D01*
X134684523Y-117431680D02*
X134541666Y-117479299D01*
X134541666Y-117479299D02*
X134446428Y-117479299D01*
X134446428Y-117479299D02*
X134303571Y-117431680D01*
X134303571Y-117431680D02*
X134208333Y-117336441D01*
X134208333Y-117336441D02*
X134160714Y-117241203D01*
X134160714Y-117241203D02*
X134113095Y-117050727D01*
X134113095Y-117050727D02*
X134113095Y-116907870D01*
X134113095Y-116907870D02*
X134160714Y-116717394D01*
X134160714Y-116717394D02*
X134208333Y-116622156D01*
X134208333Y-116622156D02*
X134303571Y-116526918D01*
X134303571Y-116526918D02*
X134446428Y-116479299D01*
X134446428Y-116479299D02*
X134541666Y-116479299D01*
X134541666Y-116479299D02*
X134684523Y-116526918D01*
X134684523Y-116526918D02*
X134732142Y-116574537D01*
X135684523Y-117479299D02*
X135113095Y-117479299D01*
X135398809Y-117479299D02*
X135398809Y-116479299D01*
X135398809Y-116479299D02*
X135303571Y-116622156D01*
X135303571Y-116622156D02*
X135208333Y-116717394D01*
X135208333Y-116717394D02*
X135113095Y-116765013D01*
X136636904Y-117479299D02*
X136065476Y-117479299D01*
X136351190Y-117479299D02*
X136351190Y-116479299D01*
X136351190Y-116479299D02*
X136255952Y-116622156D01*
X136255952Y-116622156D02*
X136160714Y-116717394D01*
X136160714Y-116717394D02*
X136065476Y-116765013D01*
X128208333Y-86954299D02*
X127875000Y-86478108D01*
X127636905Y-86954299D02*
X127636905Y-85954299D01*
X127636905Y-85954299D02*
X128017857Y-85954299D01*
X128017857Y-85954299D02*
X128113095Y-86001918D01*
X128113095Y-86001918D02*
X128160714Y-86049537D01*
X128160714Y-86049537D02*
X128208333Y-86144775D01*
X128208333Y-86144775D02*
X128208333Y-86287632D01*
X128208333Y-86287632D02*
X128160714Y-86382870D01*
X128160714Y-86382870D02*
X128113095Y-86430489D01*
X128113095Y-86430489D02*
X128017857Y-86478108D01*
X128017857Y-86478108D02*
X127636905Y-86478108D01*
X129113095Y-85954299D02*
X128636905Y-85954299D01*
X128636905Y-85954299D02*
X128589286Y-86430489D01*
X128589286Y-86430489D02*
X128636905Y-86382870D01*
X128636905Y-86382870D02*
X128732143Y-86335251D01*
X128732143Y-86335251D02*
X128970238Y-86335251D01*
X128970238Y-86335251D02*
X129065476Y-86382870D01*
X129065476Y-86382870D02*
X129113095Y-86430489D01*
X129113095Y-86430489D02*
X129160714Y-86525727D01*
X129160714Y-86525727D02*
X129160714Y-86763822D01*
X129160714Y-86763822D02*
X129113095Y-86859060D01*
X129113095Y-86859060D02*
X129065476Y-86906680D01*
X129065476Y-86906680D02*
X128970238Y-86954299D01*
X128970238Y-86954299D02*
X128732143Y-86954299D01*
X128732143Y-86954299D02*
X128636905Y-86906680D01*
X128636905Y-86906680D02*
X128589286Y-86859060D01*
X135958333Y-88604299D02*
X135625000Y-88128108D01*
X135386905Y-88604299D02*
X135386905Y-87604299D01*
X135386905Y-87604299D02*
X135767857Y-87604299D01*
X135767857Y-87604299D02*
X135863095Y-87651918D01*
X135863095Y-87651918D02*
X135910714Y-87699537D01*
X135910714Y-87699537D02*
X135958333Y-87794775D01*
X135958333Y-87794775D02*
X135958333Y-87937632D01*
X135958333Y-87937632D02*
X135910714Y-88032870D01*
X135910714Y-88032870D02*
X135863095Y-88080489D01*
X135863095Y-88080489D02*
X135767857Y-88128108D01*
X135767857Y-88128108D02*
X135386905Y-88128108D01*
X136529762Y-88032870D02*
X136434524Y-87985251D01*
X136434524Y-87985251D02*
X136386905Y-87937632D01*
X136386905Y-87937632D02*
X136339286Y-87842394D01*
X136339286Y-87842394D02*
X136339286Y-87794775D01*
X136339286Y-87794775D02*
X136386905Y-87699537D01*
X136386905Y-87699537D02*
X136434524Y-87651918D01*
X136434524Y-87651918D02*
X136529762Y-87604299D01*
X136529762Y-87604299D02*
X136720238Y-87604299D01*
X136720238Y-87604299D02*
X136815476Y-87651918D01*
X136815476Y-87651918D02*
X136863095Y-87699537D01*
X136863095Y-87699537D02*
X136910714Y-87794775D01*
X136910714Y-87794775D02*
X136910714Y-87842394D01*
X136910714Y-87842394D02*
X136863095Y-87937632D01*
X136863095Y-87937632D02*
X136815476Y-87985251D01*
X136815476Y-87985251D02*
X136720238Y-88032870D01*
X136720238Y-88032870D02*
X136529762Y-88032870D01*
X136529762Y-88032870D02*
X136434524Y-88080489D01*
X136434524Y-88080489D02*
X136386905Y-88128108D01*
X136386905Y-88128108D02*
X136339286Y-88223346D01*
X136339286Y-88223346D02*
X136339286Y-88413822D01*
X136339286Y-88413822D02*
X136386905Y-88509060D01*
X136386905Y-88509060D02*
X136434524Y-88556680D01*
X136434524Y-88556680D02*
X136529762Y-88604299D01*
X136529762Y-88604299D02*
X136720238Y-88604299D01*
X136720238Y-88604299D02*
X136815476Y-88556680D01*
X136815476Y-88556680D02*
X136863095Y-88509060D01*
X136863095Y-88509060D02*
X136910714Y-88413822D01*
X136910714Y-88413822D02*
X136910714Y-88223346D01*
X136910714Y-88223346D02*
X136863095Y-88128108D01*
X136863095Y-88128108D02*
X136815476Y-88080489D01*
X136815476Y-88080489D02*
X136720238Y-88032870D01*
X120608333Y-98034060D02*
X120560714Y-98081680D01*
X120560714Y-98081680D02*
X120417857Y-98129299D01*
X120417857Y-98129299D02*
X120322619Y-98129299D01*
X120322619Y-98129299D02*
X120179762Y-98081680D01*
X120179762Y-98081680D02*
X120084524Y-97986441D01*
X120084524Y-97986441D02*
X120036905Y-97891203D01*
X120036905Y-97891203D02*
X119989286Y-97700727D01*
X119989286Y-97700727D02*
X119989286Y-97557870D01*
X119989286Y-97557870D02*
X120036905Y-97367394D01*
X120036905Y-97367394D02*
X120084524Y-97272156D01*
X120084524Y-97272156D02*
X120179762Y-97176918D01*
X120179762Y-97176918D02*
X120322619Y-97129299D01*
X120322619Y-97129299D02*
X120417857Y-97129299D01*
X120417857Y-97129299D02*
X120560714Y-97176918D01*
X120560714Y-97176918D02*
X120608333Y-97224537D01*
X121513095Y-97129299D02*
X121036905Y-97129299D01*
X121036905Y-97129299D02*
X120989286Y-97605489D01*
X120989286Y-97605489D02*
X121036905Y-97557870D01*
X121036905Y-97557870D02*
X121132143Y-97510251D01*
X121132143Y-97510251D02*
X121370238Y-97510251D01*
X121370238Y-97510251D02*
X121465476Y-97557870D01*
X121465476Y-97557870D02*
X121513095Y-97605489D01*
X121513095Y-97605489D02*
X121560714Y-97700727D01*
X121560714Y-97700727D02*
X121560714Y-97938822D01*
X121560714Y-97938822D02*
X121513095Y-98034060D01*
X121513095Y-98034060D02*
X121465476Y-98081680D01*
X121465476Y-98081680D02*
X121370238Y-98129299D01*
X121370238Y-98129299D02*
X121132143Y-98129299D01*
X121132143Y-98129299D02*
X121036905Y-98081680D01*
X121036905Y-98081680D02*
X120989286Y-98034060D01*
X133008333Y-101234060D02*
X132960714Y-101281680D01*
X132960714Y-101281680D02*
X132817857Y-101329299D01*
X132817857Y-101329299D02*
X132722619Y-101329299D01*
X132722619Y-101329299D02*
X132579762Y-101281680D01*
X132579762Y-101281680D02*
X132484524Y-101186441D01*
X132484524Y-101186441D02*
X132436905Y-101091203D01*
X132436905Y-101091203D02*
X132389286Y-100900727D01*
X132389286Y-100900727D02*
X132389286Y-100757870D01*
X132389286Y-100757870D02*
X132436905Y-100567394D01*
X132436905Y-100567394D02*
X132484524Y-100472156D01*
X132484524Y-100472156D02*
X132579762Y-100376918D01*
X132579762Y-100376918D02*
X132722619Y-100329299D01*
X132722619Y-100329299D02*
X132817857Y-100329299D01*
X132817857Y-100329299D02*
X132960714Y-100376918D01*
X132960714Y-100376918D02*
X133008333Y-100424537D01*
X133341667Y-100329299D02*
X133960714Y-100329299D01*
X133960714Y-100329299D02*
X133627381Y-100710251D01*
X133627381Y-100710251D02*
X133770238Y-100710251D01*
X133770238Y-100710251D02*
X133865476Y-100757870D01*
X133865476Y-100757870D02*
X133913095Y-100805489D01*
X133913095Y-100805489D02*
X133960714Y-100900727D01*
X133960714Y-100900727D02*
X133960714Y-101138822D01*
X133960714Y-101138822D02*
X133913095Y-101234060D01*
X133913095Y-101234060D02*
X133865476Y-101281680D01*
X133865476Y-101281680D02*
X133770238Y-101329299D01*
X133770238Y-101329299D02*
X133484524Y-101329299D01*
X133484524Y-101329299D02*
X133389286Y-101281680D01*
X133389286Y-101281680D02*
X133341667Y-101234060D01*
X131138095Y-90054299D02*
X131138095Y-90863822D01*
X131138095Y-90863822D02*
X131185714Y-90959060D01*
X131185714Y-90959060D02*
X131233333Y-91006680D01*
X131233333Y-91006680D02*
X131328571Y-91054299D01*
X131328571Y-91054299D02*
X131519047Y-91054299D01*
X131519047Y-91054299D02*
X131614285Y-91006680D01*
X131614285Y-91006680D02*
X131661904Y-90959060D01*
X131661904Y-90959060D02*
X131709523Y-90863822D01*
X131709523Y-90863822D02*
X131709523Y-90054299D01*
X132709523Y-91054299D02*
X132138095Y-91054299D01*
X132423809Y-91054299D02*
X132423809Y-90054299D01*
X132423809Y-90054299D02*
X132328571Y-90197156D01*
X132328571Y-90197156D02*
X132233333Y-90292394D01*
X132233333Y-90292394D02*
X132138095Y-90340013D01*
X135283333Y-106609299D02*
X134950000Y-106133108D01*
X134711905Y-106609299D02*
X134711905Y-105609299D01*
X134711905Y-105609299D02*
X135092857Y-105609299D01*
X135092857Y-105609299D02*
X135188095Y-105656918D01*
X135188095Y-105656918D02*
X135235714Y-105704537D01*
X135235714Y-105704537D02*
X135283333Y-105799775D01*
X135283333Y-105799775D02*
X135283333Y-105942632D01*
X135283333Y-105942632D02*
X135235714Y-106037870D01*
X135235714Y-106037870D02*
X135188095Y-106085489D01*
X135188095Y-106085489D02*
X135092857Y-106133108D01*
X135092857Y-106133108D02*
X134711905Y-106133108D01*
X136235714Y-106609299D02*
X135664286Y-106609299D01*
X135950000Y-106609299D02*
X135950000Y-105609299D01*
X135950000Y-105609299D02*
X135854762Y-105752156D01*
X135854762Y-105752156D02*
X135759524Y-105847394D01*
X135759524Y-105847394D02*
X135664286Y-105895013D01*
X122408333Y-88384060D02*
X122360714Y-88431680D01*
X122360714Y-88431680D02*
X122217857Y-88479299D01*
X122217857Y-88479299D02*
X122122619Y-88479299D01*
X122122619Y-88479299D02*
X121979762Y-88431680D01*
X121979762Y-88431680D02*
X121884524Y-88336441D01*
X121884524Y-88336441D02*
X121836905Y-88241203D01*
X121836905Y-88241203D02*
X121789286Y-88050727D01*
X121789286Y-88050727D02*
X121789286Y-87907870D01*
X121789286Y-87907870D02*
X121836905Y-87717394D01*
X121836905Y-87717394D02*
X121884524Y-87622156D01*
X121884524Y-87622156D02*
X121979762Y-87526918D01*
X121979762Y-87526918D02*
X122122619Y-87479299D01*
X122122619Y-87479299D02*
X122217857Y-87479299D01*
X122217857Y-87479299D02*
X122360714Y-87526918D01*
X122360714Y-87526918D02*
X122408333Y-87574537D01*
X122789286Y-87574537D02*
X122836905Y-87526918D01*
X122836905Y-87526918D02*
X122932143Y-87479299D01*
X122932143Y-87479299D02*
X123170238Y-87479299D01*
X123170238Y-87479299D02*
X123265476Y-87526918D01*
X123265476Y-87526918D02*
X123313095Y-87574537D01*
X123313095Y-87574537D02*
X123360714Y-87669775D01*
X123360714Y-87669775D02*
X123360714Y-87765013D01*
X123360714Y-87765013D02*
X123313095Y-87907870D01*
X123313095Y-87907870D02*
X122741667Y-88479299D01*
X122741667Y-88479299D02*
X123360714Y-88479299D01*
D11*
%TO.C,J2*%
X150670000Y-86270000D02*
X150670000Y-114270000D01*
X150670000Y-86270000D02*
X153330000Y-86270000D01*
X150670000Y-114270000D02*
X153330000Y-114270000D01*
X152000000Y-83670000D02*
X153330000Y-83670000D01*
X153330000Y-83670000D02*
X153330000Y-85000000D01*
X153330000Y-86270000D02*
X153330000Y-114270000D01*
%TO.C,LED1*%
X138725000Y-77135000D02*
X141010000Y-77135000D01*
X141010000Y-75665000D02*
X138725000Y-75665000D01*
X141010000Y-77135000D02*
X141010000Y-75665000D01*
%TO.C,J4*%
X100670000Y-86270000D02*
X100670000Y-114270000D01*
X100670000Y-86270000D02*
X103330000Y-86270000D01*
X100670000Y-114270000D02*
X103330000Y-114270000D01*
X102000000Y-83670000D02*
X103330000Y-83670000D01*
X103330000Y-83670000D02*
X103330000Y-85000000D01*
X103330000Y-86270000D02*
X103330000Y-114270000D01*
%TO.C,LED2*%
X138750000Y-78885000D02*
X141035000Y-78885000D01*
X141035000Y-77415000D02*
X138750000Y-77415000D01*
X141035000Y-78885000D02*
X141035000Y-77415000D01*
%TO.C,R3*%
X112221359Y-115895000D02*
X112528641Y-115895000D01*
X112221359Y-116655000D02*
X112528641Y-116655000D01*
%TO.C,FB1*%
X117140000Y-95562779D02*
X117140000Y-95237221D01*
X118160000Y-95562779D02*
X118160000Y-95237221D01*
%TO.C,C4*%
X130790580Y-101840000D02*
X130509420Y-101840000D01*
X130790580Y-102860000D02*
X130509420Y-102860000D01*
%TO.C,SW2*%
X135175000Y-122585000D02*
X135175000Y-123375000D01*
X135775000Y-124385000D02*
X141475000Y-124385000D01*
X137025000Y-121535000D02*
X138725000Y-121535000D01*
X140025000Y-121535000D02*
X140225000Y-121535000D01*
X142075000Y-123375000D02*
X142075000Y-122585000D01*
%TO.C,C8*%
X117705000Y-102247164D02*
X117705000Y-102462836D01*
X118425000Y-102247164D02*
X118425000Y-102462836D01*
%TO.C,Y1*%
X116300000Y-89900000D02*
X112300000Y-89900000D01*
X116300000Y-93200000D02*
X116300000Y-89900000D01*
D12*
%TO.C,J1*%
X109450000Y-120275000D02*
X109450000Y-121675000D01*
X109450000Y-124075000D02*
X109450000Y-124225000D01*
X109450000Y-124225000D02*
X109750000Y-124225000D01*
X109750000Y-124225000D02*
X109750000Y-124675000D01*
X111800000Y-118100000D02*
X111800000Y-118525000D01*
X111800000Y-118525000D02*
X110800000Y-118525000D01*
X112525000Y-118100000D02*
X111800000Y-118100000D01*
X115400000Y-118525000D02*
X116400000Y-118525000D01*
X117450000Y-124225000D02*
X117750000Y-124225000D01*
X117450000Y-124675000D02*
X117450000Y-124225000D01*
X117750000Y-121675000D02*
X117750000Y-120275000D01*
X117750000Y-124225000D02*
X117750000Y-124075000D01*
D11*
%TO.C,C7*%
X120690000Y-90482836D02*
X120690000Y-90267164D01*
X121410000Y-90482836D02*
X121410000Y-90267164D01*
%TO.C,D2*%
X114400000Y-116735000D02*
X116685000Y-116735000D01*
X116685000Y-115265000D02*
X114400000Y-115265000D01*
X116685000Y-116735000D02*
X116685000Y-115265000D01*
%TO.C,R6*%
X129795000Y-88353641D02*
X129795000Y-88046359D01*
X130555000Y-88353641D02*
X130555000Y-88046359D01*
%TO.C,C6*%
X119190000Y-95782836D02*
X119190000Y-95567164D01*
X119910000Y-95782836D02*
X119910000Y-95567164D01*
%TO.C,R7*%
X132027500Y-87062258D02*
X132027500Y-86587742D01*
X133072500Y-87062258D02*
X133072500Y-86587742D01*
%TO.C,SW3*%
X108890000Y-101780000D02*
X108890000Y-103280000D01*
X110140000Y-105780000D02*
X114640000Y-105780000D01*
X114640000Y-99280000D02*
X110140000Y-99280000D01*
X115890000Y-103280000D02*
X115890000Y-101780000D01*
D13*
%TO.C,J3*%
X139985000Y-80677500D02*
X139985000Y-80677500D01*
X139985000Y-80677500D02*
X143415000Y-80677500D01*
X139985000Y-87197500D02*
X139985000Y-87197500D01*
X143415000Y-80677500D02*
X143415000Y-80677500D01*
X143415000Y-87197500D02*
X139985000Y-87197500D01*
X143415000Y-87197500D02*
X143415000Y-87197500D01*
X143835000Y-87762500D02*
G75*
G02*
X143635000Y-87762500I-100000J0D01*
G01*
X143635000Y-87762500D02*
G75*
G02*
X143835000Y-87762500I100000J0D01*
G01*
D11*
%TO.C,U3*%
X137075000Y-108215000D02*
X140835000Y-108215000D01*
X137075000Y-115035000D02*
X140835000Y-115035000D01*
X140835000Y-108215000D02*
X140835000Y-109475000D01*
X140835000Y-115035000D02*
X140835000Y-113775000D01*
X135795000Y-108315000D02*
X135555000Y-107985000D01*
X136035000Y-107985000D01*
X135795000Y-108315000D01*
G36*
X135795000Y-108315000D02*
G01*
X135555000Y-107985000D01*
X136035000Y-107985000D01*
X135795000Y-108315000D01*
G37*
%TO.C,C1*%
X122567164Y-89965000D02*
X122782836Y-89965000D01*
X122567164Y-90685000D02*
X122782836Y-90685000D01*
%TO.C,J5*%
X108670000Y-75670000D02*
X110000000Y-75670000D01*
X108670000Y-77000000D02*
X108670000Y-75670000D01*
X111270000Y-75670000D02*
X134190000Y-75670000D01*
X111270000Y-78330000D02*
X111270000Y-75670000D01*
X111270000Y-78330000D02*
X134190000Y-78330000D01*
X134190000Y-78330000D02*
X134190000Y-75670000D01*
%TO.C,C10*%
X116840000Y-91342164D02*
X116840000Y-91557836D01*
X117560000Y-91342164D02*
X117560000Y-91557836D01*
%TO.C,R4*%
X144945000Y-112296359D02*
X144945000Y-112603641D01*
X145705000Y-112296359D02*
X145705000Y-112603641D01*
%TO.C,C9*%
X110965000Y-91607836D02*
X110965000Y-91392164D01*
X111685000Y-91607836D02*
X111685000Y-91392164D01*
%TO.C,R2*%
X112221359Y-110995000D02*
X112528641Y-110995000D01*
X112221359Y-111755000D02*
X112528641Y-111755000D01*
D12*
%TO.C,U2*%
X121850000Y-108425000D02*
X121850000Y-109000000D01*
X121850000Y-108425000D02*
X127600000Y-108425000D01*
X121850000Y-118500000D02*
X121850000Y-119075000D01*
X121850000Y-119075000D02*
X127600000Y-119075000D01*
X127600000Y-108425000D02*
X127600000Y-109000000D01*
X127600000Y-118500000D02*
X127600000Y-119075000D01*
D11*
X121350000Y-109000000D02*
X121110000Y-108670000D01*
X121590000Y-108670000D01*
X121350000Y-109000000D01*
G36*
X121350000Y-109000000D02*
G01*
X121110000Y-108670000D01*
X121590000Y-108670000D01*
X121350000Y-109000000D01*
G37*
%TO.C,FB2*%
X130090000Y-116712221D02*
X130090000Y-117037779D01*
X131110000Y-116712221D02*
X131110000Y-117037779D01*
%TO.C,C12*%
X140086252Y-105340000D02*
X139563748Y-105340000D01*
X140086252Y-106810000D02*
X139563748Y-106810000D01*
%TO.C,C11*%
X132190000Y-116838748D02*
X132190000Y-117361252D01*
X133660000Y-116838748D02*
X133660000Y-117361252D01*
%TO.C,R5*%
X128695000Y-88353641D02*
X128695000Y-88046359D01*
X129455000Y-88353641D02*
X129455000Y-88046359D01*
%TO.C,D1*%
X114400000Y-112435000D02*
X116685000Y-112435000D01*
X116685000Y-110965000D02*
X114400000Y-110965000D01*
X116685000Y-112435000D02*
X116685000Y-110965000D01*
%TO.C,R8*%
X133802500Y-88412258D02*
X133802500Y-87937742D01*
X134847500Y-88412258D02*
X134847500Y-87937742D01*
%TO.C,C5*%
X120740000Y-95757836D02*
X120740000Y-95542164D01*
X121460000Y-95757836D02*
X121460000Y-95542164D01*
%TO.C,C3*%
X130157836Y-100490000D02*
X129942164Y-100490000D01*
X130157836Y-101210000D02*
X129942164Y-101210000D01*
%TO.C,U1*%
X123477500Y-91165000D02*
X123477500Y-91615000D01*
X123477500Y-98385000D02*
X123477500Y-97935000D01*
X123927500Y-91165000D02*
X123477500Y-91165000D01*
X123927500Y-98385000D02*
X123477500Y-98385000D01*
X130247500Y-91165000D02*
X130697500Y-91165000D01*
X130247500Y-98385000D02*
X130697500Y-98385000D01*
X130697500Y-91165000D02*
X130697500Y-91615000D01*
X130697500Y-98385000D02*
X130697500Y-97935000D01*
X122887500Y-91615000D02*
X122547500Y-91145000D01*
X123227500Y-91145000D01*
X122887500Y-91615000D01*
G36*
X122887500Y-91615000D02*
G01*
X122547500Y-91145000D01*
X123227500Y-91145000D01*
X122887500Y-91615000D01*
G37*
%TO.C,D3*%
X144340000Y-108040000D02*
X144340000Y-110325000D01*
X145810000Y-108040000D02*
X144340000Y-108040000D01*
X145810000Y-110325000D02*
X145810000Y-108040000D01*
%TO.C,R1*%
X136545000Y-106243641D02*
X136545000Y-105936359D01*
X137305000Y-106243641D02*
X137305000Y-105936359D01*
%TO.C,C2*%
X122567164Y-88815000D02*
X122782836Y-88815000D01*
X122567164Y-89535000D02*
X122782836Y-89535000D01*
%TD*%
M02*
