%TF.GenerationSoftware,KiCad,Pcbnew,8.0.4-8.0.4-0~ubuntu24.04.1*%
%TF.CreationDate,2024-08-08T02:16:28-05:00*%
%TF.ProjectId,anvil,616e7669-6c2e-46b6-9963-61645f706362,rev?*%
%TF.SameCoordinates,Original*%
%TF.FileFunction,Copper,L2,Bot*%
%TF.FilePolarity,Positive*%
%FSLAX46Y46*%
G04 Gerber Fmt 4.6, Leading zero omitted, Abs format (unit mm)*
G04 Created by KiCad (PCBNEW 8.0.4-8.0.4-0~ubuntu24.04.1) date 2024-08-08 02:16:28*
%MOMM*%
%LPD*%
G01*
G04 APERTURE LIST*
%TA.AperFunction,ComponentPad*%
%ADD10R,1.700000X1.700000*%
%TD*%
%TA.AperFunction,ComponentPad*%
%ADD11O,1.700000X1.700000*%
%TD*%
%TA.AperFunction,ComponentPad*%
%ADD12O,1.150000X1.800000*%
%TD*%
%TA.AperFunction,ComponentPad*%
%ADD13O,1.450000X2.000000*%
%TD*%
%TA.AperFunction,ComponentPad*%
%ADD14C,2.000000*%
%TD*%
%TA.AperFunction,ViaPad*%
%ADD15C,0.700000*%
%TD*%
%TA.AperFunction,Conductor*%
%ADD16C,0.300000*%
%TD*%
G04 APERTURE END LIST*
D10*
%TO.P,J2,1,Pin_1*%
%TO.N,PF7*%
X152000000Y-85000000D03*
D11*
%TO.P,J2,2,Pin_2*%
%TO.N,PF6*%
X152000000Y-87540000D03*
%TO.P,J2,3,Pin_3*%
%TO.N,PA12*%
X152000000Y-90080000D03*
%TO.P,J2,4,Pin_4*%
%TO.N,PA11*%
X152000000Y-92620000D03*
%TO.P,J2,5,Pin_5*%
%TO.N,TIM1_CH3*%
X152000000Y-95160000D03*
%TO.P,J2,6,Pin_6*%
%TO.N,TIM1_CH2*%
X152000000Y-97700000D03*
%TO.P,J2,7,Pin_7*%
%TO.N,TIM1_CH1*%
X152000000Y-100240000D03*
%TO.P,J2,8,Pin_8*%
%TO.N,PB15*%
X152000000Y-102780000D03*
%TO.P,J2,9,Pin_9*%
%TO.N,PB14*%
X152000000Y-105320000D03*
%TO.P,J2,10,Pin_10*%
%TO.N,PB13*%
X152000000Y-107860000D03*
%TO.P,J2,11,Pin_11*%
%TO.N,PB12*%
X152000000Y-110400000D03*
%TO.P,J2,12,Pin_12*%
%TO.N,+3.3V*%
X152000000Y-112940000D03*
%TD*%
D10*
%TO.P,J4,1,Pin_1*%
%TO.N,PC15*%
X102000000Y-85000000D03*
D11*
%TO.P,J4,2,Pin_2*%
%TO.N,ADC_IN0*%
X102000000Y-87540000D03*
%TO.P,J4,3,Pin_3*%
%TO.N,ADC_IN1*%
X102000000Y-90080000D03*
%TO.P,J4,4,Pin_4*%
%TO.N,PA4*%
X102000000Y-92620000D03*
%TO.P,J4,5,Pin_5*%
%TO.N,SPI_SCK*%
X102000000Y-95160000D03*
%TO.P,J4,6,Pin_6*%
%TO.N,SPI_MISO*%
X102000000Y-97700000D03*
%TO.P,J4,7,Pin_7*%
%TO.N,SPI_MOSI*%
X102000000Y-100240000D03*
%TO.P,J4,8,Pin_8*%
%TO.N,PB0*%
X102000000Y-102780000D03*
%TO.P,J4,9,Pin_9*%
%TO.N,PB1*%
X102000000Y-105320000D03*
%TO.P,J4,10,Pin_10*%
%TO.N,PB2*%
X102000000Y-107860000D03*
%TO.P,J4,11,Pin_11*%
%TO.N,I2C_SCL*%
X102000000Y-110400000D03*
%TO.P,J4,12,Pin_12*%
%TO.N,I2C_SDA*%
X102000000Y-112940000D03*
%TD*%
D12*
%TO.P,J1,6,Shield*%
%TO.N,unconnected-(J1-Shield-Pad6)_1*%
X109725000Y-122875000D03*
D13*
%TO.N,unconnected-(J1-Shield-Pad6)*%
X109875000Y-119075000D03*
%TO.N,unconnected-(J1-Shield-Pad6)_2*%
X117325000Y-119075000D03*
D12*
%TO.N,unconnected-(J1-Shield-Pad6)_3*%
X117475000Y-122875000D03*
%TD*%
D14*
%TO.P,SW3,1,1*%
%TO.N,NRST*%
X109140000Y-100280000D03*
X115640000Y-100280000D03*
%TO.P,SW3,2,2*%
%TO.N,GND*%
X109140000Y-104780000D03*
X115640000Y-104780000D03*
%TD*%
D10*
%TO.P,J5,1,Pin_1*%
%TO.N,PC14*%
X110000000Y-77000000D03*
D11*
%TO.P,J5,2,Pin_2*%
%TO.N,PC13*%
X112540000Y-77000000D03*
%TO.P,J5,3,Pin_3*%
%TO.N,+3.3V*%
X115080000Y-77000000D03*
%TO.P,J5,4,Pin_4*%
%TO.N,GND*%
X117620000Y-77000000D03*
%TO.P,J5,5,Pin_5*%
%TO.N,PB9*%
X120160000Y-77000000D03*
%TO.P,J5,6,Pin_6*%
%TO.N,PB8*%
X122700000Y-77000000D03*
%TO.P,J5,7,Pin_7*%
%TO.N,PB7*%
X125240000Y-77000000D03*
%TO.P,J5,8,Pin_8*%
%TO.N,PB6*%
X127780000Y-77000000D03*
%TO.P,J5,9,Pin_9*%
%TO.N,PB5*%
X130320000Y-77000000D03*
%TO.P,J5,10,Pin_10*%
%TO.N,PB4*%
X132860000Y-77000000D03*
%TD*%
D15*
%TO.N,GND*%
X116700000Y-93025000D03*
X141925000Y-78150000D03*
X110600000Y-103250000D03*
X117525000Y-104050000D03*
X138900000Y-104525000D03*
X134325000Y-85500000D03*
X123125000Y-113400000D03*
X113200000Y-89300000D03*
X123075000Y-118525000D03*
X141750000Y-88725000D03*
X135800000Y-107850000D03*
X126175000Y-110450000D03*
X121050000Y-87875000D03*
X115625000Y-95825000D03*
%TO.N,+3.3V*%
X132575000Y-88725000D03*
X124325000Y-92025000D03*
X133675000Y-111625000D03*
X140150000Y-111625000D03*
X126375000Y-114725000D03*
X143750000Y-88200000D03*
X119500000Y-116825000D03*
X116300000Y-94625000D03*
X130325000Y-104825000D03*
%TO.N,NRST*%
X124350000Y-95025000D03*
X137500000Y-83525000D03*
X117500000Y-100700000D03*
X137500000Y-86950000D03*
%TO.N,Net-(D1-K)*%
X126000000Y-112225000D03*
X117850000Y-111700000D03*
%TO.N,Net-(D2-K)*%
X117950000Y-115990000D03*
X126000000Y-113800000D03*
%TO.N,/USBD+*%
X113625000Y-117600000D03*
X127525000Y-119150000D03*
%TO.N,SWDIO*%
X133425000Y-92425000D03*
X133175000Y-84625000D03*
X139125000Y-89100000D03*
%TO.N,/BOOT0*%
X126325000Y-93350000D03*
X128025000Y-95025000D03*
%TO.N,USART1_RX*%
X128400000Y-107075000D03*
X123300000Y-99350000D03*
%TO.N,USART1_TX*%
X125850000Y-107650000D03*
X122000000Y-98650000D03*
%TD*%
D16*
%TO.N,GND*%
X116600000Y-93025000D02*
X116700000Y-93025000D01*
X113200000Y-89300000D02*
X113880000Y-88620000D01*
X113880000Y-76470000D02*
X114625000Y-75725000D01*
X116345000Y-75725000D02*
X117620000Y-77000000D01*
X138900000Y-104525000D02*
X135800000Y-107625000D01*
X117620000Y-84445000D02*
X117620000Y-77000000D01*
X113880000Y-88620000D02*
X113880000Y-76470000D01*
X121050000Y-87875000D02*
X117620000Y-84445000D01*
X136475000Y-87650000D02*
X134325000Y-85500000D01*
X115625000Y-95825000D02*
X115600000Y-95800000D01*
X115600000Y-95800000D02*
X115600000Y-94025000D01*
X135800000Y-107625000D02*
X135800000Y-107850000D01*
X115600000Y-94025000D02*
X116600000Y-93025000D01*
X140675000Y-87650000D02*
X136475000Y-87650000D01*
X141750000Y-88725000D02*
X140675000Y-87650000D01*
X114625000Y-75725000D02*
X116345000Y-75725000D01*
%TO.N,+3.3V*%
X132580000Y-89470000D02*
X132575000Y-89465000D01*
X130025000Y-92025000D02*
X130312500Y-92312500D01*
X124325000Y-92025000D02*
X118900000Y-92025000D01*
X130312500Y-92312500D02*
X131125000Y-93125000D01*
X132575000Y-89465000D02*
X132575000Y-88725000D01*
X124325000Y-92025000D02*
X130025000Y-92025000D01*
X130025000Y-92025000D02*
X132580000Y-89470000D01*
X115080000Y-77000000D02*
X115080000Y-88205000D01*
X124275000Y-116825000D02*
X119500000Y-116825000D01*
X130312500Y-92312500D02*
X130312500Y-104812500D01*
X131125000Y-93125000D02*
X138825000Y-93125000D01*
X115080000Y-88205000D02*
X118900000Y-92025000D01*
X130312500Y-104812500D02*
X130325000Y-104825000D01*
X138825000Y-93125000D02*
X143750000Y-88200000D01*
X140150000Y-111625000D02*
X133675000Y-111625000D01*
X118900000Y-92025000D02*
X116300000Y-94625000D01*
X126375000Y-114725000D02*
X124275000Y-116825000D01*
%TO.N,NRST*%
X137500000Y-83525000D02*
X137500000Y-86950000D01*
X117930761Y-100700000D02*
X123605761Y-95025000D01*
X117500000Y-100700000D02*
X117930761Y-100700000D01*
X123605761Y-95025000D02*
X124350000Y-95025000D01*
%TO.N,Net-(D1-K)*%
X117850000Y-111700000D02*
X124975000Y-111700000D01*
X125500000Y-112225000D02*
X126000000Y-112225000D01*
X124975000Y-111700000D02*
X125500000Y-112225000D01*
%TO.N,Net-(D2-K)*%
X123810000Y-115990000D02*
X126000000Y-113800000D01*
X117950000Y-115990000D02*
X123810000Y-115990000D01*
%TO.N,/USBD+*%
X127525000Y-119225000D02*
X125625000Y-121125000D01*
X125625000Y-121125000D02*
X121170280Y-121125000D01*
X117645280Y-117600000D02*
X113625000Y-117600000D01*
X121170280Y-121125000D02*
X117645280Y-117600000D01*
X127525000Y-119150000D02*
X127525000Y-119225000D01*
%TO.N,SWDIO*%
X133425000Y-92425000D02*
X135850000Y-90000000D01*
X139125000Y-89100000D02*
X136750000Y-89100000D01*
X135850000Y-90000000D02*
X136675000Y-89175000D01*
X136750000Y-89100000D02*
X136675000Y-89175000D01*
X133175000Y-85425000D02*
X133175000Y-84625000D01*
X136675000Y-88925000D02*
X133175000Y-85425000D01*
X136675000Y-89175000D02*
X136675000Y-88925000D01*
%TO.N,/BOOT0*%
X126350000Y-93350000D02*
X128025000Y-95025000D01*
X126325000Y-93350000D02*
X126350000Y-93350000D01*
%TO.N,USART1_RX*%
X123300000Y-99350000D02*
X128400000Y-104450000D01*
X128400000Y-104450000D02*
X128400000Y-107075000D01*
%TO.N,USART1_TX*%
X125850000Y-107650000D02*
X125850000Y-104100000D01*
X125850000Y-104100000D02*
X122000000Y-100250000D01*
X122000000Y-100250000D02*
X122000000Y-98650000D01*
%TD*%
%TA.AperFunction,Conductor*%
%TO.N,GND*%
G36*
X152000641Y-72000006D02*
G01*
X152213481Y-72002328D01*
X152222915Y-72002792D01*
X152647552Y-72039943D01*
X152658270Y-72041354D01*
X153077393Y-72115256D01*
X153087921Y-72117590D01*
X153499033Y-72227747D01*
X153509322Y-72230992D01*
X153909255Y-72376555D01*
X153919221Y-72380683D01*
X154304942Y-72560547D01*
X154314528Y-72565538D01*
X154683088Y-72778326D01*
X154692207Y-72784135D01*
X155040820Y-73028237D01*
X155049402Y-73034822D01*
X155375420Y-73308383D01*
X155383395Y-73315692D01*
X155684307Y-73616604D01*
X155691616Y-73624579D01*
X155965177Y-73950597D01*
X155971762Y-73959179D01*
X156215864Y-74307792D01*
X156221676Y-74316916D01*
X156434459Y-74685467D01*
X156439454Y-74695062D01*
X156619310Y-75080764D01*
X156623450Y-75090759D01*
X156769003Y-75490664D01*
X156772256Y-75500980D01*
X156882405Y-75912061D01*
X156884746Y-75922623D01*
X156958644Y-76341725D01*
X156960056Y-76352450D01*
X156997206Y-76777073D01*
X156997671Y-76786527D01*
X156999993Y-76999357D01*
X157000000Y-77000710D01*
X157000000Y-119999289D01*
X156999993Y-120000642D01*
X156997671Y-120213472D01*
X156997206Y-120222926D01*
X156960056Y-120647549D01*
X156958644Y-120658274D01*
X156884746Y-121077376D01*
X156882405Y-121087938D01*
X156772256Y-121499019D01*
X156769003Y-121509335D01*
X156623450Y-121909240D01*
X156619310Y-121919235D01*
X156439454Y-122304937D01*
X156434459Y-122314532D01*
X156221676Y-122683083D01*
X156215864Y-122692207D01*
X155971762Y-123040820D01*
X155965177Y-123049402D01*
X155691616Y-123375420D01*
X155684307Y-123383395D01*
X155383395Y-123684307D01*
X155375420Y-123691616D01*
X155049402Y-123965177D01*
X155040820Y-123971762D01*
X154692207Y-124215864D01*
X154683083Y-124221676D01*
X154314532Y-124434459D01*
X154304937Y-124439454D01*
X153919235Y-124619310D01*
X153909240Y-124623450D01*
X153509335Y-124769003D01*
X153499019Y-124772256D01*
X153087938Y-124882405D01*
X153077376Y-124884746D01*
X152658274Y-124958644D01*
X152647549Y-124960056D01*
X152222926Y-124997206D01*
X152213472Y-124997671D01*
X152005455Y-124999940D01*
X152000640Y-124999993D01*
X151999290Y-125000000D01*
X102000710Y-125000000D01*
X101999359Y-124999993D01*
X101994454Y-124999939D01*
X101786527Y-124997671D01*
X101777073Y-124997206D01*
X101352450Y-124960056D01*
X101341725Y-124958644D01*
X100922623Y-124884746D01*
X100912061Y-124882405D01*
X100500980Y-124772256D01*
X100490664Y-124769003D01*
X100090759Y-124623450D01*
X100080764Y-124619310D01*
X99695062Y-124439454D01*
X99685467Y-124434459D01*
X99316916Y-124221676D01*
X99307792Y-124215864D01*
X98959179Y-123971762D01*
X98950597Y-123965177D01*
X98624579Y-123691616D01*
X98616604Y-123684307D01*
X98315692Y-123383395D01*
X98308383Y-123375420D01*
X98259198Y-123316804D01*
X98034821Y-123049401D01*
X98028237Y-123040820D01*
X97846083Y-122780677D01*
X97784132Y-122692203D01*
X97778323Y-122683083D01*
X97694821Y-122538454D01*
X97652615Y-122465350D01*
X108649500Y-122465350D01*
X108649500Y-123284649D01*
X108675981Y-123451847D01*
X108728296Y-123612853D01*
X108805152Y-123763688D01*
X108904648Y-123900634D01*
X108904652Y-123900639D01*
X109024360Y-124020347D01*
X109024365Y-124020351D01*
X109143817Y-124107137D01*
X109161315Y-124119850D01*
X109257425Y-124168820D01*
X109312146Y-124196703D01*
X109312148Y-124196703D01*
X109312151Y-124196705D01*
X109398450Y-124224745D01*
X109473152Y-124249018D01*
X109640351Y-124275500D01*
X109640356Y-124275500D01*
X109809649Y-124275500D01*
X109976847Y-124249018D01*
X110137849Y-124196705D01*
X110288685Y-124119850D01*
X110425641Y-124020346D01*
X110545346Y-123900641D01*
X110644850Y-123763685D01*
X110721705Y-123612849D01*
X110774018Y-123451847D01*
X110800500Y-123284649D01*
X110800500Y-122465350D01*
X116399500Y-122465350D01*
X116399500Y-123284649D01*
X116425981Y-123451847D01*
X116478296Y-123612853D01*
X116555152Y-123763688D01*
X116654648Y-123900634D01*
X116654652Y-123900639D01*
X116774360Y-124020347D01*
X116774365Y-124020351D01*
X116893817Y-124107137D01*
X116911315Y-124119850D01*
X117007425Y-124168820D01*
X117062146Y-124196703D01*
X117062148Y-124196703D01*
X117062151Y-124196705D01*
X117148450Y-124224745D01*
X117223152Y-124249018D01*
X117390351Y-124275500D01*
X117390356Y-124275500D01*
X117559649Y-124275500D01*
X117726847Y-124249018D01*
X117887849Y-124196705D01*
X118038685Y-124119850D01*
X118175641Y-124020346D01*
X118295346Y-123900641D01*
X118394850Y-123763685D01*
X118471705Y-123612849D01*
X118524018Y-123451847D01*
X118550500Y-123284649D01*
X118550500Y-123053995D01*
X136424499Y-123053995D01*
X136451418Y-123189322D01*
X136451421Y-123189332D01*
X136504221Y-123316804D01*
X136504228Y-123316817D01*
X136580885Y-123431541D01*
X136580888Y-123431545D01*
X136678454Y-123529111D01*
X136678458Y-123529114D01*
X136793182Y-123605771D01*
X136793195Y-123605778D01*
X136920667Y-123658578D01*
X136920672Y-123658580D01*
X136920676Y-123658580D01*
X136920677Y-123658581D01*
X137056004Y-123685500D01*
X137056007Y-123685500D01*
X137193995Y-123685500D01*
X137285041Y-123667389D01*
X137329328Y-123658580D01*
X137456811Y-123605775D01*
X137571542Y-123529114D01*
X137669114Y-123431542D01*
X137745775Y-123316811D01*
X137798580Y-123189328D01*
X137825500Y-123053995D01*
X139424499Y-123053995D01*
X139451418Y-123189322D01*
X139451421Y-123189332D01*
X139504221Y-123316804D01*
X139504228Y-123316817D01*
X139580885Y-123431541D01*
X139580888Y-123431545D01*
X139678454Y-123529111D01*
X139678458Y-123529114D01*
X139793182Y-123605771D01*
X139793195Y-123605778D01*
X139920667Y-123658578D01*
X139920672Y-123658580D01*
X139920676Y-123658580D01*
X139920677Y-123658581D01*
X140056004Y-123685500D01*
X140056007Y-123685500D01*
X140193995Y-123685500D01*
X140285041Y-123667389D01*
X140329328Y-123658580D01*
X140456811Y-123605775D01*
X140571542Y-123529114D01*
X140669114Y-123431542D01*
X140745775Y-123316811D01*
X140798580Y-123189328D01*
X140825500Y-123053993D01*
X140825500Y-122916007D01*
X140825500Y-122916004D01*
X140798581Y-122780677D01*
X140798580Y-122780676D01*
X140798580Y-122780672D01*
X140761935Y-122692203D01*
X140745778Y-122653195D01*
X140745771Y-122653182D01*
X140669114Y-122538458D01*
X140669111Y-122538454D01*
X140571545Y-122440888D01*
X140571541Y-122440885D01*
X140456817Y-122364228D01*
X140456804Y-122364221D01*
X140329332Y-122311421D01*
X140329322Y-122311418D01*
X140193995Y-122284500D01*
X140193993Y-122284500D01*
X140056007Y-122284500D01*
X140056005Y-122284500D01*
X139920677Y-122311418D01*
X139920667Y-122311421D01*
X139793195Y-122364221D01*
X139793182Y-122364228D01*
X139678458Y-122440885D01*
X139678454Y-122440888D01*
X139580888Y-122538454D01*
X139580885Y-122538458D01*
X139504228Y-122653182D01*
X139504221Y-122653195D01*
X139451421Y-122780667D01*
X139451418Y-122780677D01*
X139424500Y-122916004D01*
X139424500Y-122916007D01*
X139424500Y-123053993D01*
X139424500Y-123053995D01*
X139424499Y-123053995D01*
X137825500Y-123053995D01*
X137825500Y-123053993D01*
X137825500Y-122916007D01*
X137825500Y-122916004D01*
X137798581Y-122780677D01*
X137798580Y-122780676D01*
X137798580Y-122780672D01*
X137761935Y-122692203D01*
X137745778Y-122653195D01*
X137745771Y-122653182D01*
X137669114Y-122538458D01*
X137669111Y-122538454D01*
X137571545Y-122440888D01*
X137571541Y-122440885D01*
X137456817Y-122364228D01*
X137456804Y-122364221D01*
X137329332Y-122311421D01*
X137329322Y-122311418D01*
X137193995Y-122284500D01*
X137193993Y-122284500D01*
X137056007Y-122284500D01*
X137056005Y-122284500D01*
X136920677Y-122311418D01*
X136920667Y-122311421D01*
X136793195Y-122364221D01*
X136793182Y-122364228D01*
X136678458Y-122440885D01*
X136678454Y-122440888D01*
X136580888Y-122538454D01*
X136580885Y-122538458D01*
X136504228Y-122653182D01*
X136504221Y-122653195D01*
X136451421Y-122780667D01*
X136451418Y-122780677D01*
X136424500Y-122916004D01*
X136424500Y-122916007D01*
X136424500Y-123053993D01*
X136424500Y-123053995D01*
X136424499Y-123053995D01*
X118550500Y-123053995D01*
X118550500Y-122465350D01*
X118524018Y-122298152D01*
X118471703Y-122137146D01*
X118443820Y-122082425D01*
X118394850Y-121986315D01*
X118338852Y-121909240D01*
X118295351Y-121849365D01*
X118295347Y-121849360D01*
X118175639Y-121729652D01*
X118175634Y-121729648D01*
X118038688Y-121630152D01*
X118038687Y-121630151D01*
X118038685Y-121630150D01*
X117991582Y-121606150D01*
X117887853Y-121553296D01*
X117726847Y-121500981D01*
X117559649Y-121474500D01*
X117559644Y-121474500D01*
X117390356Y-121474500D01*
X117390351Y-121474500D01*
X117223152Y-121500981D01*
X117062146Y-121553296D01*
X116911311Y-121630152D01*
X116774365Y-121729648D01*
X116774360Y-121729652D01*
X116654652Y-121849360D01*
X116654648Y-121849365D01*
X116555152Y-121986311D01*
X116478296Y-122137146D01*
X116425981Y-122298152D01*
X116399500Y-122465350D01*
X110800500Y-122465350D01*
X110774018Y-122298152D01*
X110721703Y-122137146D01*
X110693820Y-122082425D01*
X110644850Y-121986315D01*
X110588852Y-121909240D01*
X110545351Y-121849365D01*
X110545347Y-121849360D01*
X110425639Y-121729652D01*
X110425634Y-121729648D01*
X110288688Y-121630152D01*
X110288687Y-121630151D01*
X110288685Y-121630150D01*
X110241582Y-121606150D01*
X110137853Y-121553296D01*
X109976847Y-121500981D01*
X109809649Y-121474500D01*
X109809644Y-121474500D01*
X109640356Y-121474500D01*
X109640351Y-121474500D01*
X109473152Y-121500981D01*
X109312146Y-121553296D01*
X109161311Y-121630152D01*
X109024365Y-121729648D01*
X109024360Y-121729652D01*
X108904652Y-121849360D01*
X108904648Y-121849365D01*
X108805152Y-121986311D01*
X108728296Y-122137146D01*
X108675981Y-122298152D01*
X108649500Y-122465350D01*
X97652615Y-122465350D01*
X97565538Y-122314528D01*
X97560545Y-122304937D01*
X97482303Y-122137146D01*
X97380683Y-121919221D01*
X97376555Y-121909255D01*
X97230992Y-121509322D01*
X97227747Y-121499033D01*
X97117590Y-121087921D01*
X97115256Y-121077393D01*
X97041354Y-120658270D01*
X97039943Y-120647549D01*
X97035235Y-120593735D01*
X97002792Y-120222915D01*
X97002328Y-120213471D01*
X97000007Y-120000641D01*
X97000000Y-119999289D01*
X97000000Y-119893713D01*
X100649500Y-119893713D01*
X100649500Y-120106286D01*
X100666476Y-120213472D01*
X100682754Y-120316243D01*
X100740278Y-120493284D01*
X100748444Y-120518414D01*
X100844951Y-120707820D01*
X100969890Y-120879786D01*
X101120213Y-121030109D01*
X101292179Y-121155048D01*
X101292181Y-121155049D01*
X101292184Y-121155051D01*
X101481588Y-121251557D01*
X101683757Y-121317246D01*
X101893713Y-121350500D01*
X101893714Y-121350500D01*
X102106286Y-121350500D01*
X102106287Y-121350500D01*
X102316243Y-121317246D01*
X102518412Y-121251557D01*
X102707816Y-121155051D01*
X102800190Y-121087938D01*
X102879786Y-121030109D01*
X102879788Y-121030106D01*
X102879792Y-121030104D01*
X103030104Y-120879792D01*
X103030106Y-120879788D01*
X103030109Y-120879786D01*
X103155048Y-120707820D01*
X103155047Y-120707820D01*
X103155051Y-120707816D01*
X103251557Y-120518412D01*
X103317246Y-120316243D01*
X103350500Y-120106287D01*
X103350500Y-119893713D01*
X103317246Y-119683757D01*
X103251557Y-119481588D01*
X103155051Y-119292184D01*
X103155049Y-119292181D01*
X103155048Y-119292179D01*
X103030109Y-119120213D01*
X102879786Y-118969890D01*
X102707820Y-118844951D01*
X102518414Y-118748444D01*
X102518413Y-118748443D01*
X102518412Y-118748443D01*
X102380249Y-118703551D01*
X108649500Y-118703551D01*
X108649500Y-119446449D01*
X108656495Y-119490614D01*
X108679675Y-119636969D01*
X108679676Y-119636972D01*
X108739285Y-119820429D01*
X108826859Y-119992302D01*
X108940241Y-120148359D01*
X109076641Y-120284759D01*
X109232698Y-120398141D01*
X109404571Y-120485715D01*
X109588028Y-120545324D01*
X109778551Y-120575500D01*
X109778552Y-120575500D01*
X109971448Y-120575500D01*
X109971449Y-120575500D01*
X110161972Y-120545324D01*
X110185109Y-120537805D01*
X110254947Y-120535807D01*
X110314781Y-120571885D01*
X110330816Y-120593735D01*
X110367465Y-120657214D01*
X110494129Y-120797888D01*
X110647265Y-120909148D01*
X110647270Y-120909151D01*
X110820192Y-120986142D01*
X110820197Y-120986144D01*
X111005354Y-121025500D01*
X111005355Y-121025500D01*
X111194644Y-121025500D01*
X111194646Y-121025500D01*
X111379803Y-120986144D01*
X111552730Y-120909151D01*
X111705871Y-120797888D01*
X111832533Y-120657216D01*
X111927179Y-120493284D01*
X111985674Y-120313256D01*
X112005460Y-120125000D01*
X111985674Y-119936744D01*
X111927179Y-119756716D01*
X111832533Y-119592784D01*
X111705871Y-119452112D01*
X111698077Y-119446449D01*
X111552734Y-119340851D01*
X111552729Y-119340848D01*
X111379807Y-119263857D01*
X111379802Y-119263855D01*
X111198719Y-119225365D01*
X111137237Y-119192173D01*
X111103461Y-119131009D01*
X111100500Y-119104075D01*
X111100500Y-118703551D01*
X111091596Y-118647335D01*
X111070324Y-118513028D01*
X111010715Y-118329571D01*
X110923141Y-118157698D01*
X110809759Y-118001641D01*
X110673359Y-117865241D01*
X110517302Y-117751859D01*
X110345429Y-117664285D01*
X110161972Y-117604676D01*
X110161970Y-117604675D01*
X110161969Y-117604675D01*
X110132452Y-117600000D01*
X112769815Y-117600000D01*
X112788503Y-117777805D01*
X112788504Y-117777807D01*
X112843747Y-117947829D01*
X112843750Y-117947835D01*
X112933141Y-118102665D01*
X112974812Y-118148946D01*
X113052764Y-118235521D01*
X113052767Y-118235523D01*
X113052770Y-118235526D01*
X113197407Y-118340612D01*
X113360733Y-118413329D01*
X113535609Y-118450500D01*
X113535610Y-118450500D01*
X113714389Y-118450500D01*
X113714391Y-118450500D01*
X113889267Y-118413329D01*
X114052593Y-118340612D01*
X114144025Y-118274182D01*
X114209831Y-118250702D01*
X114216911Y-118250500D01*
X116044306Y-118250500D01*
X116111345Y-118270185D01*
X116157100Y-118322989D01*
X116167044Y-118392147D01*
X116162239Y-118412808D01*
X116129676Y-118513028D01*
X116129676Y-118513030D01*
X116129675Y-118513033D01*
X116099500Y-118703551D01*
X116099500Y-119104075D01*
X116079815Y-119171114D01*
X116027011Y-119216869D01*
X116001281Y-119225365D01*
X115820197Y-119263855D01*
X115820192Y-119263857D01*
X115647270Y-119340848D01*
X115647265Y-119340851D01*
X115494129Y-119452111D01*
X115367466Y-119592785D01*
X115272821Y-119756715D01*
X115272818Y-119756722D01*
X115214327Y-119936740D01*
X115214326Y-119936744D01*
X115194540Y-120125000D01*
X115214326Y-120313256D01*
X115214327Y-120313259D01*
X115272818Y-120493277D01*
X115272821Y-120493284D01*
X115367467Y-120657216D01*
X115494129Y-120797888D01*
X115647265Y-120909148D01*
X115647270Y-120909151D01*
X115820192Y-120986142D01*
X115820197Y-120986144D01*
X116005354Y-121025500D01*
X116005355Y-121025500D01*
X116194644Y-121025500D01*
X116194646Y-121025500D01*
X116379803Y-120986144D01*
X116552730Y-120909151D01*
X116705871Y-120797888D01*
X116832533Y-120657216D01*
X116869183Y-120593734D01*
X116919749Y-120545520D01*
X116988355Y-120532296D01*
X117014879Y-120537802D01*
X117038028Y-120545324D01*
X117038031Y-120545324D01*
X117038033Y-120545325D01*
X117146209Y-120562458D01*
X117228551Y-120575500D01*
X117228552Y-120575500D01*
X117421448Y-120575500D01*
X117421449Y-120575500D01*
X117611972Y-120545324D01*
X117795429Y-120485715D01*
X117967302Y-120398141D01*
X118123359Y-120284759D01*
X118259759Y-120148359D01*
X118373141Y-119992302D01*
X118460715Y-119820429D01*
X118517138Y-119646775D01*
X118556574Y-119589103D01*
X118620933Y-119561904D01*
X118689779Y-119573819D01*
X118722749Y-119597415D01*
X120755605Y-121630272D01*
X120755606Y-121630273D01*
X120755609Y-121630275D01*
X120755611Y-121630277D01*
X120862153Y-121701465D01*
X120980536Y-121750501D01*
X120980540Y-121750501D01*
X120980541Y-121750502D01*
X121106208Y-121775500D01*
X121106211Y-121775500D01*
X125689071Y-121775500D01*
X125773615Y-121758682D01*
X125814744Y-121750501D01*
X125933127Y-121701465D01*
X126039669Y-121630277D01*
X127658335Y-120011609D01*
X127719656Y-119978126D01*
X127720018Y-119978047D01*
X127789267Y-119963329D01*
X127945628Y-119893713D01*
X150649500Y-119893713D01*
X150649500Y-120106286D01*
X150666476Y-120213472D01*
X150682754Y-120316243D01*
X150740278Y-120493284D01*
X150748444Y-120518414D01*
X150844951Y-120707820D01*
X150969890Y-120879786D01*
X151120213Y-121030109D01*
X151292179Y-121155048D01*
X151292181Y-121155049D01*
X151292184Y-121155051D01*
X151481588Y-121251557D01*
X151683757Y-121317246D01*
X151893713Y-121350500D01*
X151893714Y-121350500D01*
X152106286Y-121350500D01*
X152106287Y-121350500D01*
X152316243Y-121317246D01*
X152518412Y-121251557D01*
X152707816Y-121155051D01*
X152800190Y-121087938D01*
X152879786Y-121030109D01*
X152879788Y-121030106D01*
X152879792Y-121030104D01*
X153030104Y-120879792D01*
X153030106Y-120879788D01*
X153030109Y-120879786D01*
X153155048Y-120707820D01*
X153155047Y-120707820D01*
X153155051Y-120707816D01*
X153251557Y-120518412D01*
X153317246Y-120316243D01*
X153350500Y-120106287D01*
X153350500Y-119893713D01*
X153317246Y-119683757D01*
X153251557Y-119481588D01*
X153155051Y-119292184D01*
X153155049Y-119292181D01*
X153155048Y-119292179D01*
X153030109Y-119120213D01*
X152879786Y-118969890D01*
X152707820Y-118844951D01*
X152518414Y-118748444D01*
X152518413Y-118748443D01*
X152518412Y-118748443D01*
X152316243Y-118682754D01*
X152316241Y-118682753D01*
X152316240Y-118682753D01*
X152154957Y-118657208D01*
X152106287Y-118649500D01*
X151893713Y-118649500D01*
X151845042Y-118657208D01*
X151683760Y-118682753D01*
X151481585Y-118748444D01*
X151292179Y-118844951D01*
X151120213Y-118969890D01*
X150969890Y-119120213D01*
X150844951Y-119292179D01*
X150748444Y-119481585D01*
X150682753Y-119683760D01*
X150649500Y-119893713D01*
X127945628Y-119893713D01*
X127952593Y-119890612D01*
X128097230Y-119785526D01*
X128216859Y-119652665D01*
X128306250Y-119497835D01*
X128361497Y-119327803D01*
X128380185Y-119150000D01*
X128361497Y-118972197D01*
X128320152Y-118844951D01*
X128306252Y-118802170D01*
X128306249Y-118802164D01*
X128275234Y-118748444D01*
X128216859Y-118647335D01*
X128170003Y-118595296D01*
X128097235Y-118514478D01*
X128097232Y-118514476D01*
X128097231Y-118514475D01*
X128097230Y-118514474D01*
X127952593Y-118409388D01*
X127789267Y-118336671D01*
X127789265Y-118336670D01*
X127661594Y-118309533D01*
X127614391Y-118299500D01*
X127435609Y-118299500D01*
X127404954Y-118306015D01*
X127260733Y-118336670D01*
X127260728Y-118336672D01*
X127097408Y-118409387D01*
X126952768Y-118514475D01*
X126833140Y-118647336D01*
X126743750Y-118802164D01*
X126743747Y-118802170D01*
X126688504Y-118972192D01*
X126688504Y-118972193D01*
X126688503Y-118972197D01*
X126678145Y-119070738D01*
X126673202Y-119117772D01*
X126646617Y-119182386D01*
X126637562Y-119192490D01*
X125391873Y-120438181D01*
X125330550Y-120471666D01*
X125304192Y-120474500D01*
X121491088Y-120474500D01*
X121424049Y-120454815D01*
X121403407Y-120438181D01*
X118059954Y-117094727D01*
X118059953Y-117094726D01*
X118059949Y-117094723D01*
X118010710Y-117061823D01*
X117965906Y-117008213D01*
X117957199Y-116938888D01*
X117987353Y-116875860D01*
X118046796Y-116839140D01*
X118053802Y-116837436D01*
X118182199Y-116810145D01*
X118214263Y-116803330D01*
X118214263Y-116803329D01*
X118214267Y-116803329D01*
X118377593Y-116730612D01*
X118452331Y-116676310D01*
X118518134Y-116652831D01*
X118586188Y-116668656D01*
X118634884Y-116718760D01*
X118648760Y-116787238D01*
X118648536Y-116789588D01*
X118644815Y-116824997D01*
X118644815Y-116825000D01*
X118655832Y-116929815D01*
X118663503Y-117002805D01*
X118663504Y-117002807D01*
X118718747Y-117172829D01*
X118718750Y-117172835D01*
X118808141Y-117327665D01*
X118849812Y-117373946D01*
X118927764Y-117460521D01*
X118927767Y-117460523D01*
X118927770Y-117460526D01*
X119072407Y-117565612D01*
X119235733Y-117638329D01*
X119410609Y-117675500D01*
X119410610Y-117675500D01*
X119589389Y-117675500D01*
X119589391Y-117675500D01*
X119764267Y-117638329D01*
X119927593Y-117565612D01*
X120019025Y-117499182D01*
X120084831Y-117475702D01*
X120091911Y-117475500D01*
X124339071Y-117475500D01*
X124423615Y-117458682D01*
X124464744Y-117450501D01*
X124583127Y-117401465D01*
X124689669Y-117330277D01*
X126413092Y-115606853D01*
X126474413Y-115573370D01*
X126474477Y-115573356D01*
X126639267Y-115538329D01*
X126802593Y-115465612D01*
X126947230Y-115360526D01*
X126952679Y-115354475D01*
X126987485Y-115315818D01*
X127066859Y-115227665D01*
X127156250Y-115072835D01*
X127211497Y-114902803D01*
X127230185Y-114725000D01*
X127211497Y-114547197D01*
X127156250Y-114377165D01*
X127066859Y-114222335D01*
X127020003Y-114170296D01*
X126947235Y-114089478D01*
X126947226Y-114089471D01*
X126891366Y-114048885D01*
X126848700Y-113993555D01*
X126840931Y-113935610D01*
X126855185Y-113800000D01*
X126836497Y-113622197D01*
X126781250Y-113452165D01*
X126691859Y-113297335D01*
X126645003Y-113245296D01*
X126572235Y-113164478D01*
X126572228Y-113164472D01*
X126501132Y-113112818D01*
X126458466Y-113057488D01*
X126452487Y-112987875D01*
X126485093Y-112926080D01*
X126501132Y-112912182D01*
X126551620Y-112875500D01*
X126572230Y-112860526D01*
X126581258Y-112850500D01*
X126598148Y-112831741D01*
X126691859Y-112727665D01*
X126781250Y-112572835D01*
X126836497Y-112402803D01*
X126855185Y-112225000D01*
X126836497Y-112047197D01*
X126789159Y-111901505D01*
X126781252Y-111877170D01*
X126781249Y-111877164D01*
X126738317Y-111802803D01*
X126691859Y-111722335D01*
X126624477Y-111647500D01*
X126604218Y-111625000D01*
X132819815Y-111625000D01*
X132838503Y-111802805D01*
X132838504Y-111802807D01*
X132893747Y-111972829D01*
X132893750Y-111972835D01*
X132983141Y-112127665D01*
X133024812Y-112173946D01*
X133102764Y-112260521D01*
X133102767Y-112260523D01*
X133102770Y-112260526D01*
X133247407Y-112365612D01*
X133410733Y-112438329D01*
X133585609Y-112475500D01*
X133585610Y-112475500D01*
X133764389Y-112475500D01*
X133764391Y-112475500D01*
X133939267Y-112438329D01*
X134102593Y-112365612D01*
X134194025Y-112299182D01*
X134259831Y-112275702D01*
X134266911Y-112275500D01*
X139558089Y-112275500D01*
X139625128Y-112295185D01*
X139630976Y-112299182D01*
X139722407Y-112365612D01*
X139885733Y-112438329D01*
X140060609Y-112475500D01*
X140060610Y-112475500D01*
X140239389Y-112475500D01*
X140239391Y-112475500D01*
X140414267Y-112438329D01*
X140577593Y-112365612D01*
X140722230Y-112260526D01*
X140841859Y-112127665D01*
X140931250Y-111972835D01*
X140986497Y-111802803D01*
X141005185Y-111625000D01*
X140986497Y-111447197D01*
X140931250Y-111277165D01*
X140841859Y-111122335D01*
X140795003Y-111070296D01*
X140722235Y-110989478D01*
X140722232Y-110989476D01*
X140722231Y-110989475D01*
X140722230Y-110989474D01*
X140577593Y-110884388D01*
X140414267Y-110811671D01*
X140414265Y-110811670D01*
X140286594Y-110784533D01*
X140239391Y-110774500D01*
X140060609Y-110774500D01*
X140029954Y-110781015D01*
X139885733Y-110811670D01*
X139885728Y-110811672D01*
X139722408Y-110884388D01*
X139722403Y-110884390D01*
X139630974Y-110950818D01*
X139565168Y-110974298D01*
X139558089Y-110974500D01*
X134266911Y-110974500D01*
X134199872Y-110954815D01*
X134194025Y-110950818D01*
X134178803Y-110939758D01*
X134102593Y-110884388D01*
X133939267Y-110811671D01*
X133939265Y-110811670D01*
X133811594Y-110784533D01*
X133764391Y-110774500D01*
X133585609Y-110774500D01*
X133554954Y-110781015D01*
X133410733Y-110811670D01*
X133410728Y-110811672D01*
X133247408Y-110884387D01*
X133102768Y-110989475D01*
X132983140Y-111122336D01*
X132893750Y-111277164D01*
X132893747Y-111277170D01*
X132838504Y-111447192D01*
X132838503Y-111447194D01*
X132819815Y-111625000D01*
X126604218Y-111625000D01*
X126572235Y-111589478D01*
X126572232Y-111589476D01*
X126572231Y-111589475D01*
X126572230Y-111589474D01*
X126427593Y-111484388D01*
X126264267Y-111411671D01*
X126264265Y-111411670D01*
X126136594Y-111384533D01*
X126089391Y-111374500D01*
X125910609Y-111374500D01*
X125873439Y-111382400D01*
X125735734Y-111411670D01*
X125735733Y-111411671D01*
X125724241Y-111416787D01*
X125654990Y-111426067D01*
X125591715Y-111396435D01*
X125586131Y-111391185D01*
X125389674Y-111194727D01*
X125389673Y-111194726D01*
X125389669Y-111194723D01*
X125283127Y-111123535D01*
X125280232Y-111122336D01*
X125164744Y-111074499D01*
X125164738Y-111074497D01*
X125039071Y-111049500D01*
X125039069Y-111049500D01*
X118441911Y-111049500D01*
X118374872Y-111029815D01*
X118369025Y-111025818D01*
X118319002Y-110989474D01*
X118277593Y-110959388D01*
X118114267Y-110886671D01*
X118114265Y-110886670D01*
X117986594Y-110859533D01*
X117939391Y-110849500D01*
X117760609Y-110849500D01*
X117729954Y-110856015D01*
X117585733Y-110886670D01*
X117585728Y-110886672D01*
X117422408Y-110959387D01*
X117277768Y-111064475D01*
X117158140Y-111197336D01*
X117068750Y-111352164D01*
X117068747Y-111352170D01*
X117013504Y-111522192D01*
X117013503Y-111522194D01*
X116994815Y-111700000D01*
X117013503Y-111877805D01*
X117013504Y-111877807D01*
X117068747Y-112047829D01*
X117068750Y-112047835D01*
X117158141Y-112202665D01*
X117178252Y-112225000D01*
X117277764Y-112335521D01*
X117277767Y-112335523D01*
X117277770Y-112335526D01*
X117422407Y-112440612D01*
X117585733Y-112513329D01*
X117760609Y-112550500D01*
X117760610Y-112550500D01*
X117939389Y-112550500D01*
X117939391Y-112550500D01*
X118114267Y-112513329D01*
X118277593Y-112440612D01*
X118369025Y-112374182D01*
X118434831Y-112350702D01*
X118441911Y-112350500D01*
X124654192Y-112350500D01*
X124721231Y-112370185D01*
X124741873Y-112386819D01*
X125085325Y-112730272D01*
X125085326Y-112730273D01*
X125085329Y-112730275D01*
X125085331Y-112730277D01*
X125191873Y-112801465D01*
X125310256Y-112850501D01*
X125310260Y-112850501D01*
X125310261Y-112850502D01*
X125426389Y-112873602D01*
X125475083Y-112894901D01*
X125498868Y-112912182D01*
X125541533Y-112967512D01*
X125547512Y-113037126D01*
X125514906Y-113098921D01*
X125498868Y-113112818D01*
X125427768Y-113164475D01*
X125308140Y-113297336D01*
X125218750Y-113452164D01*
X125218747Y-113452170D01*
X125163504Y-113622192D01*
X125163503Y-113622194D01*
X125157011Y-113683963D01*
X125130425Y-113748577D01*
X125121371Y-113758681D01*
X123576873Y-115303181D01*
X123515550Y-115336666D01*
X123489192Y-115339500D01*
X118541911Y-115339500D01*
X118474872Y-115319815D01*
X118469025Y-115315818D01*
X118377594Y-115249389D01*
X118377593Y-115249388D01*
X118214267Y-115176671D01*
X118214265Y-115176670D01*
X118086594Y-115149533D01*
X118039391Y-115139500D01*
X117860609Y-115139500D01*
X117829954Y-115146015D01*
X117685733Y-115176670D01*
X117685728Y-115176672D01*
X117522408Y-115249387D01*
X117377768Y-115354475D01*
X117258140Y-115487336D01*
X117168750Y-115642164D01*
X117168747Y-115642170D01*
X117113504Y-115812192D01*
X117113503Y-115812194D01*
X117094815Y-115990000D01*
X117113503Y-116167805D01*
X117113504Y-116167807D01*
X117168747Y-116337829D01*
X117168750Y-116337835D01*
X117258141Y-116492665D01*
X117299812Y-116538946D01*
X117377764Y-116625521D01*
X117377767Y-116625523D01*
X117377770Y-116625526D01*
X117514934Y-116725183D01*
X117557599Y-116780512D01*
X117563578Y-116850126D01*
X117530972Y-116911921D01*
X117470133Y-116946278D01*
X117442048Y-116949500D01*
X114216911Y-116949500D01*
X114149872Y-116929815D01*
X114144025Y-116925818D01*
X114052594Y-116859389D01*
X114052593Y-116859388D01*
X113889267Y-116786671D01*
X113889265Y-116786670D01*
X113761594Y-116759533D01*
X113714391Y-116749500D01*
X113535609Y-116749500D01*
X113504954Y-116756015D01*
X113360733Y-116786670D01*
X113360728Y-116786672D01*
X113197408Y-116859387D01*
X113052768Y-116964475D01*
X112933140Y-117097336D01*
X112843750Y-117252164D01*
X112843747Y-117252170D01*
X112788504Y-117422192D01*
X112788503Y-117422194D01*
X112769815Y-117600000D01*
X110132452Y-117600000D01*
X110015614Y-117581495D01*
X109971449Y-117574500D01*
X109778551Y-117574500D01*
X109742697Y-117580178D01*
X109588030Y-117604675D01*
X109404568Y-117664286D01*
X109232697Y-117751859D01*
X109143661Y-117816547D01*
X109076641Y-117865241D01*
X109076639Y-117865243D01*
X109076638Y-117865243D01*
X108940243Y-118001638D01*
X108940243Y-118001639D01*
X108940241Y-118001641D01*
X108891547Y-118068661D01*
X108826859Y-118157697D01*
X108739286Y-118329568D01*
X108679675Y-118513030D01*
X108658061Y-118649500D01*
X108649500Y-118703551D01*
X102380249Y-118703551D01*
X102316243Y-118682754D01*
X102316241Y-118682753D01*
X102316240Y-118682753D01*
X102154957Y-118657208D01*
X102106287Y-118649500D01*
X101893713Y-118649500D01*
X101845042Y-118657208D01*
X101683760Y-118682753D01*
X101481585Y-118748444D01*
X101292179Y-118844951D01*
X101120213Y-118969890D01*
X100969890Y-119120213D01*
X100844951Y-119292179D01*
X100748444Y-119481585D01*
X100682753Y-119683760D01*
X100649500Y-119893713D01*
X97000000Y-119893713D01*
X97000000Y-87539999D01*
X100644341Y-87539999D01*
X100644341Y-87540000D01*
X100664936Y-87775403D01*
X100664938Y-87775413D01*
X100726094Y-88003655D01*
X100726096Y-88003659D01*
X100726097Y-88003663D01*
X100783905Y-88127632D01*
X100825965Y-88217830D01*
X100825967Y-88217834D01*
X100961501Y-88411395D01*
X100961506Y-88411402D01*
X101128597Y-88578493D01*
X101128603Y-88578498D01*
X101314158Y-88708425D01*
X101357783Y-88763002D01*
X101364977Y-88832500D01*
X101333454Y-88894855D01*
X101314158Y-88911575D01*
X101128597Y-89041505D01*
X100961505Y-89208597D01*
X100825965Y-89402169D01*
X100825964Y-89402171D01*
X100726098Y-89616335D01*
X100726094Y-89616344D01*
X100664938Y-89844586D01*
X100664936Y-89844596D01*
X100644341Y-90079999D01*
X100644341Y-90080000D01*
X100664936Y-90315403D01*
X100664938Y-90315413D01*
X100726094Y-90543655D01*
X100726096Y-90543659D01*
X100726097Y-90543663D01*
X100825965Y-90757830D01*
X100825967Y-90757834D01*
X100961501Y-90951395D01*
X100961506Y-90951402D01*
X101128597Y-91118493D01*
X101128603Y-91118498D01*
X101314158Y-91248425D01*
X101357783Y-91303002D01*
X101364977Y-91372500D01*
X101333454Y-91434855D01*
X101314158Y-91451575D01*
X101128597Y-91581505D01*
X100961505Y-91748597D01*
X100825965Y-91942169D01*
X100825964Y-91942171D01*
X100726098Y-92156335D01*
X100726094Y-92156344D01*
X100664938Y-92384586D01*
X100664936Y-92384596D01*
X100644341Y-92619999D01*
X100644341Y-92620000D01*
X100664936Y-92855403D01*
X100664938Y-92855413D01*
X100726094Y-93083655D01*
X100726096Y-93083659D01*
X100726097Y-93083663D01*
X100767382Y-93172198D01*
X100825965Y-93297830D01*
X100825967Y-93297834D01*
X100961501Y-93491395D01*
X100961506Y-93491402D01*
X101128597Y-93658493D01*
X101128603Y-93658498D01*
X101314158Y-93788425D01*
X101357783Y-93843002D01*
X101364977Y-93912500D01*
X101333454Y-93974855D01*
X101314158Y-93991575D01*
X101128597Y-94121505D01*
X100961505Y-94288597D01*
X100825965Y-94482169D01*
X100825964Y-94482171D01*
X100726098Y-94696335D01*
X100726094Y-94696344D01*
X100664938Y-94924586D01*
X100664936Y-94924596D01*
X100644341Y-95159999D01*
X100644341Y-95160000D01*
X100664936Y-95395403D01*
X100664938Y-95395413D01*
X100726094Y-95623655D01*
X100726096Y-95623659D01*
X100726097Y-95623663D01*
X100791035Y-95762923D01*
X100825965Y-95837830D01*
X100825967Y-95837834D01*
X100961501Y-96031395D01*
X100961506Y-96031402D01*
X101128597Y-96198493D01*
X101128603Y-96198498D01*
X101314158Y-96328425D01*
X101357783Y-96383002D01*
X101364977Y-96452500D01*
X101333454Y-96514855D01*
X101314158Y-96531575D01*
X101128597Y-96661505D01*
X100961505Y-96828597D01*
X100825965Y-97022169D01*
X100825964Y-97022171D01*
X100726098Y-97236335D01*
X100726094Y-97236344D01*
X100664938Y-97464586D01*
X100664936Y-97464596D01*
X100644341Y-97699999D01*
X100644341Y-97700000D01*
X100664936Y-97935403D01*
X100664938Y-97935413D01*
X100726094Y-98163655D01*
X100726096Y-98163659D01*
X100726097Y-98163663D01*
X100790681Y-98302164D01*
X100825965Y-98377830D01*
X100825967Y-98377834D01*
X100961501Y-98571395D01*
X100961506Y-98571402D01*
X101128597Y-98738493D01*
X101128603Y-98738498D01*
X101314158Y-98868425D01*
X101357783Y-98923002D01*
X101364977Y-98992500D01*
X101333454Y-99054855D01*
X101314158Y-99071575D01*
X101128597Y-99201505D01*
X100961505Y-99368597D01*
X100825965Y-99562169D01*
X100825964Y-99562171D01*
X100726098Y-99776335D01*
X100726094Y-99776344D01*
X100664938Y-100004586D01*
X100664936Y-100004596D01*
X100644341Y-100239999D01*
X100644341Y-100240000D01*
X100664936Y-100475403D01*
X100664938Y-100475413D01*
X100726094Y-100703655D01*
X100726096Y-100703659D01*
X100726097Y-100703663D01*
X100756509Y-100768881D01*
X100825965Y-100917830D01*
X100825967Y-100917834D01*
X100961501Y-101111395D01*
X100961506Y-101111402D01*
X101128597Y-101278493D01*
X101128603Y-101278498D01*
X101314158Y-101408425D01*
X101357783Y-101463002D01*
X101364977Y-101532500D01*
X101333454Y-101594855D01*
X101314158Y-101611575D01*
X101128597Y-101741505D01*
X100961505Y-101908597D01*
X100825965Y-102102169D01*
X100825964Y-102102171D01*
X100726098Y-102316335D01*
X100726094Y-102316344D01*
X100664938Y-102544586D01*
X100664936Y-102544596D01*
X100644341Y-102779999D01*
X100644341Y-102780000D01*
X100664936Y-103015403D01*
X100664938Y-103015413D01*
X100726094Y-103243655D01*
X100726096Y-103243659D01*
X100726097Y-103243663D01*
X100799761Y-103401635D01*
X100825965Y-103457830D01*
X100825967Y-103457834D01*
X100961501Y-103651395D01*
X100961506Y-103651402D01*
X101128597Y-103818493D01*
X101128603Y-103818498D01*
X101314158Y-103948425D01*
X101357783Y-104003002D01*
X101364977Y-104072500D01*
X101333454Y-104134855D01*
X101314158Y-104151575D01*
X101128597Y-104281505D01*
X100961505Y-104448597D01*
X100825965Y-104642169D01*
X100825964Y-104642171D01*
X100726098Y-104856335D01*
X100726094Y-104856344D01*
X100664938Y-105084586D01*
X100664936Y-105084596D01*
X100644341Y-105319999D01*
X100644341Y-105320000D01*
X100664936Y-105555403D01*
X100664938Y-105555413D01*
X100726094Y-105783655D01*
X100726096Y-105783659D01*
X100726097Y-105783663D01*
X100825965Y-105997830D01*
X100825967Y-105997834D01*
X100961501Y-106191395D01*
X100961506Y-106191402D01*
X101128597Y-106358493D01*
X101128603Y-106358498D01*
X101314158Y-106488425D01*
X101357783Y-106543002D01*
X101364977Y-106612500D01*
X101333454Y-106674855D01*
X101314158Y-106691575D01*
X101128597Y-106821505D01*
X100961505Y-106988597D01*
X100825965Y-107182169D01*
X100825964Y-107182171D01*
X100726098Y-107396335D01*
X100726094Y-107396344D01*
X100664938Y-107624586D01*
X100664936Y-107624596D01*
X100644341Y-107859999D01*
X100644341Y-107860000D01*
X100664936Y-108095403D01*
X100664938Y-108095413D01*
X100726094Y-108323655D01*
X100726096Y-108323659D01*
X100726097Y-108323663D01*
X100757315Y-108390610D01*
X100825965Y-108537830D01*
X100825967Y-108537834D01*
X100961501Y-108731395D01*
X100961506Y-108731402D01*
X101128597Y-108898493D01*
X101128603Y-108898498D01*
X101314158Y-109028425D01*
X101357783Y-109083002D01*
X101364977Y-109152500D01*
X101333454Y-109214855D01*
X101314158Y-109231575D01*
X101128597Y-109361505D01*
X100961505Y-109528597D01*
X100825965Y-109722169D01*
X100825964Y-109722171D01*
X100726098Y-109936335D01*
X100726094Y-109936344D01*
X100664938Y-110164586D01*
X100664936Y-110164596D01*
X100644341Y-110399999D01*
X100644341Y-110400000D01*
X100664936Y-110635403D01*
X100664938Y-110635413D01*
X100726094Y-110863655D01*
X100726096Y-110863659D01*
X100726097Y-110863663D01*
X100819737Y-111064474D01*
X100825965Y-111077830D01*
X100825967Y-111077834D01*
X100961501Y-111271395D01*
X100961506Y-111271402D01*
X101128597Y-111438493D01*
X101128603Y-111438498D01*
X101314158Y-111568425D01*
X101357783Y-111623002D01*
X101364977Y-111692500D01*
X101333454Y-111754855D01*
X101314158Y-111771575D01*
X101128597Y-111901505D01*
X100961505Y-112068597D01*
X100825965Y-112262169D01*
X100825964Y-112262171D01*
X100726098Y-112476335D01*
X100726094Y-112476344D01*
X100664938Y-112704586D01*
X100664936Y-112704596D01*
X100644341Y-112939999D01*
X100644341Y-112940000D01*
X100664936Y-113175403D01*
X100664938Y-113175413D01*
X100726094Y-113403655D01*
X100726096Y-113403659D01*
X100726097Y-113403663D01*
X100825965Y-113617830D01*
X100825967Y-113617834D01*
X100902849Y-113727632D01*
X100961505Y-113811401D01*
X101128599Y-113978495D01*
X101150107Y-113993555D01*
X101322165Y-114114032D01*
X101322167Y-114114033D01*
X101322170Y-114114035D01*
X101536337Y-114213903D01*
X101764592Y-114275063D01*
X101952918Y-114291539D01*
X101999999Y-114295659D01*
X102000000Y-114295659D01*
X102000001Y-114295659D01*
X102039234Y-114292226D01*
X102235408Y-114275063D01*
X102463663Y-114213903D01*
X102677830Y-114114035D01*
X102871401Y-113978495D01*
X103038495Y-113811401D01*
X103174035Y-113617830D01*
X103273903Y-113403663D01*
X103335063Y-113175408D01*
X103355659Y-112940000D01*
X103335063Y-112704592D01*
X103273903Y-112476337D01*
X103174035Y-112262171D01*
X103172884Y-112260526D01*
X103038494Y-112068597D01*
X102871402Y-111901506D01*
X102871396Y-111901501D01*
X102685842Y-111771575D01*
X102642217Y-111716998D01*
X102635023Y-111647500D01*
X102666546Y-111585145D01*
X102685842Y-111568425D01*
X102751862Y-111522197D01*
X102871401Y-111438495D01*
X103038495Y-111271401D01*
X103174035Y-111077830D01*
X103273903Y-110863663D01*
X103335063Y-110635408D01*
X103355659Y-110400000D01*
X103335063Y-110164592D01*
X103273903Y-109936337D01*
X103174035Y-109722171D01*
X103038495Y-109528599D01*
X103038494Y-109528597D01*
X102871402Y-109361506D01*
X102871396Y-109361501D01*
X102685842Y-109231575D01*
X102642217Y-109176998D01*
X102635023Y-109107500D01*
X102666546Y-109045145D01*
X102685842Y-109028425D01*
X102708026Y-109012891D01*
X102871401Y-108898495D01*
X103038495Y-108731401D01*
X103174035Y-108537830D01*
X103273903Y-108323663D01*
X103335063Y-108095408D01*
X103355659Y-107860000D01*
X103335063Y-107624592D01*
X103273903Y-107396337D01*
X103174035Y-107182171D01*
X103149644Y-107147336D01*
X103038494Y-106988597D01*
X102871402Y-106821506D01*
X102871396Y-106821501D01*
X102685842Y-106691575D01*
X102642217Y-106636998D01*
X102635023Y-106567500D01*
X102666546Y-106505145D01*
X102685842Y-106488425D01*
X102708026Y-106472891D01*
X102871401Y-106358495D01*
X103038495Y-106191401D01*
X103174035Y-105997830D01*
X103273903Y-105783663D01*
X103335063Y-105555408D01*
X103355659Y-105320000D01*
X103335063Y-105084592D01*
X103273903Y-104856337D01*
X103238303Y-104779994D01*
X107634859Y-104779994D01*
X107634859Y-104780005D01*
X107655385Y-105027729D01*
X107655387Y-105027738D01*
X107716412Y-105268717D01*
X107816266Y-105496364D01*
X107916564Y-105649882D01*
X108616212Y-104950234D01*
X108627482Y-104992292D01*
X108699890Y-105117708D01*
X108802292Y-105220110D01*
X108927708Y-105292518D01*
X108969765Y-105303787D01*
X108269942Y-106003609D01*
X108316768Y-106040055D01*
X108316770Y-106040056D01*
X108535385Y-106158364D01*
X108535396Y-106158369D01*
X108770506Y-106239083D01*
X109015707Y-106280000D01*
X109264293Y-106280000D01*
X109509493Y-106239083D01*
X109744603Y-106158369D01*
X109744614Y-106158364D01*
X109963228Y-106040057D01*
X109963231Y-106040055D01*
X110010056Y-106003609D01*
X109310234Y-105303787D01*
X109352292Y-105292518D01*
X109477708Y-105220110D01*
X109580110Y-105117708D01*
X109652518Y-104992292D01*
X109663787Y-104950234D01*
X110363434Y-105649882D01*
X110463731Y-105496369D01*
X110563587Y-105268717D01*
X110624612Y-105027738D01*
X110624614Y-105027729D01*
X110645141Y-104780005D01*
X110645141Y-104779994D01*
X114134859Y-104779994D01*
X114134859Y-104780005D01*
X114155385Y-105027729D01*
X114155387Y-105027738D01*
X114216412Y-105268717D01*
X114316266Y-105496364D01*
X114416564Y-105649882D01*
X115116212Y-104950234D01*
X115127482Y-104992292D01*
X115199890Y-105117708D01*
X115302292Y-105220110D01*
X115427708Y-105292518D01*
X115469765Y-105303787D01*
X114769942Y-106003609D01*
X114816768Y-106040055D01*
X114816770Y-106040056D01*
X115035385Y-106158364D01*
X115035396Y-106158369D01*
X115270506Y-106239083D01*
X115515707Y-106280000D01*
X115764293Y-106280000D01*
X116009493Y-106239083D01*
X116244603Y-106158369D01*
X116244614Y-106158364D01*
X116463228Y-106040057D01*
X116463231Y-106040055D01*
X116510056Y-106003609D01*
X115810234Y-105303787D01*
X115852292Y-105292518D01*
X115977708Y-105220110D01*
X116080110Y-105117708D01*
X116152518Y-104992292D01*
X116163787Y-104950235D01*
X116863434Y-105649882D01*
X116963731Y-105496369D01*
X117063587Y-105268717D01*
X117124612Y-105027738D01*
X117124614Y-105027729D01*
X117145141Y-104780005D01*
X117145141Y-104779994D01*
X117124614Y-104532270D01*
X117124612Y-104532261D01*
X117063587Y-104291282D01*
X116963731Y-104063630D01*
X116863434Y-103910116D01*
X116163787Y-104609764D01*
X116152518Y-104567708D01*
X116080110Y-104442292D01*
X115977708Y-104339890D01*
X115852292Y-104267482D01*
X115810235Y-104256212D01*
X116510057Y-103556390D01*
X116510056Y-103556389D01*
X116463229Y-103519943D01*
X116244614Y-103401635D01*
X116244603Y-103401630D01*
X116009493Y-103320916D01*
X115764293Y-103280000D01*
X115515707Y-103280000D01*
X115270506Y-103320916D01*
X115035396Y-103401630D01*
X115035390Y-103401632D01*
X114816761Y-103519949D01*
X114769942Y-103556388D01*
X114769942Y-103556390D01*
X115469765Y-104256212D01*
X115427708Y-104267482D01*
X115302292Y-104339890D01*
X115199890Y-104442292D01*
X115127482Y-104567708D01*
X115116212Y-104609764D01*
X114416564Y-103910116D01*
X114316267Y-104063632D01*
X114216412Y-104291282D01*
X114155387Y-104532261D01*
X114155385Y-104532270D01*
X114134859Y-104779994D01*
X110645141Y-104779994D01*
X110624614Y-104532270D01*
X110624612Y-104532261D01*
X110563587Y-104291282D01*
X110463731Y-104063630D01*
X110363434Y-103910116D01*
X109663787Y-104609764D01*
X109652518Y-104567708D01*
X109580110Y-104442292D01*
X109477708Y-104339890D01*
X109352292Y-104267482D01*
X109310235Y-104256212D01*
X110010057Y-103556390D01*
X110010056Y-103556389D01*
X109963229Y-103519943D01*
X109744614Y-103401635D01*
X109744603Y-103401630D01*
X109509493Y-103320916D01*
X109264293Y-103280000D01*
X109015707Y-103280000D01*
X108770506Y-103320916D01*
X108535396Y-103401630D01*
X108535390Y-103401632D01*
X108316761Y-103519949D01*
X108269942Y-103556388D01*
X108269942Y-103556390D01*
X108969765Y-104256212D01*
X108927708Y-104267482D01*
X108802292Y-104339890D01*
X108699890Y-104442292D01*
X108627482Y-104567708D01*
X108616212Y-104609764D01*
X107916564Y-103910116D01*
X107816267Y-104063632D01*
X107716412Y-104291282D01*
X107655387Y-104532261D01*
X107655385Y-104532270D01*
X107634859Y-104779994D01*
X103238303Y-104779994D01*
X103174035Y-104642171D01*
X103058497Y-104477164D01*
X103038494Y-104448597D01*
X102871402Y-104281506D01*
X102871396Y-104281501D01*
X102685842Y-104151575D01*
X102642217Y-104096998D01*
X102635023Y-104027500D01*
X102666546Y-103965145D01*
X102685842Y-103948425D01*
X102740553Y-103910116D01*
X102871401Y-103818495D01*
X103038495Y-103651401D01*
X103174035Y-103457830D01*
X103273903Y-103243663D01*
X103335063Y-103015408D01*
X103355659Y-102780000D01*
X103335063Y-102544592D01*
X103273903Y-102316337D01*
X103174035Y-102102171D01*
X103038495Y-101908599D01*
X103038494Y-101908597D01*
X102871402Y-101741506D01*
X102871396Y-101741501D01*
X102685842Y-101611575D01*
X102642217Y-101556998D01*
X102635023Y-101487500D01*
X102666546Y-101425145D01*
X102685842Y-101408425D01*
X102715386Y-101387738D01*
X102871401Y-101278495D01*
X103038495Y-101111401D01*
X103174035Y-100917830D01*
X103273903Y-100703663D01*
X103335063Y-100475408D01*
X103352160Y-100279994D01*
X107634357Y-100279994D01*
X107634357Y-100280005D01*
X107654890Y-100527812D01*
X107654892Y-100527824D01*
X107715936Y-100768881D01*
X107815826Y-100996606D01*
X107951833Y-101204782D01*
X107951836Y-101204785D01*
X108120256Y-101387738D01*
X108316491Y-101540474D01*
X108535190Y-101658828D01*
X108770386Y-101739571D01*
X109015665Y-101780500D01*
X109264335Y-101780500D01*
X109509614Y-101739571D01*
X109744810Y-101658828D01*
X109963509Y-101540474D01*
X110159744Y-101387738D01*
X110328164Y-101204785D01*
X110464173Y-100996607D01*
X110564063Y-100768881D01*
X110625108Y-100527821D01*
X110629451Y-100475408D01*
X110645643Y-100280005D01*
X110645643Y-100279994D01*
X114134357Y-100279994D01*
X114134357Y-100280005D01*
X114154890Y-100527812D01*
X114154892Y-100527824D01*
X114215936Y-100768881D01*
X114315826Y-100996606D01*
X114451833Y-101204782D01*
X114451836Y-101204785D01*
X114620256Y-101387738D01*
X114816491Y-101540474D01*
X115035190Y-101658828D01*
X115270386Y-101739571D01*
X115515665Y-101780500D01*
X115764335Y-101780500D01*
X116009614Y-101739571D01*
X116244810Y-101658828D01*
X116463509Y-101540474D01*
X116659744Y-101387738D01*
X116726763Y-101314934D01*
X116786647Y-101278946D01*
X116856485Y-101281045D01*
X116910140Y-101315946D01*
X116927770Y-101335526D01*
X117072407Y-101440612D01*
X117235733Y-101513329D01*
X117410609Y-101550500D01*
X117410610Y-101550500D01*
X117589389Y-101550500D01*
X117589391Y-101550500D01*
X117764267Y-101513329D01*
X117927593Y-101440612D01*
X118051023Y-101350933D01*
X118099715Y-101329636D01*
X118120505Y-101325501D01*
X118238888Y-101276465D01*
X118345430Y-101205277D01*
X120937771Y-98612934D01*
X120999094Y-98579450D01*
X121068786Y-98584434D01*
X121124719Y-98626306D01*
X121148773Y-98687654D01*
X121163503Y-98827805D01*
X121163504Y-98827807D01*
X121218747Y-98997829D01*
X121218750Y-98997835D01*
X121308141Y-99152665D01*
X121317648Y-99163223D01*
X121347879Y-99226213D01*
X121349500Y-99246197D01*
X121349500Y-100314069D01*
X121364977Y-100391873D01*
X121374499Y-100439744D01*
X121423534Y-100558125D01*
X121494726Y-100664673D01*
X121494727Y-100664674D01*
X125163181Y-104333126D01*
X125196666Y-104394449D01*
X125199500Y-104420807D01*
X125199500Y-107053802D01*
X125179815Y-107120841D01*
X125167651Y-107136773D01*
X125158140Y-107147336D01*
X125068750Y-107302164D01*
X125068747Y-107302170D01*
X125013504Y-107472192D01*
X125013503Y-107472194D01*
X124994815Y-107650000D01*
X125013503Y-107827805D01*
X125013504Y-107827807D01*
X125068747Y-107997829D01*
X125068750Y-107997835D01*
X125158141Y-108152665D01*
X125199812Y-108198946D01*
X125277764Y-108285521D01*
X125277767Y-108285523D01*
X125277770Y-108285526D01*
X125422407Y-108390612D01*
X125585733Y-108463329D01*
X125760609Y-108500500D01*
X125760610Y-108500500D01*
X125939389Y-108500500D01*
X125939391Y-108500500D01*
X126114267Y-108463329D01*
X126277593Y-108390612D01*
X126422230Y-108285526D01*
X126541859Y-108152665D01*
X126631250Y-107997835D01*
X126686497Y-107827803D01*
X126705185Y-107650000D01*
X126686497Y-107472197D01*
X126631250Y-107302165D01*
X126541859Y-107147335D01*
X126532349Y-107136773D01*
X126502120Y-107073782D01*
X126500500Y-107053802D01*
X126500500Y-104035928D01*
X126475502Y-103910261D01*
X126475501Y-103910260D01*
X126475501Y-103910256D01*
X126426465Y-103791873D01*
X126426464Y-103791872D01*
X126426461Y-103791866D01*
X126355277Y-103685332D01*
X126321340Y-103651395D01*
X126264669Y-103594724D01*
X124772114Y-102102169D01*
X123074630Y-100404684D01*
X123041145Y-100343361D01*
X123046129Y-100273669D01*
X123088001Y-100217736D01*
X123153465Y-100193319D01*
X123188085Y-100195712D01*
X123200011Y-100198247D01*
X123261491Y-100231438D01*
X123261909Y-100231855D01*
X127713181Y-104683126D01*
X127746666Y-104744449D01*
X127749500Y-104770807D01*
X127749500Y-106478802D01*
X127729815Y-106545841D01*
X127717651Y-106561773D01*
X127708140Y-106572336D01*
X127618750Y-106727164D01*
X127618747Y-106727170D01*
X127563504Y-106897192D01*
X127563503Y-106897194D01*
X127544815Y-107075000D01*
X127563503Y-107252805D01*
X127563504Y-107252807D01*
X127618747Y-107422829D01*
X127618750Y-107422835D01*
X127708141Y-107577665D01*
X127749812Y-107623946D01*
X127827764Y-107710521D01*
X127827767Y-107710523D01*
X127827770Y-107710526D01*
X127972407Y-107815612D01*
X128135733Y-107888329D01*
X128310609Y-107925500D01*
X128310610Y-107925500D01*
X128489389Y-107925500D01*
X128489391Y-107925500D01*
X128664267Y-107888329D01*
X128827593Y-107815612D01*
X128972230Y-107710526D01*
X129091859Y-107577665D01*
X129181250Y-107422835D01*
X129236497Y-107252803D01*
X129255185Y-107075000D01*
X129236497Y-106897197D01*
X129181250Y-106727165D01*
X129091859Y-106572335D01*
X129082349Y-106561773D01*
X129052120Y-106498782D01*
X129050500Y-106478802D01*
X129050500Y-104385928D01*
X129025502Y-104260261D01*
X129025501Y-104260260D01*
X129025501Y-104260256D01*
X128976465Y-104141873D01*
X128976464Y-104141872D01*
X128976461Y-104141866D01*
X128905277Y-104035332D01*
X128872947Y-104003002D01*
X128814669Y-103944724D01*
X126528772Y-101658827D01*
X124178628Y-99308682D01*
X124145143Y-99247359D01*
X124142988Y-99233961D01*
X124136497Y-99172198D01*
X124130150Y-99152665D01*
X124086891Y-99019526D01*
X124081252Y-99002170D01*
X124081249Y-99002164D01*
X124078750Y-98997835D01*
X123991859Y-98847335D01*
X123930780Y-98779500D01*
X123872235Y-98714478D01*
X123872232Y-98714476D01*
X123872231Y-98714475D01*
X123872230Y-98714474D01*
X123727593Y-98609388D01*
X123564267Y-98536671D01*
X123564265Y-98536670D01*
X123436594Y-98509533D01*
X123389391Y-98499500D01*
X123210609Y-98499500D01*
X123179954Y-98506015D01*
X123035733Y-98536670D01*
X123035728Y-98536672D01*
X123005786Y-98550003D01*
X122936535Y-98559287D01*
X122873259Y-98529657D01*
X122837421Y-98475041D01*
X122781252Y-98302170D01*
X122781249Y-98302164D01*
X122691859Y-98147335D01*
X122645003Y-98095296D01*
X122572235Y-98014478D01*
X122572232Y-98014476D01*
X122572231Y-98014475D01*
X122572230Y-98014474D01*
X122427593Y-97909388D01*
X122264267Y-97836671D01*
X122264265Y-97836670D01*
X122136594Y-97809533D01*
X122089391Y-97799500D01*
X122050568Y-97799500D01*
X121983529Y-97779815D01*
X121937774Y-97727011D01*
X121927830Y-97657853D01*
X121956855Y-97594297D01*
X121962887Y-97587819D01*
X122722109Y-96828597D01*
X123768075Y-95782630D01*
X123829396Y-95749147D01*
X123899088Y-95754131D01*
X123917748Y-95762923D01*
X123922397Y-95765607D01*
X123922405Y-95765610D01*
X123922407Y-95765612D01*
X124085733Y-95838329D01*
X124260609Y-95875500D01*
X124260610Y-95875500D01*
X124439389Y-95875500D01*
X124439391Y-95875500D01*
X124614267Y-95838329D01*
X124777593Y-95765612D01*
X124922230Y-95660526D01*
X125041859Y-95527665D01*
X125131250Y-95372835D01*
X125186497Y-95202803D01*
X125205185Y-95025000D01*
X125186497Y-94847197D01*
X125137482Y-94696344D01*
X125131252Y-94677170D01*
X125131249Y-94677164D01*
X125041859Y-94522335D01*
X124975408Y-94448534D01*
X124922235Y-94389478D01*
X124922232Y-94389476D01*
X124922231Y-94389475D01*
X124922230Y-94389474D01*
X124777593Y-94284388D01*
X124614267Y-94211671D01*
X124614265Y-94211670D01*
X124486594Y-94184533D01*
X124439391Y-94174500D01*
X124260609Y-94174500D01*
X124229954Y-94181015D01*
X124085733Y-94211670D01*
X124085728Y-94211672D01*
X123922408Y-94284388D01*
X123922403Y-94284390D01*
X123830974Y-94350818D01*
X123765168Y-94374298D01*
X123758089Y-94374500D01*
X123541690Y-94374500D01*
X123416022Y-94399497D01*
X123416016Y-94399499D01*
X123297635Y-94448534D01*
X123191087Y-94519726D01*
X117861254Y-99849559D01*
X117799931Y-99883044D01*
X117747793Y-99883169D01*
X117701872Y-99873408D01*
X117589391Y-99849500D01*
X117410609Y-99849500D01*
X117373439Y-99857400D01*
X117235734Y-99886670D01*
X117229550Y-99888680D01*
X117228993Y-99886966D01*
X117168423Y-99895074D01*
X117105153Y-99865430D01*
X117067954Y-99806287D01*
X117067060Y-99802953D01*
X117064064Y-99791123D01*
X117064063Y-99791119D01*
X116964173Y-99563393D01*
X116963373Y-99562169D01*
X116828166Y-99355217D01*
X116785327Y-99308682D01*
X116659744Y-99172262D01*
X116463509Y-99019526D01*
X116463507Y-99019525D01*
X116463506Y-99019524D01*
X116244811Y-98901172D01*
X116244802Y-98901169D01*
X116009616Y-98820429D01*
X115764335Y-98779500D01*
X115515665Y-98779500D01*
X115270383Y-98820429D01*
X115035197Y-98901169D01*
X115035188Y-98901172D01*
X114816493Y-99019524D01*
X114620257Y-99172261D01*
X114451833Y-99355217D01*
X114315826Y-99563393D01*
X114215936Y-99791118D01*
X114154892Y-100032175D01*
X114154890Y-100032187D01*
X114134357Y-100279994D01*
X110645643Y-100279994D01*
X110625109Y-100032187D01*
X110625107Y-100032175D01*
X110564063Y-99791118D01*
X110464173Y-99563393D01*
X110328166Y-99355217D01*
X110285327Y-99308682D01*
X110159744Y-99172262D01*
X109963509Y-99019526D01*
X109963507Y-99019525D01*
X109963506Y-99019524D01*
X109744811Y-98901172D01*
X109744802Y-98901169D01*
X109509616Y-98820429D01*
X109264335Y-98779500D01*
X109015665Y-98779500D01*
X108770383Y-98820429D01*
X108535197Y-98901169D01*
X108535188Y-98901172D01*
X108316493Y-99019524D01*
X108120257Y-99172261D01*
X107951833Y-99355217D01*
X107815826Y-99563393D01*
X107715936Y-99791118D01*
X107654892Y-100032175D01*
X107654890Y-100032187D01*
X107634357Y-100279994D01*
X103352160Y-100279994D01*
X103355659Y-100240000D01*
X103335063Y-100004592D01*
X103273903Y-99776337D01*
X103174035Y-99562171D01*
X103038495Y-99368599D01*
X103038494Y-99368597D01*
X102871402Y-99201506D01*
X102871396Y-99201501D01*
X102685842Y-99071575D01*
X102642217Y-99016998D01*
X102635023Y-98947500D01*
X102666546Y-98885145D01*
X102685842Y-98868425D01*
X102715960Y-98847336D01*
X102871401Y-98738495D01*
X103038495Y-98571401D01*
X103174035Y-98377830D01*
X103273903Y-98163663D01*
X103335063Y-97935408D01*
X103355659Y-97700000D01*
X103335063Y-97464592D01*
X103273903Y-97236337D01*
X103174035Y-97022171D01*
X103038495Y-96828599D01*
X103038494Y-96828597D01*
X102871402Y-96661506D01*
X102871396Y-96661501D01*
X102685842Y-96531575D01*
X102642217Y-96476998D01*
X102635023Y-96407500D01*
X102666546Y-96345145D01*
X102685842Y-96328425D01*
X102708026Y-96312891D01*
X102871401Y-96198495D01*
X103038495Y-96031401D01*
X103174035Y-95837830D01*
X103273903Y-95623663D01*
X103335063Y-95395408D01*
X103355659Y-95160000D01*
X103335063Y-94924592D01*
X103273903Y-94696337D01*
X103174035Y-94482171D01*
X103150483Y-94448534D01*
X103038494Y-94288597D01*
X102871402Y-94121506D01*
X102871396Y-94121501D01*
X102685842Y-93991575D01*
X102642217Y-93936998D01*
X102635023Y-93867500D01*
X102666546Y-93805145D01*
X102685842Y-93788425D01*
X102732122Y-93756019D01*
X102871401Y-93658495D01*
X103038495Y-93491401D01*
X103174035Y-93297830D01*
X103273903Y-93083663D01*
X103335063Y-92855408D01*
X103355659Y-92620000D01*
X103335063Y-92384592D01*
X103273903Y-92156337D01*
X103174035Y-91942171D01*
X103160147Y-91922336D01*
X103038494Y-91748597D01*
X102871402Y-91581506D01*
X102871396Y-91581501D01*
X102685842Y-91451575D01*
X102642217Y-91396998D01*
X102635023Y-91327500D01*
X102666546Y-91265145D01*
X102685842Y-91248425D01*
X102708026Y-91232891D01*
X102871401Y-91118495D01*
X103038495Y-90951401D01*
X103174035Y-90757830D01*
X103273903Y-90543663D01*
X103335063Y-90315408D01*
X103355659Y-90080000D01*
X103335063Y-89844592D01*
X103273903Y-89616337D01*
X103174035Y-89402171D01*
X103167456Y-89392774D01*
X103038494Y-89208597D01*
X102871402Y-89041506D01*
X102871396Y-89041501D01*
X102685842Y-88911575D01*
X102642217Y-88856998D01*
X102635023Y-88787500D01*
X102666546Y-88725145D01*
X102685842Y-88708425D01*
X102708026Y-88692891D01*
X102871401Y-88578495D01*
X103038495Y-88411401D01*
X103174035Y-88217830D01*
X103273903Y-88003663D01*
X103335063Y-87775408D01*
X103355659Y-87540000D01*
X103335063Y-87304592D01*
X103273903Y-87076337D01*
X103174035Y-86862171D01*
X103111031Y-86772192D01*
X103038496Y-86668600D01*
X103038495Y-86668599D01*
X102916567Y-86546671D01*
X102883084Y-86485351D01*
X102888068Y-86415659D01*
X102929939Y-86359725D01*
X102960915Y-86342810D01*
X103092331Y-86293796D01*
X103207546Y-86207546D01*
X103293796Y-86092331D01*
X103344091Y-85957483D01*
X103350500Y-85897873D01*
X103350499Y-84102128D01*
X103344091Y-84042517D01*
X103342489Y-84038223D01*
X103293797Y-83907671D01*
X103293793Y-83907664D01*
X103207547Y-83792455D01*
X103207544Y-83792452D01*
X103092335Y-83706206D01*
X103092328Y-83706202D01*
X102957482Y-83655908D01*
X102957483Y-83655908D01*
X102897883Y-83649501D01*
X102897881Y-83649500D01*
X102897873Y-83649500D01*
X102897864Y-83649500D01*
X101102129Y-83649500D01*
X101102123Y-83649501D01*
X101042516Y-83655908D01*
X100907671Y-83706202D01*
X100907664Y-83706206D01*
X100792455Y-83792452D01*
X100792452Y-83792455D01*
X100706206Y-83907664D01*
X100706202Y-83907671D01*
X100655908Y-84042517D01*
X100654657Y-84054158D01*
X100649501Y-84102123D01*
X100649500Y-84102135D01*
X100649500Y-85897870D01*
X100649501Y-85897876D01*
X100655908Y-85957483D01*
X100706202Y-86092328D01*
X100706206Y-86092335D01*
X100792452Y-86207544D01*
X100792455Y-86207547D01*
X100907664Y-86293793D01*
X100907671Y-86293797D01*
X101039081Y-86342810D01*
X101095015Y-86384681D01*
X101119432Y-86450145D01*
X101104580Y-86518418D01*
X101083430Y-86546673D01*
X100961503Y-86668600D01*
X100825965Y-86862169D01*
X100825964Y-86862171D01*
X100726098Y-87076335D01*
X100726094Y-87076344D01*
X100664938Y-87304586D01*
X100664936Y-87304596D01*
X100644341Y-87539999D01*
X97000000Y-87539999D01*
X97000000Y-77000710D01*
X97000007Y-76999358D01*
X97001159Y-76893713D01*
X100649500Y-76893713D01*
X100649500Y-77106287D01*
X100682754Y-77316243D01*
X100730654Y-77463664D01*
X100748444Y-77518414D01*
X100844951Y-77707820D01*
X100969890Y-77879786D01*
X101120213Y-78030109D01*
X101292179Y-78155048D01*
X101292181Y-78155049D01*
X101292184Y-78155051D01*
X101481588Y-78251557D01*
X101683757Y-78317246D01*
X101893713Y-78350500D01*
X101893714Y-78350500D01*
X102106286Y-78350500D01*
X102106287Y-78350500D01*
X102316243Y-78317246D01*
X102518412Y-78251557D01*
X102707816Y-78155051D01*
X102794138Y-78092335D01*
X102879786Y-78030109D01*
X102879788Y-78030106D01*
X102879792Y-78030104D01*
X103030104Y-77879792D01*
X103030106Y-77879788D01*
X103030109Y-77879786D01*
X103155048Y-77707820D01*
X103155047Y-77707820D01*
X103155051Y-77707816D01*
X103251557Y-77518412D01*
X103317246Y-77316243D01*
X103350500Y-77106287D01*
X103350500Y-76893713D01*
X103317246Y-76683757D01*
X103251557Y-76481588D01*
X103155051Y-76292184D01*
X103155049Y-76292181D01*
X103155048Y-76292179D01*
X103030109Y-76120213D01*
X103012031Y-76102135D01*
X108649500Y-76102135D01*
X108649500Y-77897870D01*
X108649501Y-77897876D01*
X108655908Y-77957483D01*
X108706202Y-78092328D01*
X108706206Y-78092335D01*
X108792452Y-78207544D01*
X108792455Y-78207547D01*
X108907664Y-78293793D01*
X108907671Y-78293797D01*
X109042517Y-78344091D01*
X109042516Y-78344091D01*
X109049444Y-78344835D01*
X109102127Y-78350500D01*
X110897872Y-78350499D01*
X110957483Y-78344091D01*
X111092331Y-78293796D01*
X111207546Y-78207546D01*
X111293796Y-78092331D01*
X111342810Y-77960916D01*
X111384681Y-77904984D01*
X111450145Y-77880566D01*
X111518418Y-77895417D01*
X111546673Y-77916569D01*
X111668599Y-78038495D01*
X111765384Y-78106265D01*
X111862165Y-78174032D01*
X111862167Y-78174033D01*
X111862170Y-78174035D01*
X112076337Y-78273903D01*
X112304592Y-78335063D01*
X112481034Y-78350500D01*
X112539999Y-78355659D01*
X112540000Y-78355659D01*
X112540001Y-78355659D01*
X112598966Y-78350500D01*
X112775408Y-78335063D01*
X113003663Y-78273903D01*
X113217830Y-78174035D01*
X113411401Y-78038495D01*
X113578495Y-77871401D01*
X113708425Y-77685842D01*
X113763002Y-77642217D01*
X113832500Y-77635023D01*
X113894855Y-77666546D01*
X113911575Y-77685842D01*
X114041501Y-77871396D01*
X114041506Y-77871402D01*
X114208597Y-78038493D01*
X114208603Y-78038498D01*
X114376623Y-78156147D01*
X114420248Y-78210724D01*
X114429500Y-78257722D01*
X114429500Y-88269070D01*
X114438227Y-88312943D01*
X114446955Y-88356818D01*
X114451129Y-88377803D01*
X114454499Y-88394745D01*
X114483382Y-88464474D01*
X114503535Y-88513127D01*
X114547212Y-88578495D01*
X114574726Y-88619673D01*
X117892372Y-91937319D01*
X117925857Y-91998642D01*
X117920873Y-92068334D01*
X117892372Y-92112681D01*
X116261909Y-93743144D01*
X116200586Y-93776629D01*
X116200009Y-93776753D01*
X116035733Y-93811670D01*
X116035728Y-93811672D01*
X115872408Y-93884387D01*
X115727768Y-93989475D01*
X115608140Y-94122336D01*
X115518750Y-94277164D01*
X115518747Y-94277170D01*
X115463504Y-94447192D01*
X115463503Y-94447194D01*
X115444815Y-94625000D01*
X115463503Y-94802805D01*
X115463504Y-94802807D01*
X115518747Y-94972829D01*
X115518750Y-94972835D01*
X115608141Y-95127665D01*
X115637255Y-95159999D01*
X115727764Y-95260521D01*
X115727767Y-95260523D01*
X115727770Y-95260526D01*
X115872407Y-95365612D01*
X116035733Y-95438329D01*
X116210609Y-95475500D01*
X116210610Y-95475500D01*
X116389389Y-95475500D01*
X116389391Y-95475500D01*
X116564267Y-95438329D01*
X116727593Y-95365612D01*
X116872230Y-95260526D01*
X116991859Y-95127665D01*
X117081250Y-94972835D01*
X117136497Y-94802803D01*
X117142988Y-94741036D01*
X117169571Y-94676423D01*
X117178619Y-94666325D01*
X119133127Y-92711819D01*
X119194450Y-92678334D01*
X119220808Y-92675500D01*
X123733089Y-92675500D01*
X123800128Y-92695185D01*
X123805976Y-92699182D01*
X123897407Y-92765612D01*
X124060733Y-92838329D01*
X124235609Y-92875500D01*
X124235610Y-92875500D01*
X124414389Y-92875500D01*
X124414391Y-92875500D01*
X124589267Y-92838329D01*
X124752593Y-92765612D01*
X124844025Y-92699182D01*
X124909831Y-92675702D01*
X124916911Y-92675500D01*
X125517576Y-92675500D01*
X125584615Y-92695185D01*
X125630370Y-92747989D01*
X125640314Y-92817147D01*
X125624963Y-92861500D01*
X125543750Y-93002164D01*
X125543747Y-93002170D01*
X125488504Y-93172192D01*
X125488503Y-93172194D01*
X125469815Y-93350000D01*
X125488503Y-93527805D01*
X125488504Y-93527807D01*
X125543747Y-93697829D01*
X125543750Y-93697835D01*
X125633141Y-93852665D01*
X125646499Y-93867500D01*
X125752764Y-93985521D01*
X125752767Y-93985523D01*
X125752770Y-93985526D01*
X125897407Y-94090612D01*
X126060733Y-94163329D01*
X126235609Y-94200500D01*
X126235610Y-94200500D01*
X126242077Y-94201180D01*
X126241760Y-94204190D01*
X126296231Y-94220185D01*
X126316873Y-94236819D01*
X127146371Y-95066317D01*
X127179856Y-95127640D01*
X127182010Y-95141031D01*
X127188503Y-95202803D01*
X127188504Y-95202805D01*
X127188504Y-95202807D01*
X127243747Y-95372829D01*
X127243750Y-95372835D01*
X127333141Y-95527665D01*
X127374812Y-95573946D01*
X127452764Y-95660521D01*
X127452767Y-95660523D01*
X127452770Y-95660526D01*
X127597407Y-95765612D01*
X127760733Y-95838329D01*
X127935609Y-95875500D01*
X127935610Y-95875500D01*
X128114389Y-95875500D01*
X128114391Y-95875500D01*
X128289267Y-95838329D01*
X128452593Y-95765612D01*
X128597230Y-95660526D01*
X128716859Y-95527665D01*
X128806250Y-95372835D01*
X128861497Y-95202803D01*
X128880185Y-95025000D01*
X128861497Y-94847197D01*
X128812482Y-94696344D01*
X128806252Y-94677170D01*
X128806249Y-94677164D01*
X128716859Y-94522335D01*
X128650408Y-94448534D01*
X128597235Y-94389478D01*
X128597232Y-94389476D01*
X128597231Y-94389475D01*
X128597230Y-94389474D01*
X128452593Y-94284388D01*
X128289267Y-94211671D01*
X128289265Y-94211670D01*
X128152473Y-94182594D01*
X128124989Y-94176752D01*
X128063508Y-94143561D01*
X128063090Y-94143144D01*
X127200692Y-93280746D01*
X127167207Y-93219423D01*
X127165052Y-93206024D01*
X127161497Y-93172198D01*
X127106252Y-93002170D01*
X127106249Y-93002164D01*
X127025037Y-92861500D01*
X127008564Y-92793600D01*
X127031417Y-92727573D01*
X127086338Y-92684382D01*
X127132424Y-92675500D01*
X129538000Y-92675500D01*
X129605039Y-92695185D01*
X129650794Y-92747989D01*
X129662000Y-92799500D01*
X129662000Y-104242684D01*
X129642315Y-104309723D01*
X129636792Y-104316957D01*
X129636960Y-104317079D01*
X129633138Y-104322338D01*
X129543750Y-104477164D01*
X129543747Y-104477170D01*
X129488504Y-104647192D01*
X129488503Y-104647194D01*
X129469815Y-104825000D01*
X129488503Y-105002805D01*
X129488504Y-105002807D01*
X129543747Y-105172829D01*
X129543750Y-105172835D01*
X129633141Y-105327665D01*
X129674812Y-105373946D01*
X129752764Y-105460521D01*
X129752767Y-105460523D01*
X129752770Y-105460526D01*
X129897407Y-105565612D01*
X130060733Y-105638329D01*
X130235609Y-105675500D01*
X130235610Y-105675500D01*
X130414389Y-105675500D01*
X130414391Y-105675500D01*
X130589267Y-105638329D01*
X130752593Y-105565612D01*
X130897230Y-105460526D01*
X131016859Y-105327665D01*
X131106250Y-105172835D01*
X131161497Y-105002803D01*
X131180185Y-104825000D01*
X131161497Y-104647197D01*
X131106250Y-104477165D01*
X131044058Y-104369445D01*
X131016861Y-104322338D01*
X131016857Y-104322333D01*
X131012126Y-104317079D01*
X130994849Y-104297890D01*
X130964620Y-104234899D01*
X130963000Y-104214919D01*
X130963000Y-93899500D01*
X130982685Y-93832461D01*
X131035489Y-93786706D01*
X131087000Y-93775500D01*
X138889071Y-93775500D01*
X138987004Y-93756019D01*
X139014744Y-93750501D01*
X139133127Y-93701465D01*
X139138560Y-93697835D01*
X139239669Y-93630277D01*
X143788092Y-89081853D01*
X143849413Y-89048370D01*
X143849477Y-89048356D01*
X144014267Y-89013329D01*
X144177593Y-88940612D01*
X144322230Y-88835526D01*
X144441859Y-88702665D01*
X144531250Y-88547835D01*
X144586497Y-88377803D01*
X144605185Y-88200000D01*
X144586497Y-88022197D01*
X144550585Y-87911671D01*
X144531252Y-87852170D01*
X144531249Y-87852164D01*
X144486934Y-87775408D01*
X144441859Y-87697335D01*
X144395003Y-87645296D01*
X144322235Y-87564478D01*
X144322232Y-87564476D01*
X144322231Y-87564475D01*
X144322230Y-87564474D01*
X144288543Y-87539999D01*
X150644341Y-87539999D01*
X150644341Y-87540000D01*
X150664936Y-87775403D01*
X150664938Y-87775413D01*
X150726094Y-88003655D01*
X150726096Y-88003659D01*
X150726097Y-88003663D01*
X150783905Y-88127632D01*
X150825965Y-88217830D01*
X150825967Y-88217834D01*
X150961501Y-88411395D01*
X150961506Y-88411402D01*
X151128597Y-88578493D01*
X151128603Y-88578498D01*
X151314158Y-88708425D01*
X151357783Y-88763002D01*
X151364977Y-88832500D01*
X151333454Y-88894855D01*
X151314158Y-88911575D01*
X151128597Y-89041505D01*
X150961505Y-89208597D01*
X150825965Y-89402169D01*
X150825964Y-89402171D01*
X150726098Y-89616335D01*
X150726094Y-89616344D01*
X150664938Y-89844586D01*
X150664936Y-89844596D01*
X150644341Y-90079999D01*
X150644341Y-90080000D01*
X150664936Y-90315403D01*
X150664938Y-90315413D01*
X150726094Y-90543655D01*
X150726096Y-90543659D01*
X150726097Y-90543663D01*
X150825965Y-90757830D01*
X150825967Y-90757834D01*
X150961501Y-90951395D01*
X150961506Y-90951402D01*
X151128597Y-91118493D01*
X151128603Y-91118498D01*
X151314158Y-91248425D01*
X151357783Y-91303002D01*
X151364977Y-91372500D01*
X151333454Y-91434855D01*
X151314158Y-91451575D01*
X151128597Y-91581505D01*
X150961505Y-91748597D01*
X150825965Y-91942169D01*
X150825964Y-91942171D01*
X150726098Y-92156335D01*
X150726094Y-92156344D01*
X150664938Y-92384586D01*
X150664936Y-92384596D01*
X150644341Y-92619999D01*
X150644341Y-92620000D01*
X150664936Y-92855403D01*
X150664938Y-92855413D01*
X150726094Y-93083655D01*
X150726096Y-93083659D01*
X150726097Y-93083663D01*
X150767382Y-93172198D01*
X150825965Y-93297830D01*
X150825967Y-93297834D01*
X150961501Y-93491395D01*
X150961506Y-93491402D01*
X151128597Y-93658493D01*
X151128603Y-93658498D01*
X151314158Y-93788425D01*
X151357783Y-93843002D01*
X151364977Y-93912500D01*
X151333454Y-93974855D01*
X151314158Y-93991575D01*
X151128597Y-94121505D01*
X150961505Y-94288597D01*
X150825965Y-94482169D01*
X150825964Y-94482171D01*
X150726098Y-94696335D01*
X150726094Y-94696344D01*
X150664938Y-94924586D01*
X150664936Y-94924596D01*
X150644341Y-95159999D01*
X150644341Y-95160000D01*
X150664936Y-95395403D01*
X150664938Y-95395413D01*
X150726094Y-95623655D01*
X150726096Y-95623659D01*
X150726097Y-95623663D01*
X150791035Y-95762923D01*
X150825965Y-95837830D01*
X150825967Y-95837834D01*
X150961501Y-96031395D01*
X150961506Y-96031402D01*
X151128597Y-96198493D01*
X151128603Y-96198498D01*
X151314158Y-96328425D01*
X151357783Y-96383002D01*
X151364977Y-96452500D01*
X151333454Y-96514855D01*
X151314158Y-96531575D01*
X151128597Y-96661505D01*
X150961505Y-96828597D01*
X150825965Y-97022169D01*
X150825964Y-97022171D01*
X150726098Y-97236335D01*
X150726094Y-97236344D01*
X150664938Y-97464586D01*
X150664936Y-97464596D01*
X150644341Y-97699999D01*
X150644341Y-97700000D01*
X150664936Y-97935403D01*
X150664938Y-97935413D01*
X150726094Y-98163655D01*
X150726096Y-98163659D01*
X150726097Y-98163663D01*
X150790681Y-98302164D01*
X150825965Y-98377830D01*
X150825967Y-98377834D01*
X150961501Y-98571395D01*
X150961506Y-98571402D01*
X151128597Y-98738493D01*
X151128603Y-98738498D01*
X151314158Y-98868425D01*
X151357783Y-98923002D01*
X151364977Y-98992500D01*
X151333454Y-99054855D01*
X151314158Y-99071575D01*
X151128597Y-99201505D01*
X150961505Y-99368597D01*
X150825965Y-99562169D01*
X150825964Y-99562171D01*
X150726098Y-99776335D01*
X150726094Y-99776344D01*
X150664938Y-100004586D01*
X150664936Y-100004596D01*
X150644341Y-100239999D01*
X150644341Y-100240000D01*
X150664936Y-100475403D01*
X150664938Y-100475413D01*
X150726094Y-100703655D01*
X150726096Y-100703659D01*
X150726097Y-100703663D01*
X150756509Y-100768881D01*
X150825965Y-100917830D01*
X150825967Y-100917834D01*
X150961501Y-101111395D01*
X150961506Y-101111402D01*
X151128597Y-101278493D01*
X151128603Y-101278498D01*
X151314158Y-101408425D01*
X151357783Y-101463002D01*
X151364977Y-101532500D01*
X151333454Y-101594855D01*
X151314158Y-101611575D01*
X151128597Y-101741505D01*
X150961505Y-101908597D01*
X150825965Y-102102169D01*
X150825964Y-102102171D01*
X150726098Y-102316335D01*
X150726094Y-102316344D01*
X150664938Y-102544586D01*
X150664936Y-102544596D01*
X150644341Y-102779999D01*
X150644341Y-102780000D01*
X150664936Y-103015403D01*
X150664938Y-103015413D01*
X150726094Y-103243655D01*
X150726096Y-103243659D01*
X150726097Y-103243663D01*
X150799761Y-103401635D01*
X150825965Y-103457830D01*
X150825967Y-103457834D01*
X150961501Y-103651395D01*
X150961506Y-103651402D01*
X151128597Y-103818493D01*
X151128603Y-103818498D01*
X151314158Y-103948425D01*
X151357783Y-104003002D01*
X151364977Y-104072500D01*
X151333454Y-104134855D01*
X151314158Y-104151575D01*
X151128597Y-104281505D01*
X150961505Y-104448597D01*
X150825965Y-104642169D01*
X150825964Y-104642171D01*
X150726098Y-104856335D01*
X150726094Y-104856344D01*
X150664938Y-105084586D01*
X150664936Y-105084596D01*
X150644341Y-105319999D01*
X150644341Y-105320000D01*
X150664936Y-105555403D01*
X150664938Y-105555413D01*
X150726094Y-105783655D01*
X150726096Y-105783659D01*
X150726097Y-105783663D01*
X150825965Y-105997830D01*
X150825967Y-105997834D01*
X150961501Y-106191395D01*
X150961506Y-106191402D01*
X151128597Y-106358493D01*
X151128603Y-106358498D01*
X151314158Y-106488425D01*
X151357783Y-106543002D01*
X151364977Y-106612500D01*
X151333454Y-106674855D01*
X151314158Y-106691575D01*
X151128597Y-106821505D01*
X150961505Y-106988597D01*
X150825965Y-107182169D01*
X150825964Y-107182171D01*
X150726098Y-107396335D01*
X150726094Y-107396344D01*
X150664938Y-107624586D01*
X150664936Y-107624596D01*
X150644341Y-107859999D01*
X150644341Y-107860000D01*
X150664936Y-108095403D01*
X150664938Y-108095413D01*
X150726094Y-108323655D01*
X150726096Y-108323659D01*
X150726097Y-108323663D01*
X150757315Y-108390610D01*
X150825965Y-108537830D01*
X150825967Y-108537834D01*
X150961501Y-108731395D01*
X150961506Y-108731402D01*
X151128597Y-108898493D01*
X151128603Y-108898498D01*
X151314158Y-109028425D01*
X151357783Y-109083002D01*
X151364977Y-109152500D01*
X151333454Y-109214855D01*
X151314158Y-109231575D01*
X151128597Y-109361505D01*
X150961505Y-109528597D01*
X150825965Y-109722169D01*
X150825964Y-109722171D01*
X150726098Y-109936335D01*
X150726094Y-109936344D01*
X150664938Y-110164586D01*
X150664936Y-110164596D01*
X150644341Y-110399999D01*
X150644341Y-110400000D01*
X150664936Y-110635403D01*
X150664938Y-110635413D01*
X150726094Y-110863655D01*
X150726096Y-110863659D01*
X150726097Y-110863663D01*
X150819737Y-111064474D01*
X150825965Y-111077830D01*
X150825967Y-111077834D01*
X150961501Y-111271395D01*
X150961506Y-111271402D01*
X151128597Y-111438493D01*
X151128603Y-111438498D01*
X151314158Y-111568425D01*
X151357783Y-111623002D01*
X151364977Y-111692500D01*
X151333454Y-111754855D01*
X151314158Y-111771575D01*
X151128597Y-111901505D01*
X150961505Y-112068597D01*
X150825965Y-112262169D01*
X150825964Y-112262171D01*
X150726098Y-112476335D01*
X150726094Y-112476344D01*
X150664938Y-112704586D01*
X150664936Y-112704596D01*
X150644341Y-112939999D01*
X150644341Y-112940000D01*
X150664936Y-113175403D01*
X150664938Y-113175413D01*
X150726094Y-113403655D01*
X150726096Y-113403659D01*
X150726097Y-113403663D01*
X150825965Y-113617830D01*
X150825967Y-113617834D01*
X150902849Y-113727632D01*
X150961505Y-113811401D01*
X151128599Y-113978495D01*
X151150107Y-113993555D01*
X151322165Y-114114032D01*
X151322167Y-114114033D01*
X151322170Y-114114035D01*
X151536337Y-114213903D01*
X151764592Y-114275063D01*
X151952918Y-114291539D01*
X151999999Y-114295659D01*
X152000000Y-114295659D01*
X152000001Y-114295659D01*
X152039234Y-114292226D01*
X152235408Y-114275063D01*
X152463663Y-114213903D01*
X152677830Y-114114035D01*
X152871401Y-113978495D01*
X153038495Y-113811401D01*
X153174035Y-113617830D01*
X153273903Y-113403663D01*
X153335063Y-113175408D01*
X153355659Y-112940000D01*
X153335063Y-112704592D01*
X153273903Y-112476337D01*
X153174035Y-112262171D01*
X153172884Y-112260526D01*
X153038494Y-112068597D01*
X152871402Y-111901506D01*
X152871396Y-111901501D01*
X152685842Y-111771575D01*
X152642217Y-111716998D01*
X152635023Y-111647500D01*
X152666546Y-111585145D01*
X152685842Y-111568425D01*
X152751862Y-111522197D01*
X152871401Y-111438495D01*
X153038495Y-111271401D01*
X153174035Y-111077830D01*
X153273903Y-110863663D01*
X153335063Y-110635408D01*
X153355659Y-110400000D01*
X153335063Y-110164592D01*
X153273903Y-109936337D01*
X153174035Y-109722171D01*
X153038495Y-109528599D01*
X153038494Y-109528597D01*
X152871402Y-109361506D01*
X152871396Y-109361501D01*
X152685842Y-109231575D01*
X152642217Y-109176998D01*
X152635023Y-109107500D01*
X152666546Y-109045145D01*
X152685842Y-109028425D01*
X152708026Y-109012891D01*
X152871401Y-108898495D01*
X153038495Y-108731401D01*
X153174035Y-108537830D01*
X153273903Y-108323663D01*
X153335063Y-108095408D01*
X153355659Y-107860000D01*
X153335063Y-107624592D01*
X153273903Y-107396337D01*
X153174035Y-107182171D01*
X153149644Y-107147336D01*
X153038494Y-106988597D01*
X152871402Y-106821506D01*
X152871396Y-106821501D01*
X152685842Y-106691575D01*
X152642217Y-106636998D01*
X152635023Y-106567500D01*
X152666546Y-106505145D01*
X152685842Y-106488425D01*
X152708026Y-106472891D01*
X152871401Y-106358495D01*
X153038495Y-106191401D01*
X153174035Y-105997830D01*
X153273903Y-105783663D01*
X153335063Y-105555408D01*
X153355659Y-105320000D01*
X153335063Y-105084592D01*
X153273903Y-104856337D01*
X153174035Y-104642171D01*
X153058497Y-104477164D01*
X153038494Y-104448597D01*
X152871402Y-104281506D01*
X152871396Y-104281501D01*
X152685842Y-104151575D01*
X152642217Y-104096998D01*
X152635023Y-104027500D01*
X152666546Y-103965145D01*
X152685842Y-103948425D01*
X152740553Y-103910116D01*
X152871401Y-103818495D01*
X153038495Y-103651401D01*
X153174035Y-103457830D01*
X153273903Y-103243663D01*
X153335063Y-103015408D01*
X153355659Y-102780000D01*
X153335063Y-102544592D01*
X153273903Y-102316337D01*
X153174035Y-102102171D01*
X153038495Y-101908599D01*
X153038494Y-101908597D01*
X152871402Y-101741506D01*
X152871396Y-101741501D01*
X152685842Y-101611575D01*
X152642217Y-101556998D01*
X152635023Y-101487500D01*
X152666546Y-101425145D01*
X152685842Y-101408425D01*
X152715386Y-101387738D01*
X152871401Y-101278495D01*
X153038495Y-101111401D01*
X153174035Y-100917830D01*
X153273903Y-100703663D01*
X153335063Y-100475408D01*
X153355659Y-100240000D01*
X153335063Y-100004592D01*
X153273903Y-99776337D01*
X153174035Y-99562171D01*
X153038495Y-99368599D01*
X153038494Y-99368597D01*
X152871402Y-99201506D01*
X152871396Y-99201501D01*
X152685842Y-99071575D01*
X152642217Y-99016998D01*
X152635023Y-98947500D01*
X152666546Y-98885145D01*
X152685842Y-98868425D01*
X152715960Y-98847336D01*
X152871401Y-98738495D01*
X153038495Y-98571401D01*
X153174035Y-98377830D01*
X153273903Y-98163663D01*
X153335063Y-97935408D01*
X153355659Y-97700000D01*
X153335063Y-97464592D01*
X153273903Y-97236337D01*
X153174035Y-97022171D01*
X153038495Y-96828599D01*
X153038494Y-96828597D01*
X152871402Y-96661506D01*
X152871396Y-96661501D01*
X152685842Y-96531575D01*
X152642217Y-96476998D01*
X152635023Y-96407500D01*
X152666546Y-96345145D01*
X152685842Y-96328425D01*
X152708026Y-96312891D01*
X152871401Y-96198495D01*
X153038495Y-96031401D01*
X153174035Y-95837830D01*
X153273903Y-95623663D01*
X153335063Y-95395408D01*
X153355659Y-95160000D01*
X153335063Y-94924592D01*
X153273903Y-94696337D01*
X153174035Y-94482171D01*
X153150483Y-94448534D01*
X153038494Y-94288597D01*
X152871402Y-94121506D01*
X152871396Y-94121501D01*
X152685842Y-93991575D01*
X152642217Y-93936998D01*
X152635023Y-93867500D01*
X152666546Y-93805145D01*
X152685842Y-93788425D01*
X152732122Y-93756019D01*
X152871401Y-93658495D01*
X153038495Y-93491401D01*
X153174035Y-93297830D01*
X153273903Y-93083663D01*
X153335063Y-92855408D01*
X153355659Y-92620000D01*
X153335063Y-92384592D01*
X153273903Y-92156337D01*
X153174035Y-91942171D01*
X153160147Y-91922336D01*
X153038494Y-91748597D01*
X152871402Y-91581506D01*
X152871396Y-91581501D01*
X152685842Y-91451575D01*
X152642217Y-91396998D01*
X152635023Y-91327500D01*
X152666546Y-91265145D01*
X152685842Y-91248425D01*
X152708026Y-91232891D01*
X152871401Y-91118495D01*
X153038495Y-90951401D01*
X153174035Y-90757830D01*
X153273903Y-90543663D01*
X153335063Y-90315408D01*
X153355659Y-90080000D01*
X153335063Y-89844592D01*
X153273903Y-89616337D01*
X153174035Y-89402171D01*
X153167456Y-89392774D01*
X153038494Y-89208597D01*
X152871402Y-89041506D01*
X152871396Y-89041501D01*
X152685842Y-88911575D01*
X152642217Y-88856998D01*
X152635023Y-88787500D01*
X152666546Y-88725145D01*
X152685842Y-88708425D01*
X152708026Y-88692891D01*
X152871401Y-88578495D01*
X153038495Y-88411401D01*
X153174035Y-88217830D01*
X153273903Y-88003663D01*
X153335063Y-87775408D01*
X153355659Y-87540000D01*
X153335063Y-87304592D01*
X153273903Y-87076337D01*
X153174035Y-86862171D01*
X153111031Y-86772192D01*
X153038496Y-86668600D01*
X153038495Y-86668599D01*
X152916567Y-86546671D01*
X152883084Y-86485351D01*
X152888068Y-86415659D01*
X152929939Y-86359725D01*
X152960915Y-86342810D01*
X153092331Y-86293796D01*
X153207546Y-86207546D01*
X153293796Y-86092331D01*
X153344091Y-85957483D01*
X153350500Y-85897873D01*
X153350499Y-84102128D01*
X153344091Y-84042517D01*
X153342489Y-84038223D01*
X153293797Y-83907671D01*
X153293793Y-83907664D01*
X153207547Y-83792455D01*
X153207544Y-83792452D01*
X153092335Y-83706206D01*
X153092328Y-83706202D01*
X152957482Y-83655908D01*
X152957483Y-83655908D01*
X152897883Y-83649501D01*
X152897881Y-83649500D01*
X152897873Y-83649500D01*
X152897864Y-83649500D01*
X151102129Y-83649500D01*
X151102123Y-83649501D01*
X151042516Y-83655908D01*
X150907671Y-83706202D01*
X150907664Y-83706206D01*
X150792455Y-83792452D01*
X150792452Y-83792455D01*
X150706206Y-83907664D01*
X150706202Y-83907671D01*
X150655908Y-84042517D01*
X150654657Y-84054158D01*
X150649501Y-84102123D01*
X150649500Y-84102135D01*
X150649500Y-85897870D01*
X150649501Y-85897876D01*
X150655908Y-85957483D01*
X150706202Y-86092328D01*
X150706206Y-86092335D01*
X150792452Y-86207544D01*
X150792455Y-86207547D01*
X150907664Y-86293793D01*
X150907671Y-86293797D01*
X151039081Y-86342810D01*
X151095015Y-86384681D01*
X151119432Y-86450145D01*
X151104580Y-86518418D01*
X151083430Y-86546673D01*
X150961503Y-86668600D01*
X150825965Y-86862169D01*
X150825964Y-86862171D01*
X150726098Y-87076335D01*
X150726094Y-87076344D01*
X150664938Y-87304586D01*
X150664936Y-87304596D01*
X150644341Y-87539999D01*
X144288543Y-87539999D01*
X144177593Y-87459388D01*
X144014267Y-87386671D01*
X144014265Y-87386670D01*
X143886594Y-87359533D01*
X143839391Y-87349500D01*
X143660609Y-87349500D01*
X143629954Y-87356015D01*
X143485733Y-87386670D01*
X143485728Y-87386672D01*
X143322408Y-87459387D01*
X143177768Y-87564475D01*
X143058140Y-87697336D01*
X142968750Y-87852164D01*
X142968747Y-87852170D01*
X142913504Y-88022192D01*
X142913503Y-88022194D01*
X142907011Y-88083963D01*
X142880425Y-88148577D01*
X142871371Y-88158681D01*
X138591873Y-92438181D01*
X138530550Y-92471666D01*
X138504192Y-92474500D01*
X134594808Y-92474500D01*
X134527769Y-92454815D01*
X134482014Y-92402011D01*
X134472070Y-92332853D01*
X134501095Y-92269297D01*
X134507127Y-92262819D01*
X135431765Y-91338181D01*
X136355277Y-90414669D01*
X136355277Y-90414668D01*
X136983126Y-89786819D01*
X137044449Y-89753334D01*
X137070807Y-89750500D01*
X138533089Y-89750500D01*
X138600128Y-89770185D01*
X138605976Y-89774182D01*
X138697407Y-89840612D01*
X138860733Y-89913329D01*
X139035609Y-89950500D01*
X139035610Y-89950500D01*
X139214389Y-89950500D01*
X139214391Y-89950500D01*
X139389267Y-89913329D01*
X139552593Y-89840612D01*
X139697230Y-89735526D01*
X139816859Y-89602665D01*
X139906250Y-89447835D01*
X139961497Y-89277803D01*
X139980185Y-89100000D01*
X139961497Y-88922197D01*
X139906250Y-88752165D01*
X139816859Y-88597335D01*
X139741036Y-88513125D01*
X139697235Y-88464478D01*
X139697232Y-88464476D01*
X139697231Y-88464475D01*
X139697230Y-88464474D01*
X139552593Y-88359388D01*
X139389267Y-88286671D01*
X139389265Y-88286670D01*
X139261594Y-88259533D01*
X139214391Y-88249500D01*
X139035609Y-88249500D01*
X139004954Y-88256015D01*
X138860733Y-88286670D01*
X138860728Y-88286672D01*
X138697408Y-88359388D01*
X138697403Y-88359390D01*
X138605974Y-88425818D01*
X138540168Y-88449298D01*
X138533089Y-88449500D01*
X137170808Y-88449500D01*
X137103769Y-88429815D01*
X137083127Y-88413181D01*
X133908792Y-85238846D01*
X133875307Y-85177523D01*
X133880291Y-85107831D01*
X133889081Y-85089173D01*
X133956250Y-84972835D01*
X134011497Y-84802803D01*
X134030185Y-84625000D01*
X134011497Y-84447197D01*
X133956250Y-84277165D01*
X133866859Y-84122335D01*
X133805472Y-84054158D01*
X133747235Y-83989478D01*
X133747232Y-83989476D01*
X133747231Y-83989475D01*
X133747230Y-83989474D01*
X133602593Y-83884388D01*
X133439267Y-83811671D01*
X133439265Y-83811670D01*
X133311594Y-83784533D01*
X133264391Y-83774500D01*
X133085609Y-83774500D01*
X133054954Y-83781015D01*
X132910733Y-83811670D01*
X132910728Y-83811672D01*
X132747408Y-83884387D01*
X132602768Y-83989475D01*
X132483140Y-84122336D01*
X132393750Y-84277164D01*
X132393747Y-84277170D01*
X132338504Y-84447192D01*
X132338503Y-84447194D01*
X132319815Y-84625000D01*
X132338503Y-84802805D01*
X132338504Y-84802807D01*
X132393747Y-84972829D01*
X132393750Y-84972835D01*
X132483141Y-85127665D01*
X132492648Y-85138223D01*
X132522879Y-85201213D01*
X132524500Y-85221197D01*
X132524500Y-85489069D01*
X132524500Y-85489071D01*
X132524499Y-85489071D01*
X132549497Y-85614738D01*
X132549499Y-85614744D01*
X132598534Y-85733125D01*
X132669726Y-85839673D01*
X132669727Y-85839674D01*
X135792372Y-88962318D01*
X135825857Y-89023641D01*
X135820873Y-89093333D01*
X135792372Y-89137680D01*
X135417890Y-89512163D01*
X133386909Y-91543144D01*
X133325586Y-91576629D01*
X133325009Y-91576753D01*
X133160733Y-91611670D01*
X133160728Y-91611672D01*
X132997408Y-91684387D01*
X132852768Y-91789475D01*
X132733140Y-91922336D01*
X132643750Y-92077164D01*
X132643747Y-92077170D01*
X132588504Y-92247192D01*
X132588503Y-92247195D01*
X132576283Y-92363462D01*
X132549698Y-92428077D01*
X132492400Y-92468061D01*
X132452962Y-92474500D01*
X131445808Y-92474500D01*
X131378769Y-92454815D01*
X131358127Y-92438181D01*
X131032627Y-92112681D01*
X130999142Y-92051358D01*
X131004126Y-91981666D01*
X131032627Y-91937319D01*
X133085272Y-89884674D01*
X133085277Y-89884669D01*
X133156466Y-89778126D01*
X133205501Y-89659743D01*
X133206496Y-89654744D01*
X133216174Y-89606086D01*
X133230500Y-89534069D01*
X133230500Y-89405931D01*
X133227883Y-89392774D01*
X133225500Y-89368582D01*
X133225500Y-89321197D01*
X133245185Y-89254158D01*
X133257352Y-89238223D01*
X133266859Y-89227665D01*
X133356250Y-89072835D01*
X133411497Y-88902803D01*
X133430185Y-88725000D01*
X133411497Y-88547197D01*
X133373357Y-88429815D01*
X133356252Y-88377170D01*
X133356249Y-88377164D01*
X133266859Y-88222335D01*
X133220003Y-88170296D01*
X133147235Y-88089478D01*
X133147232Y-88089476D01*
X133147231Y-88089475D01*
X133147230Y-88089474D01*
X133002593Y-87984388D01*
X132839267Y-87911671D01*
X132839265Y-87911670D01*
X132709988Y-87884192D01*
X132664391Y-87874500D01*
X132485609Y-87874500D01*
X132454954Y-87881015D01*
X132310733Y-87911670D01*
X132310728Y-87911672D01*
X132147408Y-87984387D01*
X132002768Y-88089475D01*
X131883140Y-88222336D01*
X131793750Y-88377164D01*
X131793747Y-88377170D01*
X131738504Y-88547192D01*
X131738503Y-88547194D01*
X131719815Y-88725000D01*
X131738503Y-88902805D01*
X131738504Y-88902807D01*
X131793747Y-89072829D01*
X131793749Y-89072832D01*
X131793750Y-89072835D01*
X131798958Y-89081855D01*
X131842612Y-89157467D01*
X131859083Y-89225367D01*
X131836231Y-89291394D01*
X131822905Y-89307147D01*
X129791873Y-91338181D01*
X129730550Y-91371666D01*
X129704192Y-91374500D01*
X124916911Y-91374500D01*
X124849872Y-91354815D01*
X124844025Y-91350818D01*
X124811931Y-91327500D01*
X124752593Y-91284388D01*
X124589267Y-91211671D01*
X124589265Y-91211670D01*
X124461594Y-91184533D01*
X124414391Y-91174500D01*
X124235609Y-91174500D01*
X124204954Y-91181015D01*
X124060733Y-91211670D01*
X124060728Y-91211672D01*
X123897408Y-91284388D01*
X123897403Y-91284390D01*
X123805974Y-91350818D01*
X123740168Y-91374298D01*
X123733089Y-91374500D01*
X119220808Y-91374500D01*
X119153769Y-91354815D01*
X119133127Y-91338181D01*
X115766819Y-87971873D01*
X115733334Y-87910550D01*
X115730500Y-87884192D01*
X115730500Y-83525000D01*
X136644815Y-83525000D01*
X136663503Y-83702805D01*
X136663504Y-83702807D01*
X136718747Y-83872829D01*
X136718750Y-83872835D01*
X136808141Y-84027665D01*
X136817648Y-84038223D01*
X136847879Y-84101213D01*
X136849500Y-84121197D01*
X136849500Y-86353802D01*
X136829815Y-86420841D01*
X136817651Y-86436773D01*
X136808140Y-86447336D01*
X136718750Y-86602164D01*
X136718747Y-86602170D01*
X136663504Y-86772192D01*
X136663503Y-86772194D01*
X136644815Y-86950000D01*
X136663503Y-87127805D01*
X136663504Y-87127807D01*
X136718747Y-87297829D01*
X136718750Y-87297835D01*
X136808141Y-87452665D01*
X136849812Y-87498946D01*
X136927764Y-87585521D01*
X136927767Y-87585523D01*
X136927770Y-87585526D01*
X137072407Y-87690612D01*
X137235733Y-87763329D01*
X137410609Y-87800500D01*
X137410610Y-87800500D01*
X137589389Y-87800500D01*
X137589391Y-87800500D01*
X137764267Y-87763329D01*
X137927593Y-87690612D01*
X138072230Y-87585526D01*
X138091185Y-87564475D01*
X138113223Y-87539999D01*
X138191859Y-87452665D01*
X138281250Y-87297835D01*
X138336497Y-87127803D01*
X138355185Y-86950000D01*
X138336497Y-86772197D01*
X138281250Y-86602165D01*
X138191859Y-86447335D01*
X138182349Y-86436773D01*
X138152120Y-86373782D01*
X138150500Y-86353802D01*
X138150500Y-84121197D01*
X138170185Y-84054158D01*
X138182352Y-84038223D01*
X138191859Y-84027665D01*
X138281250Y-83872835D01*
X138336497Y-83702803D01*
X138355185Y-83525000D01*
X138336497Y-83347197D01*
X138281250Y-83177165D01*
X138191859Y-83022335D01*
X138145003Y-82970296D01*
X138072235Y-82889478D01*
X138072232Y-82889476D01*
X138072231Y-82889475D01*
X138072230Y-82889474D01*
X137927593Y-82784388D01*
X137764267Y-82711671D01*
X137764265Y-82711670D01*
X137636594Y-82684533D01*
X137589391Y-82674500D01*
X137410609Y-82674500D01*
X137379954Y-82681015D01*
X137235733Y-82711670D01*
X137235728Y-82711672D01*
X137072408Y-82784387D01*
X136927768Y-82889475D01*
X136808140Y-83022336D01*
X136718750Y-83177164D01*
X136718747Y-83177170D01*
X136663504Y-83347192D01*
X136663503Y-83347194D01*
X136644815Y-83525000D01*
X115730500Y-83525000D01*
X115730500Y-78257722D01*
X115750185Y-78190683D01*
X115783377Y-78156147D01*
X115834429Y-78120399D01*
X115951401Y-78038495D01*
X116118495Y-77871401D01*
X116248730Y-77685405D01*
X116303307Y-77641781D01*
X116372805Y-77634587D01*
X116435160Y-77666110D01*
X116451879Y-77685405D01*
X116581890Y-77871078D01*
X116748917Y-78038105D01*
X116942421Y-78173600D01*
X117156507Y-78273429D01*
X117156516Y-78273433D01*
X117370000Y-78330634D01*
X117370000Y-77433012D01*
X117427007Y-77465925D01*
X117554174Y-77500000D01*
X117685826Y-77500000D01*
X117812993Y-77465925D01*
X117870000Y-77433012D01*
X117870000Y-78330633D01*
X118083483Y-78273433D01*
X118083492Y-78273429D01*
X118297578Y-78173600D01*
X118491082Y-78038105D01*
X118658105Y-77871082D01*
X118788119Y-77685405D01*
X118842696Y-77641781D01*
X118912195Y-77634588D01*
X118974549Y-77666110D01*
X118991269Y-77685405D01*
X119121505Y-77871401D01*
X119288599Y-78038495D01*
X119385384Y-78106265D01*
X119482165Y-78174032D01*
X119482167Y-78174033D01*
X119482170Y-78174035D01*
X119696337Y-78273903D01*
X119924592Y-78335063D01*
X120101034Y-78350500D01*
X120159999Y-78355659D01*
X120160000Y-78355659D01*
X120160001Y-78355659D01*
X120218966Y-78350500D01*
X120395408Y-78335063D01*
X120623663Y-78273903D01*
X120837830Y-78174035D01*
X121031401Y-78038495D01*
X121198495Y-77871401D01*
X121328425Y-77685842D01*
X121383002Y-77642217D01*
X121452500Y-77635023D01*
X121514855Y-77666546D01*
X121531575Y-77685842D01*
X121661500Y-77871395D01*
X121661505Y-77871401D01*
X121828599Y-78038495D01*
X121925384Y-78106265D01*
X122022165Y-78174032D01*
X122022167Y-78174033D01*
X122022170Y-78174035D01*
X122236337Y-78273903D01*
X122464592Y-78335063D01*
X122641034Y-78350500D01*
X122699999Y-78355659D01*
X122700000Y-78355659D01*
X122700001Y-78355659D01*
X122758966Y-78350500D01*
X122935408Y-78335063D01*
X123163663Y-78273903D01*
X123377830Y-78174035D01*
X123571401Y-78038495D01*
X123738495Y-77871401D01*
X123868425Y-77685842D01*
X123923002Y-77642217D01*
X123992500Y-77635023D01*
X124054855Y-77666546D01*
X124071575Y-77685842D01*
X124201500Y-77871395D01*
X124201505Y-77871401D01*
X124368599Y-78038495D01*
X124465384Y-78106265D01*
X124562165Y-78174032D01*
X124562167Y-78174033D01*
X124562170Y-78174035D01*
X124776337Y-78273903D01*
X125004592Y-78335063D01*
X125181034Y-78350500D01*
X125239999Y-78355659D01*
X125240000Y-78355659D01*
X125240001Y-78355659D01*
X125298966Y-78350500D01*
X125475408Y-78335063D01*
X125703663Y-78273903D01*
X125917830Y-78174035D01*
X126111401Y-78038495D01*
X126278495Y-77871401D01*
X126408425Y-77685842D01*
X126463002Y-77642217D01*
X126532500Y-77635023D01*
X126594855Y-77666546D01*
X126611575Y-77685842D01*
X126741500Y-77871395D01*
X126741505Y-77871401D01*
X126908599Y-78038495D01*
X127005384Y-78106265D01*
X127102165Y-78174032D01*
X127102167Y-78174033D01*
X127102170Y-78174035D01*
X127316337Y-78273903D01*
X127544592Y-78335063D01*
X127721034Y-78350500D01*
X127779999Y-78355659D01*
X127780000Y-78355659D01*
X127780001Y-78355659D01*
X127838966Y-78350500D01*
X128015408Y-78335063D01*
X128243663Y-78273903D01*
X128457830Y-78174035D01*
X128651401Y-78038495D01*
X128818495Y-77871401D01*
X128948425Y-77685842D01*
X129003002Y-77642217D01*
X129072500Y-77635023D01*
X129134855Y-77666546D01*
X129151575Y-77685842D01*
X129281500Y-77871395D01*
X129281505Y-77871401D01*
X129448599Y-78038495D01*
X129545384Y-78106265D01*
X129642165Y-78174032D01*
X129642167Y-78174033D01*
X129642170Y-78174035D01*
X129856337Y-78273903D01*
X130084592Y-78335063D01*
X130261034Y-78350500D01*
X130319999Y-78355659D01*
X130320000Y-78355659D01*
X130320001Y-78355659D01*
X130378966Y-78350500D01*
X130555408Y-78335063D01*
X130783663Y-78273903D01*
X130997830Y-78174035D01*
X131191401Y-78038495D01*
X131358495Y-77871401D01*
X131488425Y-77685842D01*
X131543002Y-77642217D01*
X131612500Y-77635023D01*
X131674855Y-77666546D01*
X131691575Y-77685842D01*
X131821500Y-77871395D01*
X131821505Y-77871401D01*
X131988599Y-78038495D01*
X132085384Y-78106265D01*
X132182165Y-78174032D01*
X132182167Y-78174033D01*
X132182170Y-78174035D01*
X132396337Y-78273903D01*
X132624592Y-78335063D01*
X132801034Y-78350500D01*
X132859999Y-78355659D01*
X132860000Y-78355659D01*
X132860001Y-78355659D01*
X132918966Y-78350500D01*
X133095408Y-78335063D01*
X133323663Y-78273903D01*
X133537830Y-78174035D01*
X133731401Y-78038495D01*
X133898495Y-77871401D01*
X134034035Y-77677830D01*
X134133903Y-77463663D01*
X134195063Y-77235408D01*
X134215659Y-77000000D01*
X134206360Y-76893713D01*
X150649500Y-76893713D01*
X150649500Y-77106287D01*
X150682754Y-77316243D01*
X150730654Y-77463664D01*
X150748444Y-77518414D01*
X150844951Y-77707820D01*
X150969890Y-77879786D01*
X151120213Y-78030109D01*
X151292179Y-78155048D01*
X151292181Y-78155049D01*
X151292184Y-78155051D01*
X151481588Y-78251557D01*
X151683757Y-78317246D01*
X151893713Y-78350500D01*
X151893714Y-78350500D01*
X152106286Y-78350500D01*
X152106287Y-78350500D01*
X152316243Y-78317246D01*
X152518412Y-78251557D01*
X152707816Y-78155051D01*
X152794138Y-78092335D01*
X152879786Y-78030109D01*
X152879788Y-78030106D01*
X152879792Y-78030104D01*
X153030104Y-77879792D01*
X153030106Y-77879788D01*
X153030109Y-77879786D01*
X153155048Y-77707820D01*
X153155047Y-77707820D01*
X153155051Y-77707816D01*
X153251557Y-77518412D01*
X153317246Y-77316243D01*
X153350500Y-77106287D01*
X153350500Y-76893713D01*
X153317246Y-76683757D01*
X153251557Y-76481588D01*
X153155051Y-76292184D01*
X153155049Y-76292181D01*
X153155048Y-76292179D01*
X153030109Y-76120213D01*
X152879786Y-75969890D01*
X152707820Y-75844951D01*
X152518414Y-75748444D01*
X152518413Y-75748443D01*
X152518412Y-75748443D01*
X152316243Y-75682754D01*
X152316241Y-75682753D01*
X152316240Y-75682753D01*
X152154957Y-75657208D01*
X152106287Y-75649500D01*
X151893713Y-75649500D01*
X151845042Y-75657208D01*
X151683760Y-75682753D01*
X151481585Y-75748444D01*
X151292179Y-75844951D01*
X151120213Y-75969890D01*
X150969890Y-76120213D01*
X150844951Y-76292179D01*
X150748444Y-76481585D01*
X150682753Y-76683760D01*
X150663233Y-76807007D01*
X150649500Y-76893713D01*
X134206360Y-76893713D01*
X134195063Y-76764592D01*
X134133903Y-76536337D01*
X134034035Y-76322171D01*
X134028731Y-76314595D01*
X133898494Y-76128597D01*
X133731402Y-75961506D01*
X133731395Y-75961501D01*
X133537834Y-75825967D01*
X133537830Y-75825965D01*
X133537828Y-75825964D01*
X133323663Y-75726097D01*
X133323659Y-75726096D01*
X133323655Y-75726094D01*
X133095413Y-75664938D01*
X133095403Y-75664936D01*
X132860001Y-75644341D01*
X132859999Y-75644341D01*
X132624596Y-75664936D01*
X132624586Y-75664938D01*
X132396344Y-75726094D01*
X132396335Y-75726098D01*
X132182171Y-75825964D01*
X132182169Y-75825965D01*
X131988597Y-75961505D01*
X131821505Y-76128597D01*
X131691575Y-76314158D01*
X131636998Y-76357783D01*
X131567500Y-76364977D01*
X131505145Y-76333454D01*
X131488425Y-76314158D01*
X131358494Y-76128597D01*
X131191402Y-75961506D01*
X131191395Y-75961501D01*
X130997834Y-75825967D01*
X130997830Y-75825965D01*
X130997828Y-75825964D01*
X130783663Y-75726097D01*
X130783659Y-75726096D01*
X130783655Y-75726094D01*
X130555413Y-75664938D01*
X130555403Y-75664936D01*
X130320001Y-75644341D01*
X130319999Y-75644341D01*
X130084596Y-75664936D01*
X130084586Y-75664938D01*
X129856344Y-75726094D01*
X129856335Y-75726098D01*
X129642171Y-75825964D01*
X129642169Y-75825965D01*
X129448597Y-75961505D01*
X129281505Y-76128597D01*
X129151575Y-76314158D01*
X129096998Y-76357783D01*
X129027500Y-76364977D01*
X128965145Y-76333454D01*
X128948425Y-76314158D01*
X128818494Y-76128597D01*
X128651402Y-75961506D01*
X128651395Y-75961501D01*
X128457834Y-75825967D01*
X128457830Y-75825965D01*
X128457828Y-75825964D01*
X128243663Y-75726097D01*
X128243659Y-75726096D01*
X128243655Y-75726094D01*
X128015413Y-75664938D01*
X128015403Y-75664936D01*
X127780001Y-75644341D01*
X127779999Y-75644341D01*
X127544596Y-75664936D01*
X127544586Y-75664938D01*
X127316344Y-75726094D01*
X127316335Y-75726098D01*
X127102171Y-75825964D01*
X127102169Y-75825965D01*
X126908597Y-75961505D01*
X126741505Y-76128597D01*
X126611575Y-76314158D01*
X126556998Y-76357783D01*
X126487500Y-76364977D01*
X126425145Y-76333454D01*
X126408425Y-76314158D01*
X126278494Y-76128597D01*
X126111402Y-75961506D01*
X126111395Y-75961501D01*
X125917834Y-75825967D01*
X125917830Y-75825965D01*
X125917828Y-75825964D01*
X125703663Y-75726097D01*
X125703659Y-75726096D01*
X125703655Y-75726094D01*
X125475413Y-75664938D01*
X125475403Y-75664936D01*
X125240001Y-75644341D01*
X125239999Y-75644341D01*
X125004596Y-75664936D01*
X125004586Y-75664938D01*
X124776344Y-75726094D01*
X124776335Y-75726098D01*
X124562171Y-75825964D01*
X124562169Y-75825965D01*
X124368597Y-75961505D01*
X124201505Y-76128597D01*
X124071575Y-76314158D01*
X124016998Y-76357783D01*
X123947500Y-76364977D01*
X123885145Y-76333454D01*
X123868425Y-76314158D01*
X123738494Y-76128597D01*
X123571402Y-75961506D01*
X123571395Y-75961501D01*
X123377834Y-75825967D01*
X123377830Y-75825965D01*
X123377828Y-75825964D01*
X123163663Y-75726097D01*
X123163659Y-75726096D01*
X123163655Y-75726094D01*
X122935413Y-75664938D01*
X122935403Y-75664936D01*
X122700001Y-75644341D01*
X122699999Y-75644341D01*
X122464596Y-75664936D01*
X122464586Y-75664938D01*
X122236344Y-75726094D01*
X122236335Y-75726098D01*
X122022171Y-75825964D01*
X122022169Y-75825965D01*
X121828597Y-75961505D01*
X121661505Y-76128597D01*
X121531575Y-76314158D01*
X121476998Y-76357783D01*
X121407500Y-76364977D01*
X121345145Y-76333454D01*
X121328425Y-76314158D01*
X121198494Y-76128597D01*
X121031402Y-75961506D01*
X121031395Y-75961501D01*
X120837834Y-75825967D01*
X120837830Y-75825965D01*
X120837828Y-75825964D01*
X120623663Y-75726097D01*
X120623659Y-75726096D01*
X120623655Y-75726094D01*
X120395413Y-75664938D01*
X120395403Y-75664936D01*
X120160001Y-75644341D01*
X120159999Y-75644341D01*
X119924596Y-75664936D01*
X119924586Y-75664938D01*
X119696344Y-75726094D01*
X119696335Y-75726098D01*
X119482171Y-75825964D01*
X119482169Y-75825965D01*
X119288597Y-75961505D01*
X119121508Y-76128594D01*
X118991269Y-76314595D01*
X118936692Y-76358219D01*
X118867193Y-76365412D01*
X118804839Y-76333890D01*
X118788119Y-76314594D01*
X118658113Y-76128926D01*
X118658108Y-76128920D01*
X118491082Y-75961894D01*
X118297578Y-75826399D01*
X118083492Y-75726570D01*
X118083486Y-75726567D01*
X117870000Y-75669364D01*
X117870000Y-76566988D01*
X117812993Y-76534075D01*
X117685826Y-76500000D01*
X117554174Y-76500000D01*
X117427007Y-76534075D01*
X117370000Y-76566988D01*
X117370000Y-75669364D01*
X117369999Y-75669364D01*
X117156513Y-75726567D01*
X117156507Y-75726570D01*
X116942422Y-75826399D01*
X116942420Y-75826400D01*
X116748926Y-75961886D01*
X116748920Y-75961891D01*
X116581891Y-76128920D01*
X116581890Y-76128922D01*
X116451880Y-76314595D01*
X116397303Y-76358219D01*
X116327804Y-76365412D01*
X116265450Y-76333890D01*
X116248730Y-76314594D01*
X116118494Y-76128597D01*
X115951402Y-75961506D01*
X115951395Y-75961501D01*
X115757834Y-75825967D01*
X115757830Y-75825965D01*
X115757828Y-75825964D01*
X115543663Y-75726097D01*
X115543659Y-75726096D01*
X115543655Y-75726094D01*
X115315413Y-75664938D01*
X115315403Y-75664936D01*
X115080001Y-75644341D01*
X115079999Y-75644341D01*
X114844596Y-75664936D01*
X114844586Y-75664938D01*
X114616344Y-75726094D01*
X114616335Y-75726098D01*
X114402171Y-75825964D01*
X114402169Y-75825965D01*
X114208597Y-75961505D01*
X114041505Y-76128597D01*
X113911575Y-76314158D01*
X113856998Y-76357783D01*
X113787500Y-76364977D01*
X113725145Y-76333454D01*
X113708425Y-76314158D01*
X113578494Y-76128597D01*
X113411402Y-75961506D01*
X113411395Y-75961501D01*
X113217834Y-75825967D01*
X113217830Y-75825965D01*
X113217828Y-75825964D01*
X113003663Y-75726097D01*
X113003659Y-75726096D01*
X113003655Y-75726094D01*
X112775413Y-75664938D01*
X112775403Y-75664936D01*
X112540001Y-75644341D01*
X112539999Y-75644341D01*
X112304596Y-75664936D01*
X112304586Y-75664938D01*
X112076344Y-75726094D01*
X112076335Y-75726098D01*
X111862171Y-75825964D01*
X111862169Y-75825965D01*
X111668600Y-75961503D01*
X111546673Y-76083430D01*
X111485350Y-76116914D01*
X111415658Y-76111930D01*
X111359725Y-76070058D01*
X111342810Y-76039081D01*
X111293797Y-75907671D01*
X111293793Y-75907664D01*
X111207547Y-75792455D01*
X111207544Y-75792452D01*
X111092335Y-75706206D01*
X111092328Y-75706202D01*
X110957482Y-75655908D01*
X110957483Y-75655908D01*
X110897883Y-75649501D01*
X110897881Y-75649500D01*
X110897873Y-75649500D01*
X110897864Y-75649500D01*
X109102129Y-75649500D01*
X109102123Y-75649501D01*
X109042516Y-75655908D01*
X108907671Y-75706202D01*
X108907664Y-75706206D01*
X108792455Y-75792452D01*
X108792452Y-75792455D01*
X108706206Y-75907664D01*
X108706202Y-75907671D01*
X108655908Y-76042517D01*
X108649501Y-76102116D01*
X108649500Y-76102135D01*
X103012031Y-76102135D01*
X102879786Y-75969890D01*
X102707820Y-75844951D01*
X102518414Y-75748444D01*
X102518413Y-75748443D01*
X102518412Y-75748443D01*
X102316243Y-75682754D01*
X102316241Y-75682753D01*
X102316240Y-75682753D01*
X102154957Y-75657208D01*
X102106287Y-75649500D01*
X101893713Y-75649500D01*
X101845042Y-75657208D01*
X101683760Y-75682753D01*
X101481585Y-75748444D01*
X101292179Y-75844951D01*
X101120213Y-75969890D01*
X100969890Y-76120213D01*
X100844951Y-76292179D01*
X100748444Y-76481585D01*
X100682753Y-76683760D01*
X100663233Y-76807007D01*
X100649500Y-76893713D01*
X97001159Y-76893713D01*
X97002328Y-76786528D01*
X97002793Y-76777073D01*
X97003886Y-76764586D01*
X97039943Y-76352444D01*
X97041355Y-76341725D01*
X97042737Y-76333890D01*
X97115257Y-75922602D01*
X97117589Y-75912083D01*
X97227749Y-75500959D01*
X97230989Y-75490683D01*
X97376558Y-75090736D01*
X97380679Y-75080786D01*
X97560552Y-74695047D01*
X97565532Y-74685480D01*
X97778332Y-74316900D01*
X97784125Y-74307806D01*
X98028246Y-73959165D01*
X98034812Y-73950609D01*
X98308394Y-73624566D01*
X98315681Y-73616615D01*
X98616615Y-73315681D01*
X98624566Y-73308394D01*
X98950609Y-73034812D01*
X98959165Y-73028246D01*
X99307806Y-72784125D01*
X99316900Y-72778332D01*
X99685480Y-72565532D01*
X99695047Y-72560552D01*
X100080786Y-72380679D01*
X100090736Y-72376558D01*
X100490683Y-72230989D01*
X100500959Y-72227749D01*
X100912083Y-72117589D01*
X100922602Y-72115257D01*
X101341732Y-72041353D01*
X101352444Y-72039943D01*
X101777085Y-72002792D01*
X101786517Y-72002328D01*
X101999358Y-72000006D01*
X102000710Y-72000000D01*
X151999290Y-72000000D01*
X152000641Y-72000006D01*
G37*
%TD.AperFunction*%
%TD*%
M02*
