M48
; DRILL file {KiCad 8.0.4-8.0.4-0~ubuntu24.04.1} date 2024-08-08T02:17:05-0500
; FORMAT={-:-/ absolute / metric / decimal}
; #@! TF.CreationDate,2024-08-08T02:17:05-05:00
; #@! TF.GenerationSoftware,Kicad,Pcbnew,8.0.4-8.0.4-0~ubuntu24.04.1
; #@! TF.FileFunction,MixedPlating,1,2
FMAT,2
METRIC
; #@! TA.AperFunction,Plated,PTH,ViaDrill
T1C0.300
; #@! TA.AperFunction,Plated,PTH,ComponentDrill
T2C0.550
; #@! TA.AperFunction,Plated,PTH,ComponentDrill
T3C0.850
; #@! TA.AperFunction,Plated,PTH,ComponentDrill
T4C1.000
; #@! TA.AperFunction,Plated,PTH,ComponentDrill
T5C1.100
; #@! TA.AperFunction,NonPlated,NPTH,ComponentDrill
T6C0.800
; #@! TA.AperFunction,NonPlated,NPTH,ComponentDrill
T7C0.900
; #@! TA.AperFunction,NonPlated,NPTH,ComponentDrill
T8C2.200
%
G90
G05
T1
X110.6Y-103.25
X113.2Y-89.3
X113.625Y-117.6
X115.625Y-95.825
X116.3Y-94.625
X116.7Y-93.025
X117.5Y-100.7
X117.525Y-104.05
X117.85Y-111.7
X117.95Y-115.99
X119.5Y-116.825
X121.05Y-87.875
X122.0Y-98.65
X123.075Y-118.525
X123.125Y-113.4
X123.3Y-99.35
X124.325Y-92.025
X124.35Y-95.025
X125.85Y-107.65
X126.0Y-112.225
X126.0Y-113.8
X126.175Y-110.45
X126.325Y-93.35
X126.375Y-114.725
X127.525Y-119.15
X128.025Y-95.025
X128.4Y-107.075
X130.325Y-104.825
X132.575Y-88.725
X133.175Y-84.625
X133.425Y-92.425
X133.675Y-111.625
X134.325Y-85.5
X135.8Y-107.85
X137.5Y-83.525
X137.5Y-86.95
X138.9Y-104.525
X139.125Y-89.1
X140.15Y-111.625
X141.75Y-88.725
X141.925Y-78.15
X143.75Y-88.2
T4
X102.0Y-85.0
X102.0Y-87.54
X102.0Y-90.08
X102.0Y-92.62
X102.0Y-95.16
X102.0Y-97.7
X102.0Y-100.24
X102.0Y-102.78
X102.0Y-105.32
X102.0Y-107.86
X102.0Y-110.4
X102.0Y-112.94
X110.0Y-77.0
X112.54Y-77.0
X115.08Y-77.0
X117.62Y-77.0
X120.16Y-77.0
X122.7Y-77.0
X125.24Y-77.0
X127.78Y-77.0
X130.32Y-77.0
X132.86Y-77.0
X152.0Y-85.0
X152.0Y-87.54
X152.0Y-90.08
X152.0Y-92.62
X152.0Y-95.16
X152.0Y-97.7
X152.0Y-100.24
X152.0Y-102.78
X152.0Y-105.32
X152.0Y-107.86
X152.0Y-110.4
X152.0Y-112.94
T5
X109.14Y-100.28
X109.14Y-104.78
X115.64Y-100.28
X115.64Y-104.78
T6
X111.1Y-120.125
X116.1Y-120.125
T7
X137.125Y-122.985
X140.125Y-122.985
T8
X102.0Y-77.0
X102.0Y-120.0
X152.0Y-77.0
X152.0Y-120.0
T2
G00X109.725Y-122.55
M15
G01X109.725Y-123.2
M16
G05
G00X117.475Y-122.55
M15
G01X117.475Y-123.2
M16
G05
T3
G00X109.875Y-118.8
M15
G01X109.875Y-119.35
M16
G05
G00X117.325Y-118.8
M15
G01X117.325Y-119.35
M16
G05
M30
