%TF.GenerationSoftware,KiCad,Pcbnew,8.0.4-8.0.4-0~ubuntu24.04.1*%
%TF.CreationDate,2024-08-08T02:16:28-05:00*%
%TF.ProjectId,anvil,616e7669-6c2e-46b6-9963-61645f706362,rev?*%
%TF.SameCoordinates,Original*%
%TF.FileFunction,Copper,L1,Top*%
%TF.FilePolarity,Positive*%
%FSLAX46Y46*%
G04 Gerber Fmt 4.6, Leading zero omitted, Abs format (unit mm)*
G04 Created by KiCad (PCBNEW 8.0.4-8.0.4-0~ubuntu24.04.1) date 2024-08-08 02:16:28*
%MOMM*%
%LPD*%
G01*
G04 APERTURE LIST*
G04 Aperture macros list*
%AMRoundRect*
0 Rectangle with rounded corners*
0 $1 Rounding radius*
0 $2 $3 $4 $5 $6 $7 $8 $9 X,Y pos of 4 corners*
0 Add a 4 corners polygon primitive as box body*
4,1,4,$2,$3,$4,$5,$6,$7,$8,$9,$2,$3,0*
0 Add four circle primitives for the rounded corners*
1,1,$1+$1,$2,$3*
1,1,$1+$1,$4,$5*
1,1,$1+$1,$6,$7*
1,1,$1+$1,$8,$9*
0 Add four rect primitives between the rounded corners*
20,1,$1+$1,$2,$3,$4,$5,0*
20,1,$1+$1,$4,$5,$6,$7,0*
20,1,$1+$1,$6,$7,$8,$9,0*
20,1,$1+$1,$8,$9,$2,$3,0*%
G04 Aperture macros list end*
%TA.AperFunction,ComponentPad*%
%ADD10R,1.700000X1.700000*%
%TD*%
%TA.AperFunction,ComponentPad*%
%ADD11O,1.700000X1.700000*%
%TD*%
%TA.AperFunction,SMDPad,CuDef*%
%ADD12RoundRect,0.218750X0.218750X0.256250X-0.218750X0.256250X-0.218750X-0.256250X0.218750X-0.256250X0*%
%TD*%
%TA.AperFunction,SMDPad,CuDef*%
%ADD13RoundRect,0.135000X-0.135000X-0.185000X0.135000X-0.185000X0.135000X0.185000X-0.135000X0.185000X0*%
%TD*%
%TA.AperFunction,SMDPad,CuDef*%
%ADD14RoundRect,0.218750X0.256250X-0.218750X0.256250X0.218750X-0.256250X0.218750X-0.256250X-0.218750X0*%
%TD*%
%TA.AperFunction,SMDPad,CuDef*%
%ADD15RoundRect,0.225000X0.225000X0.250000X-0.225000X0.250000X-0.225000X-0.250000X0.225000X-0.250000X0*%
%TD*%
%TA.AperFunction,SMDPad,CuDef*%
%ADD16R,1.000000X0.800000*%
%TD*%
%TA.AperFunction,SMDPad,CuDef*%
%ADD17R,0.700000X1.500000*%
%TD*%
%TA.AperFunction,SMDPad,CuDef*%
%ADD18RoundRect,0.140000X-0.170000X0.140000X-0.170000X-0.140000X0.170000X-0.140000X0.170000X0.140000X0*%
%TD*%
%TA.AperFunction,SMDPad,CuDef*%
%ADD19R,1.400000X1.200000*%
%TD*%
%TA.AperFunction,SMDPad,CuDef*%
%ADD20R,0.450000X1.300000*%
%TD*%
%TA.AperFunction,ComponentPad*%
%ADD21O,1.150000X1.800000*%
%TD*%
%TA.AperFunction,ComponentPad*%
%ADD22O,1.450000X2.000000*%
%TD*%
%TA.AperFunction,SMDPad,CuDef*%
%ADD23RoundRect,0.140000X0.170000X-0.140000X0.170000X0.140000X-0.170000X0.140000X-0.170000X-0.140000X0*%
%TD*%
%TA.AperFunction,SMDPad,CuDef*%
%ADD24RoundRect,0.135000X0.185000X-0.135000X0.185000X0.135000X-0.185000X0.135000X-0.185000X-0.135000X0*%
%TD*%
%TA.AperFunction,SMDPad,CuDef*%
%ADD25RoundRect,0.200000X0.275000X-0.200000X0.275000X0.200000X-0.275000X0.200000X-0.275000X-0.200000X0*%
%TD*%
%TA.AperFunction,ComponentPad*%
%ADD26C,2.000000*%
%TD*%
%TA.AperFunction,SMDPad,CuDef*%
%ADD27R,2.790000X0.740000*%
%TD*%
%TA.AperFunction,SMDPad,CuDef*%
%ADD28RoundRect,0.375000X-0.625000X-0.375000X0.625000X-0.375000X0.625000X0.375000X-0.625000X0.375000X0*%
%TD*%
%TA.AperFunction,SMDPad,CuDef*%
%ADD29RoundRect,0.500000X-0.500000X-1.400000X0.500000X-1.400000X0.500000X1.400000X-0.500000X1.400000X0*%
%TD*%
%TA.AperFunction,SMDPad,CuDef*%
%ADD30RoundRect,0.140000X-0.140000X-0.170000X0.140000X-0.170000X0.140000X0.170000X-0.140000X0.170000X0*%
%TD*%
%TA.AperFunction,SMDPad,CuDef*%
%ADD31RoundRect,0.135000X-0.185000X0.135000X-0.185000X-0.135000X0.185000X-0.135000X0.185000X0.135000X0*%
%TD*%
%TA.AperFunction,SMDPad,CuDef*%
%ADD32R,1.750000X0.450000*%
%TD*%
%TA.AperFunction,SMDPad,CuDef*%
%ADD33RoundRect,0.218750X-0.256250X0.218750X-0.256250X-0.218750X0.256250X-0.218750X0.256250X0.218750X0*%
%TD*%
%TA.AperFunction,SMDPad,CuDef*%
%ADD34RoundRect,0.250000X0.250000X0.475000X-0.250000X0.475000X-0.250000X-0.475000X0.250000X-0.475000X0*%
%TD*%
%TA.AperFunction,SMDPad,CuDef*%
%ADD35RoundRect,0.250000X-0.475000X0.250000X-0.475000X-0.250000X0.475000X-0.250000X0.475000X0.250000X0*%
%TD*%
%TA.AperFunction,SMDPad,CuDef*%
%ADD36RoundRect,0.140000X0.140000X0.170000X-0.140000X0.170000X-0.140000X-0.170000X0.140000X-0.170000X0*%
%TD*%
%TA.AperFunction,SMDPad,CuDef*%
%ADD37RoundRect,0.075000X-0.662500X-0.075000X0.662500X-0.075000X0.662500X0.075000X-0.662500X0.075000X0*%
%TD*%
%TA.AperFunction,SMDPad,CuDef*%
%ADD38RoundRect,0.075000X-0.075000X-0.662500X0.075000X-0.662500X0.075000X0.662500X-0.075000X0.662500X0*%
%TD*%
%TA.AperFunction,ViaPad*%
%ADD39C,0.700000*%
%TD*%
%TA.AperFunction,Conductor*%
%ADD40C,0.300000*%
%TD*%
%TA.AperFunction,Conductor*%
%ADD41C,0.200000*%
%TD*%
%TA.AperFunction,Conductor*%
%ADD42C,0.500000*%
%TD*%
G04 APERTURE END LIST*
D10*
%TO.P,J2,1,Pin_1*%
%TO.N,PF7*%
X152000000Y-85000000D03*
D11*
%TO.P,J2,2,Pin_2*%
%TO.N,PF6*%
X152000000Y-87540000D03*
%TO.P,J2,3,Pin_3*%
%TO.N,PA12*%
X152000000Y-90080000D03*
%TO.P,J2,4,Pin_4*%
%TO.N,PA11*%
X152000000Y-92620000D03*
%TO.P,J2,5,Pin_5*%
%TO.N,TIM1_CH3*%
X152000000Y-95160000D03*
%TO.P,J2,6,Pin_6*%
%TO.N,TIM1_CH2*%
X152000000Y-97700000D03*
%TO.P,J2,7,Pin_7*%
%TO.N,TIM1_CH1*%
X152000000Y-100240000D03*
%TO.P,J2,8,Pin_8*%
%TO.N,PB15*%
X152000000Y-102780000D03*
%TO.P,J2,9,Pin_9*%
%TO.N,PB14*%
X152000000Y-105320000D03*
%TO.P,J2,10,Pin_10*%
%TO.N,PB13*%
X152000000Y-107860000D03*
%TO.P,J2,11,Pin_11*%
%TO.N,PB12*%
X152000000Y-110400000D03*
%TO.P,J2,12,Pin_12*%
%TO.N,+3.3V*%
X152000000Y-112940000D03*
%TD*%
D12*
%TO.P,LED1,1,K*%
%TO.N,GND*%
X140312500Y-76400000D03*
%TO.P,LED1,2,A*%
%TO.N,Net-(LED1-A)*%
X138737500Y-76400000D03*
%TD*%
D10*
%TO.P,J4,1,Pin_1*%
%TO.N,PC15*%
X102000000Y-85000000D03*
D11*
%TO.P,J4,2,Pin_2*%
%TO.N,ADC_IN0*%
X102000000Y-87540000D03*
%TO.P,J4,3,Pin_3*%
%TO.N,ADC_IN1*%
X102000000Y-90080000D03*
%TO.P,J4,4,Pin_4*%
%TO.N,PA4*%
X102000000Y-92620000D03*
%TO.P,J4,5,Pin_5*%
%TO.N,SPI_SCK*%
X102000000Y-95160000D03*
%TO.P,J4,6,Pin_6*%
%TO.N,SPI_MISO*%
X102000000Y-97700000D03*
%TO.P,J4,7,Pin_7*%
%TO.N,SPI_MOSI*%
X102000000Y-100240000D03*
%TO.P,J4,8,Pin_8*%
%TO.N,PB0*%
X102000000Y-102780000D03*
%TO.P,J4,9,Pin_9*%
%TO.N,PB1*%
X102000000Y-105320000D03*
%TO.P,J4,10,Pin_10*%
%TO.N,PB2*%
X102000000Y-107860000D03*
%TO.P,J4,11,Pin_11*%
%TO.N,I2C_SCL*%
X102000000Y-110400000D03*
%TO.P,J4,12,Pin_12*%
%TO.N,I2C_SDA*%
X102000000Y-112940000D03*
%TD*%
D12*
%TO.P,LED2,1,K*%
%TO.N,GND*%
X140337500Y-78150000D03*
%TO.P,LED2,2,A*%
%TO.N,Net-(LED2-A)*%
X138762500Y-78150000D03*
%TD*%
D13*
%TO.P,R3,1*%
%TO.N,+3.3V*%
X111865000Y-116275000D03*
%TO.P,R3,2*%
%TO.N,/RXLED*%
X112885000Y-116275000D03*
%TD*%
D14*
%TO.P,FB1,1*%
%TO.N,+3.3VA*%
X117650000Y-96187500D03*
%TO.P,FB1,2*%
%TO.N,+3.3V*%
X117650000Y-94612500D03*
%TD*%
D15*
%TO.P,C4,1*%
%TO.N,+3.3V*%
X131425000Y-102350000D03*
%TO.P,C4,2*%
%TO.N,GND*%
X129875000Y-102350000D03*
%TD*%
D16*
%TO.P,SW2,*%
%TO.N,*%
X134975000Y-121875000D03*
X134975000Y-124085000D03*
X142275000Y-121875000D03*
X142275000Y-124085000D03*
D17*
%TO.P,SW2,1,A*%
%TO.N,GND*%
X136375000Y-121225000D03*
%TO.P,SW2,2,B*%
%TO.N,/SW_BOOT0*%
X139375000Y-121225000D03*
%TO.P,SW2,3,C*%
%TO.N,+3.3V*%
X140875000Y-121225000D03*
%TD*%
D18*
%TO.P,C8,1*%
%TO.N,NRST*%
X118065000Y-101875000D03*
%TO.P,C8,2*%
%TO.N,GND*%
X118065000Y-102835000D03*
%TD*%
D19*
%TO.P,Y1,1,1*%
%TO.N,HSE_IN*%
X115400000Y-90700000D03*
%TO.P,Y1,2,2*%
%TO.N,GND*%
X113200000Y-90700000D03*
%TO.P,Y1,3,3*%
%TO.N,HSE_OUT*%
X113200000Y-92400000D03*
%TO.P,Y1,4,4*%
%TO.N,GND*%
X115400000Y-92400000D03*
%TD*%
D20*
%TO.P,J1,1,VBUS*%
%TO.N,VBUS*%
X112300000Y-119025000D03*
%TO.P,J1,2,D-*%
%TO.N,/USBD-*%
X112950000Y-119025000D03*
%TO.P,J1,3,D+*%
%TO.N,/USBD+*%
X113600000Y-119025000D03*
%TO.P,J1,4,ID*%
%TO.N,unconnected-(J1-ID-Pad4)*%
X114250000Y-119025000D03*
%TO.P,J1,5,GND*%
%TO.N,GND*%
X114900000Y-119025000D03*
D21*
%TO.P,J1,6,Shield*%
%TO.N,unconnected-(J1-Shield-Pad6)_1*%
X109725000Y-122875000D03*
D22*
%TO.N,unconnected-(J1-Shield-Pad6)*%
X109875000Y-119075000D03*
%TO.N,unconnected-(J1-Shield-Pad6)_2*%
X117325000Y-119075000D03*
D21*
%TO.N,unconnected-(J1-Shield-Pad6)_3*%
X117475000Y-122875000D03*
%TD*%
D23*
%TO.P,C7,1*%
%TO.N,+3.3V*%
X121050000Y-90855000D03*
%TO.P,C7,2*%
%TO.N,GND*%
X121050000Y-89895000D03*
%TD*%
D12*
%TO.P,D2,1,K*%
%TO.N,Net-(D2-K)*%
X115987500Y-116000000D03*
%TO.P,D2,2,A*%
%TO.N,/RXLED*%
X114412500Y-116000000D03*
%TD*%
D24*
%TO.P,R6,1*%
%TO.N,LED2*%
X130175000Y-88710000D03*
%TO.P,R6,2*%
%TO.N,Net-(LED2-A)*%
X130175000Y-87690000D03*
%TD*%
D23*
%TO.P,C6,1*%
%TO.N,+3.3VA*%
X119550000Y-96155000D03*
%TO.P,C6,2*%
%TO.N,GND*%
X119550000Y-95195000D03*
%TD*%
D25*
%TO.P,R7,1*%
%TO.N,+3.3V*%
X132550000Y-87650000D03*
%TO.P,R7,2*%
%TO.N,SWDIO*%
X132550000Y-86000000D03*
%TD*%
D26*
%TO.P,SW3,1,1*%
%TO.N,NRST*%
X109140000Y-100280000D03*
X115640000Y-100280000D03*
%TO.P,SW3,2,2*%
%TO.N,GND*%
X109140000Y-104780000D03*
X115640000Y-104780000D03*
%TD*%
D27*
%TO.P,J3,01,01*%
%TO.N,+3.3V*%
X143735000Y-86477500D03*
%TO.P,J3,02,02*%
%TO.N,SWDIO*%
X139665000Y-86477500D03*
%TO.P,J3,03,03*%
%TO.N,GND*%
X143735000Y-85207500D03*
%TO.P,J3,04,04*%
%TO.N,SWCLK*%
X139665000Y-85207500D03*
%TO.P,J3,05,05*%
%TO.N,GND*%
X143735000Y-83937500D03*
%TO.P,J3,06,06*%
%TO.N,unconnected-(J3-Pad06)*%
X139665000Y-83937500D03*
%TO.P,J3,07,07*%
%TO.N,unconnected-(J3-Pad07)*%
X143735000Y-82667500D03*
%TO.P,J3,08,08*%
%TO.N,unconnected-(J3-Pad08)*%
X139665000Y-82667500D03*
%TO.P,J3,09,09*%
%TO.N,unconnected-(J3-Pad09)*%
X143735000Y-81397500D03*
%TO.P,J3,10,10*%
%TO.N,NRST*%
X139665000Y-81397500D03*
%TD*%
D28*
%TO.P,U3,1,GND*%
%TO.N,GND*%
X135775000Y-109325000D03*
%TO.P,U3,2,VO*%
%TO.N,+3.3V*%
X135775000Y-111625000D03*
D29*
X142075000Y-111625000D03*
D28*
%TO.P,U3,3,VI*%
%TO.N,Net-(U3-VI)*%
X135775000Y-113925000D03*
%TD*%
D30*
%TO.P,C1,1*%
%TO.N,+3.3V*%
X122195000Y-90325000D03*
%TO.P,C1,2*%
%TO.N,GND*%
X123155000Y-90325000D03*
%TD*%
D10*
%TO.P,J5,1,Pin_1*%
%TO.N,PC14*%
X110000000Y-77000000D03*
D11*
%TO.P,J5,2,Pin_2*%
%TO.N,PC13*%
X112540000Y-77000000D03*
%TO.P,J5,3,Pin_3*%
%TO.N,+3.3V*%
X115080000Y-77000000D03*
%TO.P,J5,4,Pin_4*%
%TO.N,GND*%
X117620000Y-77000000D03*
%TO.P,J5,5,Pin_5*%
%TO.N,PB9*%
X120160000Y-77000000D03*
%TO.P,J5,6,Pin_6*%
%TO.N,PB8*%
X122700000Y-77000000D03*
%TO.P,J5,7,Pin_7*%
%TO.N,PB7*%
X125240000Y-77000000D03*
%TO.P,J5,8,Pin_8*%
%TO.N,PB6*%
X127780000Y-77000000D03*
%TO.P,J5,9,Pin_9*%
%TO.N,PB5*%
X130320000Y-77000000D03*
%TO.P,J5,10,Pin_10*%
%TO.N,PB4*%
X132860000Y-77000000D03*
%TD*%
D18*
%TO.P,C10,1*%
%TO.N,HSE_IN*%
X117200000Y-90970000D03*
%TO.P,C10,2*%
%TO.N,GND*%
X117200000Y-91930000D03*
%TD*%
D31*
%TO.P,R4,1*%
%TO.N,/PWRLED*%
X145325000Y-111940000D03*
%TO.P,R4,2*%
%TO.N,+3.3V*%
X145325000Y-112960000D03*
%TD*%
D23*
%TO.P,C9,1*%
%TO.N,HSE_OUT*%
X111325000Y-91980000D03*
%TO.P,C9,2*%
%TO.N,GND*%
X111325000Y-91020000D03*
%TD*%
D13*
%TO.P,R2,1*%
%TO.N,+3.3V*%
X111865000Y-111375000D03*
%TO.P,R2,2*%
%TO.N,/TXLED*%
X112885000Y-111375000D03*
%TD*%
D32*
%TO.P,U2,1,TXD*%
%TO.N,USART1_RX*%
X121125000Y-109525000D03*
%TO.P,U2,2,DTR*%
%TO.N,unconnected-(U2-DTR-Pad2)*%
X121125000Y-110175000D03*
%TO.P,U2,3,RTS*%
%TO.N,unconnected-(U2-RTS-Pad3)*%
X121125000Y-110825000D03*
%TO.P,U2,4,VCCIO*%
%TO.N,+3.3V*%
X121125000Y-111475000D03*
%TO.P,U2,5,RXD*%
%TO.N,USART1_TX*%
X121125000Y-112125000D03*
%TO.P,U2,6,RI*%
%TO.N,unconnected-(U2-RI-Pad6)*%
X121125000Y-112775000D03*
%TO.P,U2,7,GND*%
%TO.N,GND*%
X121125000Y-113425000D03*
%TO.P,U2,8,NC_8*%
%TO.N,unconnected-(U2-NC_8-Pad8)*%
X121125000Y-114075000D03*
%TO.P,U2,9,DCR*%
%TO.N,unconnected-(U2-DCR-Pad9)*%
X121125000Y-114725000D03*
%TO.P,U2,10,DCD*%
%TO.N,unconnected-(U2-DCD-Pad10)*%
X121125000Y-115375000D03*
%TO.P,U2,11,CTS*%
%TO.N,unconnected-(U2-CTS-Pad11)*%
X121125000Y-116025000D03*
%TO.P,U2,12,CBUS4*%
%TO.N,unconnected-(U2-CBUS4-Pad12)*%
X121125000Y-116675000D03*
%TO.P,U2,13,CBUS2*%
%TO.N,unconnected-(U2-CBUS2-Pad13)*%
X121125000Y-117325000D03*
%TO.P,U2,14,CBUS3*%
%TO.N,unconnected-(U2-CBUS3-Pad14)*%
X121125000Y-117975000D03*
%TO.P,U2,15,USBD+*%
%TO.N,/USBD+*%
X128325000Y-117975000D03*
%TO.P,U2,16,USBD-*%
%TO.N,/USBD-*%
X128325000Y-117325000D03*
%TO.P,U2,17,3V3OUT*%
%TO.N,unconnected-(U2-3V3OUT-Pad17)*%
X128325000Y-116675000D03*
%TO.P,U2,18,GND*%
%TO.N,GND*%
X128325000Y-116025000D03*
%TO.P,U2,19,~{RESET}*%
%TO.N,unconnected-(U2-~{RESET}-Pad19)*%
X128325000Y-115375000D03*
%TO.P,U2,20,VCC*%
%TO.N,+3.3V*%
X128325000Y-114725000D03*
%TO.P,U2,21,GND*%
%TO.N,GND*%
X128325000Y-114075000D03*
%TO.P,U2,22,CBUS1*%
%TO.N,Net-(D2-K)*%
X128325000Y-113425000D03*
%TO.P,U2,23,CBUS0*%
%TO.N,Net-(D1-K)*%
X128325000Y-112775000D03*
%TO.P,U2,24,NC_24*%
%TO.N,unconnected-(U2-NC_24-Pad24)*%
X128325000Y-112125000D03*
%TO.P,U2,25,AGND*%
%TO.N,GND*%
X128325000Y-111475000D03*
%TO.P,U2,26,TEST*%
%TO.N,unconnected-(U2-TEST-Pad26)*%
X128325000Y-110825000D03*
%TO.P,U2,27,OSCI*%
%TO.N,unconnected-(U2-OSCI-Pad27)*%
X128325000Y-110175000D03*
%TO.P,U2,28,OSCO*%
%TO.N,unconnected-(U2-OSCO-Pad28)*%
X128325000Y-109525000D03*
%TD*%
D33*
%TO.P,FB2,1*%
%TO.N,VBUS*%
X130600000Y-116087500D03*
%TO.P,FB2,2*%
%TO.N,Net-(U3-VI)*%
X130600000Y-117662500D03*
%TD*%
D34*
%TO.P,C12,1*%
%TO.N,+3.3V*%
X140775000Y-106075000D03*
%TO.P,C12,2*%
%TO.N,GND*%
X138875000Y-106075000D03*
%TD*%
D35*
%TO.P,C11,1*%
%TO.N,VBUS*%
X132925000Y-116150000D03*
%TO.P,C11,2*%
%TO.N,GND*%
X132925000Y-118050000D03*
%TD*%
D24*
%TO.P,R5,1*%
%TO.N,LED1*%
X129075000Y-88710000D03*
%TO.P,R5,2*%
%TO.N,Net-(LED1-A)*%
X129075000Y-87690000D03*
%TD*%
D12*
%TO.P,D1,1,K*%
%TO.N,Net-(D1-K)*%
X115987500Y-111700000D03*
%TO.P,D1,2,A*%
%TO.N,/TXLED*%
X114412500Y-111700000D03*
%TD*%
D25*
%TO.P,R8,1*%
%TO.N,SWCLK*%
X134325000Y-89000000D03*
%TO.P,R8,2*%
%TO.N,GND*%
X134325000Y-87350000D03*
%TD*%
D23*
%TO.P,C5,1*%
%TO.N,+3.3VA*%
X121100000Y-96130000D03*
%TO.P,C5,2*%
%TO.N,GND*%
X121100000Y-95170000D03*
%TD*%
D36*
%TO.P,C3,1*%
%TO.N,+3.3V*%
X130530000Y-100850000D03*
%TO.P,C3,2*%
%TO.N,GND*%
X129570000Y-100850000D03*
%TD*%
D37*
%TO.P,U1,1,VBAT*%
%TO.N,+3.3V*%
X122925000Y-92025000D03*
%TO.P,U1,2,PC13*%
%TO.N,PC13*%
X122925000Y-92525000D03*
%TO.P,U1,3,PC14*%
%TO.N,PC14*%
X122925000Y-93025000D03*
%TO.P,U1,4,PC15*%
%TO.N,PC15*%
X122925000Y-93525000D03*
%TO.P,U1,5,PF0*%
%TO.N,HSE_IN*%
X122925000Y-94025000D03*
%TO.P,U1,6,PF1*%
%TO.N,HSE_OUT*%
X122925000Y-94525000D03*
%TO.P,U1,7,NRST*%
%TO.N,NRST*%
X122925000Y-95025000D03*
%TO.P,U1,8,VSSA*%
%TO.N,GND*%
X122925000Y-95525000D03*
%TO.P,U1,9,VDDA*%
%TO.N,+3.3VA*%
X122925000Y-96025000D03*
%TO.P,U1,10,PA0*%
%TO.N,ADC_IN0*%
X122925000Y-96525000D03*
%TO.P,U1,11,PA1*%
%TO.N,ADC_IN1*%
X122925000Y-97025000D03*
%TO.P,U1,12,PA2*%
%TO.N,USART1_TX*%
X122925000Y-97525000D03*
D38*
%TO.P,U1,13,PA3*%
%TO.N,USART1_RX*%
X124337500Y-98937500D03*
%TO.P,U1,14,PA4*%
%TO.N,PA4*%
X124837500Y-98937500D03*
%TO.P,U1,15,PA5*%
%TO.N,SPI_SCK*%
X125337500Y-98937500D03*
%TO.P,U1,16,PA6*%
%TO.N,SPI_MISO*%
X125837500Y-98937500D03*
%TO.P,U1,17,PA7*%
%TO.N,SPI_MOSI*%
X126337500Y-98937500D03*
%TO.P,U1,18,PB0*%
%TO.N,PB0*%
X126837500Y-98937500D03*
%TO.P,U1,19,PB1*%
%TO.N,PB1*%
X127337500Y-98937500D03*
%TO.P,U1,20,PB2*%
%TO.N,PB2*%
X127837500Y-98937500D03*
%TO.P,U1,21,PB10*%
%TO.N,I2C_SCL*%
X128337500Y-98937500D03*
%TO.P,U1,22,PB11*%
%TO.N,I2C_SDA*%
X128837500Y-98937500D03*
%TO.P,U1,23,VSS*%
%TO.N,GND*%
X129337500Y-98937500D03*
%TO.P,U1,24,VDD*%
%TO.N,+3.3V*%
X129837500Y-98937500D03*
D37*
%TO.P,U1,25,PB12*%
%TO.N,PB12*%
X131250000Y-97525000D03*
%TO.P,U1,26,PB13*%
%TO.N,PB13*%
X131250000Y-97025000D03*
%TO.P,U1,27,PB14*%
%TO.N,PB14*%
X131250000Y-96525000D03*
%TO.P,U1,28,PB15*%
%TO.N,PB15*%
X131250000Y-96025000D03*
%TO.P,U1,29,PA8*%
%TO.N,TIM1_CH1*%
X131250000Y-95525000D03*
%TO.P,U1,30,PA9*%
%TO.N,TIM1_CH2*%
X131250000Y-95025000D03*
%TO.P,U1,31,PA10*%
%TO.N,TIM1_CH3*%
X131250000Y-94525000D03*
%TO.P,U1,32,PA11*%
%TO.N,PA11*%
X131250000Y-94025000D03*
%TO.P,U1,33,PA12*%
%TO.N,PA12*%
X131250000Y-93525000D03*
%TO.P,U1,34,PA13*%
%TO.N,SWDIO*%
X131250000Y-93025000D03*
%TO.P,U1,35,PF6*%
%TO.N,PF6*%
X131250000Y-92525000D03*
%TO.P,U1,36,PF7*%
%TO.N,PF7*%
X131250000Y-92025000D03*
D38*
%TO.P,U1,37,PA14*%
%TO.N,SWCLK*%
X129837500Y-90612500D03*
%TO.P,U1,38,PA15*%
%TO.N,LED2*%
X129337500Y-90612500D03*
%TO.P,U1,39,PB3*%
%TO.N,LED1*%
X128837500Y-90612500D03*
%TO.P,U1,40,PB4*%
%TO.N,PB4*%
X128337500Y-90612500D03*
%TO.P,U1,41,PB5*%
%TO.N,PB5*%
X127837500Y-90612500D03*
%TO.P,U1,42,PB6*%
%TO.N,PB6*%
X127337500Y-90612500D03*
%TO.P,U1,43,PB7*%
%TO.N,PB7*%
X126837500Y-90612500D03*
%TO.P,U1,44,BOOT0*%
%TO.N,/BOOT0*%
X126337500Y-90612500D03*
%TO.P,U1,45,PB8*%
%TO.N,PB8*%
X125837500Y-90612500D03*
%TO.P,U1,46,PB9*%
%TO.N,PB9*%
X125337500Y-90612500D03*
%TO.P,U1,47,VSS*%
%TO.N,GND*%
X124837500Y-90612500D03*
%TO.P,U1,48,VDD*%
%TO.N,+3.3V*%
X124337500Y-90612500D03*
%TD*%
D33*
%TO.P,D3,1,K*%
%TO.N,GND*%
X145075000Y-108737500D03*
%TO.P,D3,2,A*%
%TO.N,/PWRLED*%
X145075000Y-110312500D03*
%TD*%
D24*
%TO.P,R1,1*%
%TO.N,/SW_BOOT0*%
X136925000Y-106600000D03*
%TO.P,R1,2*%
%TO.N,/BOOT0*%
X136925000Y-105580000D03*
%TD*%
D30*
%TO.P,C2,1*%
%TO.N,+3.3V*%
X122195000Y-89175000D03*
%TO.P,C2,2*%
%TO.N,GND*%
X123155000Y-89175000D03*
%TD*%
D39*
%TO.N,GND*%
X116700000Y-93025000D03*
X141925000Y-78150000D03*
X110600000Y-103250000D03*
X117525000Y-104050000D03*
X138900000Y-104525000D03*
X134325000Y-85500000D03*
X123125000Y-113400000D03*
X113200000Y-89300000D03*
X123075000Y-118525000D03*
X141750000Y-88725000D03*
X135800000Y-107850000D03*
X126175000Y-110450000D03*
X121050000Y-87875000D03*
X115625000Y-95825000D03*
%TO.N,+3.3V*%
X132575000Y-88725000D03*
X124325000Y-92025000D03*
X133675000Y-111625000D03*
X140150000Y-111625000D03*
X126375000Y-114725000D03*
X143750000Y-88200000D03*
X119500000Y-116825000D03*
X116300000Y-94625000D03*
X130325000Y-104825000D03*
%TO.N,NRST*%
X124350000Y-95025000D03*
X137500000Y-83525000D03*
X117500000Y-100700000D03*
X137500000Y-86950000D03*
%TO.N,Net-(D1-K)*%
X126000000Y-112225000D03*
X117850000Y-111700000D03*
%TO.N,Net-(D2-K)*%
X117950000Y-115990000D03*
X126000000Y-113800000D03*
%TO.N,/USBD+*%
X113625000Y-117600000D03*
X127525000Y-119150000D03*
%TO.N,SWDIO*%
X133425000Y-92425000D03*
X133175000Y-84625000D03*
X139125000Y-89100000D03*
%TO.N,/BOOT0*%
X126325000Y-93350000D03*
X128025000Y-95025000D03*
%TO.N,USART1_RX*%
X128400000Y-107075000D03*
X123300000Y-99350000D03*
%TO.N,USART1_TX*%
X125850000Y-107650000D03*
X122000000Y-98650000D03*
%TD*%
D40*
%TO.N,GND*%
X123100000Y-113425000D02*
X123125000Y-113400000D01*
X127200000Y-111475000D02*
X126175000Y-110450000D01*
X143735000Y-85207500D02*
X143735000Y-83937500D01*
X128325000Y-116025000D02*
X125750000Y-116025000D01*
X116050000Y-95400000D02*
X119345000Y-95400000D01*
X141990000Y-88485000D02*
X141990000Y-85927500D01*
X121075000Y-95370000D02*
X121100000Y-95345000D01*
X116025000Y-93025000D02*
X115400000Y-92400000D01*
X122164999Y-87875000D02*
X123155000Y-88865001D01*
D41*
X117350000Y-104050000D02*
X116860000Y-103560000D01*
D40*
X132925000Y-118050000D02*
X134000000Y-116975000D01*
X137125000Y-110675000D02*
X135775000Y-109325000D01*
X109140000Y-104780000D02*
X109140000Y-104710000D01*
X115768629Y-120925000D02*
X120500000Y-120925000D01*
X122900000Y-118525000D02*
X123075000Y-118525000D01*
X129570000Y-102045000D02*
X129875000Y-102350000D01*
X115625000Y-95825000D02*
X116050000Y-95400000D01*
X113200000Y-90700000D02*
X113200000Y-89300000D01*
X141750000Y-88725000D02*
X141990000Y-88485000D01*
X111325000Y-91020000D02*
X112880000Y-91020000D01*
X138875000Y-106075000D02*
X138875000Y-104550000D01*
X134949694Y-112725000D02*
X136700306Y-112725000D01*
X121075000Y-95195000D02*
X121100000Y-95170000D01*
X121100000Y-95170000D02*
X121455000Y-95525000D01*
X109140000Y-104710000D02*
X110600000Y-103250000D01*
X129570000Y-100850000D02*
X129570000Y-102045000D01*
X123155000Y-89175000D02*
X124240620Y-89175000D01*
X116700000Y-93025000D02*
X116025000Y-93025000D01*
X137125000Y-113200000D02*
X137125000Y-120475000D01*
X113200000Y-90700000D02*
X113300000Y-90700000D01*
X121050000Y-89895000D02*
X121050000Y-87875000D01*
X115000000Y-92400000D02*
X115400000Y-92400000D01*
X129550000Y-111425000D02*
X129525000Y-111400000D01*
X116730000Y-92400000D02*
X117200000Y-91930000D01*
X109140000Y-104780000D02*
X115640000Y-104780000D01*
X137125000Y-120475000D02*
X136375000Y-121225000D01*
X136700306Y-112725000D02*
X136700306Y-112775306D01*
X119550000Y-95195000D02*
X121075000Y-95195000D01*
X134000000Y-113674694D02*
X134949694Y-112725000D01*
X135775000Y-107875000D02*
X135800000Y-107850000D01*
X121050000Y-87875000D02*
X122164999Y-87875000D01*
X114900000Y-120056371D02*
X115768629Y-120925000D01*
X129337500Y-100617500D02*
X129570000Y-100850000D01*
X134000000Y-116975000D02*
X134000000Y-113674694D01*
X112880000Y-91020000D02*
X113200000Y-90700000D01*
X137125000Y-112300306D02*
X137125000Y-110675000D01*
X123155000Y-90325000D02*
X123155000Y-89175000D01*
X136700306Y-112775306D02*
X137125000Y-113200000D01*
X129550000Y-114000000D02*
X129550000Y-111425000D01*
X129475000Y-114075000D02*
X129550000Y-114000000D01*
X128400000Y-111400000D02*
X128325000Y-111475000D01*
X136700306Y-112725000D02*
X137125000Y-112300306D01*
X141537500Y-108737500D02*
X138875000Y-106075000D01*
X135775000Y-109325000D02*
X135775000Y-107875000D01*
X128325000Y-111475000D02*
X127200000Y-111475000D01*
X134325000Y-85500000D02*
X134325000Y-87350000D01*
X116860000Y-103560000D02*
X115640000Y-104780000D01*
X140312500Y-78125000D02*
X140337500Y-78150000D01*
X145075000Y-108737500D02*
X141537500Y-108737500D01*
X117585000Y-102835000D02*
X116860000Y-103560000D01*
X125750000Y-116025000D02*
X123125000Y-113400000D01*
X119345000Y-95400000D02*
X119550000Y-95195000D01*
D41*
X117525000Y-104050000D02*
X117350000Y-104050000D01*
D40*
X118065000Y-102835000D02*
X117585000Y-102835000D01*
X121125000Y-113425000D02*
X123100000Y-113425000D01*
X124837500Y-89771880D02*
X124837500Y-90612500D01*
X142710000Y-85207500D02*
X143735000Y-85207500D01*
X113300000Y-90700000D02*
X115000000Y-92400000D01*
X114900000Y-119025000D02*
X114900000Y-120056371D01*
X129525000Y-111400000D02*
X128400000Y-111400000D01*
X120500000Y-120925000D02*
X122900000Y-118525000D01*
X124240620Y-89175000D02*
X124837500Y-89771880D01*
X128325000Y-114075000D02*
X129475000Y-114075000D01*
X123155000Y-88865001D02*
X123155000Y-89175000D01*
X129337500Y-98937500D02*
X129337500Y-100617500D01*
X141990000Y-85927500D02*
X142710000Y-85207500D01*
X140312500Y-76400000D02*
X140312500Y-78125000D01*
X140337500Y-78150000D02*
X141925000Y-78150000D01*
X138875000Y-104550000D02*
X138900000Y-104525000D01*
X121455000Y-95525000D02*
X122925000Y-95525000D01*
X115400000Y-92400000D02*
X116730000Y-92400000D01*
%TO.N,+3.3V*%
X124325000Y-90625000D02*
X124337500Y-90612500D01*
X121475000Y-92025000D02*
X121050000Y-91600000D01*
X143750000Y-88200000D02*
X143750000Y-86492500D01*
X145345000Y-112940000D02*
X145325000Y-112960000D01*
X132575000Y-87675000D02*
X132550000Y-87650000D01*
X119975000Y-111475000D02*
X121125000Y-111475000D01*
D42*
X142075000Y-111625000D02*
X143410000Y-112960000D01*
D40*
X130325000Y-104825000D02*
X130975000Y-104825000D01*
X152000000Y-112940000D02*
X150704318Y-112940000D01*
D42*
X131425000Y-105275000D02*
X131425000Y-102350000D01*
D40*
X116312500Y-94612500D02*
X116300000Y-94625000D01*
D42*
X131425000Y-107275000D02*
X131425000Y-105275000D01*
D40*
X130530000Y-100850000D02*
X130530000Y-99630000D01*
X130530000Y-100850000D02*
X130530000Y-101455000D01*
X132242587Y-114725000D02*
X135342587Y-111625000D01*
X111865000Y-111375000D02*
X111865000Y-116275000D01*
X122925000Y-92025000D02*
X121475000Y-92025000D01*
X140875000Y-121225000D02*
X140875000Y-117410000D01*
D42*
X143839318Y-106075000D02*
X140775000Y-106075000D01*
D40*
X140150000Y-111625000D02*
X142075000Y-111625000D01*
D42*
X145644999Y-112960000D02*
X146125000Y-112479999D01*
D40*
X133675000Y-111625000D02*
X135775000Y-111625000D01*
X132575000Y-88725000D02*
X132575000Y-87675000D01*
X119205000Y-110705000D02*
X119975000Y-111475000D01*
X135342587Y-111625000D02*
X135775000Y-111625000D01*
X121050000Y-90855000D02*
X121050000Y-91600000D01*
X119500000Y-111925000D02*
X119500000Y-116825000D01*
X128325000Y-114725000D02*
X132242587Y-114725000D01*
X140875000Y-117410000D02*
X145325000Y-112960000D01*
X111865000Y-111375000D02*
X112535000Y-110705000D01*
X121665000Y-90855000D02*
X122195000Y-90325000D01*
X143750000Y-86492500D02*
X143735000Y-86477500D01*
X124325000Y-92025000D02*
X122925000Y-92025000D01*
D42*
X135775000Y-111625000D02*
X131425000Y-107275000D01*
D40*
X130530000Y-101455000D02*
X131425000Y-102350000D01*
D42*
X143410000Y-112960000D02*
X145325000Y-112960000D01*
X146125000Y-112479999D02*
X146125000Y-108360682D01*
X145325000Y-112960000D02*
X145644999Y-112960000D01*
D40*
X121125000Y-111475000D02*
X119950000Y-111475000D01*
X124325000Y-92025000D02*
X124325000Y-90625000D01*
D42*
X146125000Y-108360682D02*
X143839318Y-106075000D01*
D40*
X150704318Y-112940000D02*
X146125000Y-108360682D01*
X130530000Y-99630000D02*
X129837500Y-98937500D01*
X119950000Y-111475000D02*
X119500000Y-111925000D01*
X112535000Y-110705000D02*
X119205000Y-110705000D01*
X130975000Y-104825000D02*
X131425000Y-105275000D01*
X121050000Y-90855000D02*
X121665000Y-90855000D01*
X122195000Y-90325000D02*
X122195000Y-89175000D01*
X117650000Y-94612500D02*
X116312500Y-94612500D01*
X126375000Y-114725000D02*
X128325000Y-114725000D01*
%TO.N,+3.3VA*%
X119517500Y-96187500D02*
X119550000Y-96155000D01*
X121075000Y-96330000D02*
X121100000Y-96305000D01*
X121100000Y-96130000D02*
X121205000Y-96025000D01*
X119550000Y-96155000D02*
X121075000Y-96155000D01*
X121205000Y-96025000D02*
X122925000Y-96025000D01*
X121075000Y-96155000D02*
X121100000Y-96130000D01*
X117650000Y-96187500D02*
X119517500Y-96187500D01*
%TO.N,NRST*%
X137500000Y-82537500D02*
X138640000Y-81397500D01*
X116867500Y-101507500D02*
X116867500Y-101332500D01*
X138640000Y-81397500D02*
X139665000Y-81397500D01*
X135225000Y-90300000D02*
X131490620Y-90300000D01*
X116867500Y-101332500D02*
X117500000Y-100700000D01*
X117235000Y-101875000D02*
X116867500Y-101507500D01*
X116867500Y-101507500D02*
X115640000Y-100280000D01*
X137500000Y-86950000D02*
X137500000Y-88025000D01*
X124350000Y-95025000D02*
X122925000Y-95025000D01*
X137500000Y-83525000D02*
X137500000Y-82537500D01*
X118065000Y-101875000D02*
X117235000Y-101875000D01*
X137500000Y-88025000D02*
X135225000Y-90300000D01*
X115640000Y-100280000D02*
X109140000Y-100280000D01*
X131490620Y-90300000D02*
X126765620Y-95025000D01*
X126765620Y-95025000D02*
X124350000Y-95025000D01*
%TO.N,HSE_OUT*%
X113200000Y-92400000D02*
X114625000Y-93825000D01*
X112780000Y-91980000D02*
X113200000Y-92400000D01*
X120094739Y-94525000D02*
X122925000Y-94525000D01*
X119394739Y-93825000D02*
X120094739Y-94525000D01*
X111325000Y-91980000D02*
X112780000Y-91980000D01*
X114625000Y-93825000D02*
X119394739Y-93825000D01*
%TO.N,HSE_IN*%
X115400000Y-90700000D02*
X116930000Y-90700000D01*
X117246846Y-90970000D02*
X120301846Y-94025000D01*
X120301846Y-94025000D02*
X122925000Y-94025000D01*
X116930000Y-90700000D02*
X117200000Y-90970000D01*
X117200000Y-90970000D02*
X117246846Y-90970000D01*
%TO.N,VBUS*%
X112375000Y-120025000D02*
X112375000Y-119100000D01*
X116625000Y-124275000D02*
X123825000Y-124275000D01*
X112375000Y-120025000D02*
X116625000Y-124275000D01*
D42*
X132862500Y-116087500D02*
X132925000Y-116150000D01*
D40*
X129775000Y-116912500D02*
X130600000Y-116087500D01*
D42*
X130600000Y-116087500D02*
X132862500Y-116087500D01*
D40*
X129775000Y-118325000D02*
X129775000Y-116912500D01*
X112375000Y-119100000D02*
X112300000Y-119025000D01*
X123825000Y-124275000D02*
X129775000Y-118325000D01*
%TO.N,/TXLED*%
X114087500Y-111375000D02*
X114412500Y-111700000D01*
X112885000Y-111375000D02*
X114087500Y-111375000D01*
%TO.N,Net-(D1-K)*%
X115987500Y-111700000D02*
X117850000Y-111700000D01*
D41*
X126550000Y-112775000D02*
X128325000Y-112775000D01*
X126000000Y-112225000D02*
X126550000Y-112775000D01*
D40*
%TO.N,Net-(D2-K)*%
X128250000Y-113500000D02*
X128325000Y-113425000D01*
D41*
X126000000Y-113800000D02*
X126375000Y-113425000D01*
D40*
X117940000Y-116000000D02*
X117950000Y-115990000D01*
D41*
X126375000Y-113425000D02*
X128325000Y-113425000D01*
D40*
X115987500Y-116000000D02*
X117940000Y-116000000D01*
%TO.N,/RXLED*%
X114137500Y-116275000D02*
X114412500Y-116000000D01*
X112885000Y-116275000D02*
X114137500Y-116275000D01*
%TO.N,/PWRLED*%
X145075000Y-111690000D02*
X145325000Y-111940000D01*
X145075000Y-110312500D02*
X145075000Y-111690000D01*
D42*
%TO.N,Net-(U3-VI)*%
X131937500Y-119000000D02*
X130600000Y-117662500D01*
X135775000Y-116921878D02*
X133696878Y-119000000D01*
X133696878Y-119000000D02*
X131937500Y-119000000D01*
X135775000Y-113925000D02*
X135775000Y-116921878D01*
D40*
%TO.N,/USBD+*%
X127525000Y-119150000D02*
X127525000Y-118775000D01*
X127525000Y-118775000D02*
X128325000Y-117975000D01*
X113600000Y-119025000D02*
X113600000Y-117625000D01*
X113600000Y-117625000D02*
X113625000Y-117600000D01*
%TO.N,/USBD-*%
X114682106Y-121625000D02*
X122325000Y-121625000D01*
X112950000Y-119025000D02*
X112950000Y-119892894D01*
X112950000Y-119892894D02*
X114682106Y-121625000D01*
X122325000Y-121625000D02*
X126625000Y-117325000D01*
X126625000Y-117325000D02*
X128325000Y-117325000D01*
%TO.N,TIM1_CH2*%
X131250000Y-95025000D02*
X149325000Y-95025000D01*
X149325000Y-95025000D02*
X152000000Y-97700000D01*
%TO.N,PB15*%
X131250000Y-96025000D02*
X145245000Y-96025000D01*
X145245000Y-96025000D02*
X152000000Y-102780000D01*
%TO.N,TIM1_CH3*%
X151365000Y-94525000D02*
X152000000Y-95160000D01*
X131250000Y-94525000D02*
X151365000Y-94525000D01*
%TO.N,PF6*%
X133315620Y-91300000D02*
X139426345Y-91300000D01*
X140475000Y-90251345D02*
X149288655Y-90251345D01*
X131250000Y-92525000D02*
X132090620Y-92525000D01*
X139426345Y-91300000D02*
X140475000Y-90251345D01*
X149288655Y-90251345D02*
X152000000Y-87540000D01*
X132090620Y-92525000D02*
X133315620Y-91300000D01*
%TO.N,PF7*%
X147250000Y-89750000D02*
X152000000Y-85000000D01*
X132475000Y-90800000D02*
X139219239Y-90800000D01*
X131250000Y-92025000D02*
X132475000Y-90800000D01*
X140269239Y-89750000D02*
X147250000Y-89750000D01*
X139219239Y-90800000D02*
X140269239Y-89750000D01*
%TO.N,PA12*%
X148555000Y-93525000D02*
X152000000Y-90080000D01*
X131250000Y-93525000D02*
X148555000Y-93525000D01*
%TO.N,PB13*%
X131250000Y-97025000D02*
X141165000Y-97025000D01*
X141165000Y-97025000D02*
X152000000Y-107860000D01*
%TO.N,PB12*%
X131250000Y-97525000D02*
X139125000Y-97525000D01*
X139125000Y-97525000D02*
X152000000Y-110400000D01*
%TO.N,TIM1_CH1*%
X147285000Y-95525000D02*
X152000000Y-100240000D01*
X131250000Y-95525000D02*
X147285000Y-95525000D01*
%TO.N,PB14*%
X131250000Y-96525000D02*
X143205000Y-96525000D01*
X143205000Y-96525000D02*
X152000000Y-105320000D01*
%TO.N,PA11*%
X150595000Y-94025000D02*
X152000000Y-92620000D01*
X131250000Y-94025000D02*
X150595000Y-94025000D01*
%TO.N,SWCLK*%
X132945000Y-89800000D02*
X133745000Y-89000000D01*
X133745000Y-89000000D02*
X134325000Y-89000000D01*
X138117500Y-85207500D02*
X139665000Y-85207500D01*
X130650000Y-89800000D02*
X132945000Y-89800000D01*
X134325000Y-89000000D02*
X138117500Y-85207500D01*
X129837500Y-90612500D02*
X130650000Y-89800000D01*
D41*
%TO.N,SWDIO*%
X141360000Y-80727500D02*
X141360000Y-85877500D01*
X140760000Y-86477500D02*
X139665000Y-86477500D01*
X133175000Y-84625000D02*
X137072500Y-80727500D01*
X132550000Y-85250000D02*
X133175000Y-84625000D01*
D40*
X132825000Y-93025000D02*
X133425000Y-92425000D01*
D41*
X132550000Y-86000000D02*
X132550000Y-85250000D01*
D40*
X140860000Y-86477500D02*
X139665000Y-86477500D01*
X141410000Y-80677500D02*
X141410000Y-85927500D01*
X139125000Y-89100000D02*
X139125000Y-87017500D01*
X131250000Y-93025000D02*
X132825000Y-93025000D01*
D41*
X137072500Y-80727500D02*
X141360000Y-80727500D01*
X141360000Y-85877500D02*
X140760000Y-86477500D01*
D40*
X139125000Y-87017500D02*
X139665000Y-86477500D01*
X141410000Y-85927500D02*
X140860000Y-86477500D01*
%TO.N,PB2*%
X124142208Y-104716053D02*
X127837500Y-101020761D01*
X121175000Y-104716053D02*
X124142208Y-104716053D01*
X102270000Y-108130000D02*
X117761053Y-108130000D01*
X117761053Y-108130000D02*
X121175000Y-104716053D01*
X127837500Y-101020761D02*
X127837500Y-98937500D01*
X102000000Y-107860000D02*
X102270000Y-108130000D01*
%TO.N,PB0*%
X123794047Y-103650000D02*
X120725000Y-103650000D01*
X126837500Y-98937500D02*
X126837500Y-100606547D01*
X108155000Y-107130000D02*
X103805000Y-102780000D01*
X126837500Y-100606547D02*
X123794047Y-103650000D01*
X120725000Y-103650000D02*
X117245000Y-107130000D01*
X103805000Y-102780000D02*
X102000000Y-102780000D01*
X117245000Y-107130000D02*
X108155000Y-107130000D01*
%TO.N,I2C_SDA*%
X124469843Y-105802632D02*
X128837500Y-101434975D01*
X105810000Y-109130000D02*
X118175265Y-109130000D01*
X118175265Y-109130000D02*
X121502633Y-105802632D01*
X128837500Y-101434975D02*
X128837500Y-98937500D01*
X102000000Y-112940000D02*
X105810000Y-109130000D01*
X121502633Y-105802632D02*
X124469843Y-105802632D01*
%TO.N,SPI_SCK*%
X124372727Y-100950000D02*
X119000000Y-100950000D01*
X114600000Y-98475000D02*
X111285000Y-95160000D01*
X125337500Y-98937500D02*
X125337500Y-99985227D01*
X111285000Y-95160000D02*
X102000000Y-95160000D01*
X125337500Y-99985227D02*
X124372727Y-100950000D01*
X116525000Y-98475000D02*
X114600000Y-98475000D01*
X119000000Y-100950000D02*
X116525000Y-98475000D01*
%TO.N,ADC_IN0*%
X122925000Y-96525000D02*
X121711846Y-96525000D01*
X105878154Y-87540000D02*
X102000000Y-87540000D01*
X121711846Y-96525000D02*
X121261846Y-96975000D01*
X115313154Y-96975000D02*
X105878154Y-87540000D01*
X121261846Y-96975000D02*
X115313154Y-96975000D01*
%TO.N,PC15*%
X120842893Y-93525000D02*
X112317893Y-85000000D01*
X122925000Y-93525000D02*
X120842893Y-93525000D01*
X112317893Y-85000000D02*
X102000000Y-85000000D01*
%TO.N,I2C_SCL*%
X103770000Y-108630000D02*
X117968159Y-108630000D01*
X102000000Y-110400000D02*
X103770000Y-108630000D01*
X128337500Y-101227868D02*
X128337500Y-98937500D01*
X117968159Y-108630000D02*
X121382106Y-105216053D01*
X121382106Y-105216053D02*
X124349315Y-105216053D01*
X124349315Y-105216053D02*
X128337500Y-101227868D01*
%TO.N,PA4*%
X109520000Y-92620000D02*
X102000000Y-92620000D01*
X124837500Y-99778120D02*
X124165620Y-100450000D01*
X124837500Y-98937500D02*
X124837500Y-99778120D01*
X122380761Y-100450000D02*
X119905761Y-97975000D01*
X124165620Y-100450000D02*
X122380761Y-100450000D01*
X119905761Y-97975000D02*
X114875000Y-97975000D01*
X114875000Y-97975000D02*
X109520000Y-92620000D01*
%TO.N,SPI_MISO*%
X120264239Y-102650000D02*
X116784239Y-106130000D01*
X108580811Y-106130000D02*
X107325000Y-104874189D01*
X107325000Y-104874189D02*
X107325000Y-99900000D01*
X107325000Y-99900000D02*
X105125000Y-97700000D01*
X125837500Y-98937500D02*
X125837500Y-100192333D01*
X123379833Y-102650000D02*
X120264239Y-102650000D01*
X125837500Y-100192333D02*
X123379833Y-102650000D01*
X116784239Y-106130000D02*
X108580811Y-106130000D01*
X105125000Y-97700000D02*
X102000000Y-97700000D01*
%TO.N,SPI_MOSI*%
X126337500Y-100399440D02*
X123586940Y-103150000D01*
X123586940Y-103150000D02*
X120471346Y-103150000D01*
X116991346Y-106630000D02*
X108373704Y-106630000D01*
X120471346Y-103150000D02*
X116991346Y-106630000D01*
X104865000Y-100240000D02*
X106825000Y-102200000D01*
X106825000Y-102200000D02*
X106825000Y-105081296D01*
X126337500Y-98937500D02*
X126337500Y-100399440D01*
X102000000Y-100240000D02*
X104865000Y-100240000D01*
X108373704Y-106630000D02*
X106825000Y-105081296D01*
%TO.N,ADC_IN1*%
X121918952Y-97025000D02*
X121468952Y-97475000D01*
X122925000Y-97025000D02*
X121918952Y-97025000D01*
X107711048Y-90080000D02*
X102000000Y-90080000D01*
X115106048Y-97475000D02*
X107711048Y-90080000D01*
X121468952Y-97475000D02*
X115106048Y-97475000D01*
%TO.N,PB1*%
X127337500Y-100813654D02*
X123935101Y-104216053D01*
X120866053Y-104216053D02*
X117452106Y-107630000D01*
X102000000Y-105320000D02*
X105320000Y-105320000D01*
X127337500Y-98937500D02*
X127337500Y-100813654D01*
X123935101Y-104216053D02*
X120866053Y-104216053D01*
X117452106Y-107630000D02*
X107630000Y-107630000D01*
X105320000Y-105320000D02*
X107630000Y-107630000D01*
%TO.N,PB5*%
X127837500Y-90612500D02*
X127837500Y-80544606D01*
X127837500Y-80544606D02*
X130320000Y-78062106D01*
X130320000Y-78062106D02*
X130320000Y-77000000D01*
%TO.N,PB7*%
X126837500Y-86007500D02*
X126837500Y-90612500D01*
X125240000Y-84410000D02*
X126837500Y-86007500D01*
X125240000Y-77000000D02*
X125240000Y-84410000D01*
%TO.N,PB6*%
X127337500Y-80337500D02*
X127780000Y-79895000D01*
X127780000Y-79895000D02*
X127780000Y-77000000D01*
X127337500Y-90612500D02*
X127337500Y-80337500D01*
%TO.N,PC14*%
X119635786Y-91600000D02*
X119625000Y-91600000D01*
X119625000Y-88707106D02*
X110000000Y-79082106D01*
X122925000Y-93025000D02*
X121060786Y-93025000D01*
X119625000Y-91600000D02*
X119625000Y-88707106D01*
X110000000Y-79082106D02*
X110000000Y-77000000D01*
X121060786Y-93025000D02*
X119635786Y-91600000D01*
%TO.N,PB4*%
X128337500Y-81522500D02*
X132860000Y-77000000D01*
X128337500Y-90612500D02*
X128337500Y-81522500D01*
%TO.N,PB9*%
X120160000Y-82710000D02*
X120160000Y-77000000D01*
X125337500Y-90612500D02*
X125337500Y-87887500D01*
X125337500Y-87887500D02*
X120160000Y-82710000D01*
%TO.N,PB8*%
X122700000Y-83675000D02*
X125837500Y-86812500D01*
X122700000Y-83675000D02*
X122700000Y-77000000D01*
X125837500Y-86812500D02*
X125837500Y-90612500D01*
%TO.N,PC13*%
X121267893Y-92525000D02*
X120150000Y-91407107D01*
X120150000Y-91407107D02*
X120150000Y-88525000D01*
X120150000Y-88525000D02*
X112540000Y-80915000D01*
X112540000Y-80915000D02*
X112540000Y-77000000D01*
X122925000Y-92525000D02*
X121267893Y-92525000D01*
%TO.N,Net-(LED1-A)*%
X129075000Y-86062500D02*
X138737500Y-76400000D01*
X129075000Y-87690000D02*
X129075000Y-86062500D01*
%TO.N,Net-(LED2-A)*%
X130175000Y-86255761D02*
X138280761Y-78150000D01*
X138280761Y-78150000D02*
X138762500Y-78150000D01*
X130175000Y-87690000D02*
X130175000Y-86255761D01*
%TO.N,/SW_BOOT0*%
X139375000Y-109050000D02*
X139375000Y-121225000D01*
X136925000Y-106600000D02*
X139375000Y-109050000D01*
%TO.N,/BOOT0*%
X136925000Y-104684380D02*
X136925000Y-105580000D01*
X128025000Y-95784380D02*
X136925000Y-104684380D01*
X126325000Y-93350000D02*
X126337500Y-93337500D01*
X126337500Y-93337500D02*
X126337500Y-90612500D01*
X128025000Y-95025000D02*
X128025000Y-95784380D01*
%TO.N,LED1*%
X128837500Y-90612500D02*
X128837500Y-88947500D01*
X128837500Y-88947500D02*
X129075000Y-88710000D01*
%TO.N,LED2*%
X129337500Y-89547500D02*
X130175000Y-88710000D01*
X129337500Y-90612500D02*
X129337500Y-89547500D01*
%TO.N,USART1_RX*%
X127750000Y-106425000D02*
X124225000Y-106425000D01*
X124337500Y-98937500D02*
X123712500Y-98937500D01*
X123712500Y-98937500D02*
X123300000Y-99350000D01*
X124225000Y-106425000D02*
X121125000Y-109525000D01*
X128400000Y-107075000D02*
X127750000Y-106425000D01*
%TO.N,USART1_TX*%
X122275000Y-112125000D02*
X121125000Y-112125000D01*
X125800000Y-108600000D02*
X125800000Y-107700000D01*
X125800000Y-108600000D02*
X122275000Y-112125000D01*
D41*
X122925000Y-97525000D02*
X122925000Y-97725000D01*
D40*
X125800000Y-107700000D02*
X125850000Y-107650000D01*
D41*
X122925000Y-97725000D02*
X122000000Y-98650000D01*
%TD*%
%TA.AperFunction,Conductor*%
%TO.N,GND*%
G36*
X152001374Y-72000015D02*
G01*
X152010696Y-72000116D01*
X152208699Y-72002276D01*
X152227673Y-72003208D01*
X152642114Y-72039467D01*
X152663640Y-72042301D01*
X153072013Y-72114308D01*
X153093207Y-72119007D01*
X153493743Y-72226331D01*
X153514460Y-72232862D01*
X153904114Y-72374684D01*
X153924183Y-72382997D01*
X154300001Y-72558243D01*
X154319264Y-72568272D01*
X154678356Y-72775594D01*
X154696674Y-72787263D01*
X155036362Y-73025116D01*
X155053589Y-73038335D01*
X155371225Y-73304863D01*
X155387241Y-73319538D01*
X155680461Y-73612758D01*
X155695136Y-73628774D01*
X155961664Y-73946410D01*
X155974888Y-73963643D01*
X156212734Y-74303322D01*
X156224405Y-74321643D01*
X156431727Y-74680735D01*
X156441758Y-74700003D01*
X156617002Y-75075816D01*
X156625315Y-75095885D01*
X156767137Y-75485539D01*
X156773668Y-75506256D01*
X156880992Y-75906792D01*
X156885694Y-75928000D01*
X156957697Y-76336354D01*
X156960532Y-76357890D01*
X156996790Y-76772320D01*
X156997723Y-76791305D01*
X156999985Y-76998623D01*
X157000000Y-77001340D01*
X157000000Y-119998659D01*
X156999985Y-120001376D01*
X156997723Y-120208694D01*
X156996790Y-120227679D01*
X156960532Y-120642109D01*
X156957697Y-120663645D01*
X156885694Y-121071999D01*
X156880992Y-121093207D01*
X156773668Y-121493743D01*
X156767137Y-121514460D01*
X156625315Y-121904114D01*
X156617002Y-121924183D01*
X156441758Y-122299996D01*
X156431727Y-122319264D01*
X156224405Y-122678356D01*
X156212734Y-122696677D01*
X155974888Y-123036356D01*
X155961664Y-123053589D01*
X155695136Y-123371225D01*
X155680461Y-123387241D01*
X155387241Y-123680461D01*
X155371225Y-123695136D01*
X155053589Y-123961664D01*
X155036356Y-123974888D01*
X154696677Y-124212734D01*
X154678356Y-124224405D01*
X154319264Y-124431727D01*
X154299996Y-124441758D01*
X153924183Y-124617002D01*
X153904114Y-124625315D01*
X153514460Y-124767137D01*
X153493743Y-124773668D01*
X153093207Y-124880992D01*
X153071999Y-124885694D01*
X152663645Y-124957697D01*
X152642109Y-124960532D01*
X152227679Y-124996790D01*
X152208694Y-124997723D01*
X152003889Y-124999957D01*
X152001374Y-124999985D01*
X151998659Y-125000000D01*
X143475724Y-125000000D01*
X143380436Y-124981046D01*
X143299654Y-124927070D01*
X143245678Y-124846288D01*
X143226724Y-124751000D01*
X143242423Y-124663985D01*
X143269091Y-124592483D01*
X143270978Y-124574930D01*
X143275500Y-124532873D01*
X143275499Y-123637128D01*
X143269091Y-123577517D01*
X143218796Y-123442669D01*
X143132546Y-123327454D01*
X143017331Y-123241204D01*
X143017330Y-123241203D01*
X143017328Y-123241202D01*
X142942516Y-123213299D01*
X142859859Y-123162240D01*
X142803034Y-123083437D01*
X142780692Y-122988886D01*
X142796233Y-122892982D01*
X142847292Y-122810325D01*
X142926095Y-122753500D01*
X142942479Y-122746713D01*
X143017331Y-122718796D01*
X143132546Y-122632546D01*
X143218796Y-122517331D01*
X143269091Y-122382483D01*
X143275500Y-122322873D01*
X143275499Y-121427128D01*
X143269091Y-121367517D01*
X143218796Y-121232669D01*
X143132546Y-121117454D01*
X143017331Y-121031204D01*
X142937117Y-121001286D01*
X142882481Y-120980908D01*
X142822876Y-120974500D01*
X141974499Y-120974500D01*
X141879211Y-120955546D01*
X141798429Y-120901570D01*
X141744453Y-120820788D01*
X141725499Y-120725500D01*
X141725499Y-120427134D01*
X141725499Y-120427128D01*
X141719091Y-120367517D01*
X141668796Y-120232669D01*
X141665060Y-120227679D01*
X141575166Y-120107595D01*
X141533235Y-120019955D01*
X141525500Y-119958374D01*
X141525500Y-119893703D01*
X150649500Y-119893703D01*
X150649500Y-120106296D01*
X150682753Y-120316240D01*
X150741069Y-120495719D01*
X150748443Y-120518412D01*
X150844949Y-120707816D01*
X150969896Y-120879792D01*
X151120208Y-121030104D01*
X151292184Y-121155051D01*
X151481588Y-121251557D01*
X151683757Y-121317246D01*
X151757601Y-121328941D01*
X151893703Y-121350499D01*
X151893710Y-121350499D01*
X151893713Y-121350500D01*
X151893716Y-121350500D01*
X152106284Y-121350500D01*
X152106287Y-121350500D01*
X152106290Y-121350499D01*
X152106296Y-121350499D01*
X152205476Y-121334789D01*
X152316243Y-121317246D01*
X152518412Y-121251557D01*
X152707816Y-121155051D01*
X152879792Y-121030104D01*
X153030104Y-120879792D01*
X153155051Y-120707816D01*
X153251557Y-120518412D01*
X153317246Y-120316243D01*
X153340553Y-120169091D01*
X153350499Y-120106296D01*
X153350500Y-120106284D01*
X153350500Y-119893715D01*
X153350499Y-119893703D01*
X153317246Y-119683757D01*
X153317245Y-119683753D01*
X153251558Y-119481592D01*
X153251557Y-119481588D01*
X153155051Y-119292184D01*
X153030104Y-119120208D01*
X152879792Y-118969896D01*
X152707816Y-118844949D01*
X152518412Y-118748443D01*
X152518409Y-118748442D01*
X152518407Y-118748441D01*
X152316240Y-118682753D01*
X152106296Y-118649500D01*
X152106287Y-118649500D01*
X151893713Y-118649500D01*
X151893703Y-118649500D01*
X151683759Y-118682753D01*
X151481592Y-118748441D01*
X151292182Y-118844950D01*
X151120206Y-118969897D01*
X150969897Y-119120206D01*
X150844950Y-119292182D01*
X150748441Y-119481592D01*
X150682755Y-119683753D01*
X150682753Y-119683757D01*
X150649500Y-119893703D01*
X141525500Y-119893703D01*
X141525500Y-117782585D01*
X141544454Y-117687297D01*
X141598428Y-117606517D01*
X145401516Y-113803428D01*
X145482298Y-113749453D01*
X145569343Y-113732138D01*
X145569287Y-113730691D01*
X145574159Y-113730499D01*
X145574180Y-113730499D01*
X145610204Y-113727665D01*
X145635255Y-113720387D01*
X145704724Y-113710500D01*
X145718918Y-113710500D01*
X145718918Y-113710499D01*
X145863912Y-113681658D01*
X146000494Y-113625084D01*
X146059734Y-113585501D01*
X146123415Y-113542952D01*
X146707952Y-112958415D01*
X146763353Y-112875500D01*
X146790084Y-112835494D01*
X146846658Y-112698912D01*
X146875500Y-112553917D01*
X146875500Y-110632268D01*
X146894454Y-110536980D01*
X146948430Y-110456198D01*
X147029212Y-110402222D01*
X147124500Y-110383268D01*
X147219788Y-110402222D01*
X147300570Y-110456198D01*
X150289649Y-113445277D01*
X150332454Y-113473878D01*
X150396191Y-113516466D01*
X150396195Y-113516468D01*
X150444474Y-113536465D01*
X150444479Y-113536466D01*
X150514574Y-113565501D01*
X150640247Y-113590499D01*
X150640248Y-113590500D01*
X150640249Y-113590500D01*
X150677207Y-113590500D01*
X150772495Y-113609454D01*
X150853277Y-113663430D01*
X150881174Y-113696676D01*
X150961505Y-113811401D01*
X151128599Y-113978495D01*
X151322170Y-114114035D01*
X151536337Y-114213903D01*
X151764592Y-114275063D01*
X151764595Y-114275063D01*
X151764598Y-114275064D01*
X151999995Y-114295659D01*
X152000000Y-114295659D01*
X152000005Y-114295659D01*
X152235401Y-114275064D01*
X152235403Y-114275063D01*
X152235408Y-114275063D01*
X152463663Y-114213903D01*
X152677830Y-114114035D01*
X152871401Y-113978495D01*
X153038495Y-113811401D01*
X153174035Y-113617830D01*
X153273903Y-113403663D01*
X153335063Y-113175408D01*
X153336020Y-113164474D01*
X153355659Y-112940005D01*
X153355659Y-112939994D01*
X153335064Y-112704598D01*
X153335063Y-112704593D01*
X153335063Y-112704592D01*
X153273903Y-112476337D01*
X153205272Y-112329158D01*
X153174038Y-112262177D01*
X153174034Y-112262169D01*
X153112447Y-112174214D01*
X153038495Y-112068599D01*
X152871401Y-111901505D01*
X152832074Y-111873967D01*
X152764891Y-111803789D01*
X152729678Y-111713240D01*
X152731797Y-111616108D01*
X152770925Y-111527181D01*
X152832073Y-111466032D01*
X152871401Y-111438495D01*
X153038495Y-111271401D01*
X153174035Y-111077830D01*
X153273903Y-110863663D01*
X153335063Y-110635408D01*
X153335064Y-110635401D01*
X153355659Y-110400005D01*
X153355659Y-110399994D01*
X153335064Y-110164598D01*
X153335063Y-110164595D01*
X153335063Y-110164592D01*
X153273903Y-109936337D01*
X153221236Y-109823393D01*
X153174038Y-109722177D01*
X153174034Y-109722169D01*
X153109098Y-109629431D01*
X153038495Y-109528599D01*
X152871401Y-109361505D01*
X152832074Y-109333967D01*
X152764891Y-109263789D01*
X152729678Y-109173240D01*
X152731797Y-109076108D01*
X152770925Y-108987181D01*
X152832073Y-108926032D01*
X152871401Y-108898495D01*
X153038495Y-108731401D01*
X153174035Y-108537830D01*
X153273903Y-108323663D01*
X153335063Y-108095408D01*
X153335064Y-108095401D01*
X153355659Y-107860005D01*
X153355659Y-107859994D01*
X153335064Y-107624598D01*
X153335063Y-107624595D01*
X153335063Y-107624592D01*
X153273903Y-107396337D01*
X153224316Y-107289998D01*
X153174038Y-107182177D01*
X153174034Y-107182169D01*
X153112615Y-107094454D01*
X153038495Y-106988599D01*
X152871401Y-106821505D01*
X152832074Y-106793967D01*
X152764891Y-106723789D01*
X152729678Y-106633240D01*
X152731797Y-106536108D01*
X152770925Y-106447181D01*
X152832073Y-106386032D01*
X152871401Y-106358495D01*
X153038495Y-106191401D01*
X153174035Y-105997830D01*
X153273903Y-105783663D01*
X153335063Y-105555408D01*
X153335537Y-105549991D01*
X153355659Y-105320005D01*
X153355659Y-105319994D01*
X153335064Y-105084598D01*
X153335063Y-105084595D01*
X153335063Y-105084592D01*
X153273903Y-104856337D01*
X153186779Y-104669500D01*
X153174038Y-104642177D01*
X153174034Y-104642169D01*
X153118823Y-104563320D01*
X153038495Y-104448599D01*
X152871401Y-104281505D01*
X152832074Y-104253967D01*
X152764891Y-104183789D01*
X152729678Y-104093240D01*
X152731797Y-103996108D01*
X152770925Y-103907181D01*
X152832073Y-103846032D01*
X152871401Y-103818495D01*
X153038495Y-103651401D01*
X153174035Y-103457830D01*
X153273903Y-103243663D01*
X153335063Y-103015408D01*
X153335064Y-103015401D01*
X153355659Y-102780005D01*
X153355659Y-102779994D01*
X153335064Y-102544598D01*
X153335063Y-102544595D01*
X153335063Y-102544592D01*
X153273903Y-102316337D01*
X153193878Y-102144724D01*
X153174038Y-102102177D01*
X153174034Y-102102169D01*
X153069089Y-101952292D01*
X153038495Y-101908599D01*
X152871401Y-101741505D01*
X152832074Y-101713967D01*
X152764891Y-101643789D01*
X152729678Y-101553240D01*
X152731797Y-101456108D01*
X152770925Y-101367181D01*
X152832073Y-101306032D01*
X152871401Y-101278495D01*
X153038495Y-101111401D01*
X153174035Y-100917830D01*
X153273903Y-100703663D01*
X153335063Y-100475408D01*
X153339210Y-100428010D01*
X153355659Y-100240005D01*
X153355659Y-100239994D01*
X153335064Y-100004598D01*
X153335063Y-100004595D01*
X153335063Y-100004592D01*
X153273903Y-99776337D01*
X153185191Y-99586095D01*
X153174038Y-99562177D01*
X153174034Y-99562169D01*
X153074239Y-99419647D01*
X153038495Y-99368599D01*
X152871401Y-99201505D01*
X152832074Y-99173967D01*
X152764891Y-99103789D01*
X152729678Y-99013240D01*
X152731797Y-98916108D01*
X152770925Y-98827181D01*
X152832073Y-98766032D01*
X152871401Y-98738495D01*
X153038495Y-98571401D01*
X153174035Y-98377830D01*
X153273903Y-98163663D01*
X153335063Y-97935408D01*
X153335064Y-97935401D01*
X153355659Y-97700005D01*
X153355659Y-97699994D01*
X153335064Y-97464598D01*
X153335063Y-97464595D01*
X153335063Y-97464592D01*
X153273903Y-97236337D01*
X153186779Y-97049500D01*
X153174038Y-97022177D01*
X153174034Y-97022169D01*
X153118823Y-96943320D01*
X153038495Y-96828599D01*
X152871401Y-96661505D01*
X152832074Y-96633967D01*
X152764891Y-96563789D01*
X152729678Y-96473240D01*
X152731797Y-96376108D01*
X152770925Y-96287181D01*
X152832073Y-96226032D01*
X152871401Y-96198495D01*
X153038495Y-96031401D01*
X153174035Y-95837830D01*
X153273903Y-95623663D01*
X153335063Y-95395408D01*
X153335064Y-95395401D01*
X153355659Y-95160005D01*
X153355659Y-95159994D01*
X153335064Y-94924598D01*
X153335063Y-94924595D01*
X153335063Y-94924592D01*
X153273903Y-94696337D01*
X153192764Y-94522335D01*
X153174038Y-94482177D01*
X153174034Y-94482169D01*
X153117524Y-94401465D01*
X153038495Y-94288599D01*
X152871401Y-94121505D01*
X152832074Y-94093967D01*
X152764891Y-94023789D01*
X152729678Y-93933240D01*
X152731797Y-93836108D01*
X152770925Y-93747181D01*
X152832073Y-93686032D01*
X152871401Y-93658495D01*
X153038495Y-93491401D01*
X153174035Y-93297830D01*
X153273903Y-93083663D01*
X153335063Y-92855408D01*
X153335064Y-92855401D01*
X153355659Y-92620005D01*
X153355659Y-92619994D01*
X153335064Y-92384598D01*
X153335063Y-92384595D01*
X153335063Y-92384592D01*
X153273903Y-92156337D01*
X153212659Y-92025000D01*
X153174038Y-91942177D01*
X153174034Y-91942169D01*
X153117026Y-91860754D01*
X153038495Y-91748599D01*
X152871401Y-91581505D01*
X152832074Y-91553967D01*
X152764891Y-91483789D01*
X152729678Y-91393240D01*
X152731797Y-91296108D01*
X152770925Y-91207181D01*
X152832073Y-91146032D01*
X152871401Y-91118495D01*
X153038495Y-90951401D01*
X153174035Y-90757830D01*
X153273903Y-90543663D01*
X153335063Y-90315408D01*
X153342465Y-90230809D01*
X153355659Y-90080005D01*
X153355659Y-90079994D01*
X153335064Y-89844598D01*
X153335063Y-89844595D01*
X153335063Y-89844592D01*
X153273903Y-89616337D01*
X153186779Y-89429500D01*
X153174038Y-89402177D01*
X153174034Y-89402169D01*
X153085541Y-89275788D01*
X153038495Y-89208599D01*
X152871401Y-89041505D01*
X152832074Y-89013967D01*
X152764891Y-88943789D01*
X152729678Y-88853240D01*
X152731797Y-88756108D01*
X152770925Y-88667181D01*
X152832073Y-88606032D01*
X152871401Y-88578495D01*
X153038495Y-88411401D01*
X153174035Y-88217830D01*
X153273903Y-88003663D01*
X153335063Y-87775408D01*
X153341894Y-87697335D01*
X153355659Y-87540005D01*
X153355659Y-87539994D01*
X153335064Y-87304598D01*
X153335063Y-87304595D01*
X153335063Y-87304592D01*
X153273903Y-87076337D01*
X153189519Y-86895376D01*
X153174038Y-86862177D01*
X153174034Y-86862169D01*
X153081290Y-86729717D01*
X153038495Y-86668599D01*
X153038492Y-86668596D01*
X153035151Y-86664614D01*
X153033150Y-86660966D01*
X153032259Y-86659694D01*
X153032398Y-86659596D01*
X152988423Y-86579434D01*
X152977848Y-86482857D01*
X153005037Y-86389584D01*
X153065850Y-86313815D01*
X153078571Y-86305135D01*
X153078073Y-86304469D01*
X153092329Y-86293796D01*
X153092331Y-86293796D01*
X153207546Y-86207546D01*
X153293796Y-86092331D01*
X153344091Y-85957483D01*
X153350500Y-85897873D01*
X153350499Y-84102128D01*
X153344091Y-84042517D01*
X153293796Y-83907669D01*
X153207546Y-83792454D01*
X153092331Y-83706204D01*
X153012117Y-83676286D01*
X152957481Y-83655908D01*
X152897873Y-83649500D01*
X151102134Y-83649500D01*
X151102130Y-83649500D01*
X151102128Y-83649501D01*
X151089314Y-83650878D01*
X151042519Y-83655908D01*
X151042515Y-83655909D01*
X150907670Y-83706203D01*
X150792455Y-83792453D01*
X150792453Y-83792455D01*
X150706204Y-83907669D01*
X150655908Y-84042518D01*
X150649500Y-84102123D01*
X150649500Y-85327413D01*
X150630546Y-85422701D01*
X150576570Y-85503483D01*
X147053484Y-89026570D01*
X146972702Y-89080546D01*
X146877414Y-89099500D01*
X144642232Y-89099500D01*
X144546944Y-89080546D01*
X144466162Y-89026570D01*
X144412186Y-88945788D01*
X144393232Y-88850500D01*
X144412186Y-88755212D01*
X144440785Y-88704144D01*
X144441855Y-88702671D01*
X144441857Y-88702666D01*
X144441859Y-88702665D01*
X144531250Y-88547835D01*
X144586497Y-88377803D01*
X144605185Y-88200000D01*
X144586497Y-88022197D01*
X144531250Y-87852165D01*
X144475472Y-87755554D01*
X144455810Y-87721498D01*
X144424581Y-87629499D01*
X144430936Y-87532552D01*
X144473907Y-87445417D01*
X144546952Y-87381358D01*
X144638951Y-87350129D01*
X144671451Y-87347999D01*
X145177866Y-87347999D01*
X145177872Y-87347999D01*
X145237483Y-87341591D01*
X145372331Y-87291296D01*
X145487546Y-87205046D01*
X145573796Y-87089831D01*
X145624091Y-86954983D01*
X145630500Y-86895373D01*
X145630499Y-86059628D01*
X145624091Y-86000017D01*
X145573796Y-85865169D01*
X145487546Y-85749954D01*
X145372331Y-85663704D01*
X145292117Y-85633786D01*
X145237481Y-85613408D01*
X145177876Y-85607000D01*
X142309500Y-85607000D01*
X142214212Y-85588046D01*
X142133430Y-85534070D01*
X142079454Y-85453288D01*
X142060500Y-85358000D01*
X142060500Y-83786999D01*
X142079454Y-83691711D01*
X142133430Y-83610929D01*
X142214212Y-83556953D01*
X142309495Y-83537999D01*
X145177872Y-83537999D01*
X145237483Y-83531591D01*
X145372331Y-83481296D01*
X145487546Y-83395046D01*
X145573796Y-83279831D01*
X145624091Y-83144983D01*
X145630500Y-83085373D01*
X145630499Y-82249628D01*
X145624091Y-82190017D01*
X145597794Y-82119511D01*
X145582255Y-82023612D01*
X145597796Y-81945483D01*
X145616593Y-81895085D01*
X145624091Y-81874983D01*
X145630500Y-81815373D01*
X145630499Y-80979628D01*
X145624091Y-80920017D01*
X145573796Y-80785169D01*
X145487546Y-80669954D01*
X145372331Y-80583704D01*
X145261627Y-80542414D01*
X145237481Y-80533408D01*
X145177873Y-80527000D01*
X142292134Y-80527000D01*
X142292120Y-80527001D01*
X142247326Y-80531816D01*
X142150558Y-80523153D01*
X142064471Y-80478118D01*
X142002172Y-80403567D01*
X141990670Y-80379525D01*
X141986466Y-80369375D01*
X141986464Y-80369372D01*
X141915278Y-80262834D01*
X141915276Y-80262831D01*
X141824669Y-80172224D01*
X141756986Y-80127000D01*
X141718127Y-80101035D01*
X141718122Y-80101032D01*
X141624258Y-80062153D01*
X141599744Y-80051999D01*
X141599742Y-80051998D01*
X141474071Y-80027000D01*
X141474069Y-80027000D01*
X141345931Y-80027000D01*
X141345928Y-80027000D01*
X141220257Y-80051998D01*
X141090571Y-80105716D01*
X141089562Y-80103282D01*
X141015333Y-80125801D01*
X140990924Y-80127000D01*
X137824846Y-80127000D01*
X137729558Y-80108046D01*
X137648776Y-80054070D01*
X137594800Y-79973288D01*
X137575846Y-79878000D01*
X137594800Y-79782712D01*
X137648776Y-79701931D01*
X138168079Y-79182627D01*
X138248861Y-79128650D01*
X138344149Y-79109696D01*
X138396277Y-79115214D01*
X138397309Y-79115435D01*
X138397313Y-79115435D01*
X138397315Y-79115436D01*
X138495826Y-79125500D01*
X138495835Y-79125500D01*
X139029165Y-79125500D01*
X139029174Y-79125500D01*
X139127685Y-79115436D01*
X139287287Y-79062549D01*
X139430391Y-78974281D01*
X139549281Y-78855391D01*
X139637549Y-78712287D01*
X139690436Y-78552685D01*
X139700500Y-78454174D01*
X139700500Y-77845826D01*
X139690436Y-77747315D01*
X139637549Y-77587713D01*
X139549281Y-77444609D01*
X139542220Y-77437548D01*
X139488247Y-77356770D01*
X139469293Y-77261482D01*
X139488247Y-77166194D01*
X139516689Y-77117748D01*
X139516667Y-77117735D01*
X139517301Y-77116706D01*
X139522979Y-77107036D01*
X139524268Y-77105403D01*
X139524281Y-77105391D01*
X139612549Y-76962287D01*
X139635276Y-76893703D01*
X150649500Y-76893703D01*
X150649500Y-77106296D01*
X150682753Y-77316240D01*
X150742460Y-77500000D01*
X150748443Y-77518412D01*
X150844949Y-77707816D01*
X150969896Y-77879792D01*
X151120208Y-78030104D01*
X151292184Y-78155051D01*
X151481588Y-78251557D01*
X151683757Y-78317246D01*
X151757601Y-78328941D01*
X151893703Y-78350499D01*
X151893710Y-78350499D01*
X151893713Y-78350500D01*
X151893716Y-78350500D01*
X152106284Y-78350500D01*
X152106287Y-78350500D01*
X152106290Y-78350499D01*
X152106296Y-78350499D01*
X152213506Y-78333518D01*
X152316243Y-78317246D01*
X152518412Y-78251557D01*
X152707816Y-78155051D01*
X152879792Y-78030104D01*
X153030104Y-77879792D01*
X153155051Y-77707816D01*
X153251557Y-77518412D01*
X153317246Y-77316243D01*
X153348850Y-77116706D01*
X153350499Y-77106296D01*
X153350500Y-77106284D01*
X153350500Y-76893715D01*
X153350499Y-76893703D01*
X153317246Y-76683759D01*
X153317246Y-76683757D01*
X153251557Y-76481588D01*
X153155051Y-76292184D01*
X153030104Y-76120208D01*
X152879792Y-75969896D01*
X152707816Y-75844949D01*
X152518412Y-75748443D01*
X152518409Y-75748442D01*
X152518407Y-75748441D01*
X152316240Y-75682753D01*
X152106296Y-75649500D01*
X152106287Y-75649500D01*
X151893713Y-75649500D01*
X151893703Y-75649500D01*
X151683759Y-75682753D01*
X151481592Y-75748441D01*
X151292182Y-75844950D01*
X151120206Y-75969897D01*
X150969897Y-76120206D01*
X150844950Y-76292182D01*
X150748441Y-76481592D01*
X150682753Y-76683759D01*
X150649500Y-76893703D01*
X139635276Y-76893703D01*
X139665436Y-76802685D01*
X139675500Y-76704174D01*
X139675500Y-76095826D01*
X139665436Y-75997315D01*
X139612549Y-75837713D01*
X139524281Y-75694609D01*
X139405391Y-75575719D01*
X139262287Y-75487451D01*
X139262288Y-75487451D01*
X139102685Y-75434564D01*
X139004176Y-75424500D01*
X139004174Y-75424500D01*
X138470826Y-75424500D01*
X138470823Y-75424500D01*
X138396942Y-75432048D01*
X138372315Y-75434564D01*
X138372313Y-75434564D01*
X138212712Y-75487451D01*
X138069611Y-75575717D01*
X137950717Y-75694611D01*
X137862451Y-75837712D01*
X137809564Y-75997313D01*
X137809564Y-75997316D01*
X137799500Y-76095823D01*
X137799500Y-76314914D01*
X137780546Y-76410202D01*
X137726570Y-76490984D01*
X129413070Y-84804484D01*
X129332288Y-84858460D01*
X129237000Y-84877414D01*
X129141712Y-84858460D01*
X129060930Y-84804484D01*
X129006954Y-84723702D01*
X128988000Y-84628414D01*
X128988000Y-81895085D01*
X129006954Y-81799797D01*
X129060928Y-81719017D01*
X132381208Y-78398736D01*
X132461987Y-78344763D01*
X132557275Y-78325809D01*
X132613874Y-78333259D01*
X132613889Y-78333175D01*
X132615834Y-78333518D01*
X132621715Y-78334292D01*
X132624592Y-78335063D01*
X132648700Y-78337172D01*
X132859995Y-78355659D01*
X132860000Y-78355659D01*
X132860005Y-78355659D01*
X133095401Y-78335064D01*
X133095403Y-78335063D01*
X133095408Y-78335063D01*
X133323663Y-78273903D01*
X133537830Y-78174035D01*
X133731401Y-78038495D01*
X133898495Y-77871401D01*
X134034035Y-77677830D01*
X134133903Y-77463663D01*
X134195063Y-77235408D01*
X134201119Y-77166194D01*
X134215659Y-77000005D01*
X134215659Y-76999994D01*
X134195064Y-76764598D01*
X134195063Y-76764595D01*
X134195063Y-76764592D01*
X134133903Y-76536337D01*
X134050691Y-76357890D01*
X134034038Y-76322177D01*
X134034034Y-76322169D01*
X133968847Y-76229072D01*
X133898495Y-76128599D01*
X133731401Y-75961505D01*
X133537830Y-75825965D01*
X133323663Y-75726097D01*
X133323660Y-75726096D01*
X133095401Y-75664935D01*
X132860005Y-75644341D01*
X132859995Y-75644341D01*
X132624598Y-75664935D01*
X132396335Y-75726097D01*
X132396333Y-75726098D01*
X132182177Y-75825961D01*
X132182169Y-75825965D01*
X131988600Y-75961504D01*
X131821501Y-76128603D01*
X131793968Y-76167925D01*
X131723787Y-76235109D01*
X131633237Y-76270321D01*
X131536106Y-76268201D01*
X131447179Y-76229072D01*
X131386032Y-76167925D01*
X131358498Y-76128603D01*
X131358497Y-76128602D01*
X131358495Y-76128599D01*
X131191401Y-75961505D01*
X130997830Y-75825965D01*
X130783663Y-75726097D01*
X130783660Y-75726096D01*
X130555401Y-75664935D01*
X130320005Y-75644341D01*
X130319995Y-75644341D01*
X130084598Y-75664935D01*
X129856335Y-75726097D01*
X129856333Y-75726098D01*
X129642177Y-75825961D01*
X129642169Y-75825965D01*
X129448600Y-75961504D01*
X129281501Y-76128603D01*
X129253968Y-76167925D01*
X129183787Y-76235109D01*
X129093237Y-76270321D01*
X128996106Y-76268201D01*
X128907179Y-76229072D01*
X128846032Y-76167925D01*
X128818498Y-76128603D01*
X128818497Y-76128602D01*
X128818495Y-76128599D01*
X128651401Y-75961505D01*
X128457830Y-75825965D01*
X128243663Y-75726097D01*
X128243660Y-75726096D01*
X128015401Y-75664935D01*
X127780005Y-75644341D01*
X127779995Y-75644341D01*
X127544598Y-75664935D01*
X127316335Y-75726097D01*
X127316333Y-75726098D01*
X127102177Y-75825961D01*
X127102169Y-75825965D01*
X126908600Y-75961504D01*
X126741501Y-76128603D01*
X126713968Y-76167925D01*
X126643787Y-76235109D01*
X126553237Y-76270321D01*
X126456106Y-76268201D01*
X126367179Y-76229072D01*
X126306032Y-76167925D01*
X126278498Y-76128603D01*
X126278497Y-76128602D01*
X126278495Y-76128599D01*
X126111401Y-75961505D01*
X125917830Y-75825965D01*
X125703663Y-75726097D01*
X125703660Y-75726096D01*
X125475401Y-75664935D01*
X125240005Y-75644341D01*
X125239995Y-75644341D01*
X125004598Y-75664935D01*
X124776335Y-75726097D01*
X124776333Y-75726098D01*
X124562177Y-75825961D01*
X124562169Y-75825965D01*
X124368600Y-75961504D01*
X124201501Y-76128603D01*
X124173968Y-76167925D01*
X124103787Y-76235109D01*
X124013237Y-76270321D01*
X123916106Y-76268201D01*
X123827179Y-76229072D01*
X123766032Y-76167925D01*
X123738498Y-76128603D01*
X123738497Y-76128602D01*
X123738495Y-76128599D01*
X123571401Y-75961505D01*
X123377830Y-75825965D01*
X123163663Y-75726097D01*
X123163660Y-75726096D01*
X122935401Y-75664935D01*
X122700005Y-75644341D01*
X122699995Y-75644341D01*
X122464598Y-75664935D01*
X122236335Y-75726097D01*
X122236333Y-75726098D01*
X122022177Y-75825961D01*
X122022169Y-75825965D01*
X121828600Y-75961504D01*
X121661501Y-76128603D01*
X121633968Y-76167925D01*
X121563787Y-76235109D01*
X121473237Y-76270321D01*
X121376106Y-76268201D01*
X121287179Y-76229072D01*
X121226032Y-76167925D01*
X121198498Y-76128603D01*
X121198497Y-76128602D01*
X121198495Y-76128599D01*
X121031401Y-75961505D01*
X120837830Y-75825965D01*
X120623663Y-75726097D01*
X120623660Y-75726096D01*
X120395401Y-75664935D01*
X120160005Y-75644341D01*
X120159995Y-75644341D01*
X119924598Y-75664935D01*
X119696335Y-75726097D01*
X119696333Y-75726098D01*
X119482177Y-75825961D01*
X119482169Y-75825965D01*
X119288600Y-75961504D01*
X119121502Y-76128602D01*
X119093661Y-76168363D01*
X119023479Y-76235546D01*
X118932929Y-76270758D01*
X118835797Y-76268637D01*
X118746871Y-76229507D01*
X118685725Y-76168361D01*
X118658110Y-76128923D01*
X118491076Y-75961889D01*
X118297576Y-75826399D01*
X118083484Y-75726566D01*
X117870001Y-75669363D01*
X117870000Y-75669364D01*
X117870000Y-76566988D01*
X117812993Y-76534075D01*
X117685826Y-76500000D01*
X117554174Y-76500000D01*
X117427007Y-76534075D01*
X117370000Y-76566988D01*
X117370000Y-75669364D01*
X117369998Y-75669363D01*
X117156516Y-75726566D01*
X117156505Y-75726570D01*
X116942428Y-75826396D01*
X116942420Y-75826400D01*
X116748923Y-75961889D01*
X116581889Y-76128923D01*
X116554272Y-76168364D01*
X116484089Y-76235547D01*
X116393539Y-76270758D01*
X116296408Y-76268637D01*
X116207481Y-76229507D01*
X116146337Y-76168362D01*
X116118495Y-76128599D01*
X115951401Y-75961505D01*
X115757830Y-75825965D01*
X115543663Y-75726097D01*
X115543660Y-75726096D01*
X115315401Y-75664935D01*
X115080005Y-75644341D01*
X115079995Y-75644341D01*
X114844598Y-75664935D01*
X114616335Y-75726097D01*
X114616333Y-75726098D01*
X114402177Y-75825961D01*
X114402169Y-75825965D01*
X114208600Y-75961504D01*
X114041501Y-76128603D01*
X114013968Y-76167925D01*
X113943787Y-76235109D01*
X113853237Y-76270321D01*
X113756106Y-76268201D01*
X113667179Y-76229072D01*
X113606032Y-76167925D01*
X113578498Y-76128603D01*
X113578497Y-76128602D01*
X113578495Y-76128599D01*
X113411401Y-75961505D01*
X113217830Y-75825965D01*
X113003663Y-75726097D01*
X113003660Y-75726096D01*
X112775401Y-75664935D01*
X112540005Y-75644341D01*
X112539995Y-75644341D01*
X112304598Y-75664935D01*
X112076335Y-75726097D01*
X112076333Y-75726098D01*
X111862177Y-75825961D01*
X111862169Y-75825965D01*
X111668587Y-75961513D01*
X111664605Y-75964855D01*
X111660960Y-75966853D01*
X111659694Y-75967741D01*
X111659596Y-75967602D01*
X111579423Y-76011580D01*
X111482845Y-76022150D01*
X111389573Y-75994957D01*
X111313808Y-75934140D01*
X111305133Y-75921429D01*
X111304469Y-75921927D01*
X111293796Y-75907670D01*
X111293796Y-75907669D01*
X111207546Y-75792454D01*
X111092331Y-75706204D01*
X110993555Y-75669363D01*
X110957481Y-75655908D01*
X110897873Y-75649500D01*
X109102134Y-75649500D01*
X109102130Y-75649500D01*
X109102128Y-75649501D01*
X109089314Y-75650878D01*
X109042519Y-75655908D01*
X109042515Y-75655909D01*
X108907670Y-75706203D01*
X108792455Y-75792453D01*
X108792453Y-75792455D01*
X108706204Y-75907669D01*
X108655908Y-76042518D01*
X108649500Y-76102123D01*
X108649500Y-77897865D01*
X108649501Y-77897869D01*
X108655908Y-77957480D01*
X108655909Y-77957484D01*
X108682994Y-78030102D01*
X108706204Y-78092331D01*
X108792454Y-78207546D01*
X108907669Y-78293796D01*
X109042517Y-78344091D01*
X109102127Y-78350500D01*
X109102142Y-78350499D01*
X109108788Y-78350857D01*
X109108719Y-78352141D01*
X109195743Y-78369434D01*
X109276535Y-78423394D01*
X109330527Y-78504165D01*
X109349500Y-78599450D01*
X109349500Y-79146175D01*
X109369058Y-79244493D01*
X109369058Y-79244496D01*
X109374498Y-79271846D01*
X109374499Y-79271851D01*
X109423535Y-79390233D01*
X109494723Y-79496775D01*
X118901570Y-88903622D01*
X118955546Y-88984404D01*
X118974500Y-89079692D01*
X118974500Y-90135521D01*
X118955546Y-90230809D01*
X118901570Y-90311591D01*
X118820788Y-90365567D01*
X118725500Y-90384521D01*
X118630212Y-90365567D01*
X118549430Y-90311591D01*
X112732562Y-84494723D01*
X112626020Y-84423534D01*
X112530750Y-84384073D01*
X112507637Y-84374499D01*
X112507635Y-84374498D01*
X112507634Y-84374498D01*
X112381964Y-84349500D01*
X112381962Y-84349500D01*
X103599499Y-84349500D01*
X103504211Y-84330546D01*
X103423429Y-84276570D01*
X103369453Y-84195788D01*
X103352134Y-84108723D01*
X103350856Y-84108792D01*
X103350499Y-84102148D01*
X103350499Y-84102128D01*
X103344091Y-84042517D01*
X103293796Y-83907669D01*
X103207546Y-83792454D01*
X103092331Y-83706204D01*
X103012117Y-83676286D01*
X102957481Y-83655908D01*
X102897873Y-83649500D01*
X101102134Y-83649500D01*
X101102130Y-83649500D01*
X101102128Y-83649501D01*
X101089314Y-83650878D01*
X101042519Y-83655908D01*
X101042515Y-83655909D01*
X100907670Y-83706203D01*
X100792455Y-83792453D01*
X100792453Y-83792455D01*
X100706204Y-83907669D01*
X100655908Y-84042518D01*
X100649500Y-84102123D01*
X100649500Y-85897865D01*
X100649500Y-85897868D01*
X100649501Y-85897872D01*
X100651567Y-85917093D01*
X100655908Y-85957480D01*
X100655909Y-85957484D01*
X100694007Y-86059630D01*
X100706204Y-86092331D01*
X100792454Y-86207546D01*
X100907669Y-86293796D01*
X100907670Y-86293796D01*
X100921927Y-86304469D01*
X100919454Y-86307771D01*
X100967965Y-86348305D01*
X101013006Y-86434389D01*
X101021675Y-86531156D01*
X100992653Y-86623875D01*
X100964855Y-86664605D01*
X100961513Y-86668587D01*
X100825965Y-86862169D01*
X100825961Y-86862177D01*
X100726098Y-87076333D01*
X100726097Y-87076335D01*
X100664935Y-87304598D01*
X100644341Y-87539994D01*
X100644341Y-87540005D01*
X100664935Y-87775401D01*
X100705076Y-87925213D01*
X100726097Y-88003663D01*
X100797377Y-88156522D01*
X100825965Y-88217830D01*
X100928664Y-88364500D01*
X100961505Y-88411401D01*
X101128599Y-88578495D01*
X101167925Y-88606031D01*
X101235107Y-88676209D01*
X101270321Y-88766758D01*
X101268202Y-88863890D01*
X101229074Y-88952818D01*
X101167928Y-89013965D01*
X101128603Y-89041501D01*
X100961504Y-89208600D01*
X100825965Y-89402169D01*
X100825961Y-89402177D01*
X100726098Y-89616333D01*
X100726097Y-89616335D01*
X100664935Y-89844598D01*
X100644341Y-90079994D01*
X100644341Y-90080005D01*
X100664935Y-90315401D01*
X100702913Y-90457140D01*
X100726097Y-90543663D01*
X100750498Y-90595990D01*
X100825965Y-90757830D01*
X100932415Y-90909857D01*
X100961505Y-90951401D01*
X101128599Y-91118495D01*
X101167925Y-91146031D01*
X101235107Y-91216209D01*
X101270321Y-91306758D01*
X101268202Y-91403890D01*
X101229074Y-91492818D01*
X101167928Y-91553965D01*
X101128603Y-91581501D01*
X100961504Y-91748600D01*
X100825965Y-91942169D01*
X100825961Y-91942177D01*
X100726098Y-92156333D01*
X100726097Y-92156335D01*
X100664935Y-92384598D01*
X100644341Y-92619994D01*
X100644341Y-92620005D01*
X100664935Y-92855401D01*
X100713355Y-93036111D01*
X100726097Y-93083663D01*
X100813221Y-93270500D01*
X100825965Y-93297830D01*
X100906104Y-93412281D01*
X100961505Y-93491401D01*
X101128599Y-93658495D01*
X101167925Y-93686031D01*
X101235107Y-93756209D01*
X101270321Y-93846758D01*
X101268202Y-93943890D01*
X101229074Y-94032818D01*
X101167928Y-94093965D01*
X101128603Y-94121501D01*
X100961504Y-94288600D01*
X100825965Y-94482169D01*
X100825961Y-94482177D01*
X100726098Y-94696333D01*
X100726097Y-94696335D01*
X100664935Y-94924598D01*
X100644341Y-95159994D01*
X100644341Y-95160005D01*
X100664935Y-95395401D01*
X100716827Y-95589069D01*
X100726097Y-95623663D01*
X100811822Y-95807500D01*
X100825965Y-95837830D01*
X100833400Y-95848449D01*
X100961505Y-96031401D01*
X101128599Y-96198495D01*
X101167925Y-96226031D01*
X101235107Y-96296209D01*
X101270321Y-96386758D01*
X101268202Y-96483890D01*
X101229074Y-96572818D01*
X101167928Y-96633965D01*
X101128603Y-96661501D01*
X100961504Y-96828600D01*
X100825965Y-97022169D01*
X100825961Y-97022177D01*
X100726098Y-97236333D01*
X100726097Y-97236335D01*
X100664935Y-97464598D01*
X100644341Y-97699994D01*
X100644341Y-97700005D01*
X100664935Y-97935401D01*
X100664937Y-97935408D01*
X100726097Y-98163663D01*
X100825965Y-98377830D01*
X100961505Y-98571401D01*
X101128599Y-98738495D01*
X101167925Y-98766031D01*
X101235107Y-98836209D01*
X101270321Y-98926758D01*
X101268202Y-99023890D01*
X101229074Y-99112818D01*
X101167928Y-99173965D01*
X101128603Y-99201501D01*
X100961504Y-99368600D01*
X100825965Y-99562169D01*
X100825961Y-99562177D01*
X100726098Y-99776333D01*
X100726097Y-99776335D01*
X100664935Y-100004598D01*
X100644341Y-100239994D01*
X100644341Y-100240005D01*
X100664935Y-100475401D01*
X100664937Y-100475408D01*
X100726097Y-100703663D01*
X100760488Y-100777414D01*
X100825965Y-100917830D01*
X100942799Y-101084687D01*
X100961505Y-101111401D01*
X101128599Y-101278495D01*
X101167925Y-101306031D01*
X101235107Y-101376209D01*
X101270321Y-101466758D01*
X101268202Y-101563890D01*
X101229074Y-101652818D01*
X101167928Y-101713965D01*
X101128603Y-101741501D01*
X100961504Y-101908600D01*
X100825965Y-102102169D01*
X100825961Y-102102177D01*
X100726098Y-102316333D01*
X100726097Y-102316335D01*
X100664935Y-102544598D01*
X100644341Y-102779994D01*
X100644341Y-102780005D01*
X100664935Y-103015401D01*
X100664937Y-103015408D01*
X100726097Y-103243663D01*
X100825965Y-103457830D01*
X100961505Y-103651401D01*
X101128599Y-103818495D01*
X101167925Y-103846031D01*
X101235107Y-103916209D01*
X101270321Y-104006758D01*
X101268202Y-104103890D01*
X101229074Y-104192818D01*
X101167928Y-104253965D01*
X101128603Y-104281501D01*
X100961504Y-104448600D01*
X100825965Y-104642169D01*
X100825961Y-104642177D01*
X100726098Y-104856333D01*
X100726097Y-104856335D01*
X100664935Y-105084598D01*
X100644341Y-105319994D01*
X100644341Y-105320005D01*
X100664935Y-105555401D01*
X100704100Y-105701570D01*
X100726097Y-105783663D01*
X100789543Y-105919723D01*
X100825965Y-105997830D01*
X100944392Y-106166962D01*
X100961505Y-106191401D01*
X101128599Y-106358495D01*
X101167925Y-106386031D01*
X101235107Y-106456209D01*
X101270321Y-106546758D01*
X101268202Y-106643890D01*
X101229074Y-106732818D01*
X101167928Y-106793965D01*
X101128603Y-106821501D01*
X100961504Y-106988600D01*
X100825965Y-107182169D01*
X100825961Y-107182177D01*
X100726098Y-107396333D01*
X100726097Y-107396335D01*
X100664935Y-107624598D01*
X100644341Y-107859994D01*
X100644341Y-107860005D01*
X100664935Y-108095401D01*
X100707465Y-108254129D01*
X100726097Y-108323663D01*
X100763318Y-108403483D01*
X100825965Y-108537830D01*
X100914358Y-108664069D01*
X100961505Y-108731401D01*
X101128599Y-108898495D01*
X101167925Y-108926031D01*
X101235107Y-108996209D01*
X101270321Y-109086758D01*
X101268202Y-109183890D01*
X101229074Y-109272818D01*
X101167928Y-109333965D01*
X101128603Y-109361501D01*
X100961504Y-109528600D01*
X100825965Y-109722169D01*
X100825961Y-109722177D01*
X100726098Y-109936333D01*
X100726097Y-109936335D01*
X100664935Y-110164598D01*
X100644341Y-110399994D01*
X100644341Y-110400005D01*
X100664935Y-110635401D01*
X100719029Y-110837287D01*
X100726097Y-110863663D01*
X100759645Y-110935607D01*
X100825965Y-111077830D01*
X100893225Y-111173888D01*
X100961505Y-111271401D01*
X101128599Y-111438495D01*
X101167925Y-111466031D01*
X101235107Y-111536209D01*
X101270321Y-111626758D01*
X101268202Y-111723890D01*
X101229074Y-111812818D01*
X101167928Y-111873965D01*
X101128603Y-111901501D01*
X100961504Y-112068600D01*
X100825965Y-112262169D01*
X100825961Y-112262177D01*
X100726098Y-112476333D01*
X100726097Y-112476335D01*
X100664935Y-112704598D01*
X100644341Y-112939994D01*
X100644341Y-112940005D01*
X100664935Y-113175401D01*
X100724591Y-113398045D01*
X100726097Y-113403663D01*
X100745501Y-113445275D01*
X100825965Y-113617830D01*
X100923752Y-113757485D01*
X100961505Y-113811401D01*
X101128599Y-113978495D01*
X101322170Y-114114035D01*
X101536337Y-114213903D01*
X101764592Y-114275063D01*
X101764595Y-114275063D01*
X101764598Y-114275064D01*
X101999995Y-114295659D01*
X102000000Y-114295659D01*
X102000005Y-114295659D01*
X102235401Y-114275064D01*
X102235403Y-114275063D01*
X102235408Y-114275063D01*
X102463663Y-114213903D01*
X102677830Y-114114035D01*
X102871401Y-113978495D01*
X103038495Y-113811401D01*
X103174035Y-113617830D01*
X103273903Y-113403663D01*
X103335063Y-113175408D01*
X103336020Y-113164474D01*
X103355659Y-112940005D01*
X103355659Y-112939994D01*
X103335064Y-112704604D01*
X103335063Y-112704592D01*
X103334292Y-112701717D01*
X103334137Y-112699346D01*
X103333175Y-112693889D01*
X103333772Y-112693783D01*
X103327939Y-112604774D01*
X103359169Y-112512775D01*
X103398735Y-112461209D01*
X106006516Y-109853430D01*
X106087298Y-109799454D01*
X106182586Y-109780500D01*
X111938415Y-109780500D01*
X112033703Y-109799454D01*
X112114485Y-109853430D01*
X112168461Y-109934212D01*
X112187415Y-110029500D01*
X112168461Y-110124788D01*
X112114487Y-110205566D01*
X112114484Y-110205570D01*
X111838482Y-110481570D01*
X111757700Y-110535546D01*
X111670657Y-110552890D01*
X111670713Y-110554309D01*
X111665814Y-110554501D01*
X111629800Y-110557334D01*
X111629790Y-110557336D01*
X111475611Y-110602129D01*
X111475609Y-110602129D01*
X111337403Y-110683864D01*
X111223864Y-110797403D01*
X111142129Y-110935609D01*
X111097336Y-111089789D01*
X111097334Y-111089800D01*
X111094500Y-111125810D01*
X111094500Y-111624170D01*
X111094501Y-111624184D01*
X111097334Y-111660199D01*
X111097336Y-111660209D01*
X111142128Y-111814386D01*
X111142130Y-111814390D01*
X111142131Y-111814393D01*
X111164449Y-111852130D01*
X111179825Y-111878130D01*
X111212016Y-111969797D01*
X111214500Y-112004881D01*
X111214500Y-115645118D01*
X111195546Y-115740406D01*
X111179826Y-115771867D01*
X111142130Y-115835607D01*
X111142129Y-115835609D01*
X111097336Y-115989789D01*
X111097334Y-115989800D01*
X111094500Y-116025810D01*
X111094500Y-116524170D01*
X111094501Y-116524184D01*
X111097334Y-116560199D01*
X111097336Y-116560209D01*
X111142129Y-116714388D01*
X111142129Y-116714390D01*
X111142131Y-116714393D01*
X111223865Y-116852598D01*
X111337402Y-116966135D01*
X111467034Y-117042799D01*
X111475609Y-117047870D01*
X111602776Y-117084815D01*
X111629796Y-117092665D01*
X111665819Y-117095500D01*
X112064180Y-117095499D01*
X112100204Y-117092665D01*
X112254393Y-117047869D01*
X112254399Y-117047865D01*
X112268763Y-117041650D01*
X112269758Y-117043949D01*
X112339912Y-117019312D01*
X112436920Y-117024649D01*
X112480739Y-117042799D01*
X112481237Y-117041650D01*
X112495603Y-117047866D01*
X112495607Y-117047869D01*
X112495611Y-117047870D01*
X112495613Y-117047871D01*
X112627627Y-117086225D01*
X112713844Y-117131011D01*
X112776359Y-117205381D01*
X112805655Y-117298014D01*
X112797272Y-117394806D01*
X112794974Y-117402279D01*
X112788503Y-117422195D01*
X112769815Y-117600000D01*
X112769815Y-117613050D01*
X112768513Y-117613050D01*
X112760866Y-117696230D01*
X112715626Y-117782209D01*
X112640926Y-117844331D01*
X112548140Y-117873137D01*
X112522123Y-117874500D01*
X112027134Y-117874500D01*
X112027130Y-117874500D01*
X112027128Y-117874501D01*
X112014314Y-117875878D01*
X111967519Y-117880908D01*
X111967515Y-117880909D01*
X111832670Y-117931203D01*
X111717455Y-118017453D01*
X111717453Y-118017455D01*
X111631204Y-118132669D01*
X111580908Y-118267518D01*
X111574500Y-118327123D01*
X111574500Y-118532424D01*
X111555546Y-118627712D01*
X111501570Y-118708494D01*
X111420788Y-118762470D01*
X111325500Y-118781424D01*
X111230212Y-118762470D01*
X111149430Y-118708494D01*
X111095454Y-118627712D01*
X111079566Y-118571377D01*
X111070324Y-118513030D01*
X111070324Y-118513028D01*
X111010715Y-118329571D01*
X110923141Y-118157698D01*
X110809759Y-118001641D01*
X110673359Y-117865241D01*
X110644579Y-117844331D01*
X110517301Y-117751858D01*
X110345434Y-117664287D01*
X110345424Y-117664283D01*
X110161969Y-117604675D01*
X109971458Y-117574500D01*
X109971449Y-117574500D01*
X109778551Y-117574500D01*
X109778541Y-117574500D01*
X109588030Y-117604675D01*
X109404575Y-117664283D01*
X109404565Y-117664287D01*
X109232698Y-117751858D01*
X109076644Y-117865238D01*
X108940238Y-118001644D01*
X108826858Y-118157698D01*
X108739287Y-118329565D01*
X108739283Y-118329575D01*
X108679675Y-118513030D01*
X108649500Y-118703541D01*
X108649500Y-119446458D01*
X108679675Y-119636969D01*
X108739283Y-119820424D01*
X108739287Y-119820434D01*
X108826858Y-119992301D01*
X108875775Y-120059629D01*
X108940241Y-120148359D01*
X109076641Y-120284759D01*
X109232698Y-120398141D01*
X109404571Y-120485715D01*
X109588028Y-120545324D01*
X109651437Y-120555367D01*
X109778541Y-120575499D01*
X109778548Y-120575499D01*
X109778551Y-120575500D01*
X109778554Y-120575500D01*
X109971446Y-120575500D01*
X109971449Y-120575500D01*
X109971452Y-120575499D01*
X109971458Y-120575499D01*
X110122645Y-120551553D01*
X110219725Y-120555367D01*
X110307956Y-120596041D01*
X110363039Y-120651123D01*
X110367465Y-120657215D01*
X110428950Y-120725500D01*
X110494129Y-120797888D01*
X110606861Y-120879792D01*
X110647271Y-120909152D01*
X110820189Y-120986141D01*
X110820192Y-120986142D01*
X110820197Y-120986144D01*
X111005354Y-121025500D01*
X111194645Y-121025500D01*
X111194646Y-121025500D01*
X111379803Y-120986144D01*
X111405954Y-120974501D01*
X111552728Y-120909152D01*
X111552728Y-120909151D01*
X111552730Y-120909151D01*
X111705871Y-120797888D01*
X111777654Y-120718164D01*
X111855495Y-120660037D01*
X111949660Y-120636121D01*
X112045810Y-120650062D01*
X112129306Y-120699736D01*
X112138764Y-120708710D01*
X116004984Y-124574930D01*
X116058960Y-124655712D01*
X116077914Y-124751000D01*
X116058960Y-124846288D01*
X116004984Y-124927070D01*
X115924202Y-124981046D01*
X115828914Y-125000000D01*
X102001341Y-125000000D01*
X101998625Y-124999985D01*
X101996070Y-124999957D01*
X101791305Y-124997723D01*
X101772320Y-124996790D01*
X101357890Y-124960532D01*
X101336354Y-124957697D01*
X100928000Y-124885694D01*
X100906792Y-124880992D01*
X100506256Y-124773668D01*
X100485539Y-124767137D01*
X100095885Y-124625315D01*
X100075816Y-124617002D01*
X99700003Y-124441758D01*
X99680735Y-124431727D01*
X99321643Y-124224405D01*
X99303322Y-124212734D01*
X98963643Y-123974888D01*
X98946410Y-123961664D01*
X98628774Y-123695136D01*
X98612758Y-123680461D01*
X98319538Y-123387241D01*
X98304863Y-123371225D01*
X98038331Y-123053583D01*
X98025111Y-123036356D01*
X97991872Y-122988886D01*
X97787263Y-122696674D01*
X97775594Y-122678356D01*
X97749146Y-122632546D01*
X97652620Y-122465360D01*
X108649500Y-122465360D01*
X108649500Y-123284639D01*
X108649501Y-123284655D01*
X108675981Y-123451844D01*
X108725996Y-123605775D01*
X108728295Y-123612849D01*
X108805150Y-123763685D01*
X108904654Y-123900641D01*
X109024359Y-124020346D01*
X109161315Y-124119850D01*
X109312151Y-124196705D01*
X109473153Y-124249018D01*
X109640356Y-124275500D01*
X109640360Y-124275500D01*
X109809640Y-124275500D01*
X109809644Y-124275500D01*
X109976847Y-124249018D01*
X110137849Y-124196705D01*
X110288685Y-124119850D01*
X110425641Y-124020346D01*
X110545346Y-123900641D01*
X110644850Y-123763685D01*
X110721705Y-123612849D01*
X110774018Y-123451847D01*
X110800500Y-123284644D01*
X110800500Y-122465356D01*
X110774018Y-122298153D01*
X110721705Y-122137151D01*
X110644850Y-121986315D01*
X110545346Y-121849359D01*
X110425641Y-121729654D01*
X110288685Y-121630150D01*
X110137849Y-121553295D01*
X110137846Y-121553294D01*
X110137844Y-121553293D01*
X109976844Y-121500981D01*
X109809655Y-121474501D01*
X109809646Y-121474500D01*
X109809644Y-121474500D01*
X109640356Y-121474500D01*
X109640353Y-121474500D01*
X109640344Y-121474501D01*
X109473155Y-121500981D01*
X109312155Y-121553293D01*
X109161311Y-121630152D01*
X109024362Y-121729651D01*
X108904651Y-121849362D01*
X108805152Y-121986311D01*
X108805150Y-121986315D01*
X108731798Y-122130277D01*
X108728293Y-122137155D01*
X108675981Y-122298155D01*
X108649501Y-122465344D01*
X108649500Y-122465360D01*
X97652620Y-122465360D01*
X97568269Y-122319260D01*
X97558241Y-122299996D01*
X97546818Y-122275500D01*
X97382997Y-121924183D01*
X97374684Y-121904114D01*
X97232862Y-121514460D01*
X97226331Y-121493743D01*
X97119007Y-121093207D01*
X97114308Y-121072013D01*
X97042301Y-120663640D01*
X97039467Y-120642109D01*
X97033639Y-120575500D01*
X97003208Y-120227673D01*
X97002276Y-120208692D01*
X97001173Y-120107595D01*
X97000015Y-120001374D01*
X97000000Y-119998659D01*
X97000000Y-119893703D01*
X100649500Y-119893703D01*
X100649500Y-120106296D01*
X100682753Y-120316240D01*
X100741069Y-120495719D01*
X100748443Y-120518412D01*
X100844949Y-120707816D01*
X100969896Y-120879792D01*
X101120208Y-121030104D01*
X101292184Y-121155051D01*
X101481588Y-121251557D01*
X101683757Y-121317246D01*
X101757601Y-121328941D01*
X101893703Y-121350499D01*
X101893710Y-121350499D01*
X101893713Y-121350500D01*
X101893716Y-121350500D01*
X102106284Y-121350500D01*
X102106287Y-121350500D01*
X102106290Y-121350499D01*
X102106296Y-121350499D01*
X102205476Y-121334789D01*
X102316243Y-121317246D01*
X102518412Y-121251557D01*
X102707816Y-121155051D01*
X102879792Y-121030104D01*
X103030104Y-120879792D01*
X103155051Y-120707816D01*
X103251557Y-120518412D01*
X103317246Y-120316243D01*
X103340553Y-120169091D01*
X103350499Y-120106296D01*
X103350500Y-120106284D01*
X103350500Y-119893715D01*
X103350499Y-119893703D01*
X103317246Y-119683757D01*
X103317245Y-119683753D01*
X103251558Y-119481592D01*
X103251557Y-119481588D01*
X103155051Y-119292184D01*
X103030104Y-119120208D01*
X102879792Y-118969896D01*
X102707816Y-118844949D01*
X102518412Y-118748443D01*
X102518409Y-118748442D01*
X102518407Y-118748441D01*
X102316240Y-118682753D01*
X102106296Y-118649500D01*
X102106287Y-118649500D01*
X101893713Y-118649500D01*
X101893703Y-118649500D01*
X101683759Y-118682753D01*
X101481592Y-118748441D01*
X101292182Y-118844950D01*
X101120206Y-118969897D01*
X100969897Y-119120206D01*
X100844950Y-119292182D01*
X100748441Y-119481592D01*
X100682755Y-119683753D01*
X100682753Y-119683757D01*
X100649500Y-119893703D01*
X97000000Y-119893703D01*
X97000000Y-77001340D01*
X97000015Y-76998625D01*
X97001159Y-76893703D01*
X100649500Y-76893703D01*
X100649500Y-77106296D01*
X100682753Y-77316240D01*
X100742460Y-77500000D01*
X100748443Y-77518412D01*
X100844949Y-77707816D01*
X100969896Y-77879792D01*
X101120208Y-78030104D01*
X101292184Y-78155051D01*
X101481588Y-78251557D01*
X101683757Y-78317246D01*
X101757601Y-78328941D01*
X101893703Y-78350499D01*
X101893710Y-78350499D01*
X101893713Y-78350500D01*
X101893716Y-78350500D01*
X102106284Y-78350500D01*
X102106287Y-78350500D01*
X102106290Y-78350499D01*
X102106296Y-78350499D01*
X102213506Y-78333518D01*
X102316243Y-78317246D01*
X102518412Y-78251557D01*
X102707816Y-78155051D01*
X102879792Y-78030104D01*
X103030104Y-77879792D01*
X103155051Y-77707816D01*
X103251557Y-77518412D01*
X103317246Y-77316243D01*
X103348850Y-77116706D01*
X103350499Y-77106296D01*
X103350500Y-77106284D01*
X103350500Y-76893715D01*
X103350499Y-76893703D01*
X103317246Y-76683759D01*
X103317246Y-76683757D01*
X103251557Y-76481588D01*
X103155051Y-76292184D01*
X103030104Y-76120208D01*
X102879792Y-75969896D01*
X102707816Y-75844949D01*
X102518412Y-75748443D01*
X102518409Y-75748442D01*
X102518407Y-75748441D01*
X102316240Y-75682753D01*
X102106296Y-75649500D01*
X102106287Y-75649500D01*
X101893713Y-75649500D01*
X101893703Y-75649500D01*
X101683759Y-75682753D01*
X101481592Y-75748441D01*
X101292182Y-75844950D01*
X101120206Y-75969897D01*
X100969897Y-76120206D01*
X100844950Y-76292182D01*
X100748441Y-76481592D01*
X100682753Y-76683759D01*
X100649500Y-76893703D01*
X97001159Y-76893703D01*
X97002276Y-76791307D01*
X97003209Y-76772320D01*
X97023855Y-76536335D01*
X97039467Y-76357882D01*
X97042302Y-76336354D01*
X97044802Y-76322177D01*
X97114309Y-75927981D01*
X97119007Y-75906792D01*
X97226331Y-75506256D01*
X97232862Y-75485539D01*
X97374687Y-75095876D01*
X97382997Y-75075816D01*
X97558248Y-74699989D01*
X97568264Y-74680749D01*
X97775602Y-74321629D01*
X97787256Y-74303335D01*
X98025124Y-73963626D01*
X98038322Y-73946426D01*
X98304874Y-73628761D01*
X98319527Y-73612769D01*
X98612769Y-73319527D01*
X98628761Y-73304874D01*
X98946426Y-73038322D01*
X98963626Y-73025124D01*
X99303335Y-72787256D01*
X99321629Y-72775602D01*
X99680749Y-72568264D01*
X99699989Y-72558248D01*
X100075824Y-72382993D01*
X100095876Y-72374687D01*
X100485545Y-72232859D01*
X100506256Y-72226331D01*
X100906792Y-72119007D01*
X100927981Y-72114309D01*
X101336362Y-72042300D01*
X101357882Y-72039467D01*
X101772328Y-72003208D01*
X101791299Y-72002276D01*
X101989635Y-72000113D01*
X101998626Y-72000015D01*
X102001341Y-72000000D01*
X151998659Y-72000000D01*
X152001374Y-72000015D01*
G37*
%TD.AperFunction*%
%TA.AperFunction,Conductor*%
G36*
X131635201Y-100352909D02*
G01*
X131719968Y-100400381D01*
X131734326Y-100413652D01*
X136149025Y-104828351D01*
X136203001Y-104909133D01*
X136221955Y-105004421D01*
X136203001Y-105099709D01*
X136187281Y-105131170D01*
X136152130Y-105190607D01*
X136152129Y-105190609D01*
X136107336Y-105344789D01*
X136107334Y-105344800D01*
X136104500Y-105380810D01*
X136104500Y-105779170D01*
X136104501Y-105779184D01*
X136107334Y-105815199D01*
X136107336Y-105815209D01*
X136152129Y-105969389D01*
X136158352Y-105983769D01*
X136156053Y-105984763D01*
X136180690Y-106054927D01*
X136175346Y-106151935D01*
X136157204Y-106195734D01*
X136158352Y-106196231D01*
X136152129Y-106210609D01*
X136107336Y-106364789D01*
X136107334Y-106364800D01*
X136104500Y-106400810D01*
X136104500Y-106799170D01*
X136104501Y-106799184D01*
X136107334Y-106835199D01*
X136107336Y-106835209D01*
X136152129Y-106989388D01*
X136152129Y-106989390D01*
X136152131Y-106989393D01*
X136233865Y-107127598D01*
X136347402Y-107241135D01*
X136455335Y-107304966D01*
X136485609Y-107322870D01*
X136575268Y-107348918D01*
X136639796Y-107367665D01*
X136675819Y-107370500D01*
X136675836Y-107370499D01*
X136680707Y-107370692D01*
X136680649Y-107372164D01*
X136767547Y-107389389D01*
X136848365Y-107443311D01*
X137754766Y-108349711D01*
X138651570Y-109246515D01*
X138705546Y-109327297D01*
X138724500Y-109422585D01*
X138724500Y-119958374D01*
X138705546Y-120053662D01*
X138674834Y-120107595D01*
X138581205Y-120232667D01*
X138530908Y-120367518D01*
X138524500Y-120427123D01*
X138524500Y-122022865D01*
X138524501Y-122022869D01*
X138530908Y-122082480D01*
X138530909Y-122082484D01*
X138551300Y-122137155D01*
X138581204Y-122217331D01*
X138667454Y-122332546D01*
X138782669Y-122418796D01*
X138917517Y-122469091D01*
X138977127Y-122475500D01*
X139208717Y-122475499D01*
X139304002Y-122494453D01*
X139384784Y-122548429D01*
X139438761Y-122629210D01*
X139457715Y-122724498D01*
X139452931Y-122773076D01*
X139451420Y-122780671D01*
X139451420Y-122780672D01*
X139432347Y-122876561D01*
X139424500Y-122916008D01*
X139424500Y-123053997D01*
X139451418Y-123189324D01*
X139451419Y-123189327D01*
X139504224Y-123316808D01*
X139504225Y-123316812D01*
X139580883Y-123431538D01*
X139580886Y-123431542D01*
X139678458Y-123529114D01*
X139678461Y-123529116D01*
X139793187Y-123605774D01*
X139793189Y-123605775D01*
X139868897Y-123637134D01*
X139920672Y-123658580D01*
X139920675Y-123658581D01*
X140030674Y-123680461D01*
X140056007Y-123685500D01*
X140193993Y-123685500D01*
X140261660Y-123672040D01*
X140329324Y-123658581D01*
X140329325Y-123658580D01*
X140329328Y-123658580D01*
X140456811Y-123605775D01*
X140571542Y-123529114D01*
X140669114Y-123431542D01*
X140745775Y-123316811D01*
X140798580Y-123189328D01*
X140799541Y-123184500D01*
X140819643Y-123083437D01*
X140825500Y-123053993D01*
X140825500Y-122916007D01*
X140798580Y-122780672D01*
X140798579Y-122780671D01*
X140797069Y-122773076D01*
X140797069Y-122675921D01*
X140834249Y-122586162D01*
X140902948Y-122517463D01*
X140992708Y-122480283D01*
X141041285Y-122475499D01*
X141175249Y-122475499D01*
X141270537Y-122494453D01*
X141351319Y-122548429D01*
X141374578Y-122575271D01*
X141417454Y-122632546D01*
X141532669Y-122718796D01*
X141607483Y-122746700D01*
X141690138Y-122797758D01*
X141746964Y-122876561D01*
X141769307Y-122971112D01*
X141753767Y-123067016D01*
X141702708Y-123149672D01*
X141623905Y-123206498D01*
X141607492Y-123213296D01*
X141532674Y-123241202D01*
X141532669Y-123241204D01*
X141417455Y-123327453D01*
X141417453Y-123327455D01*
X141331204Y-123442669D01*
X141280908Y-123577518D01*
X141274500Y-123637123D01*
X141274500Y-124532865D01*
X141274500Y-124532868D01*
X141274501Y-124532872D01*
X141276567Y-124552093D01*
X141280908Y-124592480D01*
X141280909Y-124592483D01*
X141307578Y-124663988D01*
X141323118Y-124759888D01*
X141300775Y-124854439D01*
X141243950Y-124933242D01*
X141161293Y-124984301D01*
X141074277Y-125000000D01*
X136175724Y-125000000D01*
X136080436Y-124981046D01*
X135999654Y-124927070D01*
X135945678Y-124846288D01*
X135926724Y-124751000D01*
X135942423Y-124663985D01*
X135969091Y-124592483D01*
X135970978Y-124574930D01*
X135975500Y-124532873D01*
X135975499Y-123637128D01*
X135969091Y-123577517D01*
X135918796Y-123442669D01*
X135832546Y-123327454D01*
X135717331Y-123241204D01*
X135717330Y-123241203D01*
X135717328Y-123241202D01*
X135642516Y-123213299D01*
X135559859Y-123162240D01*
X135503034Y-123083437D01*
X135480692Y-122988886D01*
X135492503Y-122916002D01*
X136424500Y-122916002D01*
X136424500Y-123053997D01*
X136451418Y-123189324D01*
X136451419Y-123189327D01*
X136504224Y-123316808D01*
X136504225Y-123316812D01*
X136580883Y-123431538D01*
X136580886Y-123431542D01*
X136678458Y-123529114D01*
X136678461Y-123529116D01*
X136793187Y-123605774D01*
X136793189Y-123605775D01*
X136868897Y-123637134D01*
X136920672Y-123658580D01*
X136920675Y-123658581D01*
X137030674Y-123680461D01*
X137056007Y-123685500D01*
X137193993Y-123685500D01*
X137261660Y-123672040D01*
X137329324Y-123658581D01*
X137329325Y-123658580D01*
X137329328Y-123658580D01*
X137456811Y-123605775D01*
X137571542Y-123529114D01*
X137669114Y-123431542D01*
X137745775Y-123316811D01*
X137798580Y-123189328D01*
X137799541Y-123184500D01*
X137819643Y-123083437D01*
X137825500Y-123053993D01*
X137825500Y-122916007D01*
X137817654Y-122876561D01*
X137798581Y-122780675D01*
X137798580Y-122780672D01*
X137772950Y-122718796D01*
X137745775Y-122653189D01*
X137731980Y-122632544D01*
X137669116Y-122538461D01*
X137669114Y-122538458D01*
X137571542Y-122440886D01*
X137554071Y-122429212D01*
X137456812Y-122364225D01*
X137456809Y-122364224D01*
X137380331Y-122332546D01*
X137329327Y-122311419D01*
X137329324Y-122311418D01*
X137193997Y-122284500D01*
X137193993Y-122284500D01*
X137056007Y-122284500D01*
X137056002Y-122284500D01*
X136920675Y-122311418D01*
X136920672Y-122311419D01*
X136793191Y-122364224D01*
X136793187Y-122364225D01*
X136678461Y-122440883D01*
X136580883Y-122538461D01*
X136504225Y-122653187D01*
X136504224Y-122653191D01*
X136451419Y-122780672D01*
X136451418Y-122780675D01*
X136424500Y-122916002D01*
X135492503Y-122916002D01*
X135496233Y-122892982D01*
X135547292Y-122810325D01*
X135626095Y-122753500D01*
X135642479Y-122746713D01*
X135717331Y-122718796D01*
X135832546Y-122632546D01*
X135918796Y-122517331D01*
X135969091Y-122382483D01*
X135975500Y-122322873D01*
X135975499Y-121427128D01*
X135969091Y-121367517D01*
X135918796Y-121232669D01*
X135832546Y-121117454D01*
X135717331Y-121031204D01*
X135637117Y-121001286D01*
X135582481Y-120980908D01*
X135522873Y-120974500D01*
X134427134Y-120974500D01*
X134427130Y-120974500D01*
X134427128Y-120974501D01*
X134414314Y-120975878D01*
X134367519Y-120980908D01*
X134367515Y-120980909D01*
X134232670Y-121031203D01*
X134117455Y-121117453D01*
X134117453Y-121117455D01*
X134031204Y-121232669D01*
X133980908Y-121367518D01*
X133974500Y-121427123D01*
X133974500Y-122322865D01*
X133974500Y-122322868D01*
X133974501Y-122322872D01*
X133975541Y-122332544D01*
X133980908Y-122382480D01*
X133980909Y-122382484D01*
X134015602Y-122475500D01*
X134031204Y-122517331D01*
X134117454Y-122632546D01*
X134232669Y-122718796D01*
X134307483Y-122746700D01*
X134390138Y-122797758D01*
X134446964Y-122876561D01*
X134469307Y-122971112D01*
X134453767Y-123067016D01*
X134402708Y-123149672D01*
X134323905Y-123206498D01*
X134307492Y-123213296D01*
X134232674Y-123241202D01*
X134232669Y-123241204D01*
X134117455Y-123327453D01*
X134117453Y-123327455D01*
X134031204Y-123442669D01*
X133980908Y-123577518D01*
X133974500Y-123637123D01*
X133974500Y-124532865D01*
X133974500Y-124532868D01*
X133974501Y-124532872D01*
X133976567Y-124552093D01*
X133980908Y-124592480D01*
X133980909Y-124592483D01*
X134007578Y-124663988D01*
X134023118Y-124759888D01*
X134000775Y-124854439D01*
X133943950Y-124933242D01*
X133861293Y-124984301D01*
X133774277Y-125000000D01*
X124621085Y-125000000D01*
X124525797Y-124981046D01*
X124445015Y-124927070D01*
X124391039Y-124846288D01*
X124372085Y-124751000D01*
X124391039Y-124655712D01*
X124445012Y-124574933D01*
X130271972Y-118747973D01*
X130352751Y-118694000D01*
X130448039Y-118675046D01*
X130543327Y-118694000D01*
X130624108Y-118747976D01*
X131055055Y-119178922D01*
X131459085Y-119582952D01*
X131459088Y-119582954D01*
X131473792Y-119592779D01*
X131473797Y-119592782D01*
X131473800Y-119592784D01*
X131526653Y-119628099D01*
X131582003Y-119665083D01*
X131582005Y-119665084D01*
X131627083Y-119683755D01*
X131627085Y-119683757D01*
X131627086Y-119683757D01*
X131718584Y-119721658D01*
X131718586Y-119721658D01*
X131718588Y-119721659D01*
X131757305Y-119729360D01*
X131834737Y-119744763D01*
X131834745Y-119744763D01*
X131863580Y-119750499D01*
X131863581Y-119750500D01*
X131863582Y-119750500D01*
X133770797Y-119750500D01*
X133770797Y-119750499D01*
X133915791Y-119721658D01*
X134052373Y-119665084D01*
X134119909Y-119619958D01*
X134175294Y-119582952D01*
X136357951Y-117400294D01*
X136440084Y-117277373D01*
X136496658Y-117140791D01*
X136525500Y-116995796D01*
X136525500Y-116847961D01*
X136525500Y-115365616D01*
X136544454Y-115270328D01*
X136598430Y-115189546D01*
X136679212Y-115135570D01*
X136691149Y-115131639D01*
X136691023Y-115131296D01*
X136703693Y-115126641D01*
X136874296Y-115042030D01*
X137022722Y-114922722D01*
X137142030Y-114774296D01*
X137226641Y-114603693D01*
X137272600Y-114418889D01*
X137275500Y-114376123D01*
X137275499Y-113473878D01*
X137272600Y-113431111D01*
X137226641Y-113246307D01*
X137142030Y-113075704D01*
X137025712Y-112930998D01*
X136980788Y-112844857D01*
X136972248Y-112748078D01*
X137001393Y-112655398D01*
X137025710Y-112619003D01*
X137142030Y-112474296D01*
X137226641Y-112303693D01*
X137272600Y-112118889D01*
X137275500Y-112076123D01*
X137275499Y-111173878D01*
X137272600Y-111131111D01*
X137226641Y-110946307D01*
X137158150Y-110808208D01*
X137142032Y-110775708D01*
X137142031Y-110775707D01*
X137142030Y-110775704D01*
X137022722Y-110627278D01*
X136874296Y-110507970D01*
X136874293Y-110507968D01*
X136874291Y-110507967D01*
X136703693Y-110423358D01*
X136518887Y-110377399D01*
X136518876Y-110377398D01*
X136476152Y-110374501D01*
X136476126Y-110374500D01*
X136476123Y-110374500D01*
X136476119Y-110374500D01*
X135689008Y-110374500D01*
X135593720Y-110355546D01*
X135512938Y-110301570D01*
X132248430Y-107037062D01*
X132194454Y-106956280D01*
X132175500Y-106860992D01*
X132175500Y-103199625D01*
X132194454Y-103104337D01*
X132216798Y-103066278D01*
X132215354Y-103065388D01*
X132246182Y-103015408D01*
X132312003Y-102908697D01*
X132365349Y-102747708D01*
X132375500Y-102648345D01*
X132375499Y-102051656D01*
X132365349Y-101952292D01*
X132312003Y-101791303D01*
X132222968Y-101646956D01*
X132103044Y-101527032D01*
X132095560Y-101522416D01*
X131988059Y-101456108D01*
X131958697Y-101437997D01*
X131797708Y-101384651D01*
X131748026Y-101379575D01*
X131698347Y-101374500D01*
X131698345Y-101374500D01*
X131557058Y-101374500D01*
X131461770Y-101355546D01*
X131380988Y-101301570D01*
X131327012Y-101220788D01*
X131308058Y-101125500D01*
X131308826Y-101105963D01*
X131310499Y-101084698D01*
X131310500Y-101084687D01*
X131310500Y-100615312D01*
X131310499Y-100615301D01*
X131310024Y-100609259D01*
X131321443Y-100512777D01*
X131368915Y-100428010D01*
X131445212Y-100367862D01*
X131538719Y-100341490D01*
X131635201Y-100352909D01*
G37*
%TD.AperFunction*%
%TA.AperFunction,Conductor*%
G36*
X129774888Y-101522416D02*
G01*
X129855670Y-101576392D01*
X129909646Y-101657171D01*
X129953535Y-101763127D01*
X129981687Y-101805260D01*
X130024725Y-101869672D01*
X130401569Y-102246514D01*
X130455546Y-102327295D01*
X130474500Y-102422583D01*
X130474500Y-102648342D01*
X130484652Y-102747713D01*
X130537995Y-102908693D01*
X130537996Y-102908695D01*
X130537997Y-102908697D01*
X130603818Y-103015408D01*
X130634646Y-103065388D01*
X130631987Y-103067027D01*
X130665049Y-103131674D01*
X130674500Y-103199625D01*
X130674500Y-103725500D01*
X130655546Y-103820788D01*
X130601570Y-103901570D01*
X130520788Y-103955546D01*
X130425500Y-103974500D01*
X130235609Y-103974500D01*
X130060735Y-104011670D01*
X130060731Y-104011671D01*
X129897410Y-104084387D01*
X129897408Y-104084388D01*
X129870566Y-104103890D01*
X129752769Y-104189474D01*
X129752767Y-104189476D01*
X129633143Y-104322331D01*
X129560242Y-104448600D01*
X129543750Y-104477165D01*
X129538073Y-104494638D01*
X129488502Y-104647197D01*
X129469815Y-104825000D01*
X129488502Y-105002802D01*
X129515078Y-105084592D01*
X129543750Y-105172835D01*
X129633141Y-105327665D01*
X129633143Y-105327668D01*
X129707195Y-105409910D01*
X129752770Y-105460526D01*
X129752773Y-105460528D01*
X129897404Y-105565610D01*
X129897409Y-105565613D01*
X130060727Y-105638327D01*
X130060730Y-105638327D01*
X130060733Y-105638329D01*
X130235609Y-105675500D01*
X130425500Y-105675500D01*
X130520788Y-105694454D01*
X130601570Y-105748430D01*
X130655546Y-105829212D01*
X130674500Y-105924500D01*
X130674500Y-107348920D01*
X130703341Y-107493911D01*
X130703342Y-107493913D01*
X130759916Y-107630495D01*
X130792813Y-107679729D01*
X130842048Y-107753416D01*
X132175390Y-109086758D01*
X133493298Y-110404666D01*
X133547274Y-110485448D01*
X133566228Y-110580736D01*
X133547274Y-110676024D01*
X133493298Y-110756806D01*
X133418507Y-110808208D01*
X133247412Y-110884385D01*
X133102769Y-110989474D01*
X133102767Y-110989476D01*
X132983143Y-111122331D01*
X132893751Y-111277163D01*
X132838502Y-111447197D01*
X132819815Y-111625000D01*
X132838502Y-111802802D01*
X132857390Y-111860931D01*
X132893750Y-111972835D01*
X132953400Y-112076152D01*
X132983143Y-112127668D01*
X133070782Y-112225000D01*
X133102770Y-112260526D01*
X133122605Y-112274937D01*
X133257965Y-112373283D01*
X133256529Y-112375259D01*
X133314951Y-112426486D01*
X133357928Y-112513619D01*
X133364289Y-112610565D01*
X133333066Y-112702566D01*
X133293487Y-112754151D01*
X132046071Y-114001569D01*
X131965289Y-114055546D01*
X131870001Y-114074500D01*
X129933876Y-114074500D01*
X129838588Y-114055546D01*
X129757806Y-114001570D01*
X129703830Y-113920788D01*
X129684876Y-113825500D01*
X129691550Y-113768238D01*
X129694090Y-113757485D01*
X129694089Y-113757485D01*
X129694091Y-113757483D01*
X129700500Y-113697873D01*
X129700499Y-113152128D01*
X129697756Y-113126612D01*
X129697756Y-113073383D01*
X129700500Y-113047873D01*
X129700499Y-112502128D01*
X129697756Y-112476612D01*
X129697756Y-112423383D01*
X129700500Y-112397873D01*
X129700499Y-111852128D01*
X129694091Y-111792517D01*
X129643796Y-111657669D01*
X129618756Y-111624220D01*
X129576826Y-111536584D01*
X129571624Y-111439569D01*
X129603944Y-111347947D01*
X129618749Y-111325789D01*
X129643796Y-111292331D01*
X129694091Y-111157483D01*
X129700500Y-111097873D01*
X129700499Y-110552128D01*
X129697756Y-110526612D01*
X129697756Y-110473383D01*
X129700500Y-110447873D01*
X129700499Y-109902128D01*
X129697756Y-109876612D01*
X129697756Y-109823383D01*
X129700500Y-109797873D01*
X129700499Y-109252128D01*
X129694091Y-109192517D01*
X129643796Y-109057669D01*
X129557546Y-108942454D01*
X129442331Y-108856204D01*
X129350762Y-108822051D01*
X129307481Y-108805908D01*
X129247873Y-108799500D01*
X127402134Y-108799500D01*
X127402130Y-108799500D01*
X127402128Y-108799501D01*
X127389314Y-108800878D01*
X127342519Y-108805908D01*
X127342515Y-108805909D01*
X127207670Y-108856203D01*
X127092455Y-108942453D01*
X127092453Y-108942455D01*
X127006204Y-109057669D01*
X126955908Y-109192518D01*
X126949500Y-109252124D01*
X126949500Y-109797863D01*
X126949501Y-109797869D01*
X126952244Y-109823393D01*
X126952243Y-109876607D01*
X126949500Y-109902123D01*
X126949500Y-110447863D01*
X126949501Y-110447869D01*
X126952244Y-110473393D01*
X126952243Y-110526607D01*
X126949500Y-110552123D01*
X126949500Y-111097865D01*
X126949500Y-111097868D01*
X126949501Y-111097872D01*
X126951567Y-111117093D01*
X126955908Y-111157480D01*
X126955909Y-111157484D01*
X127006204Y-111292331D01*
X127031243Y-111325779D01*
X127073174Y-111413419D01*
X127078375Y-111510435D01*
X127046053Y-111602056D01*
X127031236Y-111624231D01*
X127018665Y-111641022D01*
X126946384Y-111705941D01*
X126854761Y-111738258D01*
X126757746Y-111733053D01*
X126670107Y-111691118D01*
X126634300Y-111658409D01*
X126572230Y-111589474D01*
X126550980Y-111574035D01*
X126427595Y-111484389D01*
X126427590Y-111484386D01*
X126264272Y-111411672D01*
X126264264Y-111411670D01*
X126089391Y-111374500D01*
X125910609Y-111374500D01*
X125735735Y-111411670D01*
X125735731Y-111411671D01*
X125572412Y-111484386D01*
X125572408Y-111484388D01*
X125520369Y-111522197D01*
X125427769Y-111589474D01*
X125427767Y-111589476D01*
X125308143Y-111722331D01*
X125218751Y-111877163D01*
X125218750Y-111877165D01*
X125204422Y-111921260D01*
X125163502Y-112047197D01*
X125144815Y-112225000D01*
X125163502Y-112402802D01*
X125187124Y-112475500D01*
X125218750Y-112572835D01*
X125293162Y-112701721D01*
X125308141Y-112727665D01*
X125414588Y-112845886D01*
X125464263Y-112929382D01*
X125478204Y-113025531D01*
X125454289Y-113119697D01*
X125414588Y-113179114D01*
X125308141Y-113297334D01*
X125218751Y-113452163D01*
X125163502Y-113622197D01*
X125144815Y-113800000D01*
X125163502Y-113977802D01*
X125179720Y-114027713D01*
X125218750Y-114147835D01*
X125273834Y-114243243D01*
X125308143Y-114302668D01*
X125374282Y-114376122D01*
X125427770Y-114435526D01*
X125427779Y-114435533D01*
X125437466Y-114444255D01*
X125436254Y-114445600D01*
X125491195Y-114505034D01*
X125524822Y-114596184D01*
X125526524Y-114661163D01*
X125519815Y-114724997D01*
X125519815Y-114724999D01*
X125538502Y-114902802D01*
X125566126Y-114987819D01*
X125593750Y-115072835D01*
X125683141Y-115227665D01*
X125683143Y-115227668D01*
X125754832Y-115307286D01*
X125802770Y-115360526D01*
X125802773Y-115360528D01*
X125947404Y-115465610D01*
X125947409Y-115465613D01*
X126110727Y-115538327D01*
X126110730Y-115538327D01*
X126110733Y-115538329D01*
X126285609Y-115575500D01*
X126464391Y-115575500D01*
X126652031Y-115535616D01*
X126652287Y-115536821D01*
X126735581Y-115526961D01*
X126829089Y-115553330D01*
X126905388Y-115613476D01*
X126949968Y-115693074D01*
X126950466Y-115692889D01*
X126951664Y-115696101D01*
X126952863Y-115698242D01*
X126954070Y-115702554D01*
X127006204Y-115842331D01*
X127031243Y-115875779D01*
X127073174Y-115963419D01*
X127078375Y-116060435D01*
X127046053Y-116152056D01*
X127031243Y-116174221D01*
X127006205Y-116207667D01*
X126955908Y-116342518D01*
X126949500Y-116402123D01*
X126949500Y-116425500D01*
X126930546Y-116520788D01*
X126876570Y-116601570D01*
X126795788Y-116655546D01*
X126700500Y-116674500D01*
X126560928Y-116674500D01*
X126435257Y-116699498D01*
X126316878Y-116748532D01*
X126316874Y-116748534D01*
X126316873Y-116748535D01*
X126228737Y-116807425D01*
X126210326Y-116819727D01*
X122128484Y-120901570D01*
X122047702Y-120955546D01*
X121952414Y-120974500D01*
X117863228Y-120974500D01*
X117767940Y-120955546D01*
X117687158Y-120901570D01*
X117633182Y-120820788D01*
X117614228Y-120725500D01*
X117633182Y-120630212D01*
X117687158Y-120549430D01*
X117767940Y-120495454D01*
X117786284Y-120488687D01*
X117795421Y-120485718D01*
X117795423Y-120485716D01*
X117795429Y-120485715D01*
X117967302Y-120398141D01*
X118123359Y-120284759D01*
X118259759Y-120148359D01*
X118373141Y-119992302D01*
X118460715Y-119820429D01*
X118520324Y-119636972D01*
X118550500Y-119446449D01*
X118550500Y-118703551D01*
X118550499Y-118703548D01*
X118550499Y-118703541D01*
X118520324Y-118513030D01*
X118520324Y-118513028D01*
X118460715Y-118329571D01*
X118373141Y-118157698D01*
X118259759Y-118001641D01*
X118123359Y-117865241D01*
X118094579Y-117844331D01*
X117967301Y-117751858D01*
X117795434Y-117664287D01*
X117795424Y-117664283D01*
X117611969Y-117604675D01*
X117421458Y-117574500D01*
X117421449Y-117574500D01*
X117228551Y-117574500D01*
X117228541Y-117574500D01*
X117038030Y-117604675D01*
X116854575Y-117664283D01*
X116854565Y-117664287D01*
X116682698Y-117751858D01*
X116526644Y-117865238D01*
X116390238Y-118001644D01*
X116276858Y-118157698D01*
X116189287Y-118329565D01*
X116189283Y-118329575D01*
X116129675Y-118513030D01*
X116099500Y-118703541D01*
X116099500Y-119002852D01*
X116080546Y-119098140D01*
X116026570Y-119178922D01*
X115945788Y-119232898D01*
X115902269Y-119246411D01*
X115820203Y-119263854D01*
X115820189Y-119263858D01*
X115647271Y-119340847D01*
X115494128Y-119452112D01*
X115409540Y-119546056D01*
X115331694Y-119604185D01*
X115237528Y-119628099D01*
X115141379Y-119614157D01*
X115057883Y-119564481D01*
X114999754Y-119486635D01*
X114975840Y-119392469D01*
X114975499Y-119379468D01*
X114975499Y-118327128D01*
X114969091Y-118267517D01*
X114918796Y-118132669D01*
X114832546Y-118017454D01*
X114717331Y-117931204D01*
X114636421Y-117901026D01*
X114553765Y-117849968D01*
X114496940Y-117771164D01*
X114474597Y-117676614D01*
X114475802Y-117641697D01*
X114476156Y-117638329D01*
X114480185Y-117600000D01*
X114461497Y-117422197D01*
X114422261Y-117301443D01*
X114410842Y-117204965D01*
X114437214Y-117111458D01*
X114497361Y-117035160D01*
X114582128Y-116987687D01*
X114659075Y-116975500D01*
X114679165Y-116975500D01*
X114679174Y-116975500D01*
X114777685Y-116965436D01*
X114937287Y-116912549D01*
X115069285Y-116831130D01*
X115160332Y-116797241D01*
X115257423Y-116800773D01*
X115330713Y-116831130D01*
X115462713Y-116912549D01*
X115622315Y-116965436D01*
X115720826Y-116975500D01*
X115720835Y-116975500D01*
X116254165Y-116975500D01*
X116254174Y-116975500D01*
X116352685Y-116965436D01*
X116512287Y-116912549D01*
X116655391Y-116824281D01*
X116724090Y-116755582D01*
X116756243Y-116723430D01*
X116837025Y-116669454D01*
X116932312Y-116650500D01*
X117331238Y-116650500D01*
X117426526Y-116669454D01*
X117477597Y-116698055D01*
X117497739Y-116712690D01*
X117522404Y-116730610D01*
X117522409Y-116730613D01*
X117685727Y-116803327D01*
X117685730Y-116803327D01*
X117685733Y-116803329D01*
X117860609Y-116840500D01*
X118039391Y-116840500D01*
X118214267Y-116803329D01*
X118227941Y-116797241D01*
X118310302Y-116760572D01*
X118405061Y-116739129D01*
X118500813Y-116755582D01*
X118582980Y-116807425D01*
X118639052Y-116886766D01*
X118659216Y-116962016D01*
X118663502Y-117002802D01*
X118690150Y-117084814D01*
X118718750Y-117172835D01*
X118790619Y-117297316D01*
X118808143Y-117327668D01*
X118875324Y-117402279D01*
X118927770Y-117460526D01*
X119000088Y-117513069D01*
X119072404Y-117565610D01*
X119072409Y-117565613D01*
X119235727Y-117638327D01*
X119235730Y-117638327D01*
X119235733Y-117638329D01*
X119410609Y-117675500D01*
X119500500Y-117675500D01*
X119595788Y-117694454D01*
X119676570Y-117748430D01*
X119730546Y-117829212D01*
X119749500Y-117924499D01*
X119749500Y-118247865D01*
X119749500Y-118247868D01*
X119749501Y-118247872D01*
X119749676Y-118249500D01*
X119755908Y-118307480D01*
X119755909Y-118307484D01*
X119791419Y-118402691D01*
X119806204Y-118442331D01*
X119892454Y-118557546D01*
X120007669Y-118643796D01*
X120142517Y-118694091D01*
X120202127Y-118700500D01*
X122047872Y-118700499D01*
X122107483Y-118694091D01*
X122242331Y-118643796D01*
X122357546Y-118557546D01*
X122443796Y-118442331D01*
X122494091Y-118307483D01*
X122500500Y-118247873D01*
X122500499Y-117702128D01*
X122497756Y-117676612D01*
X122497756Y-117623383D01*
X122500500Y-117597873D01*
X122500499Y-117052128D01*
X122497756Y-117026612D01*
X122497756Y-116973383D01*
X122500500Y-116947873D01*
X122500499Y-116402128D01*
X122497756Y-116376612D01*
X122497756Y-116323383D01*
X122500500Y-116297873D01*
X122500499Y-115752128D01*
X122497756Y-115726612D01*
X122497756Y-115673383D01*
X122500500Y-115647873D01*
X122500499Y-115102128D01*
X122497756Y-115076612D01*
X122497756Y-115023383D01*
X122500500Y-114997873D01*
X122500499Y-114452128D01*
X122497756Y-114426612D01*
X122497756Y-114373383D01*
X122500500Y-114347873D01*
X122500499Y-113802128D01*
X122494091Y-113742517D01*
X122443796Y-113607669D01*
X122418756Y-113574220D01*
X122376826Y-113486584D01*
X122371624Y-113389569D01*
X122403944Y-113297947D01*
X122418749Y-113275789D01*
X122443796Y-113242331D01*
X122494091Y-113107483D01*
X122500500Y-113047873D01*
X122500499Y-112889767D01*
X122519452Y-112794481D01*
X122573428Y-112713699D01*
X122611168Y-112682728D01*
X122619143Y-112677400D01*
X122689669Y-112630277D01*
X126305277Y-109014669D01*
X126376465Y-108908127D01*
X126412119Y-108822051D01*
X126425501Y-108789744D01*
X126450500Y-108664069D01*
X126450500Y-108349711D01*
X126469454Y-108254423D01*
X126514457Y-108183097D01*
X126541859Y-108152665D01*
X126631250Y-107997835D01*
X126686497Y-107827803D01*
X126705185Y-107650000D01*
X126686497Y-107472197D01*
X126663508Y-107401447D01*
X126652088Y-107304966D01*
X126678459Y-107211459D01*
X126738606Y-107135161D01*
X126823373Y-107087688D01*
X126900321Y-107075500D01*
X127324985Y-107075500D01*
X127420273Y-107094454D01*
X127501055Y-107148430D01*
X127555031Y-107229212D01*
X127561798Y-107247554D01*
X127563502Y-107252800D01*
X127563503Y-107252803D01*
X127600824Y-107367665D01*
X127618750Y-107422835D01*
X127708143Y-107577668D01*
X127755710Y-107630496D01*
X127827770Y-107710526D01*
X127827773Y-107710528D01*
X127972404Y-107815610D01*
X127972409Y-107815613D01*
X128135727Y-107888327D01*
X128135730Y-107888327D01*
X128135733Y-107888329D01*
X128310609Y-107925500D01*
X128489391Y-107925500D01*
X128664267Y-107888329D01*
X128664270Y-107888327D01*
X128664272Y-107888327D01*
X128800211Y-107827803D01*
X128827593Y-107815612D01*
X128972230Y-107710526D01*
X129091859Y-107577665D01*
X129181250Y-107422835D01*
X129236497Y-107252803D01*
X129255185Y-107075000D01*
X129236497Y-106897197D01*
X129181250Y-106727165D01*
X129091859Y-106572335D01*
X129091857Y-106572332D01*
X129091856Y-106572331D01*
X128972236Y-106439481D01*
X128972230Y-106439474D01*
X128972226Y-106439471D01*
X128827595Y-106334389D01*
X128827590Y-106334386D01*
X128664272Y-106261672D01*
X128664264Y-106261670D01*
X128536208Y-106234451D01*
X128446943Y-106196099D01*
X128411908Y-106166962D01*
X128164669Y-105919723D01*
X128058127Y-105848534D01*
X127962857Y-105809073D01*
X127939744Y-105799499D01*
X127939742Y-105799498D01*
X127939741Y-105799498D01*
X127814071Y-105774500D01*
X127814069Y-105774500D01*
X126019061Y-105774500D01*
X125923773Y-105755546D01*
X125842991Y-105701570D01*
X125789015Y-105620788D01*
X125770061Y-105525500D01*
X125789015Y-105430212D01*
X125842991Y-105349430D01*
X127564007Y-103628414D01*
X129342777Y-101849644D01*
X129413965Y-101743102D01*
X129449558Y-101657171D01*
X129503531Y-101576395D01*
X129584311Y-101522418D01*
X129679599Y-101503463D01*
X129774888Y-101522416D01*
G37*
%TD.AperFunction*%
%TA.AperFunction,Conductor*%
G36*
X134120788Y-113984125D02*
G01*
X134201569Y-114038101D01*
X134255546Y-114118883D01*
X134274500Y-114214170D01*
X134274500Y-114376110D01*
X134274501Y-114376130D01*
X134277400Y-114418890D01*
X134277400Y-114418892D01*
X134323359Y-114603694D01*
X134407967Y-114774291D01*
X134407968Y-114774293D01*
X134407970Y-114774296D01*
X134527278Y-114922722D01*
X134675704Y-115042030D01*
X134675707Y-115042031D01*
X134675708Y-115042032D01*
X134846306Y-115126641D01*
X134858977Y-115131296D01*
X134857818Y-115134448D01*
X134923441Y-115165330D01*
X134988826Y-115237191D01*
X135021734Y-115328603D01*
X135024500Y-115365616D01*
X135024500Y-116507870D01*
X135005546Y-116603158D01*
X134951570Y-116683940D01*
X133458940Y-118176570D01*
X133378158Y-118230546D01*
X133282870Y-118249500D01*
X132351506Y-118249500D01*
X132256218Y-118230546D01*
X132175439Y-118176572D01*
X131648430Y-117649562D01*
X131594454Y-117568781D01*
X131575500Y-117473493D01*
X131575500Y-117395835D01*
X131575500Y-117395826D01*
X131565436Y-117297315D01*
X131538827Y-117217016D01*
X131526847Y-117120605D01*
X131552674Y-117026946D01*
X131612377Y-116950300D01*
X131696866Y-116902335D01*
X131793280Y-116890354D01*
X131886939Y-116916181D01*
X131951255Y-116962623D01*
X131981344Y-116992712D01*
X132130666Y-117084814D01*
X132130669Y-117084815D01*
X132130667Y-117084815D01*
X132270079Y-117131011D01*
X132297203Y-117139999D01*
X132399991Y-117150500D01*
X133450008Y-117150499D01*
X133552797Y-117139999D01*
X133719334Y-117084814D01*
X133868656Y-116992712D01*
X133992712Y-116868656D01*
X134084814Y-116719334D01*
X134139999Y-116552797D01*
X134150500Y-116450009D01*
X134150499Y-115849992D01*
X134149716Y-115842331D01*
X134142518Y-115771867D01*
X134139999Y-115747203D01*
X134133180Y-115726626D01*
X134084814Y-115580667D01*
X134084814Y-115580666D01*
X133992712Y-115431344D01*
X133868656Y-115307288D01*
X133719334Y-115215186D01*
X133719332Y-115215185D01*
X133719330Y-115215184D01*
X133719332Y-115215184D01*
X133552802Y-115160002D01*
X133552798Y-115160001D01*
X133552797Y-115160001D01*
X133501403Y-115154750D01*
X133450011Y-115149500D01*
X133450009Y-115149500D01*
X133339172Y-115149500D01*
X133243884Y-115130546D01*
X133163102Y-115076570D01*
X133109126Y-114995788D01*
X133090172Y-114900500D01*
X133109126Y-114805212D01*
X133163102Y-114724431D01*
X133849430Y-114038102D01*
X133930212Y-113984125D01*
X134025500Y-113965171D01*
X134120788Y-113984125D01*
G37*
%TD.AperFunction*%
%TA.AperFunction,Conductor*%
G36*
X138847702Y-98194454D02*
G01*
X138928484Y-98248430D01*
X150601260Y-109921206D01*
X150655236Y-110001988D01*
X150674190Y-110097276D01*
X150666740Y-110153869D01*
X150666825Y-110153884D01*
X150666482Y-110155828D01*
X150665707Y-110161717D01*
X150664937Y-110164588D01*
X150664935Y-110164598D01*
X150644341Y-110399994D01*
X150644341Y-110400005D01*
X150664935Y-110635401D01*
X150719029Y-110837287D01*
X150726097Y-110863663D01*
X150759645Y-110935607D01*
X150825965Y-111077830D01*
X150893225Y-111173888D01*
X150961505Y-111271401D01*
X151128599Y-111438495D01*
X151167925Y-111466031D01*
X151235107Y-111536209D01*
X151270321Y-111626758D01*
X151268202Y-111723890D01*
X151229074Y-111812818D01*
X151167928Y-111873965D01*
X151128602Y-111901502D01*
X151128598Y-111901505D01*
X151033253Y-111996850D01*
X150952471Y-112050826D01*
X150857183Y-112069780D01*
X150761895Y-112050826D01*
X150681114Y-111996850D01*
X146896262Y-108211998D01*
X146842288Y-108131219D01*
X146790084Y-108005187D01*
X146707951Y-107882266D01*
X146685679Y-107859994D01*
X146603416Y-107777730D01*
X146603416Y-107777731D01*
X144317735Y-105492049D01*
X144298954Y-105479500D01*
X144207721Y-105418541D01*
X144207717Y-105418537D01*
X144194820Y-105409920D01*
X144194802Y-105409910D01*
X144058232Y-105353342D01*
X144058229Y-105353341D01*
X143913238Y-105324500D01*
X143913236Y-105324500D01*
X141875823Y-105324500D01*
X141780535Y-105305546D01*
X141699753Y-105251570D01*
X141663894Y-105206218D01*
X141654266Y-105190609D01*
X141617712Y-105131344D01*
X141493656Y-105007288D01*
X141469343Y-104992292D01*
X141457436Y-104984948D01*
X141344334Y-104915186D01*
X141344332Y-104915185D01*
X141344330Y-104915184D01*
X141344332Y-104915184D01*
X141177802Y-104860002D01*
X141177798Y-104860001D01*
X141177797Y-104860001D01*
X141075009Y-104849500D01*
X141075005Y-104849500D01*
X140474993Y-104849500D01*
X140372199Y-104860001D01*
X140205667Y-104915185D01*
X140056346Y-105007286D01*
X139932286Y-105131346D01*
X139840184Y-105280668D01*
X139785002Y-105447197D01*
X139785001Y-105447204D01*
X139774500Y-105549988D01*
X139774500Y-106599997D01*
X139774501Y-106600014D01*
X139785001Y-106702800D01*
X139840185Y-106869332D01*
X139840186Y-106869334D01*
X139886106Y-106943782D01*
X139914238Y-106989393D01*
X139932288Y-107018656D01*
X140056344Y-107142712D01*
X140205666Y-107234814D01*
X140205669Y-107234815D01*
X140205667Y-107234815D01*
X140369310Y-107289040D01*
X140372203Y-107289999D01*
X140474991Y-107300500D01*
X141075008Y-107300499D01*
X141177797Y-107289999D01*
X141344334Y-107234814D01*
X141493656Y-107142712D01*
X141617712Y-107018656D01*
X141663895Y-106943780D01*
X141730050Y-106872631D01*
X141818398Y-106832212D01*
X141875823Y-106825500D01*
X143425310Y-106825500D01*
X143520598Y-106844454D01*
X143601380Y-106898430D01*
X145301570Y-108598619D01*
X145355546Y-108679401D01*
X145374500Y-108774689D01*
X145374500Y-109125500D01*
X145355546Y-109220788D01*
X145301570Y-109301570D01*
X145220788Y-109355546D01*
X145125500Y-109374500D01*
X144770823Y-109374500D01*
X144696942Y-109382048D01*
X144672315Y-109384564D01*
X144672313Y-109384564D01*
X144512712Y-109437451D01*
X144369611Y-109525717D01*
X144250717Y-109644611D01*
X144162451Y-109787712D01*
X144109564Y-109947313D01*
X144109564Y-109947316D01*
X144099500Y-110045823D01*
X144099500Y-110579176D01*
X144101476Y-110598513D01*
X144109394Y-110676024D01*
X144109564Y-110677683D01*
X144109564Y-110677686D01*
X144162451Y-110837287D01*
X144191501Y-110884385D01*
X144250719Y-110980391D01*
X144351572Y-111081244D01*
X144405546Y-111162023D01*
X144424500Y-111257311D01*
X144424500Y-111754069D01*
X144444007Y-111852134D01*
X144444938Y-111856811D01*
X144444939Y-111856821D01*
X144444940Y-111856821D01*
X144449499Y-111879747D01*
X144452068Y-111888213D01*
X144461594Y-111984900D01*
X144433393Y-112077872D01*
X144371761Y-112152976D01*
X144286079Y-112198776D01*
X144213792Y-112209500D01*
X143824499Y-112209500D01*
X143729211Y-112190546D01*
X143648429Y-112136570D01*
X143594453Y-112055788D01*
X143575499Y-111960500D01*
X143575499Y-110166968D01*
X143575498Y-110166956D01*
X143575288Y-110164598D01*
X143564886Y-110047582D01*
X143508909Y-109851951D01*
X143414698Y-109671593D01*
X143286109Y-109513891D01*
X143128407Y-109385302D01*
X143128402Y-109385299D01*
X142948053Y-109291093D01*
X142948052Y-109291092D01*
X142948049Y-109291091D01*
X142752418Y-109235114D01*
X142633037Y-109224500D01*
X142633035Y-109224500D01*
X141516968Y-109224500D01*
X141516956Y-109224501D01*
X141397585Y-109235113D01*
X141201954Y-109291090D01*
X141201946Y-109291093D01*
X141021597Y-109385299D01*
X141021592Y-109385302D01*
X140863893Y-109513889D01*
X140863889Y-109513893D01*
X140735302Y-109671592D01*
X140735299Y-109671597D01*
X140641093Y-109851946D01*
X140641090Y-109851954D01*
X140585115Y-110047578D01*
X140585114Y-110047582D01*
X140574500Y-110166963D01*
X140574500Y-110538240D01*
X140555546Y-110633528D01*
X140501570Y-110714310D01*
X140420788Y-110768286D01*
X140325500Y-110787240D01*
X140273730Y-110781799D01*
X140226627Y-110771787D01*
X140227247Y-110768866D01*
X140155665Y-110746631D01*
X140080974Y-110684499D01*
X140035747Y-110598513D01*
X140025500Y-110527818D01*
X140025500Y-108985930D01*
X140025499Y-108985928D01*
X140016851Y-108942454D01*
X140000501Y-108860256D01*
X139951465Y-108741873D01*
X139880276Y-108635331D01*
X139838855Y-108593910D01*
X139789669Y-108544723D01*
X139789669Y-108544724D01*
X137818429Y-106573483D01*
X137764453Y-106492701D01*
X137747138Y-106405656D01*
X137745691Y-106405713D01*
X137745499Y-106400840D01*
X137745499Y-106400820D01*
X137742665Y-106364796D01*
X137712705Y-106261672D01*
X137697871Y-106210613D01*
X137697870Y-106210611D01*
X137697869Y-106210607D01*
X137697866Y-106210603D01*
X137691650Y-106196237D01*
X137693949Y-106195241D01*
X137669312Y-106125088D01*
X137674649Y-106028080D01*
X137692799Y-105984260D01*
X137691650Y-105983763D01*
X137697865Y-105969399D01*
X137697869Y-105969393D01*
X137742665Y-105815204D01*
X137745500Y-105779181D01*
X137745499Y-105380820D01*
X137742665Y-105344796D01*
X137697869Y-105190607D01*
X137616135Y-105052402D01*
X137616133Y-105052400D01*
X137610175Y-105042325D01*
X137577984Y-104950658D01*
X137575500Y-104915574D01*
X137575500Y-104620310D01*
X137575499Y-104620308D01*
X137564409Y-104564557D01*
X137550501Y-104494636D01*
X137501465Y-104376253D01*
X137489235Y-104357949D01*
X137444687Y-104291277D01*
X137430278Y-104269712D01*
X131761136Y-98600570D01*
X131707160Y-98519788D01*
X131688206Y-98424500D01*
X131707160Y-98329212D01*
X131761136Y-98248430D01*
X131841918Y-98194454D01*
X131937206Y-98175500D01*
X138752414Y-98175500D01*
X138847702Y-98194454D01*
G37*
%TD.AperFunction*%
%TA.AperFunction,Conductor*%
G36*
X114233172Y-100949454D02*
G01*
X114313954Y-101003430D01*
X114346338Y-101043310D01*
X114451828Y-101204774D01*
X114451836Y-101204785D01*
X114620248Y-101387730D01*
X114620252Y-101387733D01*
X114620256Y-101387738D01*
X114620260Y-101387741D01*
X114620261Y-101387742D01*
X114816485Y-101540470D01*
X114816487Y-101540471D01*
X114816491Y-101540474D01*
X115035190Y-101658828D01*
X115068636Y-101670310D01*
X115270378Y-101739569D01*
X115270382Y-101739569D01*
X115270386Y-101739571D01*
X115515665Y-101780500D01*
X115764335Y-101780500D01*
X116019773Y-101737876D01*
X116020016Y-101739334D01*
X116105136Y-101734930D01*
X116196697Y-101767421D01*
X116245315Y-101805260D01*
X116362221Y-101922166D01*
X116362221Y-101922167D01*
X116820323Y-102380270D01*
X116820326Y-102380272D01*
X116820330Y-102380276D01*
X116926873Y-102451465D01*
X117045256Y-102500501D01*
X117170929Y-102525499D01*
X117170930Y-102525500D01*
X117170931Y-102525500D01*
X117431842Y-102525500D01*
X117527130Y-102544454D01*
X117558593Y-102560175D01*
X117638605Y-102607494D01*
X117794007Y-102652643D01*
X117830310Y-102655500D01*
X117830312Y-102655500D01*
X118299688Y-102655500D01*
X118299690Y-102655500D01*
X118335993Y-102652643D01*
X118491395Y-102607494D01*
X118630687Y-102525117D01*
X118745117Y-102410687D01*
X118827494Y-102271395D01*
X118872643Y-102115993D01*
X118875500Y-102079690D01*
X118875500Y-101849500D01*
X118894454Y-101754212D01*
X118948430Y-101673430D01*
X119029212Y-101619454D01*
X119124500Y-101600500D01*
X119847034Y-101600500D01*
X119942322Y-101619454D01*
X120023104Y-101673430D01*
X120077080Y-101754212D01*
X120096034Y-101849500D01*
X120077080Y-101944788D01*
X120023104Y-102025570D01*
X119964414Y-102069097D01*
X119956115Y-102073532D01*
X119849571Y-102144723D01*
X119849569Y-102144724D01*
X117502664Y-104491627D01*
X117421883Y-104545603D01*
X117326595Y-104564557D01*
X117231307Y-104545603D01*
X117150525Y-104491626D01*
X117096549Y-104410845D01*
X117085214Y-104376683D01*
X117063586Y-104291277D01*
X116963730Y-104063628D01*
X116863435Y-103910117D01*
X116163787Y-104609764D01*
X116152518Y-104567708D01*
X116080110Y-104442292D01*
X115977708Y-104339890D01*
X115852292Y-104267482D01*
X115810232Y-104256212D01*
X116510056Y-103556388D01*
X116463241Y-103519951D01*
X116463230Y-103519944D01*
X116244607Y-103401631D01*
X116009490Y-103320916D01*
X116009487Y-103320915D01*
X115764294Y-103280000D01*
X115515706Y-103280000D01*
X115270512Y-103320915D01*
X115270509Y-103320916D01*
X115035392Y-103401631D01*
X114816768Y-103519944D01*
X114816758Y-103519951D01*
X114769941Y-103556388D01*
X115469765Y-104256212D01*
X115427708Y-104267482D01*
X115302292Y-104339890D01*
X115199890Y-104442292D01*
X115127482Y-104567708D01*
X115116212Y-104609766D01*
X114416563Y-103910117D01*
X114316268Y-104063630D01*
X114316268Y-104063631D01*
X114216413Y-104291277D01*
X114216410Y-104291285D01*
X114155389Y-104532251D01*
X114155387Y-104532258D01*
X114134859Y-104779999D01*
X114155387Y-105027741D01*
X114155388Y-105027748D01*
X114191254Y-105169373D01*
X114196273Y-105266398D01*
X114163779Y-105357958D01*
X114098720Y-105430114D01*
X114011001Y-105471880D01*
X113949874Y-105479500D01*
X110830126Y-105479500D01*
X110734838Y-105460546D01*
X110654056Y-105406570D01*
X110600080Y-105325788D01*
X110581126Y-105230500D01*
X110588746Y-105169373D01*
X110624611Y-105027748D01*
X110624612Y-105027741D01*
X110645141Y-104779999D01*
X110624612Y-104532258D01*
X110624610Y-104532251D01*
X110563589Y-104291285D01*
X110563586Y-104291277D01*
X110463730Y-104063628D01*
X110363435Y-103910117D01*
X109663787Y-104609765D01*
X109652518Y-104567708D01*
X109580110Y-104442292D01*
X109477708Y-104339890D01*
X109352292Y-104267482D01*
X109310232Y-104256212D01*
X110010056Y-103556388D01*
X109963241Y-103519951D01*
X109963230Y-103519944D01*
X109744607Y-103401631D01*
X109509490Y-103320916D01*
X109509487Y-103320915D01*
X109264294Y-103280000D01*
X109015706Y-103280000D01*
X108770512Y-103320915D01*
X108770509Y-103320916D01*
X108535392Y-103401631D01*
X108343011Y-103505743D01*
X108250186Y-103534426D01*
X108153451Y-103525402D01*
X108067532Y-103480047D01*
X108005511Y-103405265D01*
X107976828Y-103312440D01*
X107975500Y-103286754D01*
X107975500Y-101773814D01*
X107994454Y-101678526D01*
X108048430Y-101597744D01*
X108129212Y-101543768D01*
X108224500Y-101524814D01*
X108319788Y-101543768D01*
X108342989Y-101554814D01*
X108535190Y-101658828D01*
X108592568Y-101678526D01*
X108770378Y-101739569D01*
X108770382Y-101739569D01*
X108770386Y-101739571D01*
X109015665Y-101780500D01*
X109264335Y-101780500D01*
X109509614Y-101739571D01*
X109509618Y-101739569D01*
X109509621Y-101739569D01*
X109636179Y-101696121D01*
X109744810Y-101658828D01*
X109963509Y-101540474D01*
X110159744Y-101387738D01*
X110328164Y-101204785D01*
X110377315Y-101129554D01*
X110433662Y-101043310D01*
X110501647Y-100973905D01*
X110591017Y-100935799D01*
X110642116Y-100930500D01*
X114137884Y-100930500D01*
X114233172Y-100949454D01*
G37*
%TD.AperFunction*%
%TA.AperFunction,Conductor*%
G36*
X114351299Y-94415725D02*
G01*
X114361060Y-94419768D01*
X114435256Y-94450501D01*
X114560929Y-94475499D01*
X114560930Y-94475500D01*
X114560931Y-94475500D01*
X115204901Y-94475500D01*
X115300189Y-94494454D01*
X115380971Y-94548430D01*
X115434947Y-94629212D01*
X115452537Y-94698472D01*
X115463502Y-94802802D01*
X115488318Y-94879176D01*
X115518750Y-94972835D01*
X115606891Y-95125500D01*
X115608143Y-95127668D01*
X115637260Y-95160005D01*
X115727770Y-95260526D01*
X115727773Y-95260528D01*
X115872404Y-95365610D01*
X115872409Y-95365613D01*
X116035727Y-95438327D01*
X116035730Y-95438327D01*
X116035733Y-95438329D01*
X116210609Y-95475500D01*
X116389389Y-95475500D01*
X116389391Y-95475500D01*
X116405852Y-95472000D01*
X116502996Y-95470728D01*
X116593235Y-95506727D01*
X116662829Y-95574520D01*
X116701182Y-95663784D01*
X116702455Y-95760931D01*
X116693987Y-95793876D01*
X116684565Y-95822310D01*
X116684564Y-95822316D01*
X116674500Y-95920823D01*
X116674500Y-96075500D01*
X116655546Y-96170788D01*
X116601570Y-96251570D01*
X116520788Y-96305546D01*
X116425500Y-96324500D01*
X115685740Y-96324500D01*
X115590452Y-96305546D01*
X115509670Y-96251570D01*
X114079941Y-94821841D01*
X114025965Y-94741059D01*
X114007011Y-94645771D01*
X114025965Y-94550483D01*
X114079941Y-94469701D01*
X114160723Y-94415725D01*
X114256011Y-94396771D01*
X114351299Y-94415725D01*
G37*
%TD.AperFunction*%
%TA.AperFunction,Conductor*%
G36*
X119117441Y-94494454D02*
G01*
X119198223Y-94548430D01*
X119599223Y-94949430D01*
X119653199Y-95030212D01*
X119672153Y-95125500D01*
X119653199Y-95220788D01*
X119599223Y-95301570D01*
X119518441Y-95355546D01*
X119423153Y-95374500D01*
X119315301Y-95374500D01*
X119279009Y-95377356D01*
X119279006Y-95377357D01*
X119216900Y-95395401D01*
X119123605Y-95422506D01*
X118988637Y-95502325D01*
X118896972Y-95534516D01*
X118861888Y-95537000D01*
X118762144Y-95537000D01*
X118666856Y-95518046D01*
X118586074Y-95464070D01*
X118532098Y-95383288D01*
X118513144Y-95288000D01*
X118532098Y-95192712D01*
X118550217Y-95157280D01*
X118554398Y-95150501D01*
X118562549Y-95137287D01*
X118615436Y-94977685D01*
X118625500Y-94879174D01*
X118625500Y-94724500D01*
X118644454Y-94629212D01*
X118698430Y-94548430D01*
X118779212Y-94494454D01*
X118874500Y-94475500D01*
X119022153Y-94475500D01*
X119117441Y-94494454D01*
G37*
%TD.AperFunction*%
%TA.AperFunction,Conductor*%
G36*
X116706478Y-91662795D02*
G01*
X116773605Y-91702494D01*
X116929007Y-91747643D01*
X116965310Y-91750500D01*
X117004260Y-91750500D01*
X117099548Y-91769454D01*
X117180330Y-91823430D01*
X118106330Y-92749430D01*
X118160306Y-92830212D01*
X118179260Y-92925500D01*
X118160306Y-93020788D01*
X118106330Y-93101570D01*
X118025548Y-93155546D01*
X117930260Y-93174500D01*
X114997586Y-93174500D01*
X114902298Y-93155546D01*
X114821516Y-93101570D01*
X114473429Y-92753483D01*
X114419453Y-92672701D01*
X114400499Y-92577413D01*
X114400499Y-92049499D01*
X114419453Y-91954211D01*
X114473429Y-91873429D01*
X114554211Y-91819453D01*
X114649499Y-91800499D01*
X114652118Y-91800499D01*
X114652127Y-91800500D01*
X116147872Y-91800499D01*
X116207483Y-91794091D01*
X116342331Y-91743796D01*
X116430508Y-91677786D01*
X116518145Y-91635856D01*
X116615160Y-91630654D01*
X116706478Y-91662795D01*
G37*
%TD.AperFunction*%
%TA.AperFunction,Conductor*%
G36*
X117870000Y-78330635D02*
G01*
X118083488Y-78273431D01*
X118297576Y-78173600D01*
X118491076Y-78038110D01*
X118658111Y-77871075D01*
X118685724Y-77831640D01*
X118755905Y-77764456D01*
X118846454Y-77729242D01*
X118943586Y-77731361D01*
X119032513Y-77770489D01*
X119093662Y-77831638D01*
X119121501Y-77871396D01*
X119121505Y-77871401D01*
X119288599Y-78038495D01*
X119403321Y-78118824D01*
X119470504Y-78189004D01*
X119505717Y-78279553D01*
X119509500Y-78322792D01*
X119509500Y-82774069D01*
X119529478Y-82874499D01*
X119529480Y-82874508D01*
X119534498Y-82899742D01*
X119583535Y-83018127D01*
X119654723Y-83124669D01*
X124614070Y-88084016D01*
X124668046Y-88164798D01*
X124687000Y-88260086D01*
X124687000Y-89125500D01*
X124668046Y-89220788D01*
X124614070Y-89301570D01*
X124533288Y-89355546D01*
X124438000Y-89374500D01*
X124224779Y-89374500D01*
X124112267Y-89389312D01*
X124112264Y-89389312D01*
X124112264Y-89389313D01*
X124081208Y-89402177D01*
X123972264Y-89447303D01*
X123852053Y-89539544D01*
X123852044Y-89539553D01*
X123759803Y-89659764D01*
X123736957Y-89714920D01*
X123718301Y-89759960D01*
X123701812Y-89799767D01*
X123687000Y-89912278D01*
X123687000Y-90473566D01*
X123682215Y-90522145D01*
X123674500Y-90560928D01*
X123674500Y-91125500D01*
X123655546Y-91220788D01*
X123601570Y-91301570D01*
X123520788Y-91355546D01*
X123425500Y-91374500D01*
X122962443Y-91374500D01*
X122867155Y-91355546D01*
X122786373Y-91301570D01*
X122732397Y-91220788D01*
X122713443Y-91125500D01*
X122732397Y-91030212D01*
X122786370Y-90949433D01*
X122845117Y-90890687D01*
X122927494Y-90751395D01*
X122972643Y-90595993D01*
X122975500Y-90559690D01*
X122975500Y-90090310D01*
X122972643Y-90054007D01*
X122927494Y-89898605D01*
X122914569Y-89876751D01*
X122882378Y-89785085D01*
X122887717Y-89688077D01*
X122914570Y-89623248D01*
X122918658Y-89616335D01*
X122927494Y-89601395D01*
X122972643Y-89445993D01*
X122975500Y-89409690D01*
X122975500Y-88940310D01*
X122972643Y-88904007D01*
X122927494Y-88748605D01*
X122845117Y-88609313D01*
X122730687Y-88494883D01*
X122591395Y-88412506D01*
X122435993Y-88367357D01*
X122435990Y-88367356D01*
X122399698Y-88364500D01*
X122399690Y-88364500D01*
X121990310Y-88364500D01*
X121990301Y-88364500D01*
X121954009Y-88367356D01*
X121954006Y-88367357D01*
X121918052Y-88377803D01*
X121798605Y-88412506D01*
X121798603Y-88412506D01*
X121798603Y-88412507D01*
X121659314Y-88494882D01*
X121544882Y-88609314D01*
X121482743Y-88714386D01*
X121462506Y-88748605D01*
X121444669Y-88810000D01*
X121417357Y-88904006D01*
X121417356Y-88904009D01*
X121414500Y-88940301D01*
X121414500Y-89409698D01*
X121417356Y-89445990D01*
X121417357Y-89445993D01*
X121462506Y-89601395D01*
X121462507Y-89601396D01*
X121462506Y-89601396D01*
X121475432Y-89623252D01*
X121507622Y-89714920D01*
X121502281Y-89811928D01*
X121475432Y-89876748D01*
X121462506Y-89898603D01*
X121456285Y-89912982D01*
X121454586Y-89912247D01*
X121418781Y-89981180D01*
X121344412Y-90043697D01*
X121251780Y-90072996D01*
X121224450Y-90074500D01*
X121049500Y-90074500D01*
X120954212Y-90055546D01*
X120873430Y-90001570D01*
X120819454Y-89920788D01*
X120800500Y-89825500D01*
X120800500Y-88460930D01*
X120800499Y-88460928D01*
X120799974Y-88458291D01*
X120775501Y-88335256D01*
X120745750Y-88263430D01*
X120726467Y-88216877D01*
X120726464Y-88216872D01*
X120725042Y-88214744D01*
X120655276Y-88110331D01*
X120624331Y-88079386D01*
X120564669Y-88019723D01*
X120564669Y-88019724D01*
X113263430Y-80718484D01*
X113209454Y-80637702D01*
X113190500Y-80542414D01*
X113190500Y-78322792D01*
X113209454Y-78227504D01*
X113263430Y-78146722D01*
X113296675Y-78118826D01*
X113411401Y-78038495D01*
X113578495Y-77871401D01*
X113606032Y-77832074D01*
X113676211Y-77764891D01*
X113766760Y-77729678D01*
X113863892Y-77731797D01*
X113952819Y-77770925D01*
X114013967Y-77832073D01*
X114041505Y-77871401D01*
X114208599Y-78038495D01*
X114402170Y-78174035D01*
X114616337Y-78273903D01*
X114844592Y-78335063D01*
X114844595Y-78335063D01*
X114844598Y-78335064D01*
X115079995Y-78355659D01*
X115080000Y-78355659D01*
X115080005Y-78355659D01*
X115315401Y-78335064D01*
X115315403Y-78335063D01*
X115315408Y-78335063D01*
X115543663Y-78273903D01*
X115757830Y-78174035D01*
X115951401Y-78038495D01*
X116118495Y-77871401D01*
X116146337Y-77831637D01*
X116216515Y-77764456D01*
X116307064Y-77729242D01*
X116404196Y-77731361D01*
X116493124Y-77770489D01*
X116554273Y-77831637D01*
X116581888Y-77871075D01*
X116748923Y-78038110D01*
X116942423Y-78173600D01*
X117156511Y-78273431D01*
X117370000Y-78330635D01*
X117370000Y-77433012D01*
X117427007Y-77465925D01*
X117554174Y-77500000D01*
X117685826Y-77500000D01*
X117812993Y-77465925D01*
X117870000Y-77433012D01*
X117870000Y-78330635D01*
G37*
%TD.AperFunction*%
%TA.AperFunction,Conductor*%
G36*
X112040595Y-85669454D02*
G01*
X112121377Y-85723430D01*
X115572377Y-89174430D01*
X115626353Y-89255212D01*
X115645307Y-89350500D01*
X115626353Y-89445788D01*
X115572377Y-89526570D01*
X115491595Y-89580546D01*
X115396307Y-89599500D01*
X114652134Y-89599500D01*
X114652130Y-89599500D01*
X114652128Y-89599501D01*
X114639625Y-89600845D01*
X114592519Y-89605908D01*
X114592515Y-89605909D01*
X114457670Y-89656203D01*
X114342455Y-89742453D01*
X114342453Y-89742455D01*
X114256204Y-89857669D01*
X114205908Y-89992518D01*
X114199500Y-90052123D01*
X114199500Y-91050500D01*
X114180546Y-91145788D01*
X114126570Y-91226570D01*
X114045788Y-91280546D01*
X113950500Y-91299500D01*
X112452134Y-91299500D01*
X112452130Y-91299500D01*
X112452128Y-91299501D01*
X112432881Y-91301570D01*
X112392514Y-91305909D01*
X112371359Y-91313800D01*
X112284342Y-91329500D01*
X111958158Y-91329500D01*
X111862870Y-91310546D01*
X111831407Y-91294825D01*
X111806388Y-91280029D01*
X111751395Y-91247506D01*
X111595993Y-91202357D01*
X111595990Y-91202356D01*
X111559698Y-91199500D01*
X111559690Y-91199500D01*
X111090310Y-91199500D01*
X111090301Y-91199500D01*
X111054009Y-91202356D01*
X111054006Y-91202357D01*
X110990568Y-91220788D01*
X110898605Y-91247506D01*
X110898603Y-91247507D01*
X110898602Y-91247507D01*
X110817898Y-91295235D01*
X110726231Y-91327425D01*
X110629223Y-91322086D01*
X110541642Y-91280029D01*
X110515079Y-91256979D01*
X106292823Y-87034723D01*
X106186281Y-86963534D01*
X106081874Y-86920288D01*
X106067898Y-86914499D01*
X106067896Y-86914498D01*
X106067895Y-86914498D01*
X105942225Y-86889500D01*
X105942223Y-86889500D01*
X103322792Y-86889500D01*
X103227504Y-86870546D01*
X103146722Y-86816570D01*
X103118823Y-86783320D01*
X103081290Y-86729717D01*
X103038495Y-86668599D01*
X103038490Y-86668594D01*
X103035151Y-86664614D01*
X103033147Y-86660962D01*
X103032259Y-86659693D01*
X103032398Y-86659595D01*
X102988423Y-86579434D01*
X102977848Y-86482857D01*
X103005037Y-86389584D01*
X103065850Y-86313815D01*
X103078571Y-86305135D01*
X103078073Y-86304469D01*
X103092329Y-86293796D01*
X103092331Y-86293796D01*
X103207546Y-86207546D01*
X103293796Y-86092331D01*
X103344091Y-85957483D01*
X103350500Y-85897873D01*
X103350500Y-85897857D01*
X103350857Y-85891212D01*
X103352134Y-85891280D01*
X103369454Y-85804212D01*
X103423430Y-85723430D01*
X103504212Y-85669454D01*
X103599500Y-85650500D01*
X111945307Y-85650500D01*
X112040595Y-85669454D01*
G37*
%TD.AperFunction*%
%TA.AperFunction,Conductor*%
G36*
X141761581Y-87001968D02*
G01*
X141849221Y-87043899D01*
X141899333Y-87094011D01*
X141982454Y-87205046D01*
X142097669Y-87291296D01*
X142232517Y-87341591D01*
X142292127Y-87348000D01*
X142828550Y-87347999D01*
X142923837Y-87366953D01*
X143004618Y-87420929D01*
X143058595Y-87501710D01*
X143077549Y-87596999D01*
X143058595Y-87692287D01*
X143044190Y-87721498D01*
X142968752Y-87852161D01*
X142968750Y-87852165D01*
X142956723Y-87889181D01*
X142913502Y-88022197D01*
X142894815Y-88200000D01*
X142913502Y-88377802D01*
X142936420Y-88448334D01*
X142968750Y-88547835D01*
X142968751Y-88547836D01*
X143058144Y-88702671D01*
X143059215Y-88704144D01*
X143060085Y-88706032D01*
X143064666Y-88713966D01*
X143063936Y-88714386D01*
X143099889Y-88792375D01*
X143103702Y-88889455D01*
X143070074Y-88980605D01*
X143004124Y-89051947D01*
X142915893Y-89092621D01*
X142857768Y-89099500D01*
X140200016Y-89099500D01*
X140104728Y-89080546D01*
X140023946Y-89026570D01*
X139969970Y-88945788D01*
X139963203Y-88927447D01*
X139955195Y-88902803D01*
X139906250Y-88752165D01*
X139816859Y-88597335D01*
X139816857Y-88597333D01*
X139810334Y-88586034D01*
X139813157Y-88584403D01*
X139782369Y-88517583D01*
X139775500Y-88459503D01*
X139775500Y-87596999D01*
X139794454Y-87501711D01*
X139848430Y-87420929D01*
X139929212Y-87366953D01*
X140024500Y-87347999D01*
X141107866Y-87347999D01*
X141107872Y-87347999D01*
X141167483Y-87341591D01*
X141302331Y-87291296D01*
X141417546Y-87205046D01*
X141500666Y-87094011D01*
X141572944Y-87029089D01*
X141664565Y-86996767D01*
X141761581Y-87001968D01*
G37*
%TD.AperFunction*%
%TA.AperFunction,Conductor*%
G36*
X136707714Y-82158902D02*
G01*
X136788496Y-82212878D01*
X136842472Y-82293660D01*
X136861426Y-82388948D01*
X136856642Y-82437524D01*
X136849500Y-82473430D01*
X136849500Y-82884503D01*
X136830546Y-82979791D01*
X136813447Y-83010330D01*
X136814666Y-83011034D01*
X136718751Y-83177163D01*
X136663502Y-83347197D01*
X136644815Y-83525000D01*
X136663502Y-83702802D01*
X136690860Y-83786999D01*
X136718750Y-83872835D01*
X136738862Y-83907670D01*
X136808143Y-84027668D01*
X136875187Y-84102127D01*
X136927770Y-84160526D01*
X137000088Y-84213069D01*
X137072404Y-84265610D01*
X137072409Y-84265613D01*
X137235727Y-84338327D01*
X137235730Y-84338327D01*
X137235733Y-84338329D01*
X137410609Y-84375500D01*
X137428414Y-84375500D01*
X137523702Y-84394454D01*
X137604484Y-84448430D01*
X137658460Y-84529212D01*
X137677414Y-84624500D01*
X137658460Y-84719788D01*
X137604484Y-84800570D01*
X134378484Y-88026570D01*
X134297702Y-88080546D01*
X134202414Y-88099500D01*
X133993369Y-88099500D01*
X133922811Y-88105912D01*
X133922803Y-88105914D01*
X133848574Y-88129044D01*
X133751962Y-88139295D01*
X133658780Y-88111794D01*
X133583216Y-88050727D01*
X133536773Y-87965391D01*
X133525500Y-87891317D01*
X133525500Y-87393390D01*
X133525499Y-87393369D01*
X133519087Y-87322811D01*
X133519086Y-87322808D01*
X133519086Y-87322804D01*
X133468478Y-87160394D01*
X133468477Y-87160393D01*
X133468477Y-87160391D01*
X133398054Y-87043899D01*
X133380472Y-87014815D01*
X133366723Y-87001066D01*
X133312750Y-86920288D01*
X133293796Y-86825000D01*
X133312750Y-86729712D01*
X133366723Y-86648933D01*
X133380472Y-86635185D01*
X133468478Y-86489606D01*
X133519086Y-86327196D01*
X133519817Y-86319160D01*
X133525499Y-86256630D01*
X133525500Y-86256609D01*
X133525500Y-85743390D01*
X133525499Y-85743369D01*
X133519087Y-85672811D01*
X133519086Y-85672809D01*
X133519086Y-85672804D01*
X133509587Y-85642321D01*
X133499335Y-85545713D01*
X133526834Y-85452531D01*
X133587899Y-85376966D01*
X133600954Y-85366801D01*
X133602586Y-85365614D01*
X133602593Y-85365612D01*
X133747230Y-85260526D01*
X133866859Y-85127665D01*
X133956250Y-84972835D01*
X134011497Y-84802803D01*
X134021667Y-84706041D01*
X134050476Y-84613260D01*
X134093228Y-84556005D01*
X136436358Y-82212876D01*
X136517138Y-82158902D01*
X136612426Y-82139948D01*
X136707714Y-82158902D01*
G37*
%TD.AperFunction*%
%TD*%
M02*
